G04 #@! TF.GenerationSoftware,KiCad,Pcbnew,(5.1.5)-3*
G04 #@! TF.CreationDate,2021-02-22T14:13:44+02:00*
G04 #@! TF.ProjectId,Waveform Generator,57617665-666f-4726-9d20-47656e657261,rev?*
G04 #@! TF.SameCoordinates,Original*
G04 #@! TF.FileFunction,Legend,Top*
G04 #@! TF.FilePolarity,Positive*
%FSLAX46Y46*%
G04 Gerber Fmt 4.6, Leading zero omitted, Abs format (unit mm)*
G04 Created by KiCad (PCBNEW (5.1.5)-3) date 2021-02-22 14:13:44*
%MOMM*%
%LPD*%
G04 APERTURE LIST*
%ADD10C,0.700000*%
%ADD11C,0.120000*%
%ADD12C,0.100000*%
%ADD13C,0.150000*%
G04 APERTURE END LIST*
D10*
X41700000Y-56000000D02*
G75*
G03X41700000Y-56000000I0J0D01*
G01*
X72950000Y-61800000D02*
G75*
G03X72950000Y-61800000I0J0D01*
G01*
X70800000Y-72100000D02*
G75*
G03X70800000Y-72100000I0J0D01*
G01*
X66400000Y-92650000D02*
G75*
G03X66400000Y-92650000I0J0D01*
G01*
X75300000Y-79400000D02*
G75*
G03X75300000Y-79400000I0J0D01*
G01*
X57200000Y-79050000D02*
G75*
G03X57200000Y-79050000I0J0D01*
G01*
X41700000Y-88300000D02*
G75*
G03X41700000Y-88300000I0J0D01*
G01*
X41100000Y-52600000D02*
G75*
G03X41100000Y-52600000I0J0D01*
G01*
X43900000Y-43050000D02*
G75*
G03X43900000Y-43050000I0J0D01*
G01*
X47050000Y-32900000D02*
G75*
G03X47050000Y-32900000I0J0D01*
G01*
X82550000Y-34350000D02*
G75*
G03X82550000Y-34350000I0J0D01*
G01*
D11*
X82773607Y-34400000D02*
G75*
G03X82773607Y-34400000I-223607J0D01*
G01*
X47323607Y-32900000D02*
G75*
G03X47323607Y-32900000I-223607J0D01*
G01*
X75473607Y-79350000D02*
G75*
G03X75473607Y-79350000I-223607J0D01*
G01*
X57423607Y-78950000D02*
G75*
G03X57423607Y-78950000I-223607J0D01*
G01*
D10*
X52400000Y-53450000D02*
G75*
G03X52400000Y-53450000I0J0D01*
G01*
D12*
X42233333Y-10150000D02*
X42300000Y-10183333D01*
X42400000Y-10183333D01*
X42500000Y-10150000D01*
X42566666Y-10083333D01*
X42600000Y-10016666D01*
X42633333Y-9883333D01*
X42633333Y-9783333D01*
X42600000Y-9650000D01*
X42566666Y-9583333D01*
X42500000Y-9516666D01*
X42400000Y-9483333D01*
X42333333Y-9483333D01*
X42233333Y-9516666D01*
X42200000Y-9550000D01*
X42200000Y-9783333D01*
X42333333Y-9783333D01*
X41900000Y-9483333D02*
X41900000Y-10183333D01*
X41500000Y-9483333D01*
X41500000Y-10183333D01*
X41166666Y-9483333D02*
X41166666Y-10183333D01*
X41000000Y-10183333D01*
X40900000Y-10150000D01*
X40833333Y-10083333D01*
X40800000Y-10016666D01*
X40766666Y-9883333D01*
X40766666Y-9783333D01*
X40800000Y-9650000D01*
X40833333Y-9583333D01*
X40900000Y-9516666D01*
X41000000Y-9483333D01*
X41166666Y-9483333D01*
X37433333Y-10116666D02*
X37400000Y-10150000D01*
X37333333Y-10183333D01*
X37166666Y-10183333D01*
X37100000Y-10150000D01*
X37066666Y-10116666D01*
X37033333Y-10050000D01*
X37033333Y-9983333D01*
X37066666Y-9883333D01*
X37466666Y-9483333D01*
X37033333Y-9483333D01*
X36433333Y-9950000D02*
X36433333Y-9483333D01*
X36600000Y-10216666D02*
X36766666Y-9716666D01*
X36333333Y-9716666D01*
X36166666Y-10183333D02*
X35933333Y-9483333D01*
X35700000Y-10183333D01*
D13*
X58142857Y-47904761D02*
X58285714Y-47952380D01*
X58523809Y-47952380D01*
X58619047Y-47904761D01*
X58666666Y-47857142D01*
X58714285Y-47761904D01*
X58714285Y-47666666D01*
X58666666Y-47571428D01*
X58619047Y-47523809D01*
X58523809Y-47476190D01*
X58333333Y-47428571D01*
X58238095Y-47380952D01*
X58190476Y-47333333D01*
X58142857Y-47238095D01*
X58142857Y-47142857D01*
X58190476Y-47047619D01*
X58238095Y-47000000D01*
X58333333Y-46952380D01*
X58571428Y-46952380D01*
X58714285Y-47000000D01*
X59047619Y-46952380D02*
X59285714Y-47952380D01*
X59476190Y-47238095D01*
X59666666Y-47952380D01*
X59904761Y-46952380D01*
X60285714Y-47952380D02*
X60285714Y-46952380D01*
X60523809Y-46952380D01*
X60666666Y-47000000D01*
X60761904Y-47095238D01*
X60809523Y-47190476D01*
X60857142Y-47380952D01*
X60857142Y-47523809D01*
X60809523Y-47714285D01*
X60761904Y-47809523D01*
X60666666Y-47904761D01*
X60523809Y-47952380D01*
X60285714Y-47952380D01*
D11*
X93093333Y-48917333D02*
X93093333Y-49350666D01*
X92826666Y-49117333D01*
X92826666Y-49217333D01*
X92793333Y-49284000D01*
X92760000Y-49317333D01*
X92693333Y-49350666D01*
X92526666Y-49350666D01*
X92460000Y-49317333D01*
X92426666Y-49284000D01*
X92393333Y-49217333D01*
X92393333Y-49017333D01*
X92426666Y-48950666D01*
X92460000Y-48917333D01*
X93093333Y-49550666D02*
X92393333Y-49784000D01*
X93093333Y-50017333D01*
X93093333Y-50184000D02*
X93093333Y-50617333D01*
X92826666Y-50384000D01*
X92826666Y-50484000D01*
X92793333Y-50550666D01*
X92760000Y-50584000D01*
X92693333Y-50617333D01*
X92526666Y-50617333D01*
X92460000Y-50584000D01*
X92426666Y-50550666D01*
X92393333Y-50484000D01*
X92393333Y-50284000D01*
X92426666Y-50217333D01*
X92460000Y-50184000D01*
X93093333Y-38757333D02*
X93093333Y-39190666D01*
X92826666Y-38957333D01*
X92826666Y-39057333D01*
X92793333Y-39124000D01*
X92760000Y-39157333D01*
X92693333Y-39190666D01*
X92526666Y-39190666D01*
X92460000Y-39157333D01*
X92426666Y-39124000D01*
X92393333Y-39057333D01*
X92393333Y-38857333D01*
X92426666Y-38790666D01*
X92460000Y-38757333D01*
X93093333Y-39390666D02*
X92393333Y-39624000D01*
X93093333Y-39857333D01*
X93093333Y-40024000D02*
X93093333Y-40457333D01*
X92826666Y-40224000D01*
X92826666Y-40324000D01*
X92793333Y-40390666D01*
X92760000Y-40424000D01*
X92693333Y-40457333D01*
X92526666Y-40457333D01*
X92460000Y-40424000D01*
X92426666Y-40390666D01*
X92393333Y-40324000D01*
X92393333Y-40124000D01*
X92426666Y-40057333D01*
X92460000Y-40024000D01*
X93060000Y-43408666D02*
X93093333Y-43342000D01*
X93093333Y-43242000D01*
X93060000Y-43142000D01*
X92993333Y-43075333D01*
X92926666Y-43042000D01*
X92793333Y-43008666D01*
X92693333Y-43008666D01*
X92560000Y-43042000D01*
X92493333Y-43075333D01*
X92426666Y-43142000D01*
X92393333Y-43242000D01*
X92393333Y-43308666D01*
X92426666Y-43408666D01*
X92460000Y-43442000D01*
X92693333Y-43442000D01*
X92693333Y-43308666D01*
X92393333Y-43742000D02*
X93093333Y-43742000D01*
X92393333Y-44142000D01*
X93093333Y-44142000D01*
X92393333Y-44475333D02*
X93093333Y-44475333D01*
X93093333Y-44642000D01*
X93060000Y-44742000D01*
X92993333Y-44808666D01*
X92926666Y-44842000D01*
X92793333Y-44875333D01*
X92693333Y-44875333D01*
X92560000Y-44842000D01*
X92493333Y-44808666D01*
X92426666Y-44742000D01*
X92393333Y-44642000D01*
X92393333Y-44475333D01*
X93060000Y-32994666D02*
X93093333Y-32928000D01*
X93093333Y-32828000D01*
X93060000Y-32728000D01*
X92993333Y-32661333D01*
X92926666Y-32628000D01*
X92793333Y-32594666D01*
X92693333Y-32594666D01*
X92560000Y-32628000D01*
X92493333Y-32661333D01*
X92426666Y-32728000D01*
X92393333Y-32828000D01*
X92393333Y-32894666D01*
X92426666Y-32994666D01*
X92460000Y-33028000D01*
X92693333Y-33028000D01*
X92693333Y-32894666D01*
X92393333Y-33328000D02*
X93093333Y-33328000D01*
X92393333Y-33728000D01*
X93093333Y-33728000D01*
X92393333Y-34061333D02*
X93093333Y-34061333D01*
X93093333Y-34228000D01*
X93060000Y-34328000D01*
X92993333Y-34394666D01*
X92926666Y-34428000D01*
X92793333Y-34461333D01*
X92693333Y-34461333D01*
X92560000Y-34428000D01*
X92493333Y-34394666D01*
X92426666Y-34328000D01*
X92393333Y-34228000D01*
X92393333Y-34061333D01*
X80159333Y-10792666D02*
X80592666Y-10792666D01*
X80359333Y-11059333D01*
X80459333Y-11059333D01*
X80526000Y-11092666D01*
X80559333Y-11126000D01*
X80592666Y-11192666D01*
X80592666Y-11359333D01*
X80559333Y-11426000D01*
X80526000Y-11459333D01*
X80459333Y-11492666D01*
X80259333Y-11492666D01*
X80192666Y-11459333D01*
X80159333Y-11426000D01*
X80792666Y-10792666D02*
X81026000Y-11492666D01*
X81259333Y-10792666D01*
X81426000Y-10792666D02*
X81859333Y-10792666D01*
X81626000Y-11059333D01*
X81726000Y-11059333D01*
X81792666Y-11092666D01*
X81826000Y-11126000D01*
X81859333Y-11192666D01*
X81859333Y-11359333D01*
X81826000Y-11426000D01*
X81792666Y-11459333D01*
X81726000Y-11492666D01*
X81526000Y-11492666D01*
X81459333Y-11459333D01*
X81426000Y-11426000D01*
X75142000Y-11492666D02*
X75142000Y-10792666D01*
X75542000Y-11492666D01*
X75542000Y-10792666D01*
X76275333Y-11426000D02*
X76242000Y-11459333D01*
X76142000Y-11492666D01*
X76075333Y-11492666D01*
X75975333Y-11459333D01*
X75908666Y-11392666D01*
X75875333Y-11326000D01*
X75842000Y-11192666D01*
X75842000Y-11092666D01*
X75875333Y-10959333D01*
X75908666Y-10892666D01*
X75975333Y-10826000D01*
X76075333Y-10792666D01*
X76142000Y-10792666D01*
X76242000Y-10826000D01*
X76275333Y-10859333D01*
X93816666Y-63750000D02*
X94383333Y-63750000D01*
X94450000Y-63716666D01*
X94483333Y-63683333D01*
X94516666Y-63616666D01*
X94516666Y-63483333D01*
X94483333Y-63416666D01*
X94450000Y-63383333D01*
X94383333Y-63350000D01*
X93816666Y-63350000D01*
X94483333Y-63050000D02*
X94516666Y-62950000D01*
X94516666Y-62783333D01*
X94483333Y-62716666D01*
X94450000Y-62683333D01*
X94383333Y-62650000D01*
X94316666Y-62650000D01*
X94250000Y-62683333D01*
X94216666Y-62716666D01*
X94183333Y-62783333D01*
X94150000Y-62916666D01*
X94116666Y-62983333D01*
X94083333Y-63016666D01*
X94016666Y-63050000D01*
X93950000Y-63050000D01*
X93883333Y-63016666D01*
X93850000Y-62983333D01*
X93816666Y-62916666D01*
X93816666Y-62750000D01*
X93850000Y-62650000D01*
X94316666Y-62383333D02*
X94316666Y-62050000D01*
X94516666Y-62450000D02*
X93816666Y-62216666D01*
X94516666Y-61983333D01*
X94516666Y-61350000D02*
X94183333Y-61583333D01*
X94516666Y-61750000D02*
X93816666Y-61750000D01*
X93816666Y-61483333D01*
X93850000Y-61416666D01*
X93883333Y-61383333D01*
X93950000Y-61350000D01*
X94050000Y-61350000D01*
X94116666Y-61383333D01*
X94150000Y-61416666D01*
X94183333Y-61483333D01*
X94183333Y-61750000D01*
X93816666Y-61150000D02*
X93816666Y-60750000D01*
X94516666Y-60950000D02*
X93816666Y-60950000D01*
X94516666Y-60150000D02*
X94516666Y-60550000D01*
X94516666Y-60350000D02*
X93816666Y-60350000D01*
X93916666Y-60416666D01*
X93983333Y-60483333D01*
X94016666Y-60550000D01*
X94583333Y-60016666D02*
X94583333Y-59483333D01*
X93816666Y-59416666D02*
X93816666Y-59016666D01*
X94516666Y-59216666D02*
X93816666Y-59216666D01*
X93816666Y-58850000D02*
X94516666Y-58383333D01*
X93816666Y-58383333D02*
X94516666Y-58850000D01*
X93850666Y-70333333D02*
X94417333Y-70333333D01*
X94484000Y-70300000D01*
X94517333Y-70266666D01*
X94550666Y-70200000D01*
X94550666Y-70066666D01*
X94517333Y-70000000D01*
X94484000Y-69966666D01*
X94417333Y-69933333D01*
X93850666Y-69933333D01*
X94517333Y-69633333D02*
X94550666Y-69533333D01*
X94550666Y-69366666D01*
X94517333Y-69300000D01*
X94484000Y-69266666D01*
X94417333Y-69233333D01*
X94350666Y-69233333D01*
X94284000Y-69266666D01*
X94250666Y-69300000D01*
X94217333Y-69366666D01*
X94184000Y-69500000D01*
X94150666Y-69566666D01*
X94117333Y-69600000D01*
X94050666Y-69633333D01*
X93984000Y-69633333D01*
X93917333Y-69600000D01*
X93884000Y-69566666D01*
X93850666Y-69500000D01*
X93850666Y-69333333D01*
X93884000Y-69233333D01*
X94350666Y-68966666D02*
X94350666Y-68633333D01*
X94550666Y-69033333D02*
X93850666Y-68800000D01*
X94550666Y-68566666D01*
X94550666Y-67933333D02*
X94217333Y-68166666D01*
X94550666Y-68333333D02*
X93850666Y-68333333D01*
X93850666Y-68066666D01*
X93884000Y-68000000D01*
X93917333Y-67966666D01*
X93984000Y-67933333D01*
X94084000Y-67933333D01*
X94150666Y-67966666D01*
X94184000Y-68000000D01*
X94217333Y-68066666D01*
X94217333Y-68333333D01*
X93850666Y-67733333D02*
X93850666Y-67333333D01*
X94550666Y-67533333D02*
X93850666Y-67533333D01*
X94550666Y-66733333D02*
X94550666Y-67133333D01*
X94550666Y-66933333D02*
X93850666Y-66933333D01*
X93950666Y-67000000D01*
X94017333Y-67066666D01*
X94050666Y-67133333D01*
X94617333Y-66600000D02*
X94617333Y-66066666D01*
X94550666Y-65500000D02*
X94217333Y-65733333D01*
X94550666Y-65900000D02*
X93850666Y-65900000D01*
X93850666Y-65633333D01*
X93884000Y-65566666D01*
X93917333Y-65533333D01*
X93984000Y-65500000D01*
X94084000Y-65500000D01*
X94150666Y-65533333D01*
X94184000Y-65566666D01*
X94217333Y-65633333D01*
X94217333Y-65900000D01*
X93850666Y-65266666D02*
X94550666Y-64800000D01*
X93850666Y-64800000D02*
X94550666Y-65266666D01*
X93850666Y-81918666D02*
X93850666Y-81518666D01*
X94550666Y-81718666D02*
X93850666Y-81718666D01*
X94550666Y-81285333D02*
X93850666Y-81285333D01*
X94550666Y-80952000D02*
X93850666Y-80952000D01*
X94350666Y-80718666D01*
X93850666Y-80485333D01*
X94550666Y-80485333D01*
X94550666Y-79785333D02*
X94550666Y-80185333D01*
X94550666Y-79985333D02*
X93850666Y-79985333D01*
X93950666Y-80052000D01*
X94017333Y-80118666D01*
X94050666Y-80185333D01*
X94617333Y-79652000D02*
X94617333Y-79118666D01*
X94484000Y-78552000D02*
X94517333Y-78585333D01*
X94550666Y-78685333D01*
X94550666Y-78752000D01*
X94517333Y-78852000D01*
X94450666Y-78918666D01*
X94384000Y-78952000D01*
X94250666Y-78985333D01*
X94150666Y-78985333D01*
X94017333Y-78952000D01*
X93950666Y-78918666D01*
X93884000Y-78852000D01*
X93850666Y-78752000D01*
X93850666Y-78685333D01*
X93884000Y-78585333D01*
X93917333Y-78552000D01*
X94550666Y-78252000D02*
X93850666Y-78252000D01*
X94184000Y-78252000D02*
X94184000Y-77852000D01*
X94550666Y-77852000D02*
X93850666Y-77852000D01*
X94550666Y-77152000D02*
X94550666Y-77552000D01*
X94550666Y-77352000D02*
X93850666Y-77352000D01*
X93950666Y-77418666D01*
X94017333Y-77485333D01*
X94050666Y-77552000D01*
X93850666Y-98936666D02*
X93850666Y-98536666D01*
X94550666Y-98736666D02*
X93850666Y-98736666D01*
X94550666Y-98303333D02*
X93850666Y-98303333D01*
X94550666Y-97970000D02*
X93850666Y-97970000D01*
X94350666Y-97736666D01*
X93850666Y-97503333D01*
X94550666Y-97503333D01*
X93850666Y-97236666D02*
X93850666Y-96803333D01*
X94117333Y-97036666D01*
X94117333Y-96936666D01*
X94150666Y-96870000D01*
X94184000Y-96836666D01*
X94250666Y-96803333D01*
X94417333Y-96803333D01*
X94484000Y-96836666D01*
X94517333Y-96870000D01*
X94550666Y-96936666D01*
X94550666Y-97136666D01*
X94517333Y-97203333D01*
X94484000Y-97236666D01*
X94617333Y-96670000D02*
X94617333Y-96136666D01*
X94484000Y-95570000D02*
X94517333Y-95603333D01*
X94550666Y-95703333D01*
X94550666Y-95770000D01*
X94517333Y-95870000D01*
X94450666Y-95936666D01*
X94384000Y-95970000D01*
X94250666Y-96003333D01*
X94150666Y-96003333D01*
X94017333Y-95970000D01*
X93950666Y-95936666D01*
X93884000Y-95870000D01*
X93850666Y-95770000D01*
X93850666Y-95703333D01*
X93884000Y-95603333D01*
X93917333Y-95570000D01*
X94550666Y-95270000D02*
X93850666Y-95270000D01*
X94184000Y-95270000D02*
X94184000Y-94870000D01*
X94550666Y-94870000D02*
X93850666Y-94870000D01*
X94550666Y-94170000D02*
X94550666Y-94570000D01*
X94550666Y-94370000D02*
X93850666Y-94370000D01*
X93950666Y-94436666D01*
X94017333Y-94503333D01*
X94050666Y-94570000D01*
X93850666Y-56550666D02*
X93850666Y-56117333D01*
X94117333Y-56350666D01*
X94117333Y-56250666D01*
X94150666Y-56184000D01*
X94184000Y-56150666D01*
X94250666Y-56117333D01*
X94417333Y-56117333D01*
X94484000Y-56150666D01*
X94517333Y-56184000D01*
X94550666Y-56250666D01*
X94550666Y-56450666D01*
X94517333Y-56517333D01*
X94484000Y-56550666D01*
X93850666Y-55917333D02*
X94550666Y-55684000D01*
X93850666Y-55450666D01*
X93850666Y-55284000D02*
X93850666Y-54850666D01*
X94117333Y-55084000D01*
X94117333Y-54984000D01*
X94150666Y-54917333D01*
X94184000Y-54884000D01*
X94250666Y-54850666D01*
X94417333Y-54850666D01*
X94484000Y-54884000D01*
X94517333Y-54917333D01*
X94550666Y-54984000D01*
X94550666Y-55184000D01*
X94517333Y-55250666D01*
X94484000Y-55284000D01*
X93752666Y-86268666D02*
X93752666Y-85835333D01*
X94019333Y-86068666D01*
X94019333Y-85968666D01*
X94052666Y-85902000D01*
X94086000Y-85868666D01*
X94152666Y-85835333D01*
X94319333Y-85835333D01*
X94386000Y-85868666D01*
X94419333Y-85902000D01*
X94452666Y-85968666D01*
X94452666Y-86168666D01*
X94419333Y-86235333D01*
X94386000Y-86268666D01*
X93752666Y-85635333D02*
X94452666Y-85402000D01*
X93752666Y-85168666D01*
X93752666Y-85002000D02*
X93752666Y-84568666D01*
X94019333Y-84802000D01*
X94019333Y-84702000D01*
X94052666Y-84635333D01*
X94086000Y-84602000D01*
X94152666Y-84568666D01*
X94319333Y-84568666D01*
X94386000Y-84602000D01*
X94419333Y-84635333D01*
X94452666Y-84702000D01*
X94452666Y-84902000D01*
X94419333Y-84968666D01*
X94386000Y-85002000D01*
X93884000Y-73177333D02*
X93850666Y-73244000D01*
X93850666Y-73344000D01*
X93884000Y-73444000D01*
X93950666Y-73510666D01*
X94017333Y-73544000D01*
X94150666Y-73577333D01*
X94250666Y-73577333D01*
X94384000Y-73544000D01*
X94450666Y-73510666D01*
X94517333Y-73444000D01*
X94550666Y-73344000D01*
X94550666Y-73277333D01*
X94517333Y-73177333D01*
X94484000Y-73144000D01*
X94250666Y-73144000D01*
X94250666Y-73277333D01*
X94550666Y-72844000D02*
X93850666Y-72844000D01*
X94550666Y-72444000D01*
X93850666Y-72444000D01*
X94550666Y-72110666D02*
X93850666Y-72110666D01*
X93850666Y-71944000D01*
X93884000Y-71844000D01*
X93950666Y-71777333D01*
X94017333Y-71744000D01*
X94150666Y-71710666D01*
X94250666Y-71710666D01*
X94384000Y-71744000D01*
X94450666Y-71777333D01*
X94517333Y-71844000D01*
X94550666Y-71944000D01*
X94550666Y-72110666D01*
X93900000Y-91715333D02*
X93866666Y-91782000D01*
X93866666Y-91882000D01*
X93900000Y-91982000D01*
X93966666Y-92048666D01*
X94033333Y-92082000D01*
X94166666Y-92115333D01*
X94266666Y-92115333D01*
X94400000Y-92082000D01*
X94466666Y-92048666D01*
X94533333Y-91982000D01*
X94566666Y-91882000D01*
X94566666Y-91815333D01*
X94533333Y-91715333D01*
X94500000Y-91682000D01*
X94266666Y-91682000D01*
X94266666Y-91815333D01*
X94566666Y-91382000D02*
X93866666Y-91382000D01*
X94566666Y-90982000D01*
X93866666Y-90982000D01*
X94566666Y-90648666D02*
X93866666Y-90648666D01*
X93866666Y-90482000D01*
X93900000Y-90382000D01*
X93966666Y-90315333D01*
X94033333Y-90282000D01*
X94166666Y-90248666D01*
X94266666Y-90248666D01*
X94400000Y-90282000D01*
X94466666Y-90315333D01*
X94533333Y-90382000D01*
X94566666Y-90482000D01*
X94566666Y-90648666D01*
X72500000Y-113316666D02*
X72500000Y-112616666D01*
X72666666Y-112616666D01*
X72766666Y-112650000D01*
X72833333Y-112716666D01*
X72866666Y-112783333D01*
X72900000Y-112916666D01*
X72900000Y-113016666D01*
X72866666Y-113150000D01*
X72833333Y-113216666D01*
X72766666Y-113283333D01*
X72666666Y-113316666D01*
X72500000Y-113316666D01*
X73166666Y-113116666D02*
X73500000Y-113116666D01*
X73100000Y-113316666D02*
X73333333Y-112616666D01*
X73566666Y-113316666D01*
X74200000Y-113250000D02*
X74166666Y-113283333D01*
X74066666Y-113316666D01*
X74000000Y-113316666D01*
X73900000Y-113283333D01*
X73833333Y-113216666D01*
X73800000Y-113150000D01*
X73766666Y-113016666D01*
X73766666Y-112916666D01*
X73800000Y-112783333D01*
X73833333Y-112716666D01*
X73900000Y-112650000D01*
X74000000Y-112616666D01*
X74066666Y-112616666D01*
X74166666Y-112650000D01*
X74200000Y-112683333D01*
X74333333Y-113383333D02*
X74866666Y-113383333D01*
X75166666Y-112616666D02*
X75300000Y-112616666D01*
X75366666Y-112650000D01*
X75433333Y-112716666D01*
X75466666Y-112850000D01*
X75466666Y-113083333D01*
X75433333Y-113216666D01*
X75366666Y-113283333D01*
X75300000Y-113316666D01*
X75166666Y-113316666D01*
X75100000Y-113283333D01*
X75033333Y-113216666D01*
X75000000Y-113083333D01*
X75000000Y-112850000D01*
X75033333Y-112716666D01*
X75100000Y-112650000D01*
X75166666Y-112616666D01*
X75766666Y-112616666D02*
X75766666Y-113183333D01*
X75800000Y-113250000D01*
X75833333Y-113283333D01*
X75900000Y-113316666D01*
X76033333Y-113316666D01*
X76100000Y-113283333D01*
X76133333Y-113250000D01*
X76166666Y-113183333D01*
X76166666Y-112616666D01*
X76400000Y-112616666D02*
X76800000Y-112616666D01*
X76600000Y-113316666D02*
X76600000Y-112616666D01*
X76866666Y-113383333D02*
X77400000Y-113383333D01*
X77533333Y-112683333D02*
X77566666Y-112650000D01*
X77633333Y-112616666D01*
X77800000Y-112616666D01*
X77866666Y-112650000D01*
X77900000Y-112683333D01*
X77933333Y-112750000D01*
X77933333Y-112816666D01*
X77900000Y-112916666D01*
X77500000Y-113316666D01*
X77933333Y-113316666D01*
X60800000Y-113316666D02*
X60800000Y-112616666D01*
X60966666Y-112616666D01*
X61066666Y-112650000D01*
X61133333Y-112716666D01*
X61166666Y-112783333D01*
X61200000Y-112916666D01*
X61200000Y-113016666D01*
X61166666Y-113150000D01*
X61133333Y-113216666D01*
X61066666Y-113283333D01*
X60966666Y-113316666D01*
X60800000Y-113316666D01*
X61466666Y-113116666D02*
X61800000Y-113116666D01*
X61400000Y-113316666D02*
X61633333Y-112616666D01*
X61866666Y-113316666D01*
X62500000Y-113250000D02*
X62466666Y-113283333D01*
X62366666Y-113316666D01*
X62300000Y-113316666D01*
X62200000Y-113283333D01*
X62133333Y-113216666D01*
X62100000Y-113150000D01*
X62066666Y-113016666D01*
X62066666Y-112916666D01*
X62100000Y-112783333D01*
X62133333Y-112716666D01*
X62200000Y-112650000D01*
X62300000Y-112616666D01*
X62366666Y-112616666D01*
X62466666Y-112650000D01*
X62500000Y-112683333D01*
X62633333Y-113383333D02*
X63166666Y-113383333D01*
X63466666Y-112616666D02*
X63600000Y-112616666D01*
X63666666Y-112650000D01*
X63733333Y-112716666D01*
X63766666Y-112850000D01*
X63766666Y-113083333D01*
X63733333Y-113216666D01*
X63666666Y-113283333D01*
X63600000Y-113316666D01*
X63466666Y-113316666D01*
X63400000Y-113283333D01*
X63333333Y-113216666D01*
X63300000Y-113083333D01*
X63300000Y-112850000D01*
X63333333Y-112716666D01*
X63400000Y-112650000D01*
X63466666Y-112616666D01*
X64066666Y-112616666D02*
X64066666Y-113183333D01*
X64100000Y-113250000D01*
X64133333Y-113283333D01*
X64200000Y-113316666D01*
X64333333Y-113316666D01*
X64400000Y-113283333D01*
X64433333Y-113250000D01*
X64466666Y-113183333D01*
X64466666Y-112616666D01*
X64700000Y-112616666D02*
X65100000Y-112616666D01*
X64900000Y-113316666D02*
X64900000Y-112616666D01*
X65166666Y-113383333D02*
X65700000Y-113383333D01*
X66233333Y-113316666D02*
X65833333Y-113316666D01*
X66033333Y-113316666D02*
X66033333Y-112616666D01*
X65966666Y-112716666D01*
X65900000Y-112783333D01*
X65833333Y-112816666D01*
X69066666Y-112650000D02*
X69000000Y-112616666D01*
X68900000Y-112616666D01*
X68800000Y-112650000D01*
X68733333Y-112716666D01*
X68700000Y-112783333D01*
X68666666Y-112916666D01*
X68666666Y-113016666D01*
X68700000Y-113150000D01*
X68733333Y-113216666D01*
X68800000Y-113283333D01*
X68900000Y-113316666D01*
X68966666Y-113316666D01*
X69066666Y-113283333D01*
X69100000Y-113250000D01*
X69100000Y-113016666D01*
X68966666Y-113016666D01*
X69400000Y-113316666D02*
X69400000Y-112616666D01*
X69800000Y-113316666D01*
X69800000Y-112616666D01*
X70133333Y-113316666D02*
X70133333Y-112616666D01*
X70300000Y-112616666D01*
X70400000Y-112650000D01*
X70466666Y-112716666D01*
X70500000Y-112783333D01*
X70533333Y-112916666D01*
X70533333Y-113016666D01*
X70500000Y-113150000D01*
X70466666Y-113216666D01*
X70400000Y-113283333D01*
X70300000Y-113316666D01*
X70133333Y-113316666D01*
X57466666Y-112650000D02*
X57400000Y-112616666D01*
X57300000Y-112616666D01*
X57200000Y-112650000D01*
X57133333Y-112716666D01*
X57100000Y-112783333D01*
X57066666Y-112916666D01*
X57066666Y-113016666D01*
X57100000Y-113150000D01*
X57133333Y-113216666D01*
X57200000Y-113283333D01*
X57300000Y-113316666D01*
X57366666Y-113316666D01*
X57466666Y-113283333D01*
X57500000Y-113250000D01*
X57500000Y-113016666D01*
X57366666Y-113016666D01*
X57800000Y-113316666D02*
X57800000Y-112616666D01*
X58200000Y-113316666D01*
X58200000Y-112616666D01*
X58533333Y-113316666D02*
X58533333Y-112616666D01*
X58700000Y-112616666D01*
X58800000Y-112650000D01*
X58866666Y-112716666D01*
X58900000Y-112783333D01*
X58933333Y-112916666D01*
X58933333Y-113016666D01*
X58900000Y-113150000D01*
X58866666Y-113216666D01*
X58800000Y-113283333D01*
X58700000Y-113316666D01*
X58533333Y-113316666D01*
X15783333Y-86466666D02*
X16116666Y-86233333D01*
X15783333Y-86066666D02*
X16483333Y-86066666D01*
X16483333Y-86333333D01*
X16450000Y-86400000D01*
X16416666Y-86433333D01*
X16350000Y-86466666D01*
X16250000Y-86466666D01*
X16183333Y-86433333D01*
X16150000Y-86400000D01*
X16116666Y-86333333D01*
X16116666Y-86066666D01*
X15816666Y-86733333D02*
X15783333Y-86833333D01*
X15783333Y-87000000D01*
X15816666Y-87066666D01*
X15850000Y-87100000D01*
X15916666Y-87133333D01*
X15983333Y-87133333D01*
X16050000Y-87100000D01*
X16083333Y-87066666D01*
X16116666Y-87000000D01*
X16150000Y-86866666D01*
X16183333Y-86800000D01*
X16216666Y-86766666D01*
X16283333Y-86733333D01*
X16350000Y-86733333D01*
X16416666Y-86766666D01*
X16450000Y-86800000D01*
X16483333Y-86866666D01*
X16483333Y-87033333D01*
X16450000Y-87133333D01*
X16250000Y-87733333D02*
X15783333Y-87733333D01*
X16516666Y-87566666D02*
X16016666Y-87400000D01*
X16016666Y-87833333D01*
X16183333Y-88200000D02*
X16216666Y-88133333D01*
X16250000Y-88100000D01*
X16316666Y-88066666D01*
X16350000Y-88066666D01*
X16416666Y-88100000D01*
X16450000Y-88133333D01*
X16483333Y-88200000D01*
X16483333Y-88333333D01*
X16450000Y-88400000D01*
X16416666Y-88433333D01*
X16350000Y-88466666D01*
X16316666Y-88466666D01*
X16250000Y-88433333D01*
X16216666Y-88400000D01*
X16183333Y-88333333D01*
X16183333Y-88200000D01*
X16150000Y-88133333D01*
X16116666Y-88100000D01*
X16050000Y-88066666D01*
X15916666Y-88066666D01*
X15850000Y-88100000D01*
X15816666Y-88133333D01*
X15783333Y-88200000D01*
X15783333Y-88333333D01*
X15816666Y-88400000D01*
X15850000Y-88433333D01*
X15916666Y-88466666D01*
X16050000Y-88466666D01*
X16116666Y-88433333D01*
X16150000Y-88400000D01*
X16183333Y-88333333D01*
X16483333Y-89100000D02*
X16483333Y-88766666D01*
X16150000Y-88733333D01*
X16183333Y-88766666D01*
X16216666Y-88833333D01*
X16216666Y-89000000D01*
X16183333Y-89066666D01*
X16150000Y-89100000D01*
X16083333Y-89133333D01*
X15916666Y-89133333D01*
X15850000Y-89100000D01*
X15816666Y-89066666D01*
X15783333Y-89000000D01*
X15783333Y-88833333D01*
X15816666Y-88766666D01*
X15850000Y-88733333D01*
X15716666Y-89266666D02*
X15716666Y-89800000D01*
X16150000Y-90200000D02*
X16116666Y-90300000D01*
X16083333Y-90333333D01*
X16016666Y-90366666D01*
X15916666Y-90366666D01*
X15850000Y-90333333D01*
X15816666Y-90300000D01*
X15783333Y-90233333D01*
X15783333Y-89966666D01*
X16483333Y-89966666D01*
X16483333Y-90200000D01*
X16450000Y-90266666D01*
X16416666Y-90300000D01*
X16350000Y-90333333D01*
X16283333Y-90333333D01*
X16216666Y-90300000D01*
X16183333Y-90266666D01*
X16150000Y-90200000D01*
X16150000Y-89966666D01*
X15783333Y-80616666D02*
X16116666Y-80383333D01*
X15783333Y-80216666D02*
X16483333Y-80216666D01*
X16483333Y-80483333D01*
X16450000Y-80550000D01*
X16416666Y-80583333D01*
X16350000Y-80616666D01*
X16250000Y-80616666D01*
X16183333Y-80583333D01*
X16150000Y-80550000D01*
X16116666Y-80483333D01*
X16116666Y-80216666D01*
X15816666Y-80883333D02*
X15783333Y-80983333D01*
X15783333Y-81150000D01*
X15816666Y-81216666D01*
X15850000Y-81250000D01*
X15916666Y-81283333D01*
X15983333Y-81283333D01*
X16050000Y-81250000D01*
X16083333Y-81216666D01*
X16116666Y-81150000D01*
X16150000Y-81016666D01*
X16183333Y-80950000D01*
X16216666Y-80916666D01*
X16283333Y-80883333D01*
X16350000Y-80883333D01*
X16416666Y-80916666D01*
X16450000Y-80950000D01*
X16483333Y-81016666D01*
X16483333Y-81183333D01*
X16450000Y-81283333D01*
X16250000Y-81883333D02*
X15783333Y-81883333D01*
X16516666Y-81716666D02*
X16016666Y-81550000D01*
X16016666Y-81983333D01*
X16183333Y-82350000D02*
X16216666Y-82283333D01*
X16250000Y-82250000D01*
X16316666Y-82216666D01*
X16350000Y-82216666D01*
X16416666Y-82250000D01*
X16450000Y-82283333D01*
X16483333Y-82350000D01*
X16483333Y-82483333D01*
X16450000Y-82550000D01*
X16416666Y-82583333D01*
X16350000Y-82616666D01*
X16316666Y-82616666D01*
X16250000Y-82583333D01*
X16216666Y-82550000D01*
X16183333Y-82483333D01*
X16183333Y-82350000D01*
X16150000Y-82283333D01*
X16116666Y-82250000D01*
X16050000Y-82216666D01*
X15916666Y-82216666D01*
X15850000Y-82250000D01*
X15816666Y-82283333D01*
X15783333Y-82350000D01*
X15783333Y-82483333D01*
X15816666Y-82550000D01*
X15850000Y-82583333D01*
X15916666Y-82616666D01*
X16050000Y-82616666D01*
X16116666Y-82583333D01*
X16150000Y-82550000D01*
X16183333Y-82483333D01*
X16483333Y-83250000D02*
X16483333Y-82916666D01*
X16150000Y-82883333D01*
X16183333Y-82916666D01*
X16216666Y-82983333D01*
X16216666Y-83150000D01*
X16183333Y-83216666D01*
X16150000Y-83250000D01*
X16083333Y-83283333D01*
X15916666Y-83283333D01*
X15850000Y-83250000D01*
X15816666Y-83216666D01*
X15783333Y-83150000D01*
X15783333Y-82983333D01*
X15816666Y-82916666D01*
X15850000Y-82883333D01*
X15716666Y-83416666D02*
X15716666Y-83950000D01*
X15983333Y-84083333D02*
X15983333Y-84416666D01*
X15783333Y-84016666D02*
X16483333Y-84250000D01*
X15783333Y-84483333D01*
X15983333Y-62766666D02*
X15983333Y-63100000D01*
X15783333Y-62700000D02*
X16483333Y-62933333D01*
X15783333Y-63166666D01*
X15783333Y-63400000D02*
X16483333Y-63400000D01*
X16483333Y-63566666D01*
X16450000Y-63666666D01*
X16383333Y-63733333D01*
X16316666Y-63766666D01*
X16183333Y-63800000D01*
X16083333Y-63800000D01*
X15950000Y-63766666D01*
X15883333Y-63733333D01*
X15816666Y-63666666D01*
X15783333Y-63566666D01*
X15783333Y-63400000D01*
X15850000Y-64500000D02*
X15816666Y-64466666D01*
X15783333Y-64366666D01*
X15783333Y-64300000D01*
X15816666Y-64200000D01*
X15883333Y-64133333D01*
X15950000Y-64100000D01*
X16083333Y-64066666D01*
X16183333Y-64066666D01*
X16316666Y-64100000D01*
X16383333Y-64133333D01*
X16450000Y-64200000D01*
X16483333Y-64300000D01*
X16483333Y-64366666D01*
X16450000Y-64466666D01*
X16416666Y-64500000D01*
X15783333Y-65166666D02*
X15783333Y-64766666D01*
X15783333Y-64966666D02*
X16483333Y-64966666D01*
X16383333Y-64900000D01*
X16316666Y-64833333D01*
X16283333Y-64766666D01*
X15716666Y-65300000D02*
X15716666Y-65833333D01*
X15783333Y-66000000D02*
X16483333Y-66000000D01*
X15783333Y-66333333D02*
X16483333Y-66333333D01*
X15783333Y-66733333D01*
X16483333Y-66733333D01*
X15783333Y-67433333D02*
X15783333Y-67033333D01*
X15783333Y-67233333D02*
X16483333Y-67233333D01*
X16383333Y-67166666D01*
X16316666Y-67100000D01*
X16283333Y-67033333D01*
X15983333Y-56866666D02*
X15983333Y-57200000D01*
X15783333Y-56800000D02*
X16483333Y-57033333D01*
X15783333Y-57266666D01*
X15783333Y-57500000D02*
X16483333Y-57500000D01*
X16483333Y-57666666D01*
X16450000Y-57766666D01*
X16383333Y-57833333D01*
X16316666Y-57866666D01*
X16183333Y-57900000D01*
X16083333Y-57900000D01*
X15950000Y-57866666D01*
X15883333Y-57833333D01*
X15816666Y-57766666D01*
X15783333Y-57666666D01*
X15783333Y-57500000D01*
X15850000Y-58600000D02*
X15816666Y-58566666D01*
X15783333Y-58466666D01*
X15783333Y-58400000D01*
X15816666Y-58300000D01*
X15883333Y-58233333D01*
X15950000Y-58200000D01*
X16083333Y-58166666D01*
X16183333Y-58166666D01*
X16316666Y-58200000D01*
X16383333Y-58233333D01*
X16450000Y-58300000D01*
X16483333Y-58400000D01*
X16483333Y-58466666D01*
X16450000Y-58566666D01*
X16416666Y-58600000D01*
X16416666Y-58866666D02*
X16450000Y-58900000D01*
X16483333Y-58966666D01*
X16483333Y-59133333D01*
X16450000Y-59200000D01*
X16416666Y-59233333D01*
X16350000Y-59266666D01*
X16283333Y-59266666D01*
X16183333Y-59233333D01*
X15783333Y-58833333D01*
X15783333Y-59266666D01*
X15716666Y-59400000D02*
X15716666Y-59933333D01*
X15783333Y-60100000D02*
X16483333Y-60100000D01*
X15783333Y-60433333D02*
X16483333Y-60433333D01*
X15783333Y-60833333D01*
X16483333Y-60833333D01*
X16483333Y-61300000D02*
X16483333Y-61366666D01*
X16450000Y-61433333D01*
X16416666Y-61466666D01*
X16350000Y-61500000D01*
X16216666Y-61533333D01*
X16050000Y-61533333D01*
X15916666Y-61500000D01*
X15850000Y-61466666D01*
X15816666Y-61433333D01*
X15783333Y-61366666D01*
X15783333Y-61300000D01*
X15816666Y-61233333D01*
X15850000Y-61200000D01*
X15916666Y-61166666D01*
X16050000Y-61133333D01*
X16216666Y-61133333D01*
X16350000Y-61166666D01*
X16416666Y-61200000D01*
X16450000Y-61233333D01*
X16483333Y-61300000D01*
X16483333Y-93466666D02*
X16483333Y-93133333D01*
X16150000Y-93100000D01*
X16183333Y-93133333D01*
X16216666Y-93200000D01*
X16216666Y-93366666D01*
X16183333Y-93433333D01*
X16150000Y-93466666D01*
X16083333Y-93500000D01*
X15916666Y-93500000D01*
X15850000Y-93466666D01*
X15816666Y-93433333D01*
X15783333Y-93366666D01*
X15783333Y-93200000D01*
X15816666Y-93133333D01*
X15850000Y-93100000D01*
X16483333Y-93700000D02*
X15783333Y-93933333D01*
X16483333Y-94166666D01*
X16450000Y-76466666D02*
X16483333Y-76400000D01*
X16483333Y-76300000D01*
X16450000Y-76200000D01*
X16383333Y-76133333D01*
X16316666Y-76100000D01*
X16183333Y-76066666D01*
X16083333Y-76066666D01*
X15950000Y-76100000D01*
X15883333Y-76133333D01*
X15816666Y-76200000D01*
X15783333Y-76300000D01*
X15783333Y-76366666D01*
X15816666Y-76466666D01*
X15850000Y-76500000D01*
X16083333Y-76500000D01*
X16083333Y-76366666D01*
X15783333Y-76800000D02*
X16483333Y-76800000D01*
X15783333Y-77200000D01*
X16483333Y-77200000D01*
X15783333Y-77533333D02*
X16483333Y-77533333D01*
X16483333Y-77700000D01*
X16450000Y-77800000D01*
X16383333Y-77866666D01*
X16316666Y-77900000D01*
X16183333Y-77933333D01*
X16083333Y-77933333D01*
X15950000Y-77900000D01*
X15883333Y-77866666D01*
X15816666Y-77800000D01*
X15783333Y-77700000D01*
X15783333Y-77533333D01*
X16483333Y-69433333D02*
X16483333Y-69866666D01*
X16216666Y-69633333D01*
X16216666Y-69733333D01*
X16183333Y-69800000D01*
X16150000Y-69833333D01*
X16083333Y-69866666D01*
X15916666Y-69866666D01*
X15850000Y-69833333D01*
X15816666Y-69800000D01*
X15783333Y-69733333D01*
X15783333Y-69533333D01*
X15816666Y-69466666D01*
X15850000Y-69433333D01*
X16483333Y-70066666D02*
X15783333Y-70300000D01*
X16483333Y-70533333D01*
X16483333Y-70700000D02*
X16483333Y-71133333D01*
X16216666Y-70900000D01*
X16216666Y-71000000D01*
X16183333Y-71066666D01*
X16150000Y-71100000D01*
X16083333Y-71133333D01*
X15916666Y-71133333D01*
X15850000Y-71100000D01*
X15816666Y-71066666D01*
X15783333Y-71000000D01*
X15783333Y-70800000D01*
X15816666Y-70733333D01*
X15850000Y-70700000D01*
X16450000Y-53166666D02*
X16483333Y-53100000D01*
X16483333Y-53000000D01*
X16450000Y-52900000D01*
X16383333Y-52833333D01*
X16316666Y-52800000D01*
X16183333Y-52766666D01*
X16083333Y-52766666D01*
X15950000Y-52800000D01*
X15883333Y-52833333D01*
X15816666Y-52900000D01*
X15783333Y-53000000D01*
X15783333Y-53066666D01*
X15816666Y-53166666D01*
X15850000Y-53200000D01*
X16083333Y-53200000D01*
X16083333Y-53066666D01*
X15783333Y-53500000D02*
X16483333Y-53500000D01*
X15783333Y-53900000D01*
X16483333Y-53900000D01*
X15783333Y-54233333D02*
X16483333Y-54233333D01*
X16483333Y-54400000D01*
X16450000Y-54500000D01*
X16383333Y-54566666D01*
X16316666Y-54600000D01*
X16183333Y-54633333D01*
X16083333Y-54633333D01*
X15950000Y-54600000D01*
X15883333Y-54566666D01*
X15816666Y-54500000D01*
X15783333Y-54400000D01*
X15783333Y-54233333D01*
X16483333Y-46933333D02*
X16483333Y-47366666D01*
X16216666Y-47133333D01*
X16216666Y-47233333D01*
X16183333Y-47300000D01*
X16150000Y-47333333D01*
X16083333Y-47366666D01*
X15916666Y-47366666D01*
X15850000Y-47333333D01*
X15816666Y-47300000D01*
X15783333Y-47233333D01*
X15783333Y-47033333D01*
X15816666Y-46966666D01*
X15850000Y-46933333D01*
X16483333Y-47566666D02*
X15783333Y-47800000D01*
X16483333Y-48033333D01*
X16483333Y-48200000D02*
X16483333Y-48633333D01*
X16216666Y-48400000D01*
X16216666Y-48500000D01*
X16183333Y-48566666D01*
X16150000Y-48600000D01*
X16083333Y-48633333D01*
X15916666Y-48633333D01*
X15850000Y-48600000D01*
X15816666Y-48566666D01*
X15783333Y-48500000D01*
X15783333Y-48300000D01*
X15816666Y-48233333D01*
X15850000Y-48200000D01*
X15783333Y-39633333D02*
X16483333Y-39633333D01*
X16416666Y-39933333D02*
X16450000Y-39966666D01*
X16483333Y-40033333D01*
X16483333Y-40200000D01*
X16450000Y-40266666D01*
X16416666Y-40300000D01*
X16350000Y-40333333D01*
X16283333Y-40333333D01*
X16183333Y-40300000D01*
X15783333Y-39900000D01*
X15783333Y-40333333D01*
X15850000Y-41033333D02*
X15816666Y-41000000D01*
X15783333Y-40900000D01*
X15783333Y-40833333D01*
X15816666Y-40733333D01*
X15883333Y-40666666D01*
X15950000Y-40633333D01*
X16083333Y-40600000D01*
X16183333Y-40600000D01*
X16316666Y-40633333D01*
X16383333Y-40666666D01*
X16450000Y-40733333D01*
X16483333Y-40833333D01*
X16483333Y-40900000D01*
X16450000Y-41000000D01*
X16416666Y-41033333D01*
X15783333Y-41700000D02*
X15783333Y-41300000D01*
X15783333Y-41500000D02*
X16483333Y-41500000D01*
X16383333Y-41433333D01*
X16316666Y-41366666D01*
X16283333Y-41300000D01*
X15716666Y-41833333D02*
X15716666Y-42366666D01*
X15816666Y-42500000D02*
X15783333Y-42600000D01*
X15783333Y-42766666D01*
X15816666Y-42833333D01*
X15850000Y-42866666D01*
X15916666Y-42900000D01*
X15983333Y-42900000D01*
X16050000Y-42866666D01*
X16083333Y-42833333D01*
X16116666Y-42766666D01*
X16150000Y-42633333D01*
X16183333Y-42566666D01*
X16216666Y-42533333D01*
X16283333Y-42500000D01*
X16350000Y-42500000D01*
X16416666Y-42533333D01*
X16450000Y-42566666D01*
X16483333Y-42633333D01*
X16483333Y-42800000D01*
X16450000Y-42900000D01*
X15783333Y-43200000D02*
X16483333Y-43200000D01*
X16483333Y-43366666D01*
X16450000Y-43466666D01*
X16383333Y-43533333D01*
X16316666Y-43566666D01*
X16183333Y-43600000D01*
X16083333Y-43600000D01*
X15950000Y-43566666D01*
X15883333Y-43533333D01*
X15816666Y-43466666D01*
X15783333Y-43366666D01*
X15783333Y-43200000D01*
X15983333Y-43866666D02*
X15983333Y-44200000D01*
X15783333Y-43800000D02*
X16483333Y-44033333D01*
X15783333Y-44266666D01*
X16450000Y-29866666D02*
X16483333Y-29800000D01*
X16483333Y-29700000D01*
X16450000Y-29600000D01*
X16383333Y-29533333D01*
X16316666Y-29500000D01*
X16183333Y-29466666D01*
X16083333Y-29466666D01*
X15950000Y-29500000D01*
X15883333Y-29533333D01*
X15816666Y-29600000D01*
X15783333Y-29700000D01*
X15783333Y-29766666D01*
X15816666Y-29866666D01*
X15850000Y-29900000D01*
X16083333Y-29900000D01*
X16083333Y-29766666D01*
X15783333Y-30200000D02*
X16483333Y-30200000D01*
X15783333Y-30600000D01*
X16483333Y-30600000D01*
X15783333Y-30933333D02*
X16483333Y-30933333D01*
X16483333Y-31100000D01*
X16450000Y-31200000D01*
X16383333Y-31266666D01*
X16316666Y-31300000D01*
X16183333Y-31333333D01*
X16083333Y-31333333D01*
X15950000Y-31300000D01*
X15883333Y-31266666D01*
X15816666Y-31200000D01*
X15783333Y-31100000D01*
X15783333Y-30933333D01*
X15783333Y-34316666D02*
X16483333Y-34316666D01*
X16416666Y-34616666D02*
X16450000Y-34650000D01*
X16483333Y-34716666D01*
X16483333Y-34883333D01*
X16450000Y-34950000D01*
X16416666Y-34983333D01*
X16350000Y-35016666D01*
X16283333Y-35016666D01*
X16183333Y-34983333D01*
X15783333Y-34583333D01*
X15783333Y-35016666D01*
X15850000Y-35716666D02*
X15816666Y-35683333D01*
X15783333Y-35583333D01*
X15783333Y-35516666D01*
X15816666Y-35416666D01*
X15883333Y-35350000D01*
X15950000Y-35316666D01*
X16083333Y-35283333D01*
X16183333Y-35283333D01*
X16316666Y-35316666D01*
X16383333Y-35350000D01*
X16450000Y-35416666D01*
X16483333Y-35516666D01*
X16483333Y-35583333D01*
X16450000Y-35683333D01*
X16416666Y-35716666D01*
X15783333Y-36383333D02*
X15783333Y-35983333D01*
X15783333Y-36183333D02*
X16483333Y-36183333D01*
X16383333Y-36116666D01*
X16316666Y-36050000D01*
X16283333Y-35983333D01*
X15816666Y-36650000D02*
X15783333Y-36750000D01*
X15783333Y-36916666D01*
X15816666Y-36983333D01*
X15850000Y-37016666D01*
X15916666Y-37050000D01*
X15983333Y-37050000D01*
X16050000Y-37016666D01*
X16083333Y-36983333D01*
X16116666Y-36916666D01*
X16150000Y-36783333D01*
X16183333Y-36716666D01*
X16216666Y-36683333D01*
X16283333Y-36650000D01*
X16350000Y-36650000D01*
X16416666Y-36683333D01*
X16450000Y-36716666D01*
X16483333Y-36783333D01*
X16483333Y-36950000D01*
X16450000Y-37050000D01*
X15850000Y-37750000D02*
X15816666Y-37716666D01*
X15783333Y-37616666D01*
X15783333Y-37550000D01*
X15816666Y-37450000D01*
X15883333Y-37383333D01*
X15950000Y-37350000D01*
X16083333Y-37316666D01*
X16183333Y-37316666D01*
X16316666Y-37350000D01*
X16383333Y-37383333D01*
X16450000Y-37450000D01*
X16483333Y-37550000D01*
X16483333Y-37616666D01*
X16450000Y-37716666D01*
X16416666Y-37750000D01*
X15783333Y-38383333D02*
X15783333Y-38050000D01*
X16483333Y-38050000D01*
X32050000Y-38800000D02*
X27050000Y-38800000D01*
X32050000Y-27800000D02*
X32050000Y-38800000D01*
X27050000Y-27800000D02*
X32050000Y-27800000D01*
X27050000Y-27800000D02*
X31950000Y-27800000D01*
X22050000Y-27800000D02*
X17050000Y-27800000D01*
X17050000Y-27800000D02*
X17050000Y-38800000D01*
X17050000Y-38800000D02*
X27050000Y-38800000D01*
X22050000Y-27800000D02*
X27050000Y-27800000D01*
X20650000Y-27800000D02*
X20650000Y-38800000D01*
X20650000Y-33500000D02*
X17050000Y-33500000D01*
X32039999Y-73100000D02*
X27039999Y-73100000D01*
X32039999Y-62100000D02*
X32039999Y-73100000D01*
X27039999Y-62100000D02*
X32039999Y-62100000D01*
X27039999Y-62100000D02*
X31939999Y-62100000D01*
X22039999Y-62100000D02*
X17039999Y-62100000D01*
X17039999Y-62100000D02*
X17039999Y-73100000D01*
X17039999Y-73100000D02*
X27039999Y-73100000D01*
X22039999Y-62100000D02*
X27039999Y-62100000D01*
X20639999Y-62100000D02*
X20639999Y-73100000D01*
X20639999Y-67800000D02*
X17039999Y-67800000D01*
X46541000Y-10580000D02*
X63541000Y-10580000D01*
X63541000Y-10580000D02*
X63541000Y-20530000D01*
X63541000Y-20530000D02*
X46491000Y-20530000D01*
X40141000Y-7280000D02*
X40191000Y-7280000D01*
X40191000Y-7280000D02*
X40141000Y-7330000D01*
X46491000Y-20530000D02*
X46491000Y-10580000D01*
X46491000Y-10580000D02*
X46541000Y-10580000D01*
X51370000Y-32390000D02*
X47920000Y-32390000D01*
X51370000Y-32390000D02*
X53320000Y-32390000D01*
X51370000Y-37510000D02*
X49420000Y-37510000D01*
X51370000Y-37510000D02*
X53320000Y-37510000D01*
X51200000Y-42000000D02*
G75*
G03X51200000Y-42000000I-2500000J0D01*
G01*
X78300000Y-77000000D02*
X83300000Y-77000000D01*
X78300000Y-88000000D02*
X78300000Y-77000000D01*
X83300000Y-88000000D02*
X78300000Y-88000000D01*
X83300000Y-88000000D02*
X78400000Y-88000000D01*
X88300000Y-88000000D02*
X93300000Y-88000000D01*
X93300000Y-88000000D02*
X93300000Y-77000000D01*
X93300000Y-77000000D02*
X83300000Y-77000000D01*
X88300000Y-88000000D02*
X83300000Y-88000000D01*
X89700000Y-88000000D02*
X89700000Y-77000000D01*
X89700000Y-82300000D02*
X93300000Y-82300000D01*
X20650000Y-44700000D02*
X17050000Y-44700000D01*
X20650000Y-39000000D02*
X20650000Y-50000000D01*
X22050000Y-39000000D02*
X27050000Y-39000000D01*
X17050000Y-50000000D02*
X27050000Y-50000000D01*
X17050000Y-39000000D02*
X17050000Y-50000000D01*
X22050000Y-39000000D02*
X17050000Y-39000000D01*
X27050000Y-39000000D02*
X31950000Y-39000000D01*
X27050000Y-39000000D02*
X32050000Y-39000000D01*
X32050000Y-39000000D02*
X32050000Y-50000000D01*
X32050000Y-50000000D02*
X27050000Y-50000000D01*
X66200000Y-97200000D02*
X66200000Y-102200000D01*
X55200000Y-97200000D02*
X66200000Y-97200000D01*
X55200000Y-102200000D02*
X55200000Y-97200000D01*
X55200000Y-102200000D02*
X55200000Y-97300000D01*
X55200000Y-107200000D02*
X55200000Y-112200000D01*
X55200000Y-112200000D02*
X66200000Y-112200000D01*
X66200000Y-112200000D02*
X66200000Y-102200000D01*
X55200000Y-107200000D02*
X55200000Y-102200000D01*
X55200000Y-108600000D02*
X66200000Y-108600000D01*
X60900000Y-108600000D02*
X60900000Y-112200000D01*
X40500000Y-43510000D02*
X42950000Y-43510000D01*
X42300000Y-40290000D02*
X40500000Y-40290000D01*
X20639999Y-56430001D02*
X17039999Y-56430001D01*
X20639999Y-50730001D02*
X20639999Y-61730001D01*
X22039999Y-50730001D02*
X27039999Y-50730001D01*
X17039999Y-61730001D02*
X27039999Y-61730001D01*
X17039999Y-50730001D02*
X17039999Y-61730001D01*
X22039999Y-50730001D02*
X17039999Y-50730001D01*
X27039999Y-50730001D02*
X31939999Y-50730001D01*
X27039999Y-50730001D02*
X32039999Y-50730001D01*
X32039999Y-50730001D02*
X32039999Y-61730001D01*
X32039999Y-61730001D02*
X27039999Y-61730001D01*
X20600000Y-79450000D02*
X17000000Y-79450000D01*
X20600000Y-73750000D02*
X20600000Y-84750000D01*
X22000000Y-73750000D02*
X27000000Y-73750000D01*
X17000000Y-84750000D02*
X27000000Y-84750000D01*
X17000000Y-73750000D02*
X17000000Y-84750000D01*
X22000000Y-73750000D02*
X17000000Y-73750000D01*
X27000000Y-73750000D02*
X31900000Y-73750000D01*
X27000000Y-73750000D02*
X32000000Y-73750000D01*
X32000000Y-73750000D02*
X32000000Y-84750000D01*
X32000000Y-84750000D02*
X27000000Y-84750000D01*
X78350000Y-64500000D02*
X83350000Y-64500000D01*
X78350000Y-75500000D02*
X78350000Y-64500000D01*
X83350000Y-75500000D02*
X78350000Y-75500000D01*
X83350000Y-75500000D02*
X78450000Y-75500000D01*
X88350000Y-75500000D02*
X93350000Y-75500000D01*
X93350000Y-75500000D02*
X93350000Y-64500000D01*
X93350000Y-64500000D02*
X83350000Y-64500000D01*
X88350000Y-75500000D02*
X83350000Y-75500000D01*
X89750000Y-75500000D02*
X89750000Y-64500000D01*
X89750000Y-69800000D02*
X93350000Y-69800000D01*
X54090000Y-53940000D02*
X52725000Y-53940000D01*
X54090000Y-53240000D02*
X54090000Y-53940000D01*
X54790000Y-53240000D02*
X54090000Y-53240000D01*
X68310000Y-53240000D02*
X68310000Y-53940000D01*
X67610000Y-53240000D02*
X68310000Y-53240000D01*
X54090000Y-67460000D02*
X54090000Y-66760000D01*
X54790000Y-67460000D02*
X54090000Y-67460000D01*
X68310000Y-67460000D02*
X68310000Y-66760000D01*
X67610000Y-67460000D02*
X68310000Y-67460000D01*
X76832000Y-14963000D02*
X76632000Y-14963000D01*
X79632000Y-10823000D02*
X79432000Y-10613000D01*
X78332000Y-10823000D02*
X78532000Y-10613000D01*
X79632000Y-12113000D02*
X79632000Y-10823000D01*
X79432000Y-10613000D02*
X78532000Y-10613000D01*
X78332000Y-10823000D02*
X78332000Y-12113000D01*
X81082000Y-12113000D02*
X75382000Y-12113000D01*
X79832000Y-14963000D02*
X78132000Y-14963000D01*
X81682000Y-13913000D02*
X81682000Y-13123000D01*
X74782000Y-13123000D02*
X74782000Y-13913000D01*
X45930000Y-55990000D02*
X42630000Y-55990000D01*
X42630000Y-55990000D02*
X42630000Y-59990000D01*
X40990000Y-31597936D02*
X40990000Y-32802064D01*
X42810000Y-31597936D02*
X42810000Y-32802064D01*
X43590000Y-32852064D02*
X43590000Y-31647936D01*
X45410000Y-32852064D02*
X45410000Y-31647936D01*
X55887221Y-24290000D02*
X56212779Y-24290000D01*
X55887221Y-25310000D02*
X56212779Y-25310000D01*
X55887221Y-27560000D02*
X56212779Y-27560000D01*
X55887221Y-26540000D02*
X56212779Y-26540000D01*
X63337221Y-25360000D02*
X63662779Y-25360000D01*
X63337221Y-24340000D02*
X63662779Y-24340000D01*
X63337221Y-26590000D02*
X63662779Y-26590000D01*
X63337221Y-27610000D02*
X63662779Y-27610000D01*
X53800000Y-26200000D02*
X49900000Y-26200000D01*
X53800000Y-24200000D02*
X49900000Y-24200000D01*
X53800000Y-26200000D02*
X53800000Y-24200000D01*
X72600000Y-21835000D02*
X74885000Y-21835000D01*
X74885000Y-21835000D02*
X74885000Y-20365000D01*
X74885000Y-20365000D02*
X72600000Y-20365000D01*
X39335000Y-90550000D02*
X39335000Y-88265000D01*
X39335000Y-88265000D02*
X37865000Y-88265000D01*
X37865000Y-88265000D02*
X37865000Y-90550000D01*
X70665000Y-39575000D02*
X68380000Y-39575000D01*
X70665000Y-41045000D02*
X70665000Y-39575000D01*
X68380000Y-41045000D02*
X70665000Y-41045000D01*
X66700000Y-89335000D02*
X68985000Y-89335000D01*
X68985000Y-89335000D02*
X68985000Y-87865000D01*
X68985000Y-87865000D02*
X66700000Y-87865000D01*
X60165000Y-89291000D02*
X62450000Y-89291000D01*
X60165000Y-87821000D02*
X60165000Y-89291000D01*
X62450000Y-87821000D02*
X60165000Y-87821000D01*
X79935000Y-21762000D02*
X82220000Y-21762000D01*
X82220000Y-21762000D02*
X82220000Y-20292000D01*
X82220000Y-20292000D02*
X79935000Y-20292000D01*
X57452064Y-28790000D02*
X56247936Y-28790000D01*
X57452064Y-30610000D02*
X56247936Y-30610000D01*
X61497936Y-30610000D02*
X62702064Y-30610000D01*
X61497936Y-28790000D02*
X62702064Y-28790000D01*
X48281000Y-72738064D02*
X48281000Y-71533936D01*
X46461000Y-72738064D02*
X46461000Y-71533936D01*
X88067500Y-30250000D02*
X88067500Y-29800000D01*
X89917500Y-30250000D02*
X88067500Y-30250000D01*
X92467500Y-22450000D02*
X92217500Y-22450000D01*
X92467500Y-30250000D02*
X92217500Y-30250000D01*
X89917500Y-22450000D02*
X88067500Y-22450000D01*
X88067500Y-22450000D02*
X88067500Y-22900000D01*
X87517500Y-28050000D02*
X87517500Y-27600000D01*
X87517500Y-28050000D02*
X87967500Y-28050000D01*
X60850000Y-46055000D02*
X60207530Y-46055000D01*
X59592470Y-46055000D02*
X59390000Y-46055000D01*
X60850000Y-46055000D02*
X60850000Y-39585000D01*
X58322470Y-39585000D02*
X57680000Y-39585000D01*
X60850000Y-39585000D02*
X60207530Y-39585000D01*
X59592470Y-39585000D02*
X58937530Y-39585000D01*
X57680000Y-44725000D02*
X57680000Y-39585000D01*
X57870000Y-44725000D02*
X57680000Y-44725000D01*
X57680000Y-46120000D02*
X57680000Y-45360000D01*
X58630000Y-46120000D02*
X57680000Y-46120000D01*
X38600000Y-94000000D02*
G75*
G03X38600000Y-94000000I-2500000J0D01*
G01*
X40473000Y-78359000D02*
G75*
G03X40473000Y-78359000I-2500000J0D01*
G01*
X71400000Y-27000000D02*
G75*
G03X71400000Y-27000000I-2500000J0D01*
G01*
X83200000Y-26700000D02*
G75*
G03X83200000Y-26700000I-2500000J0D01*
G01*
X31700000Y-22900000D02*
G75*
G03X31700000Y-22900000I-2500000J0D01*
G01*
X39380000Y-30840000D02*
X39380000Y-32300000D01*
X36220000Y-30840000D02*
X36220000Y-33000000D01*
X36220000Y-30840000D02*
X37150000Y-30840000D01*
X39380000Y-30840000D02*
X38450000Y-30840000D01*
X42750000Y-83310000D02*
X42750000Y-84240000D01*
X42750000Y-86470000D02*
X42750000Y-85540000D01*
X42750000Y-86470000D02*
X44910000Y-86470000D01*
X42750000Y-83310000D02*
X44210000Y-83310000D01*
X46770000Y-94160000D02*
X47700000Y-94160000D01*
X49930000Y-94160000D02*
X49000000Y-94160000D01*
X49930000Y-94160000D02*
X49930000Y-92000000D01*
X46770000Y-94160000D02*
X46770000Y-92700000D01*
X41420000Y-94060000D02*
X41420000Y-92600000D01*
X44580000Y-94060000D02*
X44580000Y-91900000D01*
X44580000Y-94060000D02*
X43650000Y-94060000D01*
X41420000Y-94060000D02*
X42350000Y-94060000D01*
X76070000Y-38470000D02*
X77000000Y-38470000D01*
X79230000Y-38470000D02*
X78300000Y-38470000D01*
X79230000Y-38470000D02*
X79230000Y-36310000D01*
X76070000Y-38470000D02*
X76070000Y-37010000D01*
X66644000Y-83688000D02*
X66644000Y-82758000D01*
X66644000Y-80528000D02*
X66644000Y-81458000D01*
X66644000Y-80528000D02*
X64484000Y-80528000D01*
X66644000Y-83688000D02*
X65184000Y-83688000D01*
X61558000Y-83548000D02*
X60098000Y-83548000D01*
X61558000Y-80388000D02*
X59398000Y-80388000D01*
X61558000Y-80388000D02*
X61558000Y-81318000D01*
X61558000Y-83548000D02*
X61558000Y-82618000D01*
X77022221Y-21537000D02*
X77347779Y-21537000D01*
X77022221Y-20517000D02*
X77347779Y-20517000D01*
X45165000Y-93687779D02*
X45165000Y-93362221D01*
X46185000Y-93687779D02*
X46185000Y-93362221D01*
X39740000Y-91612779D02*
X39740000Y-91287221D01*
X40760000Y-91612779D02*
X40760000Y-91287221D01*
X47200000Y-83527221D02*
X47200000Y-83852779D01*
X48220000Y-83527221D02*
X48220000Y-83852779D01*
X69332779Y-38760000D02*
X69007221Y-38760000D01*
X69332779Y-37740000D02*
X69007221Y-37740000D01*
X67683279Y-89744000D02*
X67357721Y-89744000D01*
X67683279Y-90764000D02*
X67357721Y-90764000D01*
X61461721Y-90664000D02*
X61787279Y-90664000D01*
X61461721Y-89644000D02*
X61787279Y-89644000D01*
X84437221Y-21510000D02*
X84762779Y-21510000D01*
X84437221Y-20490000D02*
X84762779Y-20490000D01*
X37093000Y-70499000D02*
X41593000Y-70499000D01*
X37093000Y-65899000D02*
X41593000Y-65899000D01*
X37093000Y-70499000D02*
X37093000Y-65899000D01*
X41593000Y-70449000D02*
X41593000Y-65899000D01*
X40590112Y-68199000D02*
G75*
G03X40590112Y-68199000I-1297112J0D01*
G01*
X90720000Y-33150000D02*
X89930000Y-33150000D01*
X89930000Y-40050000D02*
X90720000Y-40050000D01*
X88880000Y-38200000D02*
X88880000Y-36500000D01*
X91730000Y-39450000D02*
X91730000Y-33750000D01*
X93020000Y-36700000D02*
X91730000Y-36700000D01*
X93230000Y-37800000D02*
X93230000Y-36900000D01*
X91730000Y-38000000D02*
X93020000Y-38000000D01*
X93020000Y-36700000D02*
X93230000Y-36900000D01*
X93020000Y-38000000D02*
X93230000Y-37800000D01*
X88880000Y-35200000D02*
X88880000Y-35000000D01*
X50747112Y-105180000D02*
G75*
G03X50747112Y-105180000I-1297112J0D01*
G01*
X47150000Y-102930000D02*
X47150000Y-107480000D01*
X51650000Y-102880000D02*
X51650000Y-107480000D01*
X51650000Y-107480000D02*
X47150000Y-107480000D01*
X51650000Y-102880000D02*
X47150000Y-102880000D01*
X43090000Y-102900000D02*
X38590000Y-102900000D01*
X43090000Y-107500000D02*
X38590000Y-107500000D01*
X43090000Y-102900000D02*
X43090000Y-107500000D01*
X38590000Y-102950000D02*
X38590000Y-107500000D01*
X42187112Y-105200000D02*
G75*
G03X42187112Y-105200000I-1297112J0D01*
G01*
X33697112Y-105154000D02*
G75*
G03X33697112Y-105154000I-1297112J0D01*
G01*
X30100000Y-102904000D02*
X30100000Y-107454000D01*
X34600000Y-102854000D02*
X34600000Y-107454000D01*
X34600000Y-107454000D02*
X30100000Y-107454000D01*
X34600000Y-102854000D02*
X30100000Y-102854000D01*
X37700000Y-82790000D02*
X35750000Y-82790000D01*
X37700000Y-82790000D02*
X39650000Y-82790000D01*
X37700000Y-87910000D02*
X35750000Y-87910000D01*
X37700000Y-87910000D02*
X41150000Y-87910000D01*
X82890000Y-31100000D02*
X82890000Y-33550000D01*
X86110000Y-32900000D02*
X86110000Y-31100000D01*
X58634000Y-92966000D02*
G75*
G03X58634000Y-92966000I-2500000J0D01*
G01*
X73476721Y-29184000D02*
X73802279Y-29184000D01*
X73476721Y-28164000D02*
X73802279Y-28164000D01*
X73476721Y-29990000D02*
X73802279Y-29990000D01*
X73476721Y-31010000D02*
X73802279Y-31010000D01*
X73476721Y-26264000D02*
X73802279Y-26264000D01*
X73476721Y-27284000D02*
X73802279Y-27284000D01*
X73464221Y-25384000D02*
X73789779Y-25384000D01*
X73464221Y-24364000D02*
X73789779Y-24364000D01*
X50977000Y-30783000D02*
X53262000Y-30783000D01*
X50977000Y-29313000D02*
X50977000Y-30783000D01*
X53262000Y-29313000D02*
X50977000Y-29313000D01*
X74636000Y-92964000D02*
G75*
G03X74636000Y-92964000I-2500000J0D01*
G01*
X65424000Y-16896000D02*
X66684000Y-16896000D01*
X72244000Y-16896000D02*
X70984000Y-16896000D01*
X65424000Y-13136000D02*
X65424000Y-16896000D01*
X72244000Y-10886000D02*
X72244000Y-16896000D01*
X52599279Y-27260000D02*
X52273721Y-27260000D01*
X52599279Y-28280000D02*
X52273721Y-28280000D01*
X51774000Y-83256000D02*
X51774000Y-85206000D01*
X51774000Y-83256000D02*
X51774000Y-81306000D01*
X56894000Y-83256000D02*
X56894000Y-85206000D01*
X56894000Y-83256000D02*
X56894000Y-79806000D01*
X74994000Y-83550000D02*
X74994000Y-80100000D01*
X74994000Y-83550000D02*
X74994000Y-85500000D01*
X69874000Y-83550000D02*
X69874000Y-81600000D01*
X69874000Y-83550000D02*
X69874000Y-85500000D01*
X70655000Y-47365000D02*
X68370000Y-47365000D01*
X70655000Y-48835000D02*
X70655000Y-47365000D01*
X68370000Y-48835000D02*
X70655000Y-48835000D01*
X68370000Y-44935000D02*
X70655000Y-44935000D01*
X70655000Y-44935000D02*
X70655000Y-43465000D01*
X70655000Y-43465000D02*
X68370000Y-43465000D01*
X89700000Y-93700000D02*
X93300000Y-93700000D01*
X89700000Y-99400000D02*
X89700000Y-88400000D01*
X88300000Y-99400000D02*
X83300000Y-99400000D01*
X93300000Y-88400000D02*
X83300000Y-88400000D01*
X93300000Y-99400000D02*
X93300000Y-88400000D01*
X88300000Y-99400000D02*
X93300000Y-99400000D01*
X83300000Y-99400000D02*
X78400000Y-99400000D01*
X83300000Y-99400000D02*
X78300000Y-99400000D01*
X78300000Y-99400000D02*
X78300000Y-88400000D01*
X78300000Y-88400000D02*
X83300000Y-88400000D01*
X76150000Y-48790000D02*
X77080000Y-48790000D01*
X79310000Y-48790000D02*
X78380000Y-48790000D01*
X79310000Y-48790000D02*
X79310000Y-46630000D01*
X76150000Y-48790000D02*
X76150000Y-47330000D01*
X76120000Y-43560000D02*
X76120000Y-42100000D01*
X79280000Y-43560000D02*
X79280000Y-41400000D01*
X79280000Y-43560000D02*
X78350000Y-43560000D01*
X76120000Y-43560000D02*
X77050000Y-43560000D01*
X69342779Y-46660000D02*
X69017221Y-46660000D01*
X69342779Y-45640000D02*
X69017221Y-45640000D01*
X69320279Y-41790000D02*
X68994721Y-41790000D01*
X69320279Y-42810000D02*
X68994721Y-42810000D01*
X32540000Y-85412779D02*
X32540000Y-85087221D01*
X33560000Y-85412779D02*
X33560000Y-85087221D01*
X88880000Y-45650000D02*
X88880000Y-45450000D01*
X93020000Y-48450000D02*
X93230000Y-48250000D01*
X93020000Y-47150000D02*
X93230000Y-47350000D01*
X91730000Y-48450000D02*
X93020000Y-48450000D01*
X93230000Y-48250000D02*
X93230000Y-47350000D01*
X93020000Y-47150000D02*
X91730000Y-47150000D01*
X91730000Y-49900000D02*
X91730000Y-44200000D01*
X88880000Y-48650000D02*
X88880000Y-46950000D01*
X89930000Y-50500000D02*
X90720000Y-50500000D01*
X90720000Y-43600000D02*
X89930000Y-43600000D01*
X75800000Y-62390000D02*
X73350000Y-62390000D01*
X74000000Y-65610000D02*
X75800000Y-65610000D01*
X37500000Y-52810000D02*
X39950000Y-52810000D01*
X39300000Y-49590000D02*
X37500000Y-49590000D01*
X62906000Y-94096000D02*
X62906000Y-95896000D01*
X66126000Y-95896000D02*
X66126000Y-93446000D01*
X74200000Y-71490000D02*
X71750000Y-71490000D01*
X72400000Y-74710000D02*
X74200000Y-74710000D01*
X31989999Y-96160001D02*
X26989999Y-96160001D01*
X31989999Y-85160001D02*
X31989999Y-96160001D01*
X26989999Y-85160001D02*
X31989999Y-85160001D01*
X26989999Y-85160001D02*
X31889999Y-85160001D01*
X21989999Y-85160001D02*
X16989999Y-85160001D01*
X16989999Y-85160001D02*
X16989999Y-96160001D01*
X16989999Y-96160001D02*
X26989999Y-96160001D01*
X21989999Y-85160001D02*
X26989999Y-85160001D01*
X20589999Y-85160001D02*
X20589999Y-96160001D01*
X20589999Y-90860001D02*
X16989999Y-90860001D01*
X72410001Y-108610001D02*
X72410001Y-112210001D01*
X66710001Y-108610001D02*
X77710001Y-108610001D01*
X66710001Y-107210001D02*
X66710001Y-102210001D01*
X77710001Y-112210001D02*
X77710001Y-102210001D01*
X66710001Y-112210001D02*
X77710001Y-112210001D01*
X66710001Y-107210001D02*
X66710001Y-112210001D01*
X66710001Y-102210001D02*
X66710001Y-97310001D01*
X66710001Y-102210001D02*
X66710001Y-97210001D01*
X66710001Y-97210001D02*
X77710001Y-97210001D01*
X77710001Y-97210001D02*
X77710001Y-102210001D01*
X46845000Y-84540000D02*
X46845000Y-82255000D01*
X46845000Y-82255000D02*
X45375000Y-82255000D01*
X45375000Y-82255000D02*
X45375000Y-84540000D01*
X44416000Y-10467000D02*
X44416000Y-15467000D01*
X33416000Y-10467000D02*
X44416000Y-10467000D01*
X33416000Y-15467000D02*
X33416000Y-10467000D01*
X33416000Y-15467000D02*
X33416000Y-10567000D01*
X33416000Y-20467000D02*
X33416000Y-25467000D01*
X33416000Y-25467000D02*
X44416000Y-25467000D01*
X44416000Y-25467000D02*
X44416000Y-15467000D01*
X33416000Y-20467000D02*
X33416000Y-15467000D01*
X33416000Y-21867000D02*
X44416000Y-21867000D01*
X39116000Y-21867000D02*
X39116000Y-25467000D01*
X78300000Y-53100000D02*
X83300000Y-53100000D01*
X78300000Y-64100000D02*
X78300000Y-53100000D01*
X83300000Y-64100000D02*
X78300000Y-64100000D01*
X83300000Y-64100000D02*
X78400000Y-64100000D01*
X88300000Y-64100000D02*
X93300000Y-64100000D01*
X93300000Y-64100000D02*
X93300000Y-53100000D01*
X93300000Y-53100000D02*
X83300000Y-53100000D01*
X88300000Y-64100000D02*
X83300000Y-64100000D01*
X89700000Y-64100000D02*
X89700000Y-53100000D01*
X89700000Y-58400000D02*
X93300000Y-58400000D01*
D13*
X32890476Y-33152380D02*
X32890476Y-33866666D01*
X32842857Y-34009523D01*
X32747619Y-34104761D01*
X32604761Y-34152380D01*
X32509523Y-34152380D01*
X33319047Y-33247619D02*
X33366666Y-33200000D01*
X33461904Y-33152380D01*
X33700000Y-33152380D01*
X33795238Y-33200000D01*
X33842857Y-33247619D01*
X33890476Y-33342857D01*
X33890476Y-33438095D01*
X33842857Y-33580952D01*
X33271428Y-34152380D01*
X33890476Y-34152380D01*
X34223809Y-33152380D02*
X34842857Y-33152380D01*
X34509523Y-33533333D01*
X34652380Y-33533333D01*
X34747619Y-33580952D01*
X34795238Y-33628571D01*
X34842857Y-33723809D01*
X34842857Y-33961904D01*
X34795238Y-34057142D01*
X34747619Y-34104761D01*
X34652380Y-34152380D01*
X34366666Y-34152380D01*
X34271428Y-34104761D01*
X34223809Y-34057142D01*
X33236666Y-64272380D02*
X33236666Y-64986666D01*
X33189047Y-65129523D01*
X33093809Y-65224761D01*
X32950952Y-65272380D01*
X32855714Y-65272380D01*
X33760476Y-65272380D02*
X33950952Y-65272380D01*
X34046190Y-65224761D01*
X34093809Y-65177142D01*
X34189047Y-65034285D01*
X34236666Y-64843809D01*
X34236666Y-64462857D01*
X34189047Y-64367619D01*
X34141428Y-64320000D01*
X34046190Y-64272380D01*
X33855714Y-64272380D01*
X33760476Y-64320000D01*
X33712857Y-64367619D01*
X33665238Y-64462857D01*
X33665238Y-64700952D01*
X33712857Y-64796190D01*
X33760476Y-64843809D01*
X33855714Y-64891428D01*
X34046190Y-64891428D01*
X34141428Y-64843809D01*
X34189047Y-64796190D01*
X34236666Y-64700952D01*
X53776714Y-21882380D02*
X53776714Y-20882380D01*
X54157666Y-20882380D01*
X54252904Y-20930000D01*
X54300523Y-20977619D01*
X54348142Y-21072857D01*
X54348142Y-21215714D01*
X54300523Y-21310952D01*
X54252904Y-21358571D01*
X54157666Y-21406190D01*
X53776714Y-21406190D01*
X54729095Y-21834761D02*
X54871952Y-21882380D01*
X55110047Y-21882380D01*
X55205285Y-21834761D01*
X55252904Y-21787142D01*
X55300523Y-21691904D01*
X55300523Y-21596666D01*
X55252904Y-21501428D01*
X55205285Y-21453809D01*
X55110047Y-21406190D01*
X54919571Y-21358571D01*
X54824333Y-21310952D01*
X54776714Y-21263333D01*
X54729095Y-21168095D01*
X54729095Y-21072857D01*
X54776714Y-20977619D01*
X54824333Y-20930000D01*
X54919571Y-20882380D01*
X55157666Y-20882380D01*
X55300523Y-20930000D01*
X56252904Y-21882380D02*
X55681476Y-21882380D01*
X55967190Y-21882380D02*
X55967190Y-20882380D01*
X55871952Y-21025238D01*
X55776714Y-21120476D01*
X55681476Y-21168095D01*
X50638095Y-38002380D02*
X50638095Y-38811904D01*
X50685714Y-38907142D01*
X50733333Y-38954761D01*
X50828571Y-39002380D01*
X51019047Y-39002380D01*
X51114285Y-38954761D01*
X51161904Y-38907142D01*
X51209523Y-38811904D01*
X51209523Y-38002380D01*
X51828571Y-38430952D02*
X51733333Y-38383333D01*
X51685714Y-38335714D01*
X51638095Y-38240476D01*
X51638095Y-38192857D01*
X51685714Y-38097619D01*
X51733333Y-38050000D01*
X51828571Y-38002380D01*
X52019047Y-38002380D01*
X52114285Y-38050000D01*
X52161904Y-38097619D01*
X52209523Y-38192857D01*
X52209523Y-38240476D01*
X52161904Y-38335714D01*
X52114285Y-38383333D01*
X52019047Y-38430952D01*
X51828571Y-38430952D01*
X51733333Y-38478571D01*
X51685714Y-38526190D01*
X51638095Y-38621428D01*
X51638095Y-38811904D01*
X51685714Y-38907142D01*
X51733333Y-38954761D01*
X51828571Y-39002380D01*
X52019047Y-39002380D01*
X52114285Y-38954761D01*
X52161904Y-38907142D01*
X52209523Y-38811904D01*
X52209523Y-38621428D01*
X52161904Y-38526190D01*
X52114285Y-38478571D01*
X52019047Y-38430952D01*
D12*
X45700000Y-45616666D02*
X46100000Y-45616666D01*
X45900000Y-46316666D02*
X45900000Y-45616666D01*
X46333333Y-45950000D02*
X46566666Y-45950000D01*
X46666666Y-46316666D02*
X46333333Y-46316666D01*
X46333333Y-45616666D01*
X46666666Y-45616666D01*
X46966666Y-46316666D02*
X46966666Y-45616666D01*
X47200000Y-46116666D01*
X47433333Y-45616666D01*
X47433333Y-46316666D01*
X47766666Y-46316666D02*
X47766666Y-45616666D01*
X48033333Y-45616666D01*
X48100000Y-45650000D01*
X48133333Y-45683333D01*
X48166666Y-45750000D01*
X48166666Y-45850000D01*
X48133333Y-45916666D01*
X48100000Y-45950000D01*
X48033333Y-45983333D01*
X47766666Y-45983333D01*
X48300000Y-46383333D02*
X48833333Y-46383333D01*
X48966666Y-46283333D02*
X49066666Y-46316666D01*
X49233333Y-46316666D01*
X49300000Y-46283333D01*
X49333333Y-46250000D01*
X49366666Y-46183333D01*
X49366666Y-46116666D01*
X49333333Y-46050000D01*
X49300000Y-46016666D01*
X49233333Y-45983333D01*
X49100000Y-45950000D01*
X49033333Y-45916666D01*
X49000000Y-45883333D01*
X48966666Y-45816666D01*
X48966666Y-45750000D01*
X49000000Y-45683333D01*
X49033333Y-45650000D01*
X49100000Y-45616666D01*
X49266666Y-45616666D01*
X49366666Y-45650000D01*
X49666666Y-45950000D02*
X49900000Y-45950000D01*
X50000000Y-46316666D02*
X49666666Y-46316666D01*
X49666666Y-45616666D01*
X50000000Y-45616666D01*
X50300000Y-46316666D02*
X50300000Y-45616666D01*
X50700000Y-46316666D01*
X50700000Y-45616666D01*
X51000000Y-46283333D02*
X51100000Y-46316666D01*
X51266666Y-46316666D01*
X51333333Y-46283333D01*
X51366666Y-46250000D01*
X51400000Y-46183333D01*
X51400000Y-46116666D01*
X51366666Y-46050000D01*
X51333333Y-46016666D01*
X51266666Y-45983333D01*
X51133333Y-45950000D01*
X51066666Y-45916666D01*
X51033333Y-45883333D01*
X51000000Y-45816666D01*
X51000000Y-45750000D01*
X51033333Y-45683333D01*
X51066666Y-45650000D01*
X51133333Y-45616666D01*
X51300000Y-45616666D01*
X51400000Y-45650000D01*
X51700000Y-45950000D02*
X51933333Y-45950000D01*
X52033333Y-46316666D02*
X51700000Y-46316666D01*
X51700000Y-45616666D01*
X52033333Y-45616666D01*
D13*
X75880476Y-84762380D02*
X75880476Y-85476666D01*
X75832857Y-85619523D01*
X75737619Y-85714761D01*
X75594761Y-85762380D01*
X75499523Y-85762380D01*
X76309047Y-84857619D02*
X76356666Y-84810000D01*
X76451904Y-84762380D01*
X76690000Y-84762380D01*
X76785238Y-84810000D01*
X76832857Y-84857619D01*
X76880476Y-84952857D01*
X76880476Y-85048095D01*
X76832857Y-85190952D01*
X76261428Y-85762380D01*
X76880476Y-85762380D01*
X77499523Y-84762380D02*
X77594761Y-84762380D01*
X77690000Y-84810000D01*
X77737619Y-84857619D01*
X77785238Y-84952857D01*
X77832857Y-85143333D01*
X77832857Y-85381428D01*
X77785238Y-85571904D01*
X77737619Y-85667142D01*
X77690000Y-85714761D01*
X77594761Y-85762380D01*
X77499523Y-85762380D01*
X77404285Y-85714761D01*
X77356666Y-85667142D01*
X77309047Y-85571904D01*
X77261428Y-85381428D01*
X77261428Y-85143333D01*
X77309047Y-84952857D01*
X77356666Y-84857619D01*
X77404285Y-84810000D01*
X77499523Y-84762380D01*
X33290476Y-44002380D02*
X33290476Y-44716666D01*
X33242857Y-44859523D01*
X33147619Y-44954761D01*
X33004761Y-45002380D01*
X32909523Y-45002380D01*
X33719047Y-44097619D02*
X33766666Y-44050000D01*
X33861904Y-44002380D01*
X34100000Y-44002380D01*
X34195238Y-44050000D01*
X34242857Y-44097619D01*
X34290476Y-44192857D01*
X34290476Y-44288095D01*
X34242857Y-44430952D01*
X33671428Y-45002380D01*
X34290476Y-45002380D01*
X35242857Y-45002380D02*
X34671428Y-45002380D01*
X34957142Y-45002380D02*
X34957142Y-44002380D01*
X34861904Y-44145238D01*
X34766666Y-44240476D01*
X34671428Y-44288095D01*
X53852380Y-105109523D02*
X54566666Y-105109523D01*
X54709523Y-105157142D01*
X54804761Y-105252380D01*
X54852380Y-105395238D01*
X54852380Y-105490476D01*
X54852380Y-104109523D02*
X54852380Y-104680952D01*
X54852380Y-104395238D02*
X53852380Y-104395238D01*
X53995238Y-104490476D01*
X54090476Y-104585714D01*
X54138095Y-104680952D01*
X53947619Y-103728571D02*
X53900000Y-103680952D01*
X53852380Y-103585714D01*
X53852380Y-103347619D01*
X53900000Y-103252380D01*
X53947619Y-103204761D01*
X54042857Y-103157142D01*
X54138095Y-103157142D01*
X54280952Y-103204761D01*
X54852380Y-103776190D01*
X54852380Y-103157142D01*
X40061904Y-38852380D02*
X40061904Y-39661904D01*
X40109523Y-39757142D01*
X40157142Y-39804761D01*
X40252380Y-39852380D01*
X40442857Y-39852380D01*
X40538095Y-39804761D01*
X40585714Y-39757142D01*
X40633333Y-39661904D01*
X40633333Y-38852380D01*
X41633333Y-39852380D02*
X41061904Y-39852380D01*
X41347619Y-39852380D02*
X41347619Y-38852380D01*
X41252380Y-38995238D01*
X41157142Y-39090476D01*
X41061904Y-39138095D01*
X42585714Y-39852380D02*
X42014285Y-39852380D01*
X42300000Y-39852380D02*
X42300000Y-38852380D01*
X42204761Y-38995238D01*
X42109523Y-39090476D01*
X42014285Y-39138095D01*
X33240476Y-55452380D02*
X33240476Y-56166666D01*
X33192857Y-56309523D01*
X33097619Y-56404761D01*
X32954761Y-56452380D01*
X32859523Y-56452380D01*
X34240476Y-56452380D02*
X33669047Y-56452380D01*
X33954761Y-56452380D02*
X33954761Y-55452380D01*
X33859523Y-55595238D01*
X33764285Y-55690476D01*
X33669047Y-55738095D01*
X34716666Y-56452380D02*
X34907142Y-56452380D01*
X35002380Y-56404761D01*
X35050000Y-56357142D01*
X35145238Y-56214285D01*
X35192857Y-56023809D01*
X35192857Y-55642857D01*
X35145238Y-55547619D01*
X35097619Y-55500000D01*
X35002380Y-55452380D01*
X34811904Y-55452380D01*
X34716666Y-55500000D01*
X34669047Y-55547619D01*
X34621428Y-55642857D01*
X34621428Y-55880952D01*
X34669047Y-55976190D01*
X34716666Y-56023809D01*
X34811904Y-56071428D01*
X35002380Y-56071428D01*
X35097619Y-56023809D01*
X35145238Y-55976190D01*
X35192857Y-55880952D01*
X33366666Y-78802380D02*
X33366666Y-79516666D01*
X33319047Y-79659523D01*
X33223809Y-79754761D01*
X33080952Y-79802380D01*
X32985714Y-79802380D01*
X33747619Y-78802380D02*
X34414285Y-78802380D01*
X33985714Y-79802380D01*
X75840476Y-69242380D02*
X75840476Y-69956666D01*
X75792857Y-70099523D01*
X75697619Y-70194761D01*
X75554761Y-70242380D01*
X75459523Y-70242380D01*
X76840476Y-70242380D02*
X76269047Y-70242380D01*
X76554761Y-70242380D02*
X76554761Y-69242380D01*
X76459523Y-69385238D01*
X76364285Y-69480476D01*
X76269047Y-69528095D01*
X77459523Y-69242380D02*
X77554761Y-69242380D01*
X77650000Y-69290000D01*
X77697619Y-69337619D01*
X77745238Y-69432857D01*
X77792857Y-69623333D01*
X77792857Y-69861428D01*
X77745238Y-70051904D01*
X77697619Y-70147142D01*
X77650000Y-70194761D01*
X77554761Y-70242380D01*
X77459523Y-70242380D01*
X77364285Y-70194761D01*
X77316666Y-70147142D01*
X77269047Y-70051904D01*
X77221428Y-69861428D01*
X77221428Y-69623333D01*
X77269047Y-69432857D01*
X77316666Y-69337619D01*
X77364285Y-69290000D01*
X77459523Y-69242380D01*
X60438095Y-50382380D02*
X60438095Y-51191904D01*
X60485714Y-51287142D01*
X60533333Y-51334761D01*
X60628571Y-51382380D01*
X60819047Y-51382380D01*
X60914285Y-51334761D01*
X60961904Y-51287142D01*
X61009523Y-51191904D01*
X61009523Y-50382380D01*
X62009523Y-51382380D02*
X61438095Y-51382380D01*
X61723809Y-51382380D02*
X61723809Y-50382380D01*
X61628571Y-50525238D01*
X61533333Y-50620476D01*
X61438095Y-50668095D01*
X76606666Y-17494761D02*
X76749523Y-17542380D01*
X76987619Y-17542380D01*
X77082857Y-17494761D01*
X77130476Y-17447142D01*
X77178095Y-17351904D01*
X77178095Y-17256666D01*
X77130476Y-17161428D01*
X77082857Y-17113809D01*
X76987619Y-17066190D01*
X76797142Y-17018571D01*
X76701904Y-16970952D01*
X76654285Y-16923333D01*
X76606666Y-16828095D01*
X76606666Y-16732857D01*
X76654285Y-16637619D01*
X76701904Y-16590000D01*
X76797142Y-16542380D01*
X77035238Y-16542380D01*
X77178095Y-16590000D01*
X77511428Y-16542380D02*
X77749523Y-17542380D01*
X77940000Y-16828095D01*
X78130476Y-17542380D01*
X78368571Y-16542380D01*
X79273333Y-17542380D02*
X78701904Y-17542380D01*
X78987619Y-17542380D02*
X78987619Y-16542380D01*
X78892380Y-16685238D01*
X78797142Y-16780476D01*
X78701904Y-16828095D01*
X40690476Y-57352380D02*
X41357142Y-58352380D01*
X41357142Y-57352380D02*
X40690476Y-58352380D01*
X42261904Y-58352380D02*
X41690476Y-58352380D01*
X41976190Y-58352380D02*
X41976190Y-57352380D01*
X41880952Y-57495238D01*
X41785714Y-57590476D01*
X41690476Y-57638095D01*
X41733333Y-29557142D02*
X41685714Y-29604761D01*
X41542857Y-29652380D01*
X41447619Y-29652380D01*
X41304761Y-29604761D01*
X41209523Y-29509523D01*
X41161904Y-29414285D01*
X41114285Y-29223809D01*
X41114285Y-29080952D01*
X41161904Y-28890476D01*
X41209523Y-28795238D01*
X41304761Y-28700000D01*
X41447619Y-28652380D01*
X41542857Y-28652380D01*
X41685714Y-28700000D01*
X41733333Y-28747619D01*
X42685714Y-29652380D02*
X42114285Y-29652380D01*
X42400000Y-29652380D02*
X42400000Y-28652380D01*
X42304761Y-28795238D01*
X42209523Y-28890476D01*
X42114285Y-28938095D01*
X44333333Y-29557142D02*
X44285714Y-29604761D01*
X44142857Y-29652380D01*
X44047619Y-29652380D01*
X43904761Y-29604761D01*
X43809523Y-29509523D01*
X43761904Y-29414285D01*
X43714285Y-29223809D01*
X43714285Y-29080952D01*
X43761904Y-28890476D01*
X43809523Y-28795238D01*
X43904761Y-28700000D01*
X44047619Y-28652380D01*
X44142857Y-28652380D01*
X44285714Y-28700000D01*
X44333333Y-28747619D01*
X44714285Y-28747619D02*
X44761904Y-28700000D01*
X44857142Y-28652380D01*
X45095238Y-28652380D01*
X45190476Y-28700000D01*
X45238095Y-28747619D01*
X45285714Y-28842857D01*
X45285714Y-28938095D01*
X45238095Y-29080952D01*
X44666666Y-29652380D01*
X45285714Y-29652380D01*
X58383333Y-25207142D02*
X58335714Y-25254761D01*
X58192857Y-25302380D01*
X58097619Y-25302380D01*
X57954761Y-25254761D01*
X57859523Y-25159523D01*
X57811904Y-25064285D01*
X57764285Y-24873809D01*
X57764285Y-24730952D01*
X57811904Y-24540476D01*
X57859523Y-24445238D01*
X57954761Y-24350000D01*
X58097619Y-24302380D01*
X58192857Y-24302380D01*
X58335714Y-24350000D01*
X58383333Y-24397619D01*
X58716666Y-24302380D02*
X59335714Y-24302380D01*
X59002380Y-24683333D01*
X59145238Y-24683333D01*
X59240476Y-24730952D01*
X59288095Y-24778571D01*
X59335714Y-24873809D01*
X59335714Y-25111904D01*
X59288095Y-25207142D01*
X59240476Y-25254761D01*
X59145238Y-25302380D01*
X58859523Y-25302380D01*
X58764285Y-25254761D01*
X58716666Y-25207142D01*
X58433333Y-27507142D02*
X58385714Y-27554761D01*
X58242857Y-27602380D01*
X58147619Y-27602380D01*
X58004761Y-27554761D01*
X57909523Y-27459523D01*
X57861904Y-27364285D01*
X57814285Y-27173809D01*
X57814285Y-27030952D01*
X57861904Y-26840476D01*
X57909523Y-26745238D01*
X58004761Y-26650000D01*
X58147619Y-26602380D01*
X58242857Y-26602380D01*
X58385714Y-26650000D01*
X58433333Y-26697619D01*
X59290476Y-26935714D02*
X59290476Y-27602380D01*
X59052380Y-26554761D02*
X58814285Y-27269047D01*
X59433333Y-27269047D01*
X60783333Y-25207142D02*
X60735714Y-25254761D01*
X60592857Y-25302380D01*
X60497619Y-25302380D01*
X60354761Y-25254761D01*
X60259523Y-25159523D01*
X60211904Y-25064285D01*
X60164285Y-24873809D01*
X60164285Y-24730952D01*
X60211904Y-24540476D01*
X60259523Y-24445238D01*
X60354761Y-24350000D01*
X60497619Y-24302380D01*
X60592857Y-24302380D01*
X60735714Y-24350000D01*
X60783333Y-24397619D01*
X61688095Y-24302380D02*
X61211904Y-24302380D01*
X61164285Y-24778571D01*
X61211904Y-24730952D01*
X61307142Y-24683333D01*
X61545238Y-24683333D01*
X61640476Y-24730952D01*
X61688095Y-24778571D01*
X61735714Y-24873809D01*
X61735714Y-25111904D01*
X61688095Y-25207142D01*
X61640476Y-25254761D01*
X61545238Y-25302380D01*
X61307142Y-25302380D01*
X61211904Y-25254761D01*
X61164285Y-25207142D01*
X60760833Y-27457142D02*
X60713214Y-27504761D01*
X60570357Y-27552380D01*
X60475119Y-27552380D01*
X60332261Y-27504761D01*
X60237023Y-27409523D01*
X60189404Y-27314285D01*
X60141785Y-27123809D01*
X60141785Y-26980952D01*
X60189404Y-26790476D01*
X60237023Y-26695238D01*
X60332261Y-26600000D01*
X60475119Y-26552380D01*
X60570357Y-26552380D01*
X60713214Y-26600000D01*
X60760833Y-26647619D01*
X61617976Y-26552380D02*
X61427500Y-26552380D01*
X61332261Y-26600000D01*
X61284642Y-26647619D01*
X61189404Y-26790476D01*
X61141785Y-26980952D01*
X61141785Y-27361904D01*
X61189404Y-27457142D01*
X61237023Y-27504761D01*
X61332261Y-27552380D01*
X61522738Y-27552380D01*
X61617976Y-27504761D01*
X61665595Y-27457142D01*
X61713214Y-27361904D01*
X61713214Y-27123809D01*
X61665595Y-27028571D01*
X61617976Y-26980952D01*
X61522738Y-26933333D01*
X61332261Y-26933333D01*
X61237023Y-26980952D01*
X61189404Y-27028571D01*
X61141785Y-27123809D01*
X48807142Y-111817142D02*
X48759523Y-111864761D01*
X48616666Y-111912380D01*
X48521428Y-111912380D01*
X48378571Y-111864761D01*
X48283333Y-111769523D01*
X48235714Y-111674285D01*
X48188095Y-111483809D01*
X48188095Y-111340952D01*
X48235714Y-111150476D01*
X48283333Y-111055238D01*
X48378571Y-110960000D01*
X48521428Y-110912380D01*
X48616666Y-110912380D01*
X48759523Y-110960000D01*
X48807142Y-111007619D01*
X49759523Y-111912380D02*
X49188095Y-111912380D01*
X49473809Y-111912380D02*
X49473809Y-110912380D01*
X49378571Y-111055238D01*
X49283333Y-111150476D01*
X49188095Y-111198095D01*
X50711904Y-111912380D02*
X50140476Y-111912380D01*
X50426190Y-111912380D02*
X50426190Y-110912380D01*
X50330952Y-111055238D01*
X50235714Y-111150476D01*
X50140476Y-111198095D01*
X40147142Y-111787142D02*
X40099523Y-111834761D01*
X39956666Y-111882380D01*
X39861428Y-111882380D01*
X39718571Y-111834761D01*
X39623333Y-111739523D01*
X39575714Y-111644285D01*
X39528095Y-111453809D01*
X39528095Y-111310952D01*
X39575714Y-111120476D01*
X39623333Y-111025238D01*
X39718571Y-110930000D01*
X39861428Y-110882380D01*
X39956666Y-110882380D01*
X40099523Y-110930000D01*
X40147142Y-110977619D01*
X41099523Y-111882380D02*
X40528095Y-111882380D01*
X40813809Y-111882380D02*
X40813809Y-110882380D01*
X40718571Y-111025238D01*
X40623333Y-111120476D01*
X40528095Y-111168095D01*
X41480476Y-110977619D02*
X41528095Y-110930000D01*
X41623333Y-110882380D01*
X41861428Y-110882380D01*
X41956666Y-110930000D01*
X42004285Y-110977619D01*
X42051904Y-111072857D01*
X42051904Y-111168095D01*
X42004285Y-111310952D01*
X41432857Y-111882380D01*
X42051904Y-111882380D01*
X31717142Y-111787142D02*
X31669523Y-111834761D01*
X31526666Y-111882380D01*
X31431428Y-111882380D01*
X31288571Y-111834761D01*
X31193333Y-111739523D01*
X31145714Y-111644285D01*
X31098095Y-111453809D01*
X31098095Y-111310952D01*
X31145714Y-111120476D01*
X31193333Y-111025238D01*
X31288571Y-110930000D01*
X31431428Y-110882380D01*
X31526666Y-110882380D01*
X31669523Y-110930000D01*
X31717142Y-110977619D01*
X32669523Y-111882380D02*
X32098095Y-111882380D01*
X32383809Y-111882380D02*
X32383809Y-110882380D01*
X32288571Y-111025238D01*
X32193333Y-111120476D01*
X32098095Y-111168095D01*
X33002857Y-110882380D02*
X33621904Y-110882380D01*
X33288571Y-111263333D01*
X33431428Y-111263333D01*
X33526666Y-111310952D01*
X33574285Y-111358571D01*
X33621904Y-111453809D01*
X33621904Y-111691904D01*
X33574285Y-111787142D01*
X33526666Y-111834761D01*
X33431428Y-111882380D01*
X33145714Y-111882380D01*
X33050476Y-111834761D01*
X33002857Y-111787142D01*
X69557142Y-70297142D02*
X69509523Y-70344761D01*
X69366666Y-70392380D01*
X69271428Y-70392380D01*
X69128571Y-70344761D01*
X69033333Y-70249523D01*
X68985714Y-70154285D01*
X68938095Y-69963809D01*
X68938095Y-69820952D01*
X68985714Y-69630476D01*
X69033333Y-69535238D01*
X69128571Y-69440000D01*
X69271428Y-69392380D01*
X69366666Y-69392380D01*
X69509523Y-69440000D01*
X69557142Y-69487619D01*
X70509523Y-70392380D02*
X69938095Y-70392380D01*
X70223809Y-70392380D02*
X70223809Y-69392380D01*
X70128571Y-69535238D01*
X70033333Y-69630476D01*
X69938095Y-69678095D01*
X71366666Y-69725714D02*
X71366666Y-70392380D01*
X71128571Y-69344761D02*
X70890476Y-70059047D01*
X71509523Y-70059047D01*
X57007142Y-71657142D02*
X56959523Y-71704761D01*
X56816666Y-71752380D01*
X56721428Y-71752380D01*
X56578571Y-71704761D01*
X56483333Y-71609523D01*
X56435714Y-71514285D01*
X56388095Y-71323809D01*
X56388095Y-71180952D01*
X56435714Y-70990476D01*
X56483333Y-70895238D01*
X56578571Y-70800000D01*
X56721428Y-70752380D01*
X56816666Y-70752380D01*
X56959523Y-70800000D01*
X57007142Y-70847619D01*
X57959523Y-71752380D02*
X57388095Y-71752380D01*
X57673809Y-71752380D02*
X57673809Y-70752380D01*
X57578571Y-70895238D01*
X57483333Y-70990476D01*
X57388095Y-71038095D01*
X58864285Y-70752380D02*
X58388095Y-70752380D01*
X58340476Y-71228571D01*
X58388095Y-71180952D01*
X58483333Y-71133333D01*
X58721428Y-71133333D01*
X58816666Y-71180952D01*
X58864285Y-71228571D01*
X58911904Y-71323809D01*
X58911904Y-71561904D01*
X58864285Y-71657142D01*
X58816666Y-71704761D01*
X58721428Y-71752380D01*
X58483333Y-71752380D01*
X58388095Y-71704761D01*
X58340476Y-71657142D01*
X72757142Y-51665142D02*
X72709523Y-51712761D01*
X72566666Y-51760380D01*
X72471428Y-51760380D01*
X72328571Y-51712761D01*
X72233333Y-51617523D01*
X72185714Y-51522285D01*
X72138095Y-51331809D01*
X72138095Y-51188952D01*
X72185714Y-50998476D01*
X72233333Y-50903238D01*
X72328571Y-50808000D01*
X72471428Y-50760380D01*
X72566666Y-50760380D01*
X72709523Y-50808000D01*
X72757142Y-50855619D01*
X73709523Y-51760380D02*
X73138095Y-51760380D01*
X73423809Y-51760380D02*
X73423809Y-50760380D01*
X73328571Y-50903238D01*
X73233333Y-50998476D01*
X73138095Y-51046095D01*
X74566666Y-50760380D02*
X74376190Y-50760380D01*
X74280952Y-50808000D01*
X74233333Y-50855619D01*
X74138095Y-50998476D01*
X74090476Y-51188952D01*
X74090476Y-51569904D01*
X74138095Y-51665142D01*
X74185714Y-51712761D01*
X74280952Y-51760380D01*
X74471428Y-51760380D01*
X74566666Y-51712761D01*
X74614285Y-51665142D01*
X74661904Y-51569904D01*
X74661904Y-51331809D01*
X74614285Y-51236571D01*
X74566666Y-51188952D01*
X74471428Y-51141333D01*
X74280952Y-51141333D01*
X74185714Y-51188952D01*
X74138095Y-51236571D01*
X74090476Y-51331809D01*
X55072142Y-50057142D02*
X55024523Y-50104761D01*
X54881666Y-50152380D01*
X54786428Y-50152380D01*
X54643571Y-50104761D01*
X54548333Y-50009523D01*
X54500714Y-49914285D01*
X54453095Y-49723809D01*
X54453095Y-49580952D01*
X54500714Y-49390476D01*
X54548333Y-49295238D01*
X54643571Y-49200000D01*
X54786428Y-49152380D01*
X54881666Y-49152380D01*
X55024523Y-49200000D01*
X55072142Y-49247619D01*
X56024523Y-50152380D02*
X55453095Y-50152380D01*
X55738809Y-50152380D02*
X55738809Y-49152380D01*
X55643571Y-49295238D01*
X55548333Y-49390476D01*
X55453095Y-49438095D01*
X56357857Y-49152380D02*
X57024523Y-49152380D01*
X56595952Y-50152380D01*
X47057142Y-63557142D02*
X47009523Y-63604761D01*
X46866666Y-63652380D01*
X46771428Y-63652380D01*
X46628571Y-63604761D01*
X46533333Y-63509523D01*
X46485714Y-63414285D01*
X46438095Y-63223809D01*
X46438095Y-63080952D01*
X46485714Y-62890476D01*
X46533333Y-62795238D01*
X46628571Y-62700000D01*
X46771428Y-62652380D01*
X46866666Y-62652380D01*
X47009523Y-62700000D01*
X47057142Y-62747619D01*
X48009523Y-63652380D02*
X47438095Y-63652380D01*
X47723809Y-63652380D02*
X47723809Y-62652380D01*
X47628571Y-62795238D01*
X47533333Y-62890476D01*
X47438095Y-62938095D01*
X48580952Y-63080952D02*
X48485714Y-63033333D01*
X48438095Y-62985714D01*
X48390476Y-62890476D01*
X48390476Y-62842857D01*
X48438095Y-62747619D01*
X48485714Y-62700000D01*
X48580952Y-62652380D01*
X48771428Y-62652380D01*
X48866666Y-62700000D01*
X48914285Y-62747619D01*
X48961904Y-62842857D01*
X48961904Y-62890476D01*
X48914285Y-62985714D01*
X48866666Y-63033333D01*
X48771428Y-63080952D01*
X48580952Y-63080952D01*
X48485714Y-63128571D01*
X48438095Y-63176190D01*
X48390476Y-63271428D01*
X48390476Y-63461904D01*
X48438095Y-63557142D01*
X48485714Y-63604761D01*
X48580952Y-63652380D01*
X48771428Y-63652380D01*
X48866666Y-63604761D01*
X48914285Y-63557142D01*
X48961904Y-63461904D01*
X48961904Y-63271428D01*
X48914285Y-63176190D01*
X48866666Y-63128571D01*
X48771428Y-63080952D01*
X47687142Y-57257142D02*
X47639523Y-57304761D01*
X47496666Y-57352380D01*
X47401428Y-57352380D01*
X47258571Y-57304761D01*
X47163333Y-57209523D01*
X47115714Y-57114285D01*
X47068095Y-56923809D01*
X47068095Y-56780952D01*
X47115714Y-56590476D01*
X47163333Y-56495238D01*
X47258571Y-56400000D01*
X47401428Y-56352380D01*
X47496666Y-56352380D01*
X47639523Y-56400000D01*
X47687142Y-56447619D01*
X48639523Y-57352380D02*
X48068095Y-57352380D01*
X48353809Y-57352380D02*
X48353809Y-56352380D01*
X48258571Y-56495238D01*
X48163333Y-56590476D01*
X48068095Y-56638095D01*
X49115714Y-57352380D02*
X49306190Y-57352380D01*
X49401428Y-57304761D01*
X49449047Y-57257142D01*
X49544285Y-57114285D01*
X49591904Y-56923809D01*
X49591904Y-56542857D01*
X49544285Y-56447619D01*
X49496666Y-56400000D01*
X49401428Y-56352380D01*
X49210952Y-56352380D01*
X49115714Y-56400000D01*
X49068095Y-56447619D01*
X49020476Y-56542857D01*
X49020476Y-56780952D01*
X49068095Y-56876190D01*
X49115714Y-56923809D01*
X49210952Y-56971428D01*
X49401428Y-56971428D01*
X49496666Y-56923809D01*
X49544285Y-56876190D01*
X49591904Y-56780952D01*
X51632142Y-73164142D02*
X51584523Y-73211761D01*
X51441666Y-73259380D01*
X51346428Y-73259380D01*
X51203571Y-73211761D01*
X51108333Y-73116523D01*
X51060714Y-73021285D01*
X51013095Y-72830809D01*
X51013095Y-72687952D01*
X51060714Y-72497476D01*
X51108333Y-72402238D01*
X51203571Y-72307000D01*
X51346428Y-72259380D01*
X51441666Y-72259380D01*
X51584523Y-72307000D01*
X51632142Y-72354619D01*
X52013095Y-72354619D02*
X52060714Y-72307000D01*
X52155952Y-72259380D01*
X52394047Y-72259380D01*
X52489285Y-72307000D01*
X52536904Y-72354619D01*
X52584523Y-72449857D01*
X52584523Y-72545095D01*
X52536904Y-72687952D01*
X51965476Y-73259380D01*
X52584523Y-73259380D01*
X53203571Y-72259380D02*
X53298809Y-72259380D01*
X53394047Y-72307000D01*
X53441666Y-72354619D01*
X53489285Y-72449857D01*
X53536904Y-72640333D01*
X53536904Y-72878428D01*
X53489285Y-73068904D01*
X53441666Y-73164142D01*
X53394047Y-73211761D01*
X53298809Y-73259380D01*
X53203571Y-73259380D01*
X53108333Y-73211761D01*
X53060714Y-73164142D01*
X53013095Y-73068904D01*
X52965476Y-72878428D01*
X52965476Y-72640333D01*
X53013095Y-72449857D01*
X53060714Y-72354619D01*
X53108333Y-72307000D01*
X53203571Y-72259380D01*
X51657142Y-71097142D02*
X51609523Y-71144761D01*
X51466666Y-71192380D01*
X51371428Y-71192380D01*
X51228571Y-71144761D01*
X51133333Y-71049523D01*
X51085714Y-70954285D01*
X51038095Y-70763809D01*
X51038095Y-70620952D01*
X51085714Y-70430476D01*
X51133333Y-70335238D01*
X51228571Y-70240000D01*
X51371428Y-70192380D01*
X51466666Y-70192380D01*
X51609523Y-70240000D01*
X51657142Y-70287619D01*
X52038095Y-70287619D02*
X52085714Y-70240000D01*
X52180952Y-70192380D01*
X52419047Y-70192380D01*
X52514285Y-70240000D01*
X52561904Y-70287619D01*
X52609523Y-70382857D01*
X52609523Y-70478095D01*
X52561904Y-70620952D01*
X51990476Y-71192380D01*
X52609523Y-71192380D01*
X53561904Y-71192380D02*
X52990476Y-71192380D01*
X53276190Y-71192380D02*
X53276190Y-70192380D01*
X53180952Y-70335238D01*
X53085714Y-70430476D01*
X52990476Y-70478095D01*
X42648142Y-66864142D02*
X42600523Y-66911761D01*
X42457666Y-66959380D01*
X42362428Y-66959380D01*
X42219571Y-66911761D01*
X42124333Y-66816523D01*
X42076714Y-66721285D01*
X42029095Y-66530809D01*
X42029095Y-66387952D01*
X42076714Y-66197476D01*
X42124333Y-66102238D01*
X42219571Y-66007000D01*
X42362428Y-65959380D01*
X42457666Y-65959380D01*
X42600523Y-66007000D01*
X42648142Y-66054619D01*
X43029095Y-66054619D02*
X43076714Y-66007000D01*
X43171952Y-65959380D01*
X43410047Y-65959380D01*
X43505285Y-66007000D01*
X43552904Y-66054619D01*
X43600523Y-66149857D01*
X43600523Y-66245095D01*
X43552904Y-66387952D01*
X42981476Y-66959380D01*
X43600523Y-66959380D01*
X44457666Y-66292714D02*
X44457666Y-66959380D01*
X44219571Y-65911761D02*
X43981476Y-66626047D01*
X44600523Y-66626047D01*
X43262142Y-54357142D02*
X43214523Y-54404761D01*
X43071666Y-54452380D01*
X42976428Y-54452380D01*
X42833571Y-54404761D01*
X42738333Y-54309523D01*
X42690714Y-54214285D01*
X42643095Y-54023809D01*
X42643095Y-53880952D01*
X42690714Y-53690476D01*
X42738333Y-53595238D01*
X42833571Y-53500000D01*
X42976428Y-53452380D01*
X43071666Y-53452380D01*
X43214523Y-53500000D01*
X43262142Y-53547619D01*
X43643095Y-53547619D02*
X43690714Y-53500000D01*
X43785952Y-53452380D01*
X44024047Y-53452380D01*
X44119285Y-53500000D01*
X44166904Y-53547619D01*
X44214523Y-53642857D01*
X44214523Y-53738095D01*
X44166904Y-53880952D01*
X43595476Y-54452380D01*
X44214523Y-54452380D01*
X45119285Y-53452380D02*
X44643095Y-53452380D01*
X44595476Y-53928571D01*
X44643095Y-53880952D01*
X44738333Y-53833333D01*
X44976428Y-53833333D01*
X45071666Y-53880952D01*
X45119285Y-53928571D01*
X45166904Y-54023809D01*
X45166904Y-54261904D01*
X45119285Y-54357142D01*
X45071666Y-54404761D01*
X44976428Y-54452380D01*
X44738333Y-54452380D01*
X44643095Y-54404761D01*
X44595476Y-54357142D01*
X43607142Y-62357142D02*
X43559523Y-62404761D01*
X43416666Y-62452380D01*
X43321428Y-62452380D01*
X43178571Y-62404761D01*
X43083333Y-62309523D01*
X43035714Y-62214285D01*
X42988095Y-62023809D01*
X42988095Y-61880952D01*
X43035714Y-61690476D01*
X43083333Y-61595238D01*
X43178571Y-61500000D01*
X43321428Y-61452380D01*
X43416666Y-61452380D01*
X43559523Y-61500000D01*
X43607142Y-61547619D01*
X43988095Y-61547619D02*
X44035714Y-61500000D01*
X44130952Y-61452380D01*
X44369047Y-61452380D01*
X44464285Y-61500000D01*
X44511904Y-61547619D01*
X44559523Y-61642857D01*
X44559523Y-61738095D01*
X44511904Y-61880952D01*
X43940476Y-62452380D01*
X44559523Y-62452380D01*
X45416666Y-61452380D02*
X45226190Y-61452380D01*
X45130952Y-61500000D01*
X45083333Y-61547619D01*
X44988095Y-61690476D01*
X44940476Y-61880952D01*
X44940476Y-62261904D01*
X44988095Y-62357142D01*
X45035714Y-62404761D01*
X45130952Y-62452380D01*
X45321428Y-62452380D01*
X45416666Y-62404761D01*
X45464285Y-62357142D01*
X45511904Y-62261904D01*
X45511904Y-62023809D01*
X45464285Y-61928571D01*
X45416666Y-61880952D01*
X45321428Y-61833333D01*
X45130952Y-61833333D01*
X45035714Y-61880952D01*
X44988095Y-61928571D01*
X44940476Y-62023809D01*
X64157142Y-41157142D02*
X64109523Y-41204761D01*
X63966666Y-41252380D01*
X63871428Y-41252380D01*
X63728571Y-41204761D01*
X63633333Y-41109523D01*
X63585714Y-41014285D01*
X63538095Y-40823809D01*
X63538095Y-40680952D01*
X63585714Y-40490476D01*
X63633333Y-40395238D01*
X63728571Y-40300000D01*
X63871428Y-40252380D01*
X63966666Y-40252380D01*
X64109523Y-40300000D01*
X64157142Y-40347619D01*
X64490476Y-40252380D02*
X65109523Y-40252380D01*
X64776190Y-40633333D01*
X64919047Y-40633333D01*
X65014285Y-40680952D01*
X65061904Y-40728571D01*
X65109523Y-40823809D01*
X65109523Y-41061904D01*
X65061904Y-41157142D01*
X65014285Y-41204761D01*
X64919047Y-41252380D01*
X64633333Y-41252380D01*
X64538095Y-41204761D01*
X64490476Y-41157142D01*
X66061904Y-41252380D02*
X65490476Y-41252380D01*
X65776190Y-41252380D02*
X65776190Y-40252380D01*
X65680952Y-40395238D01*
X65585714Y-40490476D01*
X65490476Y-40538095D01*
X47511904Y-25602380D02*
X47511904Y-24602380D01*
X47750000Y-24602380D01*
X47892857Y-24650000D01*
X47988095Y-24745238D01*
X48035714Y-24840476D01*
X48083333Y-25030952D01*
X48083333Y-25173809D01*
X48035714Y-25364285D01*
X47988095Y-25459523D01*
X47892857Y-25554761D01*
X47750000Y-25602380D01*
X47511904Y-25602380D01*
X49035714Y-25602380D02*
X48464285Y-25602380D01*
X48750000Y-25602380D02*
X48750000Y-24602380D01*
X48654761Y-24745238D01*
X48559523Y-24840476D01*
X48464285Y-24888095D01*
X71590476Y-23052380D02*
X71590476Y-22052380D01*
X71971428Y-22052380D01*
X72066666Y-22100000D01*
X72114285Y-22147619D01*
X72161904Y-22242857D01*
X72161904Y-22385714D01*
X72114285Y-22480952D01*
X72066666Y-22528571D01*
X71971428Y-22576190D01*
X71590476Y-22576190D01*
X72495238Y-22052380D02*
X72733333Y-23052380D01*
X72923809Y-22338095D01*
X73114285Y-23052380D01*
X73352380Y-22052380D01*
X74304761Y-23052380D02*
X73971428Y-22576190D01*
X73733333Y-23052380D02*
X73733333Y-22052380D01*
X74114285Y-22052380D01*
X74209523Y-22100000D01*
X74257142Y-22147619D01*
X74304761Y-22242857D01*
X74304761Y-22385714D01*
X74257142Y-22480952D01*
X74209523Y-22528571D01*
X74114285Y-22576190D01*
X73733333Y-22576190D01*
X74685714Y-22147619D02*
X74733333Y-22100000D01*
X74828571Y-22052380D01*
X75066666Y-22052380D01*
X75161904Y-22100000D01*
X75209523Y-22147619D01*
X75257142Y-22242857D01*
X75257142Y-22338095D01*
X75209523Y-22480952D01*
X74638095Y-23052380D01*
X75257142Y-23052380D01*
X35911904Y-89452380D02*
X35911904Y-88452380D01*
X36150000Y-88452380D01*
X36292857Y-88500000D01*
X36388095Y-88595238D01*
X36435714Y-88690476D01*
X36483333Y-88880952D01*
X36483333Y-89023809D01*
X36435714Y-89214285D01*
X36388095Y-89309523D01*
X36292857Y-89404761D01*
X36150000Y-89452380D01*
X35911904Y-89452380D01*
X37340476Y-88785714D02*
X37340476Y-89452380D01*
X37102380Y-88404761D02*
X36864285Y-89119047D01*
X37483333Y-89119047D01*
X71440952Y-40802380D02*
X70964761Y-40802380D01*
X70964761Y-39802380D01*
X71774285Y-40278571D02*
X72107619Y-40278571D01*
X72250476Y-40802380D02*
X71774285Y-40802380D01*
X71774285Y-39802380D01*
X72250476Y-39802380D01*
X72679047Y-40802380D02*
X72679047Y-39802380D01*
X72917142Y-39802380D01*
X73060000Y-39850000D01*
X73155238Y-39945238D01*
X73202857Y-40040476D01*
X73250476Y-40230952D01*
X73250476Y-40373809D01*
X73202857Y-40564285D01*
X73155238Y-40659523D01*
X73060000Y-40754761D01*
X72917142Y-40802380D01*
X72679047Y-40802380D01*
X73583809Y-39802380D02*
X74202857Y-39802380D01*
X73869523Y-40183333D01*
X74012380Y-40183333D01*
X74107619Y-40230952D01*
X74155238Y-40278571D01*
X74202857Y-40373809D01*
X74202857Y-40611904D01*
X74155238Y-40707142D01*
X74107619Y-40754761D01*
X74012380Y-40802380D01*
X73726666Y-40802380D01*
X73631428Y-40754761D01*
X73583809Y-40707142D01*
X66280952Y-87552380D02*
X65804761Y-87552380D01*
X65804761Y-86552380D01*
X66614285Y-87028571D02*
X66947619Y-87028571D01*
X67090476Y-87552380D02*
X66614285Y-87552380D01*
X66614285Y-86552380D01*
X67090476Y-86552380D01*
X67519047Y-87552380D02*
X67519047Y-86552380D01*
X67757142Y-86552380D01*
X67900000Y-86600000D01*
X67995238Y-86695238D01*
X68042857Y-86790476D01*
X68090476Y-86980952D01*
X68090476Y-87123809D01*
X68042857Y-87314285D01*
X67995238Y-87409523D01*
X67900000Y-87504761D01*
X67757142Y-87552380D01*
X67519047Y-87552380D01*
X68471428Y-86647619D02*
X68519047Y-86600000D01*
X68614285Y-86552380D01*
X68852380Y-86552380D01*
X68947619Y-86600000D01*
X68995238Y-86647619D01*
X69042857Y-86742857D01*
X69042857Y-86838095D01*
X68995238Y-86980952D01*
X68423809Y-87552380D01*
X69042857Y-87552380D01*
X60530952Y-87484380D02*
X60054761Y-87484380D01*
X60054761Y-86484380D01*
X60864285Y-86960571D02*
X61197619Y-86960571D01*
X61340476Y-87484380D02*
X60864285Y-87484380D01*
X60864285Y-86484380D01*
X61340476Y-86484380D01*
X61769047Y-87484380D02*
X61769047Y-86484380D01*
X62007142Y-86484380D01*
X62150000Y-86532000D01*
X62245238Y-86627238D01*
X62292857Y-86722476D01*
X62340476Y-86912952D01*
X62340476Y-87055809D01*
X62292857Y-87246285D01*
X62245238Y-87341523D01*
X62150000Y-87436761D01*
X62007142Y-87484380D01*
X61769047Y-87484380D01*
X63292857Y-87484380D02*
X62721428Y-87484380D01*
X63007142Y-87484380D02*
X63007142Y-86484380D01*
X62911904Y-86627238D01*
X62816666Y-86722476D01*
X62721428Y-86770095D01*
X78890476Y-23023380D02*
X78890476Y-22023380D01*
X79271428Y-22023380D01*
X79366666Y-22071000D01*
X79414285Y-22118619D01*
X79461904Y-22213857D01*
X79461904Y-22356714D01*
X79414285Y-22451952D01*
X79366666Y-22499571D01*
X79271428Y-22547190D01*
X78890476Y-22547190D01*
X79795238Y-22023380D02*
X80033333Y-23023380D01*
X80223809Y-22309095D01*
X80414285Y-23023380D01*
X80652380Y-22023380D01*
X81604761Y-23023380D02*
X81271428Y-22547190D01*
X81033333Y-23023380D02*
X81033333Y-22023380D01*
X81414285Y-22023380D01*
X81509523Y-22071000D01*
X81557142Y-22118619D01*
X81604761Y-22213857D01*
X81604761Y-22356714D01*
X81557142Y-22451952D01*
X81509523Y-22499571D01*
X81414285Y-22547190D01*
X81033333Y-22547190D01*
X81938095Y-22023380D02*
X82557142Y-22023380D01*
X82223809Y-22404333D01*
X82366666Y-22404333D01*
X82461904Y-22451952D01*
X82509523Y-22499571D01*
X82557142Y-22594809D01*
X82557142Y-22832904D01*
X82509523Y-22928142D01*
X82461904Y-22975761D01*
X82366666Y-23023380D01*
X82080952Y-23023380D01*
X81985714Y-22975761D01*
X81938095Y-22928142D01*
X56516666Y-31448571D02*
X56183333Y-31448571D01*
X56183333Y-31972380D02*
X56183333Y-30972380D01*
X56659523Y-30972380D01*
X57564285Y-31972380D02*
X56992857Y-31972380D01*
X57278571Y-31972380D02*
X57278571Y-30972380D01*
X57183333Y-31115238D01*
X57088095Y-31210476D01*
X56992857Y-31258095D01*
X61516666Y-31528571D02*
X61183333Y-31528571D01*
X61183333Y-32052380D02*
X61183333Y-31052380D01*
X61659523Y-31052380D01*
X62373809Y-31528571D02*
X62516666Y-31576190D01*
X62564285Y-31623809D01*
X62611904Y-31719047D01*
X62611904Y-31861904D01*
X62564285Y-31957142D01*
X62516666Y-32004761D01*
X62421428Y-32052380D01*
X62040476Y-32052380D01*
X62040476Y-31052380D01*
X62373809Y-31052380D01*
X62469047Y-31100000D01*
X62516666Y-31147619D01*
X62564285Y-31242857D01*
X62564285Y-31338095D01*
X62516666Y-31433333D01*
X62469047Y-31480952D01*
X62373809Y-31528571D01*
X62040476Y-31528571D01*
X63564285Y-32052380D02*
X62992857Y-32052380D01*
X63278571Y-32052380D02*
X63278571Y-31052380D01*
X63183333Y-31195238D01*
X63088095Y-31290476D01*
X62992857Y-31338095D01*
X46366666Y-69064571D02*
X46033333Y-69064571D01*
X46033333Y-69588380D02*
X46033333Y-68588380D01*
X46509523Y-68588380D01*
X47223809Y-69064571D02*
X47366666Y-69112190D01*
X47414285Y-69159809D01*
X47461904Y-69255047D01*
X47461904Y-69397904D01*
X47414285Y-69493142D01*
X47366666Y-69540761D01*
X47271428Y-69588380D01*
X46890476Y-69588380D01*
X46890476Y-68588380D01*
X47223809Y-68588380D01*
X47319047Y-68636000D01*
X47366666Y-68683619D01*
X47414285Y-68778857D01*
X47414285Y-68874095D01*
X47366666Y-68969333D01*
X47319047Y-69016952D01*
X47223809Y-69064571D01*
X46890476Y-69064571D01*
X47842857Y-68683619D02*
X47890476Y-68636000D01*
X47985714Y-68588380D01*
X48223809Y-68588380D01*
X48319047Y-68636000D01*
X48366666Y-68683619D01*
X48414285Y-68778857D01*
X48414285Y-68874095D01*
X48366666Y-69016952D01*
X47795238Y-69588380D01*
X48414285Y-69588380D01*
X20768095Y-21212380D02*
X20768095Y-20212380D01*
X20768095Y-20688571D02*
X21339523Y-20688571D01*
X21339523Y-21212380D02*
X21339523Y-20212380D01*
X22339523Y-21212380D02*
X21768095Y-21212380D01*
X22053809Y-21212380D02*
X22053809Y-20212380D01*
X21958571Y-20355238D01*
X21863333Y-20450476D01*
X21768095Y-20498095D01*
X88048095Y-21442380D02*
X88048095Y-20442380D01*
X88048095Y-20918571D02*
X88619523Y-20918571D01*
X88619523Y-21442380D02*
X88619523Y-20442380D01*
X89048095Y-20537619D02*
X89095714Y-20490000D01*
X89190952Y-20442380D01*
X89429047Y-20442380D01*
X89524285Y-20490000D01*
X89571904Y-20537619D01*
X89619523Y-20632857D01*
X89619523Y-20728095D01*
X89571904Y-20870952D01*
X89000476Y-21442380D01*
X89619523Y-21442380D01*
X21152095Y-102444380D02*
X21152095Y-101444380D01*
X21152095Y-101920571D02*
X21723523Y-101920571D01*
X21723523Y-102444380D02*
X21723523Y-101444380D01*
X22104476Y-101444380D02*
X22723523Y-101444380D01*
X22390190Y-101825333D01*
X22533047Y-101825333D01*
X22628285Y-101872952D01*
X22675904Y-101920571D01*
X22723523Y-102015809D01*
X22723523Y-102253904D01*
X22675904Y-102349142D01*
X22628285Y-102396761D01*
X22533047Y-102444380D01*
X22247333Y-102444380D01*
X22152095Y-102396761D01*
X22104476Y-102349142D01*
X87884095Y-103102380D02*
X87884095Y-102102380D01*
X87884095Y-102578571D02*
X88455523Y-102578571D01*
X88455523Y-103102380D02*
X88455523Y-102102380D01*
X89360285Y-102435714D02*
X89360285Y-103102380D01*
X89122190Y-102054761D02*
X88884095Y-102769047D01*
X89503142Y-102769047D01*
X85772666Y-26630380D02*
X85772666Y-27344666D01*
X85725047Y-27487523D01*
X85629809Y-27582761D01*
X85486952Y-27630380D01*
X85391714Y-27630380D01*
X86153619Y-26630380D02*
X86772666Y-26630380D01*
X86439333Y-27011333D01*
X86582190Y-27011333D01*
X86677428Y-27058952D01*
X86725047Y-27106571D01*
X86772666Y-27201809D01*
X86772666Y-27439904D01*
X86725047Y-27535142D01*
X86677428Y-27582761D01*
X86582190Y-27630380D01*
X86296476Y-27630380D01*
X86201238Y-27582761D01*
X86153619Y-27535142D01*
X59166666Y-48452380D02*
X59166666Y-49166666D01*
X59119047Y-49309523D01*
X59023809Y-49404761D01*
X58880952Y-49452380D01*
X58785714Y-49452380D01*
X60071428Y-48452380D02*
X59880952Y-48452380D01*
X59785714Y-48500000D01*
X59738095Y-48547619D01*
X59642857Y-48690476D01*
X59595238Y-48880952D01*
X59595238Y-49261904D01*
X59642857Y-49357142D01*
X59690476Y-49404761D01*
X59785714Y-49452380D01*
X59976190Y-49452380D01*
X60071428Y-49404761D01*
X60119047Y-49357142D01*
X60166666Y-49261904D01*
X60166666Y-49023809D01*
X60119047Y-48928571D01*
X60071428Y-48880952D01*
X59976190Y-48833333D01*
X59785714Y-48833333D01*
X59690476Y-48880952D01*
X59642857Y-48928571D01*
X59595238Y-49023809D01*
D12*
X34366666Y-97816666D02*
X34133333Y-97483333D01*
X33966666Y-97816666D02*
X33966666Y-97116666D01*
X34233333Y-97116666D01*
X34300000Y-97150000D01*
X34333333Y-97183333D01*
X34366666Y-97250000D01*
X34366666Y-97350000D01*
X34333333Y-97416666D01*
X34300000Y-97450000D01*
X34233333Y-97483333D01*
X33966666Y-97483333D01*
X34633333Y-97783333D02*
X34733333Y-97816666D01*
X34900000Y-97816666D01*
X34966666Y-97783333D01*
X35000000Y-97750000D01*
X35033333Y-97683333D01*
X35033333Y-97616666D01*
X35000000Y-97550000D01*
X34966666Y-97516666D01*
X34900000Y-97483333D01*
X34766666Y-97450000D01*
X34700000Y-97416666D01*
X34666666Y-97383333D01*
X34633333Y-97316666D01*
X34633333Y-97250000D01*
X34666666Y-97183333D01*
X34700000Y-97150000D01*
X34766666Y-97116666D01*
X34933333Y-97116666D01*
X35033333Y-97150000D01*
X35633333Y-97350000D02*
X35633333Y-97816666D01*
X35466666Y-97083333D02*
X35300000Y-97583333D01*
X35733333Y-97583333D01*
X36100000Y-97416666D02*
X36033333Y-97383333D01*
X36000000Y-97350000D01*
X35966666Y-97283333D01*
X35966666Y-97250000D01*
X36000000Y-97183333D01*
X36033333Y-97150000D01*
X36100000Y-97116666D01*
X36233333Y-97116666D01*
X36300000Y-97150000D01*
X36333333Y-97183333D01*
X36366666Y-97250000D01*
X36366666Y-97283333D01*
X36333333Y-97350000D01*
X36300000Y-97383333D01*
X36233333Y-97416666D01*
X36100000Y-97416666D01*
X36033333Y-97450000D01*
X36000000Y-97483333D01*
X35966666Y-97550000D01*
X35966666Y-97683333D01*
X36000000Y-97750000D01*
X36033333Y-97783333D01*
X36100000Y-97816666D01*
X36233333Y-97816666D01*
X36300000Y-97783333D01*
X36333333Y-97750000D01*
X36366666Y-97683333D01*
X36366666Y-97550000D01*
X36333333Y-97483333D01*
X36300000Y-97450000D01*
X36233333Y-97416666D01*
X37000000Y-97116666D02*
X36666666Y-97116666D01*
X36633333Y-97450000D01*
X36666666Y-97416666D01*
X36733333Y-97383333D01*
X36900000Y-97383333D01*
X36966666Y-97416666D01*
X37000000Y-97450000D01*
X37033333Y-97516666D01*
X37033333Y-97683333D01*
X37000000Y-97750000D01*
X36966666Y-97783333D01*
X36900000Y-97816666D01*
X36733333Y-97816666D01*
X36666666Y-97783333D01*
X36633333Y-97750000D01*
X37166666Y-97883333D02*
X37700000Y-97883333D01*
X38100000Y-97450000D02*
X38200000Y-97483333D01*
X38233333Y-97516666D01*
X38266666Y-97583333D01*
X38266666Y-97683333D01*
X38233333Y-97750000D01*
X38200000Y-97783333D01*
X38133333Y-97816666D01*
X37866666Y-97816666D01*
X37866666Y-97116666D01*
X38100000Y-97116666D01*
X38166666Y-97150000D01*
X38200000Y-97183333D01*
X38233333Y-97250000D01*
X38233333Y-97316666D01*
X38200000Y-97383333D01*
X38166666Y-97416666D01*
X38100000Y-97450000D01*
X37866666Y-97450000D01*
X35067333Y-75416666D02*
X34834000Y-75083333D01*
X34667333Y-75416666D02*
X34667333Y-74716666D01*
X34934000Y-74716666D01*
X35000666Y-74750000D01*
X35034000Y-74783333D01*
X35067333Y-74850000D01*
X35067333Y-74950000D01*
X35034000Y-75016666D01*
X35000666Y-75050000D01*
X34934000Y-75083333D01*
X34667333Y-75083333D01*
X35334000Y-75383333D02*
X35434000Y-75416666D01*
X35600666Y-75416666D01*
X35667333Y-75383333D01*
X35700666Y-75350000D01*
X35734000Y-75283333D01*
X35734000Y-75216666D01*
X35700666Y-75150000D01*
X35667333Y-75116666D01*
X35600666Y-75083333D01*
X35467333Y-75050000D01*
X35400666Y-75016666D01*
X35367333Y-74983333D01*
X35334000Y-74916666D01*
X35334000Y-74850000D01*
X35367333Y-74783333D01*
X35400666Y-74750000D01*
X35467333Y-74716666D01*
X35634000Y-74716666D01*
X35734000Y-74750000D01*
X36334000Y-74950000D02*
X36334000Y-75416666D01*
X36167333Y-74683333D02*
X36000666Y-75183333D01*
X36434000Y-75183333D01*
X36800666Y-75016666D02*
X36734000Y-74983333D01*
X36700666Y-74950000D01*
X36667333Y-74883333D01*
X36667333Y-74850000D01*
X36700666Y-74783333D01*
X36734000Y-74750000D01*
X36800666Y-74716666D01*
X36934000Y-74716666D01*
X37000666Y-74750000D01*
X37034000Y-74783333D01*
X37067333Y-74850000D01*
X37067333Y-74883333D01*
X37034000Y-74950000D01*
X37000666Y-74983333D01*
X36934000Y-75016666D01*
X36800666Y-75016666D01*
X36734000Y-75050000D01*
X36700666Y-75083333D01*
X36667333Y-75150000D01*
X36667333Y-75283333D01*
X36700666Y-75350000D01*
X36734000Y-75383333D01*
X36800666Y-75416666D01*
X36934000Y-75416666D01*
X37000666Y-75383333D01*
X37034000Y-75350000D01*
X37067333Y-75283333D01*
X37067333Y-75150000D01*
X37034000Y-75083333D01*
X37000666Y-75050000D01*
X36934000Y-75016666D01*
X37700666Y-74716666D02*
X37367333Y-74716666D01*
X37334000Y-75050000D01*
X37367333Y-75016666D01*
X37434000Y-74983333D01*
X37600666Y-74983333D01*
X37667333Y-75016666D01*
X37700666Y-75050000D01*
X37734000Y-75116666D01*
X37734000Y-75283333D01*
X37700666Y-75350000D01*
X37667333Y-75383333D01*
X37600666Y-75416666D01*
X37434000Y-75416666D01*
X37367333Y-75383333D01*
X37334000Y-75350000D01*
X37867333Y-75483333D02*
X38400666Y-75483333D01*
X38534000Y-75216666D02*
X38867333Y-75216666D01*
X38467333Y-75416666D02*
X38700666Y-74716666D01*
X38934000Y-75416666D01*
X39534000Y-75416666D02*
X39134000Y-75416666D01*
X39334000Y-75416666D02*
X39334000Y-74716666D01*
X39267333Y-74816666D01*
X39200666Y-74883333D01*
X39134000Y-74916666D01*
X68766666Y-30266666D02*
X68433333Y-30266666D01*
X68400000Y-30600000D01*
X68433333Y-30566666D01*
X68500000Y-30533333D01*
X68666666Y-30533333D01*
X68733333Y-30566666D01*
X68766666Y-30600000D01*
X68800000Y-30666666D01*
X68800000Y-30833333D01*
X68766666Y-30900000D01*
X68733333Y-30933333D01*
X68666666Y-30966666D01*
X68500000Y-30966666D01*
X68433333Y-30933333D01*
X68400000Y-30900000D01*
X69000000Y-30266666D02*
X69233333Y-30966666D01*
X69466666Y-30266666D01*
X79833333Y-29966666D02*
X80266666Y-29966666D01*
X80033333Y-30233333D01*
X80133333Y-30233333D01*
X80200000Y-30266666D01*
X80233333Y-30300000D01*
X80266666Y-30366666D01*
X80266666Y-30533333D01*
X80233333Y-30600000D01*
X80200000Y-30633333D01*
X80133333Y-30666666D01*
X79933333Y-30666666D01*
X79866666Y-30633333D01*
X79833333Y-30600000D01*
X80466666Y-29966666D02*
X80700000Y-30666666D01*
X80933333Y-29966666D01*
X81100000Y-29966666D02*
X81533333Y-29966666D01*
X81300000Y-30233333D01*
X81400000Y-30233333D01*
X81466666Y-30266666D01*
X81500000Y-30300000D01*
X81533333Y-30366666D01*
X81533333Y-30533333D01*
X81500000Y-30600000D01*
X81466666Y-30633333D01*
X81400000Y-30666666D01*
X81200000Y-30666666D01*
X81133333Y-30633333D01*
X81100000Y-30600000D01*
X28696666Y-19510000D02*
X28630000Y-19476666D01*
X28530000Y-19476666D01*
X28430000Y-19510000D01*
X28363333Y-19576666D01*
X28330000Y-19643333D01*
X28296666Y-19776666D01*
X28296666Y-19876666D01*
X28330000Y-20010000D01*
X28363333Y-20076666D01*
X28430000Y-20143333D01*
X28530000Y-20176666D01*
X28596666Y-20176666D01*
X28696666Y-20143333D01*
X28730000Y-20110000D01*
X28730000Y-19876666D01*
X28596666Y-19876666D01*
X29030000Y-20176666D02*
X29030000Y-19476666D01*
X29430000Y-20176666D01*
X29430000Y-19476666D01*
X29763333Y-20176666D02*
X29763333Y-19476666D01*
X29930000Y-19476666D01*
X30030000Y-19510000D01*
X30096666Y-19576666D01*
X30130000Y-19643333D01*
X30163333Y-19776666D01*
X30163333Y-19876666D01*
X30130000Y-20010000D01*
X30096666Y-20076666D01*
X30030000Y-20143333D01*
X29930000Y-20176666D01*
X29763333Y-20176666D01*
D13*
X37804761Y-29647619D02*
X37709523Y-29600000D01*
X37614285Y-29504761D01*
X37471428Y-29361904D01*
X37376190Y-29314285D01*
X37280952Y-29314285D01*
X37328571Y-29552380D02*
X37233333Y-29504761D01*
X37138095Y-29409523D01*
X37090476Y-29219047D01*
X37090476Y-28885714D01*
X37138095Y-28695238D01*
X37233333Y-28600000D01*
X37328571Y-28552380D01*
X37519047Y-28552380D01*
X37614285Y-28600000D01*
X37709523Y-28695238D01*
X37757142Y-28885714D01*
X37757142Y-29219047D01*
X37709523Y-29409523D01*
X37614285Y-29504761D01*
X37519047Y-29552380D01*
X37328571Y-29552380D01*
X38376190Y-28552380D02*
X38471428Y-28552380D01*
X38566666Y-28600000D01*
X38614285Y-28647619D01*
X38661904Y-28742857D01*
X38709523Y-28933333D01*
X38709523Y-29171428D01*
X38661904Y-29361904D01*
X38614285Y-29457142D01*
X38566666Y-29504761D01*
X38471428Y-29552380D01*
X38376190Y-29552380D01*
X38280952Y-29504761D01*
X38233333Y-29457142D01*
X38185714Y-29361904D01*
X38138095Y-29171428D01*
X38138095Y-28933333D01*
X38185714Y-28742857D01*
X38233333Y-28647619D01*
X38280952Y-28600000D01*
X38376190Y-28552380D01*
X43414761Y-87937619D02*
X43319523Y-87890000D01*
X43224285Y-87794761D01*
X43081428Y-87651904D01*
X42986190Y-87604285D01*
X42890952Y-87604285D01*
X42938571Y-87842380D02*
X42843333Y-87794761D01*
X42748095Y-87699523D01*
X42700476Y-87509047D01*
X42700476Y-87175714D01*
X42748095Y-86985238D01*
X42843333Y-86890000D01*
X42938571Y-86842380D01*
X43129047Y-86842380D01*
X43224285Y-86890000D01*
X43319523Y-86985238D01*
X43367142Y-87175714D01*
X43367142Y-87509047D01*
X43319523Y-87699523D01*
X43224285Y-87794761D01*
X43129047Y-87842380D01*
X42938571Y-87842380D01*
X44319523Y-87842380D02*
X43748095Y-87842380D01*
X44033809Y-87842380D02*
X44033809Y-86842380D01*
X43938571Y-86985238D01*
X43843333Y-87080476D01*
X43748095Y-87128095D01*
X48254761Y-96447619D02*
X48159523Y-96400000D01*
X48064285Y-96304761D01*
X47921428Y-96161904D01*
X47826190Y-96114285D01*
X47730952Y-96114285D01*
X47778571Y-96352380D02*
X47683333Y-96304761D01*
X47588095Y-96209523D01*
X47540476Y-96019047D01*
X47540476Y-95685714D01*
X47588095Y-95495238D01*
X47683333Y-95400000D01*
X47778571Y-95352380D01*
X47969047Y-95352380D01*
X48064285Y-95400000D01*
X48159523Y-95495238D01*
X48207142Y-95685714D01*
X48207142Y-96019047D01*
X48159523Y-96209523D01*
X48064285Y-96304761D01*
X47969047Y-96352380D01*
X47778571Y-96352380D01*
X48588095Y-95447619D02*
X48635714Y-95400000D01*
X48730952Y-95352380D01*
X48969047Y-95352380D01*
X49064285Y-95400000D01*
X49111904Y-95447619D01*
X49159523Y-95542857D01*
X49159523Y-95638095D01*
X49111904Y-95780952D01*
X48540476Y-96352380D01*
X49159523Y-96352380D01*
X42954761Y-91447619D02*
X42859523Y-91400000D01*
X42764285Y-91304761D01*
X42621428Y-91161904D01*
X42526190Y-91114285D01*
X42430952Y-91114285D01*
X42478571Y-91352380D02*
X42383333Y-91304761D01*
X42288095Y-91209523D01*
X42240476Y-91019047D01*
X42240476Y-90685714D01*
X42288095Y-90495238D01*
X42383333Y-90400000D01*
X42478571Y-90352380D01*
X42669047Y-90352380D01*
X42764285Y-90400000D01*
X42859523Y-90495238D01*
X42907142Y-90685714D01*
X42907142Y-91019047D01*
X42859523Y-91209523D01*
X42764285Y-91304761D01*
X42669047Y-91352380D01*
X42478571Y-91352380D01*
X43240476Y-90352380D02*
X43859523Y-90352380D01*
X43526190Y-90733333D01*
X43669047Y-90733333D01*
X43764285Y-90780952D01*
X43811904Y-90828571D01*
X43859523Y-90923809D01*
X43859523Y-91161904D01*
X43811904Y-91257142D01*
X43764285Y-91304761D01*
X43669047Y-91352380D01*
X43383333Y-91352380D01*
X43288095Y-91304761D01*
X43240476Y-91257142D01*
X77604761Y-40847619D02*
X77509523Y-40800000D01*
X77414285Y-40704761D01*
X77271428Y-40561904D01*
X77176190Y-40514285D01*
X77080952Y-40514285D01*
X77128571Y-40752380D02*
X77033333Y-40704761D01*
X76938095Y-40609523D01*
X76890476Y-40419047D01*
X76890476Y-40085714D01*
X76938095Y-39895238D01*
X77033333Y-39800000D01*
X77128571Y-39752380D01*
X77319047Y-39752380D01*
X77414285Y-39800000D01*
X77509523Y-39895238D01*
X77557142Y-40085714D01*
X77557142Y-40419047D01*
X77509523Y-40609523D01*
X77414285Y-40704761D01*
X77319047Y-40752380D01*
X77128571Y-40752380D01*
X78414285Y-40085714D02*
X78414285Y-40752380D01*
X78176190Y-39704761D02*
X77938095Y-40419047D01*
X78557142Y-40419047D01*
X65690761Y-85129619D02*
X65595523Y-85082000D01*
X65500285Y-84986761D01*
X65357428Y-84843904D01*
X65262190Y-84796285D01*
X65166952Y-84796285D01*
X65214571Y-85034380D02*
X65119333Y-84986761D01*
X65024095Y-84891523D01*
X64976476Y-84701047D01*
X64976476Y-84367714D01*
X65024095Y-84177238D01*
X65119333Y-84082000D01*
X65214571Y-84034380D01*
X65405047Y-84034380D01*
X65500285Y-84082000D01*
X65595523Y-84177238D01*
X65643142Y-84367714D01*
X65643142Y-84701047D01*
X65595523Y-84891523D01*
X65500285Y-84986761D01*
X65405047Y-85034380D01*
X65214571Y-85034380D01*
X66547904Y-84034380D02*
X66071714Y-84034380D01*
X66024095Y-84510571D01*
X66071714Y-84462952D01*
X66166952Y-84415333D01*
X66405047Y-84415333D01*
X66500285Y-84462952D01*
X66547904Y-84510571D01*
X66595523Y-84605809D01*
X66595523Y-84843904D01*
X66547904Y-84939142D01*
X66500285Y-84986761D01*
X66405047Y-85034380D01*
X66166952Y-85034380D01*
X66071714Y-84986761D01*
X66024095Y-84939142D01*
X61372761Y-85129619D02*
X61277523Y-85082000D01*
X61182285Y-84986761D01*
X61039428Y-84843904D01*
X60944190Y-84796285D01*
X60848952Y-84796285D01*
X60896571Y-85034380D02*
X60801333Y-84986761D01*
X60706095Y-84891523D01*
X60658476Y-84701047D01*
X60658476Y-84367714D01*
X60706095Y-84177238D01*
X60801333Y-84082000D01*
X60896571Y-84034380D01*
X61087047Y-84034380D01*
X61182285Y-84082000D01*
X61277523Y-84177238D01*
X61325142Y-84367714D01*
X61325142Y-84701047D01*
X61277523Y-84891523D01*
X61182285Y-84986761D01*
X61087047Y-85034380D01*
X60896571Y-85034380D01*
X62182285Y-84034380D02*
X61991809Y-84034380D01*
X61896571Y-84082000D01*
X61848952Y-84129619D01*
X61753714Y-84272476D01*
X61706095Y-84462952D01*
X61706095Y-84843904D01*
X61753714Y-84939142D01*
X61801333Y-84986761D01*
X61896571Y-85034380D01*
X62087047Y-85034380D01*
X62182285Y-84986761D01*
X62229904Y-84939142D01*
X62277523Y-84843904D01*
X62277523Y-84605809D01*
X62229904Y-84510571D01*
X62182285Y-84462952D01*
X62087047Y-84415333D01*
X61896571Y-84415333D01*
X61801333Y-84462952D01*
X61753714Y-84510571D01*
X61706095Y-84605809D01*
X76933333Y-23052380D02*
X76600000Y-22576190D01*
X76361904Y-23052380D02*
X76361904Y-22052380D01*
X76742857Y-22052380D01*
X76838095Y-22100000D01*
X76885714Y-22147619D01*
X76933333Y-22242857D01*
X76933333Y-22385714D01*
X76885714Y-22480952D01*
X76838095Y-22528571D01*
X76742857Y-22576190D01*
X76361904Y-22576190D01*
X77790476Y-22052380D02*
X77600000Y-22052380D01*
X77504761Y-22100000D01*
X77457142Y-22147619D01*
X77361904Y-22290476D01*
X77314285Y-22480952D01*
X77314285Y-22861904D01*
X77361904Y-22957142D01*
X77409523Y-23004761D01*
X77504761Y-23052380D01*
X77695238Y-23052380D01*
X77790476Y-23004761D01*
X77838095Y-22957142D01*
X77885714Y-22861904D01*
X77885714Y-22623809D01*
X77838095Y-22528571D01*
X77790476Y-22480952D01*
X77695238Y-22433333D01*
X77504761Y-22433333D01*
X77409523Y-22480952D01*
X77361904Y-22528571D01*
X77314285Y-22623809D01*
X49058333Y-90302380D02*
X48725000Y-89826190D01*
X48486904Y-90302380D02*
X48486904Y-89302380D01*
X48867857Y-89302380D01*
X48963095Y-89350000D01*
X49010714Y-89397619D01*
X49058333Y-89492857D01*
X49058333Y-89635714D01*
X49010714Y-89730952D01*
X48963095Y-89778571D01*
X48867857Y-89826190D01*
X48486904Y-89826190D01*
X49391666Y-89302380D02*
X50058333Y-89302380D01*
X49629761Y-90302380D01*
X45383333Y-96214880D02*
X45050000Y-95738690D01*
X44811904Y-96214880D02*
X44811904Y-95214880D01*
X45192857Y-95214880D01*
X45288095Y-95262500D01*
X45335714Y-95310119D01*
X45383333Y-95405357D01*
X45383333Y-95548214D01*
X45335714Y-95643452D01*
X45288095Y-95691071D01*
X45192857Y-95738690D01*
X44811904Y-95738690D01*
X45954761Y-95643452D02*
X45859523Y-95595833D01*
X45811904Y-95548214D01*
X45764285Y-95452976D01*
X45764285Y-95405357D01*
X45811904Y-95310119D01*
X45859523Y-95262500D01*
X45954761Y-95214880D01*
X46145238Y-95214880D01*
X46240476Y-95262500D01*
X46288095Y-95310119D01*
X46335714Y-95405357D01*
X46335714Y-95452976D01*
X46288095Y-95548214D01*
X46240476Y-95595833D01*
X46145238Y-95643452D01*
X45954761Y-95643452D01*
X45859523Y-95691071D01*
X45811904Y-95738690D01*
X45764285Y-95833928D01*
X45764285Y-96024404D01*
X45811904Y-96119642D01*
X45859523Y-96167261D01*
X45954761Y-96214880D01*
X46145238Y-96214880D01*
X46240476Y-96167261D01*
X46288095Y-96119642D01*
X46335714Y-96024404D01*
X46335714Y-95833928D01*
X46288095Y-95738690D01*
X46240476Y-95691071D01*
X46145238Y-95643452D01*
X39833333Y-94152380D02*
X39500000Y-93676190D01*
X39261904Y-94152380D02*
X39261904Y-93152380D01*
X39642857Y-93152380D01*
X39738095Y-93200000D01*
X39785714Y-93247619D01*
X39833333Y-93342857D01*
X39833333Y-93485714D01*
X39785714Y-93580952D01*
X39738095Y-93628571D01*
X39642857Y-93676190D01*
X39261904Y-93676190D01*
X40309523Y-94152380D02*
X40500000Y-94152380D01*
X40595238Y-94104761D01*
X40642857Y-94057142D01*
X40738095Y-93914285D01*
X40785714Y-93723809D01*
X40785714Y-93342857D01*
X40738095Y-93247619D01*
X40690476Y-93200000D01*
X40595238Y-93152380D01*
X40404761Y-93152380D01*
X40309523Y-93200000D01*
X40261904Y-93247619D01*
X40214285Y-93342857D01*
X40214285Y-93580952D01*
X40261904Y-93676190D01*
X40309523Y-93723809D01*
X40404761Y-93771428D01*
X40595238Y-93771428D01*
X40690476Y-93723809D01*
X40738095Y-93676190D01*
X40785714Y-93580952D01*
X47617142Y-81224380D02*
X47283809Y-80748190D01*
X47045714Y-81224380D02*
X47045714Y-80224380D01*
X47426666Y-80224380D01*
X47521904Y-80272000D01*
X47569523Y-80319619D01*
X47617142Y-80414857D01*
X47617142Y-80557714D01*
X47569523Y-80652952D01*
X47521904Y-80700571D01*
X47426666Y-80748190D01*
X47045714Y-80748190D01*
X48569523Y-81224380D02*
X47998095Y-81224380D01*
X48283809Y-81224380D02*
X48283809Y-80224380D01*
X48188571Y-80367238D01*
X48093333Y-80462476D01*
X47998095Y-80510095D01*
X49188571Y-80224380D02*
X49283809Y-80224380D01*
X49379047Y-80272000D01*
X49426666Y-80319619D01*
X49474285Y-80414857D01*
X49521904Y-80605333D01*
X49521904Y-80843428D01*
X49474285Y-81033904D01*
X49426666Y-81129142D01*
X49379047Y-81176761D01*
X49283809Y-81224380D01*
X49188571Y-81224380D01*
X49093333Y-81176761D01*
X49045714Y-81129142D01*
X48998095Y-81033904D01*
X48950476Y-80843428D01*
X48950476Y-80605333D01*
X48998095Y-80414857D01*
X49045714Y-80319619D01*
X49093333Y-80272000D01*
X49188571Y-80224380D01*
X46067142Y-88567380D02*
X45733809Y-88091190D01*
X45495714Y-88567380D02*
X45495714Y-87567380D01*
X45876666Y-87567380D01*
X45971904Y-87615000D01*
X46019523Y-87662619D01*
X46067142Y-87757857D01*
X46067142Y-87900714D01*
X46019523Y-87995952D01*
X45971904Y-88043571D01*
X45876666Y-88091190D01*
X45495714Y-88091190D01*
X47019523Y-88567380D02*
X46448095Y-88567380D01*
X46733809Y-88567380D02*
X46733809Y-87567380D01*
X46638571Y-87710238D01*
X46543333Y-87805476D01*
X46448095Y-87853095D01*
X47971904Y-88567380D02*
X47400476Y-88567380D01*
X47686190Y-88567380D02*
X47686190Y-87567380D01*
X47590952Y-87710238D01*
X47495714Y-87805476D01*
X47400476Y-87853095D01*
X46857142Y-61952380D02*
X46523809Y-61476190D01*
X46285714Y-61952380D02*
X46285714Y-60952380D01*
X46666666Y-60952380D01*
X46761904Y-61000000D01*
X46809523Y-61047619D01*
X46857142Y-61142857D01*
X46857142Y-61285714D01*
X46809523Y-61380952D01*
X46761904Y-61428571D01*
X46666666Y-61476190D01*
X46285714Y-61476190D01*
X47809523Y-61952380D02*
X47238095Y-61952380D01*
X47523809Y-61952380D02*
X47523809Y-60952380D01*
X47428571Y-61095238D01*
X47333333Y-61190476D01*
X47238095Y-61238095D01*
X48190476Y-61047619D02*
X48238095Y-61000000D01*
X48333333Y-60952380D01*
X48571428Y-60952380D01*
X48666666Y-61000000D01*
X48714285Y-61047619D01*
X48761904Y-61142857D01*
X48761904Y-61238095D01*
X48714285Y-61380952D01*
X48142857Y-61952380D01*
X48761904Y-61952380D01*
X84157142Y-36752380D02*
X83823809Y-36276190D01*
X83585714Y-36752380D02*
X83585714Y-35752380D01*
X83966666Y-35752380D01*
X84061904Y-35800000D01*
X84109523Y-35847619D01*
X84157142Y-35942857D01*
X84157142Y-36085714D01*
X84109523Y-36180952D01*
X84061904Y-36228571D01*
X83966666Y-36276190D01*
X83585714Y-36276190D01*
X85109523Y-36752380D02*
X84538095Y-36752380D01*
X84823809Y-36752380D02*
X84823809Y-35752380D01*
X84728571Y-35895238D01*
X84633333Y-35990476D01*
X84538095Y-36038095D01*
X85442857Y-35752380D02*
X86061904Y-35752380D01*
X85728571Y-36133333D01*
X85871428Y-36133333D01*
X85966666Y-36180952D01*
X86014285Y-36228571D01*
X86061904Y-36323809D01*
X86061904Y-36561904D01*
X86014285Y-36657142D01*
X85966666Y-36704761D01*
X85871428Y-36752380D01*
X85585714Y-36752380D01*
X85490476Y-36704761D01*
X85442857Y-36657142D01*
X80277142Y-39182380D02*
X79943809Y-38706190D01*
X79705714Y-39182380D02*
X79705714Y-38182380D01*
X80086666Y-38182380D01*
X80181904Y-38230000D01*
X80229523Y-38277619D01*
X80277142Y-38372857D01*
X80277142Y-38515714D01*
X80229523Y-38610952D01*
X80181904Y-38658571D01*
X80086666Y-38706190D01*
X79705714Y-38706190D01*
X80658095Y-38277619D02*
X80705714Y-38230000D01*
X80800952Y-38182380D01*
X81039047Y-38182380D01*
X81134285Y-38230000D01*
X81181904Y-38277619D01*
X81229523Y-38372857D01*
X81229523Y-38468095D01*
X81181904Y-38610952D01*
X80610476Y-39182380D01*
X81229523Y-39182380D01*
X81562857Y-38182380D02*
X82181904Y-38182380D01*
X81848571Y-38563333D01*
X81991428Y-38563333D01*
X82086666Y-38610952D01*
X82134285Y-38658571D01*
X82181904Y-38753809D01*
X82181904Y-38991904D01*
X82134285Y-39087142D01*
X82086666Y-39134761D01*
X81991428Y-39182380D01*
X81705714Y-39182380D01*
X81610476Y-39134761D01*
X81562857Y-39087142D01*
X71479642Y-38712380D02*
X71146309Y-38236190D01*
X70908214Y-38712380D02*
X70908214Y-37712380D01*
X71289166Y-37712380D01*
X71384404Y-37760000D01*
X71432023Y-37807619D01*
X71479642Y-37902857D01*
X71479642Y-38045714D01*
X71432023Y-38140952D01*
X71384404Y-38188571D01*
X71289166Y-38236190D01*
X70908214Y-38236190D01*
X71860595Y-37807619D02*
X71908214Y-37760000D01*
X72003452Y-37712380D01*
X72241547Y-37712380D01*
X72336785Y-37760000D01*
X72384404Y-37807619D01*
X72432023Y-37902857D01*
X72432023Y-37998095D01*
X72384404Y-38140952D01*
X71812976Y-38712380D01*
X72432023Y-38712380D01*
X73289166Y-38045714D02*
X73289166Y-38712380D01*
X73051071Y-37664761D02*
X72812976Y-38379047D01*
X73432023Y-38379047D01*
X63619142Y-80208380D02*
X63285809Y-79732190D01*
X63047714Y-80208380D02*
X63047714Y-79208380D01*
X63428666Y-79208380D01*
X63523904Y-79256000D01*
X63571523Y-79303619D01*
X63619142Y-79398857D01*
X63619142Y-79541714D01*
X63571523Y-79636952D01*
X63523904Y-79684571D01*
X63428666Y-79732190D01*
X63047714Y-79732190D01*
X64000095Y-79303619D02*
X64047714Y-79256000D01*
X64142952Y-79208380D01*
X64381047Y-79208380D01*
X64476285Y-79256000D01*
X64523904Y-79303619D01*
X64571523Y-79398857D01*
X64571523Y-79494095D01*
X64523904Y-79636952D01*
X63952476Y-80208380D01*
X64571523Y-80208380D01*
X65476285Y-79208380D02*
X65000095Y-79208380D01*
X64952476Y-79684571D01*
X65000095Y-79636952D01*
X65095333Y-79589333D01*
X65333428Y-79589333D01*
X65428666Y-79636952D01*
X65476285Y-79684571D01*
X65523904Y-79779809D01*
X65523904Y-80017904D01*
X65476285Y-80113142D01*
X65428666Y-80160761D01*
X65333428Y-80208380D01*
X65095333Y-80208380D01*
X65000095Y-80160761D01*
X64952476Y-80113142D01*
X66847142Y-92156380D02*
X66513809Y-91680190D01*
X66275714Y-92156380D02*
X66275714Y-91156380D01*
X66656666Y-91156380D01*
X66751904Y-91204000D01*
X66799523Y-91251619D01*
X66847142Y-91346857D01*
X66847142Y-91489714D01*
X66799523Y-91584952D01*
X66751904Y-91632571D01*
X66656666Y-91680190D01*
X66275714Y-91680190D01*
X67228095Y-91251619D02*
X67275714Y-91204000D01*
X67370952Y-91156380D01*
X67609047Y-91156380D01*
X67704285Y-91204000D01*
X67751904Y-91251619D01*
X67799523Y-91346857D01*
X67799523Y-91442095D01*
X67751904Y-91584952D01*
X67180476Y-92156380D01*
X67799523Y-92156380D01*
X68656666Y-91156380D02*
X68466190Y-91156380D01*
X68370952Y-91204000D01*
X68323333Y-91251619D01*
X68228095Y-91394476D01*
X68180476Y-91584952D01*
X68180476Y-91965904D01*
X68228095Y-92061142D01*
X68275714Y-92108761D01*
X68370952Y-92156380D01*
X68561428Y-92156380D01*
X68656666Y-92108761D01*
X68704285Y-92061142D01*
X68751904Y-91965904D01*
X68751904Y-91727809D01*
X68704285Y-91632571D01*
X68656666Y-91584952D01*
X68561428Y-91537333D01*
X68370952Y-91537333D01*
X68275714Y-91584952D01*
X68228095Y-91632571D01*
X68180476Y-91727809D01*
X59597142Y-78702380D02*
X59263809Y-78226190D01*
X59025714Y-78702380D02*
X59025714Y-77702380D01*
X59406666Y-77702380D01*
X59501904Y-77750000D01*
X59549523Y-77797619D01*
X59597142Y-77892857D01*
X59597142Y-78035714D01*
X59549523Y-78130952D01*
X59501904Y-78178571D01*
X59406666Y-78226190D01*
X59025714Y-78226190D01*
X59978095Y-77797619D02*
X60025714Y-77750000D01*
X60120952Y-77702380D01*
X60359047Y-77702380D01*
X60454285Y-77750000D01*
X60501904Y-77797619D01*
X60549523Y-77892857D01*
X60549523Y-77988095D01*
X60501904Y-78130952D01*
X59930476Y-78702380D01*
X60549523Y-78702380D01*
X60882857Y-77702380D02*
X61549523Y-77702380D01*
X61120952Y-78702380D01*
X60927142Y-92072380D02*
X60593809Y-91596190D01*
X60355714Y-92072380D02*
X60355714Y-91072380D01*
X60736666Y-91072380D01*
X60831904Y-91120000D01*
X60879523Y-91167619D01*
X60927142Y-91262857D01*
X60927142Y-91405714D01*
X60879523Y-91500952D01*
X60831904Y-91548571D01*
X60736666Y-91596190D01*
X60355714Y-91596190D01*
X61308095Y-91167619D02*
X61355714Y-91120000D01*
X61450952Y-91072380D01*
X61689047Y-91072380D01*
X61784285Y-91120000D01*
X61831904Y-91167619D01*
X61879523Y-91262857D01*
X61879523Y-91358095D01*
X61831904Y-91500952D01*
X61260476Y-92072380D01*
X61879523Y-92072380D01*
X62450952Y-91500952D02*
X62355714Y-91453333D01*
X62308095Y-91405714D01*
X62260476Y-91310476D01*
X62260476Y-91262857D01*
X62308095Y-91167619D01*
X62355714Y-91120000D01*
X62450952Y-91072380D01*
X62641428Y-91072380D01*
X62736666Y-91120000D01*
X62784285Y-91167619D01*
X62831904Y-91262857D01*
X62831904Y-91310476D01*
X62784285Y-91405714D01*
X62736666Y-91453333D01*
X62641428Y-91500952D01*
X62450952Y-91500952D01*
X62355714Y-91548571D01*
X62308095Y-91596190D01*
X62260476Y-91691428D01*
X62260476Y-91881904D01*
X62308095Y-91977142D01*
X62355714Y-92024761D01*
X62450952Y-92072380D01*
X62641428Y-92072380D01*
X62736666Y-92024761D01*
X62784285Y-91977142D01*
X62831904Y-91881904D01*
X62831904Y-91691428D01*
X62784285Y-91596190D01*
X62736666Y-91548571D01*
X62641428Y-91500952D01*
X64267142Y-46672380D02*
X63933809Y-46196190D01*
X63695714Y-46672380D02*
X63695714Y-45672380D01*
X64076666Y-45672380D01*
X64171904Y-45720000D01*
X64219523Y-45767619D01*
X64267142Y-45862857D01*
X64267142Y-46005714D01*
X64219523Y-46100952D01*
X64171904Y-46148571D01*
X64076666Y-46196190D01*
X63695714Y-46196190D01*
X64648095Y-45767619D02*
X64695714Y-45720000D01*
X64790952Y-45672380D01*
X65029047Y-45672380D01*
X65124285Y-45720000D01*
X65171904Y-45767619D01*
X65219523Y-45862857D01*
X65219523Y-45958095D01*
X65171904Y-46100952D01*
X64600476Y-46672380D01*
X65219523Y-46672380D01*
X65695714Y-46672380D02*
X65886190Y-46672380D01*
X65981428Y-46624761D01*
X66029047Y-46577142D01*
X66124285Y-46434285D01*
X66171904Y-46243809D01*
X66171904Y-45862857D01*
X66124285Y-45767619D01*
X66076666Y-45720000D01*
X65981428Y-45672380D01*
X65790952Y-45672380D01*
X65695714Y-45720000D01*
X65648095Y-45767619D01*
X65600476Y-45862857D01*
X65600476Y-46100952D01*
X65648095Y-46196190D01*
X65695714Y-46243809D01*
X65790952Y-46291428D01*
X65981428Y-46291428D01*
X66076666Y-46243809D01*
X66124285Y-46196190D01*
X66171904Y-46100952D01*
X64282142Y-45322380D02*
X63948809Y-44846190D01*
X63710714Y-45322380D02*
X63710714Y-44322380D01*
X64091666Y-44322380D01*
X64186904Y-44370000D01*
X64234523Y-44417619D01*
X64282142Y-44512857D01*
X64282142Y-44655714D01*
X64234523Y-44750952D01*
X64186904Y-44798571D01*
X64091666Y-44846190D01*
X63710714Y-44846190D01*
X64615476Y-44322380D02*
X65234523Y-44322380D01*
X64901190Y-44703333D01*
X65044047Y-44703333D01*
X65139285Y-44750952D01*
X65186904Y-44798571D01*
X65234523Y-44893809D01*
X65234523Y-45131904D01*
X65186904Y-45227142D01*
X65139285Y-45274761D01*
X65044047Y-45322380D01*
X64758333Y-45322380D01*
X64663095Y-45274761D01*
X64615476Y-45227142D01*
X65853571Y-44322380D02*
X65948809Y-44322380D01*
X66044047Y-44370000D01*
X66091666Y-44417619D01*
X66139285Y-44512857D01*
X66186904Y-44703333D01*
X66186904Y-44941428D01*
X66139285Y-45131904D01*
X66091666Y-45227142D01*
X66044047Y-45274761D01*
X65948809Y-45322380D01*
X65853571Y-45322380D01*
X65758333Y-45274761D01*
X65710714Y-45227142D01*
X65663095Y-45131904D01*
X65615476Y-44941428D01*
X65615476Y-44703333D01*
X65663095Y-44512857D01*
X65710714Y-44417619D01*
X65758333Y-44370000D01*
X65853571Y-44322380D01*
X64257142Y-43252380D02*
X63923809Y-42776190D01*
X63685714Y-43252380D02*
X63685714Y-42252380D01*
X64066666Y-42252380D01*
X64161904Y-42300000D01*
X64209523Y-42347619D01*
X64257142Y-42442857D01*
X64257142Y-42585714D01*
X64209523Y-42680952D01*
X64161904Y-42728571D01*
X64066666Y-42776190D01*
X63685714Y-42776190D01*
X64590476Y-42252380D02*
X65209523Y-42252380D01*
X64876190Y-42633333D01*
X65019047Y-42633333D01*
X65114285Y-42680952D01*
X65161904Y-42728571D01*
X65209523Y-42823809D01*
X65209523Y-43061904D01*
X65161904Y-43157142D01*
X65114285Y-43204761D01*
X65019047Y-43252380D01*
X64733333Y-43252380D01*
X64638095Y-43204761D01*
X64590476Y-43157142D01*
X66161904Y-43252380D02*
X65590476Y-43252380D01*
X65876190Y-43252380D02*
X65876190Y-42252380D01*
X65780952Y-42395238D01*
X65685714Y-42490476D01*
X65590476Y-42538095D01*
X64197142Y-40012380D02*
X63863809Y-39536190D01*
X63625714Y-40012380D02*
X63625714Y-39012380D01*
X64006666Y-39012380D01*
X64101904Y-39060000D01*
X64149523Y-39107619D01*
X64197142Y-39202857D01*
X64197142Y-39345714D01*
X64149523Y-39440952D01*
X64101904Y-39488571D01*
X64006666Y-39536190D01*
X63625714Y-39536190D01*
X64530476Y-39012380D02*
X65149523Y-39012380D01*
X64816190Y-39393333D01*
X64959047Y-39393333D01*
X65054285Y-39440952D01*
X65101904Y-39488571D01*
X65149523Y-39583809D01*
X65149523Y-39821904D01*
X65101904Y-39917142D01*
X65054285Y-39964761D01*
X64959047Y-40012380D01*
X64673333Y-40012380D01*
X64578095Y-39964761D01*
X64530476Y-39917142D01*
X65530476Y-39107619D02*
X65578095Y-39060000D01*
X65673333Y-39012380D01*
X65911428Y-39012380D01*
X66006666Y-39060000D01*
X66054285Y-39107619D01*
X66101904Y-39202857D01*
X66101904Y-39298095D01*
X66054285Y-39440952D01*
X65482857Y-40012380D01*
X66101904Y-40012380D01*
X37457142Y-40052380D02*
X37123809Y-39576190D01*
X36885714Y-40052380D02*
X36885714Y-39052380D01*
X37266666Y-39052380D01*
X37361904Y-39100000D01*
X37409523Y-39147619D01*
X37457142Y-39242857D01*
X37457142Y-39385714D01*
X37409523Y-39480952D01*
X37361904Y-39528571D01*
X37266666Y-39576190D01*
X36885714Y-39576190D01*
X37790476Y-39052380D02*
X38409523Y-39052380D01*
X38076190Y-39433333D01*
X38219047Y-39433333D01*
X38314285Y-39480952D01*
X38361904Y-39528571D01*
X38409523Y-39623809D01*
X38409523Y-39861904D01*
X38361904Y-39957142D01*
X38314285Y-40004761D01*
X38219047Y-40052380D01*
X37933333Y-40052380D01*
X37838095Y-40004761D01*
X37790476Y-39957142D01*
X38742857Y-39052380D02*
X39361904Y-39052380D01*
X39028571Y-39433333D01*
X39171428Y-39433333D01*
X39266666Y-39480952D01*
X39314285Y-39528571D01*
X39361904Y-39623809D01*
X39361904Y-39861904D01*
X39314285Y-39957142D01*
X39266666Y-40004761D01*
X39171428Y-40052380D01*
X38885714Y-40052380D01*
X38790476Y-40004761D01*
X38742857Y-39957142D01*
X37557142Y-44652380D02*
X37223809Y-44176190D01*
X36985714Y-44652380D02*
X36985714Y-43652380D01*
X37366666Y-43652380D01*
X37461904Y-43700000D01*
X37509523Y-43747619D01*
X37557142Y-43842857D01*
X37557142Y-43985714D01*
X37509523Y-44080952D01*
X37461904Y-44128571D01*
X37366666Y-44176190D01*
X36985714Y-44176190D01*
X37890476Y-43652380D02*
X38509523Y-43652380D01*
X38176190Y-44033333D01*
X38319047Y-44033333D01*
X38414285Y-44080952D01*
X38461904Y-44128571D01*
X38509523Y-44223809D01*
X38509523Y-44461904D01*
X38461904Y-44557142D01*
X38414285Y-44604761D01*
X38319047Y-44652380D01*
X38033333Y-44652380D01*
X37938095Y-44604761D01*
X37890476Y-44557142D01*
X39366666Y-43985714D02*
X39366666Y-44652380D01*
X39128571Y-43604761D02*
X38890476Y-44319047D01*
X39509523Y-44319047D01*
X83957142Y-22976380D02*
X83623809Y-22500190D01*
X83385714Y-22976380D02*
X83385714Y-21976380D01*
X83766666Y-21976380D01*
X83861904Y-22024000D01*
X83909523Y-22071619D01*
X83957142Y-22166857D01*
X83957142Y-22309714D01*
X83909523Y-22404952D01*
X83861904Y-22452571D01*
X83766666Y-22500190D01*
X83385714Y-22500190D01*
X84290476Y-21976380D02*
X84909523Y-21976380D01*
X84576190Y-22357333D01*
X84719047Y-22357333D01*
X84814285Y-22404952D01*
X84861904Y-22452571D01*
X84909523Y-22547809D01*
X84909523Y-22785904D01*
X84861904Y-22881142D01*
X84814285Y-22928761D01*
X84719047Y-22976380D01*
X84433333Y-22976380D01*
X84338095Y-22928761D01*
X84290476Y-22881142D01*
X85814285Y-21976380D02*
X85338095Y-21976380D01*
X85290476Y-22452571D01*
X85338095Y-22404952D01*
X85433333Y-22357333D01*
X85671428Y-22357333D01*
X85766666Y-22404952D01*
X85814285Y-22452571D01*
X85861904Y-22547809D01*
X85861904Y-22785904D01*
X85814285Y-22881142D01*
X85766666Y-22928761D01*
X85671428Y-22976380D01*
X85433333Y-22976380D01*
X85338095Y-22928761D01*
X85290476Y-22881142D01*
X37933476Y-62928571D02*
X38076333Y-62976190D01*
X38123952Y-63023809D01*
X38171571Y-63119047D01*
X38171571Y-63261904D01*
X38123952Y-63357142D01*
X38076333Y-63404761D01*
X37981095Y-63452380D01*
X37600142Y-63452380D01*
X37600142Y-62452380D01*
X37933476Y-62452380D01*
X38028714Y-62500000D01*
X38076333Y-62547619D01*
X38123952Y-62642857D01*
X38123952Y-62738095D01*
X38076333Y-62833333D01*
X38028714Y-62880952D01*
X37933476Y-62928571D01*
X37600142Y-62928571D01*
X38457285Y-62452380D02*
X39028714Y-62452380D01*
X38743000Y-63452380D02*
X38743000Y-62452380D01*
X39362047Y-63452380D02*
X39362047Y-62452380D01*
X39933476Y-63452380D01*
X39933476Y-62452380D01*
X40600142Y-62452380D02*
X40695380Y-62452380D01*
X40790619Y-62500000D01*
X40838238Y-62547619D01*
X40885857Y-62642857D01*
X40933476Y-62833333D01*
X40933476Y-63071428D01*
X40885857Y-63261904D01*
X40838238Y-63357142D01*
X40790619Y-63404761D01*
X40695380Y-63452380D01*
X40600142Y-63452380D01*
X40504904Y-63404761D01*
X40457285Y-63357142D01*
X40409666Y-63261904D01*
X40362047Y-63071428D01*
X40362047Y-62833333D01*
X40409666Y-62642857D01*
X40457285Y-62547619D01*
X40504904Y-62500000D01*
X40600142Y-62452380D01*
X88666666Y-42154761D02*
X88809523Y-42202380D01*
X89047619Y-42202380D01*
X89142857Y-42154761D01*
X89190476Y-42107142D01*
X89238095Y-42011904D01*
X89238095Y-41916666D01*
X89190476Y-41821428D01*
X89142857Y-41773809D01*
X89047619Y-41726190D01*
X88857142Y-41678571D01*
X88761904Y-41630952D01*
X88714285Y-41583333D01*
X88666666Y-41488095D01*
X88666666Y-41392857D01*
X88714285Y-41297619D01*
X88761904Y-41250000D01*
X88857142Y-41202380D01*
X89095238Y-41202380D01*
X89238095Y-41250000D01*
X89571428Y-41202380D02*
X89809523Y-42202380D01*
X90000000Y-41488095D01*
X90190476Y-42202380D01*
X90428571Y-41202380D01*
X90714285Y-41202380D02*
X91333333Y-41202380D01*
X91000000Y-41583333D01*
X91142857Y-41583333D01*
X91238095Y-41630952D01*
X91285714Y-41678571D01*
X91333333Y-41773809D01*
X91333333Y-42011904D01*
X91285714Y-42107142D01*
X91238095Y-42154761D01*
X91142857Y-42202380D01*
X90857142Y-42202380D01*
X90761904Y-42154761D01*
X90714285Y-42107142D01*
X48160476Y-99878571D02*
X48303333Y-99926190D01*
X48350952Y-99973809D01*
X48398571Y-100069047D01*
X48398571Y-100211904D01*
X48350952Y-100307142D01*
X48303333Y-100354761D01*
X48208095Y-100402380D01*
X47827142Y-100402380D01*
X47827142Y-99402380D01*
X48160476Y-99402380D01*
X48255714Y-99450000D01*
X48303333Y-99497619D01*
X48350952Y-99592857D01*
X48350952Y-99688095D01*
X48303333Y-99783333D01*
X48255714Y-99830952D01*
X48160476Y-99878571D01*
X47827142Y-99878571D01*
X48684285Y-99402380D02*
X49255714Y-99402380D01*
X48970000Y-100402380D02*
X48970000Y-99402380D01*
X49589047Y-100402380D02*
X49589047Y-99402380D01*
X50160476Y-100402380D01*
X50160476Y-99402380D01*
X51160476Y-100402380D02*
X50589047Y-100402380D01*
X50874761Y-100402380D02*
X50874761Y-99402380D01*
X50779523Y-99545238D01*
X50684285Y-99640476D01*
X50589047Y-99688095D01*
X39580476Y-99878571D02*
X39723333Y-99926190D01*
X39770952Y-99973809D01*
X39818571Y-100069047D01*
X39818571Y-100211904D01*
X39770952Y-100307142D01*
X39723333Y-100354761D01*
X39628095Y-100402380D01*
X39247142Y-100402380D01*
X39247142Y-99402380D01*
X39580476Y-99402380D01*
X39675714Y-99450000D01*
X39723333Y-99497619D01*
X39770952Y-99592857D01*
X39770952Y-99688095D01*
X39723333Y-99783333D01*
X39675714Y-99830952D01*
X39580476Y-99878571D01*
X39247142Y-99878571D01*
X40104285Y-99402380D02*
X40675714Y-99402380D01*
X40390000Y-100402380D02*
X40390000Y-99402380D01*
X41009047Y-100402380D02*
X41009047Y-99402380D01*
X41580476Y-100402380D01*
X41580476Y-99402380D01*
X42009047Y-99497619D02*
X42056666Y-99450000D01*
X42151904Y-99402380D01*
X42390000Y-99402380D01*
X42485238Y-99450000D01*
X42532857Y-99497619D01*
X42580476Y-99592857D01*
X42580476Y-99688095D01*
X42532857Y-99830952D01*
X41961428Y-100402380D01*
X42580476Y-100402380D01*
X31080476Y-99878571D02*
X31223333Y-99926190D01*
X31270952Y-99973809D01*
X31318571Y-100069047D01*
X31318571Y-100211904D01*
X31270952Y-100307142D01*
X31223333Y-100354761D01*
X31128095Y-100402380D01*
X30747142Y-100402380D01*
X30747142Y-99402380D01*
X31080476Y-99402380D01*
X31175714Y-99450000D01*
X31223333Y-99497619D01*
X31270952Y-99592857D01*
X31270952Y-99688095D01*
X31223333Y-99783333D01*
X31175714Y-99830952D01*
X31080476Y-99878571D01*
X30747142Y-99878571D01*
X31604285Y-99402380D02*
X32175714Y-99402380D01*
X31890000Y-100402380D02*
X31890000Y-99402380D01*
X32509047Y-100402380D02*
X32509047Y-99402380D01*
X33080476Y-100402380D01*
X33080476Y-99402380D01*
X33461428Y-99402380D02*
X34080476Y-99402380D01*
X33747142Y-99783333D01*
X33890000Y-99783333D01*
X33985238Y-99830952D01*
X34032857Y-99878571D01*
X34080476Y-99973809D01*
X34080476Y-100211904D01*
X34032857Y-100307142D01*
X33985238Y-100354761D01*
X33890000Y-100402380D01*
X33604285Y-100402380D01*
X33509047Y-100354761D01*
X33461428Y-100307142D01*
X36938095Y-81452380D02*
X36938095Y-82261904D01*
X36985714Y-82357142D01*
X37033333Y-82404761D01*
X37128571Y-82452380D01*
X37319047Y-82452380D01*
X37414285Y-82404761D01*
X37461904Y-82357142D01*
X37509523Y-82261904D01*
X37509523Y-81452380D01*
X37938095Y-81547619D02*
X37985714Y-81500000D01*
X38080952Y-81452380D01*
X38319047Y-81452380D01*
X38414285Y-81500000D01*
X38461904Y-81547619D01*
X38509523Y-81642857D01*
X38509523Y-81738095D01*
X38461904Y-81880952D01*
X37890476Y-82452380D01*
X38509523Y-82452380D01*
X83538095Y-28852380D02*
X83538095Y-29661904D01*
X83585714Y-29757142D01*
X83633333Y-29804761D01*
X83728571Y-29852380D01*
X83919047Y-29852380D01*
X84014285Y-29804761D01*
X84061904Y-29757142D01*
X84109523Y-29661904D01*
X84109523Y-28852380D01*
X84490476Y-28852380D02*
X85109523Y-28852380D01*
X84776190Y-29233333D01*
X84919047Y-29233333D01*
X85014285Y-29280952D01*
X85061904Y-29328571D01*
X85109523Y-29423809D01*
X85109523Y-29661904D01*
X85061904Y-29757142D01*
X85014285Y-29804761D01*
X84919047Y-29852380D01*
X84633333Y-29852380D01*
X84538095Y-29804761D01*
X84490476Y-29757142D01*
X51681142Y-78299142D02*
X51633523Y-78346761D01*
X51490666Y-78394380D01*
X51395428Y-78394380D01*
X51252571Y-78346761D01*
X51157333Y-78251523D01*
X51109714Y-78156285D01*
X51062095Y-77965809D01*
X51062095Y-77822952D01*
X51109714Y-77632476D01*
X51157333Y-77537238D01*
X51252571Y-77442000D01*
X51395428Y-77394380D01*
X51490666Y-77394380D01*
X51633523Y-77442000D01*
X51681142Y-77489619D01*
X52062095Y-77489619D02*
X52109714Y-77442000D01*
X52204952Y-77394380D01*
X52443047Y-77394380D01*
X52538285Y-77442000D01*
X52585904Y-77489619D01*
X52633523Y-77584857D01*
X52633523Y-77680095D01*
X52585904Y-77822952D01*
X52014476Y-78394380D01*
X52633523Y-78394380D01*
X52966857Y-77394380D02*
X53633523Y-77394380D01*
X53204952Y-78394380D01*
X49395142Y-85665142D02*
X49347523Y-85712761D01*
X49204666Y-85760380D01*
X49109428Y-85760380D01*
X48966571Y-85712761D01*
X48871333Y-85617523D01*
X48823714Y-85522285D01*
X48776095Y-85331809D01*
X48776095Y-85188952D01*
X48823714Y-84998476D01*
X48871333Y-84903238D01*
X48966571Y-84808000D01*
X49109428Y-84760380D01*
X49204666Y-84760380D01*
X49347523Y-84808000D01*
X49395142Y-84855619D01*
X49776095Y-84855619D02*
X49823714Y-84808000D01*
X49918952Y-84760380D01*
X50157047Y-84760380D01*
X50252285Y-84808000D01*
X50299904Y-84855619D01*
X50347523Y-84950857D01*
X50347523Y-85046095D01*
X50299904Y-85188952D01*
X49728476Y-85760380D01*
X50347523Y-85760380D01*
X50918952Y-85188952D02*
X50823714Y-85141333D01*
X50776095Y-85093714D01*
X50728476Y-84998476D01*
X50728476Y-84950857D01*
X50776095Y-84855619D01*
X50823714Y-84808000D01*
X50918952Y-84760380D01*
X51109428Y-84760380D01*
X51204666Y-84808000D01*
X51252285Y-84855619D01*
X51299904Y-84950857D01*
X51299904Y-84998476D01*
X51252285Y-85093714D01*
X51204666Y-85141333D01*
X51109428Y-85188952D01*
X50918952Y-85188952D01*
X50823714Y-85236571D01*
X50776095Y-85284190D01*
X50728476Y-85379428D01*
X50728476Y-85569904D01*
X50776095Y-85665142D01*
X50823714Y-85712761D01*
X50918952Y-85760380D01*
X51109428Y-85760380D01*
X51204666Y-85712761D01*
X51252285Y-85665142D01*
X51299904Y-85569904D01*
X51299904Y-85379428D01*
X51252285Y-85284190D01*
X51204666Y-85236571D01*
X51109428Y-85188952D01*
X51681142Y-77124380D02*
X51347809Y-76648190D01*
X51109714Y-77124380D02*
X51109714Y-76124380D01*
X51490666Y-76124380D01*
X51585904Y-76172000D01*
X51633523Y-76219619D01*
X51681142Y-76314857D01*
X51681142Y-76457714D01*
X51633523Y-76552952D01*
X51585904Y-76600571D01*
X51490666Y-76648190D01*
X51109714Y-76648190D01*
X52633523Y-77124380D02*
X52062095Y-77124380D01*
X52347809Y-77124380D02*
X52347809Y-76124380D01*
X52252571Y-76267238D01*
X52157333Y-76362476D01*
X52062095Y-76410095D01*
X53538285Y-76124380D02*
X53062095Y-76124380D01*
X53014476Y-76600571D01*
X53062095Y-76552952D01*
X53157333Y-76505333D01*
X53395428Y-76505333D01*
X53490666Y-76552952D01*
X53538285Y-76600571D01*
X53585904Y-76695809D01*
X53585904Y-76933904D01*
X53538285Y-77029142D01*
X53490666Y-77076761D01*
X53395428Y-77124380D01*
X53157333Y-77124380D01*
X53062095Y-77076761D01*
X53014476Y-77029142D01*
X56507142Y-78394380D02*
X56173809Y-77918190D01*
X55935714Y-78394380D02*
X55935714Y-77394380D01*
X56316666Y-77394380D01*
X56411904Y-77442000D01*
X56459523Y-77489619D01*
X56507142Y-77584857D01*
X56507142Y-77727714D01*
X56459523Y-77822952D01*
X56411904Y-77870571D01*
X56316666Y-77918190D01*
X55935714Y-77918190D01*
X57459523Y-78394380D02*
X56888095Y-78394380D01*
X57173809Y-78394380D02*
X57173809Y-77394380D01*
X57078571Y-77537238D01*
X56983333Y-77632476D01*
X56888095Y-77680095D01*
X58316666Y-77394380D02*
X58126190Y-77394380D01*
X58030952Y-77442000D01*
X57983333Y-77489619D01*
X57888095Y-77632476D01*
X57840476Y-77822952D01*
X57840476Y-78203904D01*
X57888095Y-78299142D01*
X57935714Y-78346761D01*
X58030952Y-78394380D01*
X58221428Y-78394380D01*
X58316666Y-78346761D01*
X58364285Y-78299142D01*
X58411904Y-78203904D01*
X58411904Y-77965809D01*
X58364285Y-77870571D01*
X58316666Y-77822952D01*
X58221428Y-77775333D01*
X58030952Y-77775333D01*
X57935714Y-77822952D01*
X57888095Y-77870571D01*
X57840476Y-77965809D01*
X57997142Y-85972380D02*
X57663809Y-85496190D01*
X57425714Y-85972380D02*
X57425714Y-84972380D01*
X57806666Y-84972380D01*
X57901904Y-85020000D01*
X57949523Y-85067619D01*
X57997142Y-85162857D01*
X57997142Y-85305714D01*
X57949523Y-85400952D01*
X57901904Y-85448571D01*
X57806666Y-85496190D01*
X57425714Y-85496190D01*
X58949523Y-85972380D02*
X58378095Y-85972380D01*
X58663809Y-85972380D02*
X58663809Y-84972380D01*
X58568571Y-85115238D01*
X58473333Y-85210476D01*
X58378095Y-85258095D01*
X59282857Y-84972380D02*
X59949523Y-84972380D01*
X59520952Y-85972380D01*
X51173142Y-88300380D02*
X50839809Y-87824190D01*
X50601714Y-88300380D02*
X50601714Y-87300380D01*
X50982666Y-87300380D01*
X51077904Y-87348000D01*
X51125523Y-87395619D01*
X51173142Y-87490857D01*
X51173142Y-87633714D01*
X51125523Y-87728952D01*
X51077904Y-87776571D01*
X50982666Y-87824190D01*
X50601714Y-87824190D01*
X52125523Y-88300380D02*
X51554095Y-88300380D01*
X51839809Y-88300380D02*
X51839809Y-87300380D01*
X51744571Y-87443238D01*
X51649333Y-87538476D01*
X51554095Y-87586095D01*
X52696952Y-87728952D02*
X52601714Y-87681333D01*
X52554095Y-87633714D01*
X52506476Y-87538476D01*
X52506476Y-87490857D01*
X52554095Y-87395619D01*
X52601714Y-87348000D01*
X52696952Y-87300380D01*
X52887428Y-87300380D01*
X52982666Y-87348000D01*
X53030285Y-87395619D01*
X53077904Y-87490857D01*
X53077904Y-87538476D01*
X53030285Y-87633714D01*
X52982666Y-87681333D01*
X52887428Y-87728952D01*
X52696952Y-87728952D01*
X52601714Y-87776571D01*
X52554095Y-87824190D01*
X52506476Y-87919428D01*
X52506476Y-88109904D01*
X52554095Y-88205142D01*
X52601714Y-88252761D01*
X52696952Y-88300380D01*
X52887428Y-88300380D01*
X52982666Y-88252761D01*
X53030285Y-88205142D01*
X53077904Y-88109904D01*
X53077904Y-87919428D01*
X53030285Y-87824190D01*
X52982666Y-87776571D01*
X52887428Y-87728952D01*
D12*
X53434000Y-96709666D02*
X53434000Y-96009666D01*
X53600666Y-96009666D01*
X53700666Y-96043000D01*
X53767333Y-96109666D01*
X53800666Y-96176333D01*
X53834000Y-96309666D01*
X53834000Y-96409666D01*
X53800666Y-96543000D01*
X53767333Y-96609666D01*
X53700666Y-96676333D01*
X53600666Y-96709666D01*
X53434000Y-96709666D01*
X54100666Y-96509666D02*
X54434000Y-96509666D01*
X54034000Y-96709666D02*
X54267333Y-96009666D01*
X54500666Y-96709666D01*
X55134000Y-96643000D02*
X55100666Y-96676333D01*
X55000666Y-96709666D01*
X54934000Y-96709666D01*
X54834000Y-96676333D01*
X54767333Y-96609666D01*
X54734000Y-96543000D01*
X54700666Y-96409666D01*
X54700666Y-96309666D01*
X54734000Y-96176333D01*
X54767333Y-96109666D01*
X54834000Y-96043000D01*
X54934000Y-96009666D01*
X55000666Y-96009666D01*
X55100666Y-96043000D01*
X55134000Y-96076333D01*
X55267333Y-96776333D02*
X55800666Y-96776333D01*
X56100666Y-96009666D02*
X56234000Y-96009666D01*
X56300666Y-96043000D01*
X56367333Y-96109666D01*
X56400666Y-96243000D01*
X56400666Y-96476333D01*
X56367333Y-96609666D01*
X56300666Y-96676333D01*
X56234000Y-96709666D01*
X56100666Y-96709666D01*
X56034000Y-96676333D01*
X55967333Y-96609666D01*
X55934000Y-96476333D01*
X55934000Y-96243000D01*
X55967333Y-96109666D01*
X56034000Y-96043000D01*
X56100666Y-96009666D01*
X56700666Y-96009666D02*
X56700666Y-96576333D01*
X56734000Y-96643000D01*
X56767333Y-96676333D01*
X56834000Y-96709666D01*
X56967333Y-96709666D01*
X57034000Y-96676333D01*
X57067333Y-96643000D01*
X57100666Y-96576333D01*
X57100666Y-96009666D01*
X57334000Y-96009666D02*
X57734000Y-96009666D01*
X57534000Y-96709666D02*
X57534000Y-96009666D01*
X57800666Y-96776333D02*
X58334000Y-96776333D01*
X58867333Y-96709666D02*
X58467333Y-96709666D01*
X58667333Y-96709666D02*
X58667333Y-96009666D01*
X58600666Y-96109666D01*
X58534000Y-96176333D01*
X58467333Y-96209666D01*
D13*
X75960333Y-29181142D02*
X75912714Y-29228761D01*
X75769857Y-29276380D01*
X75674619Y-29276380D01*
X75531761Y-29228761D01*
X75436523Y-29133523D01*
X75388904Y-29038285D01*
X75341285Y-28847809D01*
X75341285Y-28704952D01*
X75388904Y-28514476D01*
X75436523Y-28419238D01*
X75531761Y-28324000D01*
X75674619Y-28276380D01*
X75769857Y-28276380D01*
X75912714Y-28324000D01*
X75960333Y-28371619D01*
X76293666Y-28276380D02*
X76960333Y-28276380D01*
X76531761Y-29276380D01*
X75967832Y-30772141D02*
X75920213Y-30819760D01*
X75777356Y-30867379D01*
X75682118Y-30867379D01*
X75539260Y-30819760D01*
X75444022Y-30724522D01*
X75396403Y-30629284D01*
X75348784Y-30438808D01*
X75348784Y-30295951D01*
X75396403Y-30105475D01*
X75444022Y-30010237D01*
X75539260Y-29914999D01*
X75682118Y-29867379D01*
X75777356Y-29867379D01*
X75920213Y-29914999D01*
X75967832Y-29962618D01*
X76539260Y-30295951D02*
X76444022Y-30248332D01*
X76396403Y-30200713D01*
X76348784Y-30105475D01*
X76348784Y-30057856D01*
X76396403Y-29962618D01*
X76444022Y-29914999D01*
X76539260Y-29867379D01*
X76729737Y-29867379D01*
X76824975Y-29914999D01*
X76872594Y-29962618D01*
X76920213Y-30057856D01*
X76920213Y-30105475D01*
X76872594Y-30200713D01*
X76824975Y-30248332D01*
X76729737Y-30295951D01*
X76539260Y-30295951D01*
X76444022Y-30343570D01*
X76396403Y-30391189D01*
X76348784Y-30486427D01*
X76348784Y-30676903D01*
X76396403Y-30772141D01*
X76444022Y-30819760D01*
X76539260Y-30867379D01*
X76729737Y-30867379D01*
X76824975Y-30819760D01*
X76872594Y-30772141D01*
X76920213Y-30676903D01*
X76920213Y-30486427D01*
X76872594Y-30391189D01*
X76824975Y-30343570D01*
X76729737Y-30295951D01*
X75960333Y-27131142D02*
X75912714Y-27178761D01*
X75769857Y-27226380D01*
X75674619Y-27226380D01*
X75531761Y-27178761D01*
X75436523Y-27083523D01*
X75388904Y-26988285D01*
X75341285Y-26797809D01*
X75341285Y-26654952D01*
X75388904Y-26464476D01*
X75436523Y-26369238D01*
X75531761Y-26274000D01*
X75674619Y-26226380D01*
X75769857Y-26226380D01*
X75912714Y-26274000D01*
X75960333Y-26321619D01*
X76436523Y-27226380D02*
X76627000Y-27226380D01*
X76722238Y-27178761D01*
X76769857Y-27131142D01*
X76865095Y-26988285D01*
X76912714Y-26797809D01*
X76912714Y-26416857D01*
X76865095Y-26321619D01*
X76817476Y-26274000D01*
X76722238Y-26226380D01*
X76531761Y-26226380D01*
X76436523Y-26274000D01*
X76388904Y-26321619D01*
X76341285Y-26416857D01*
X76341285Y-26654952D01*
X76388904Y-26750190D01*
X76436523Y-26797809D01*
X76531761Y-26845428D01*
X76722238Y-26845428D01*
X76817476Y-26797809D01*
X76865095Y-26750190D01*
X76912714Y-26654952D01*
X75934142Y-25181142D02*
X75886523Y-25228761D01*
X75743666Y-25276380D01*
X75648428Y-25276380D01*
X75505571Y-25228761D01*
X75410333Y-25133523D01*
X75362714Y-25038285D01*
X75315095Y-24847809D01*
X75315095Y-24704952D01*
X75362714Y-24514476D01*
X75410333Y-24419238D01*
X75505571Y-24324000D01*
X75648428Y-24276380D01*
X75743666Y-24276380D01*
X75886523Y-24324000D01*
X75934142Y-24371619D01*
X76886523Y-25276380D02*
X76315095Y-25276380D01*
X76600809Y-25276380D02*
X76600809Y-24276380D01*
X76505571Y-24419238D01*
X76410333Y-24514476D01*
X76315095Y-24562095D01*
X77505571Y-24276380D02*
X77600809Y-24276380D01*
X77696047Y-24324000D01*
X77743666Y-24371619D01*
X77791285Y-24466857D01*
X77838904Y-24657333D01*
X77838904Y-24895428D01*
X77791285Y-25085904D01*
X77743666Y-25181142D01*
X77696047Y-25228761D01*
X77600809Y-25276380D01*
X77505571Y-25276380D01*
X77410333Y-25228761D01*
X77362714Y-25181142D01*
X77315095Y-25085904D01*
X77267476Y-24895428D01*
X77267476Y-24657333D01*
X77315095Y-24466857D01*
X77362714Y-24371619D01*
X77410333Y-24324000D01*
X77505571Y-24276380D01*
X67683142Y-85701142D02*
X67635523Y-85748761D01*
X67492666Y-85796380D01*
X67397428Y-85796380D01*
X67254571Y-85748761D01*
X67159333Y-85653523D01*
X67111714Y-85558285D01*
X67064095Y-85367809D01*
X67064095Y-85224952D01*
X67111714Y-85034476D01*
X67159333Y-84939238D01*
X67254571Y-84844000D01*
X67397428Y-84796380D01*
X67492666Y-84796380D01*
X67635523Y-84844000D01*
X67683142Y-84891619D01*
X68064095Y-84891619D02*
X68111714Y-84844000D01*
X68206952Y-84796380D01*
X68445047Y-84796380D01*
X68540285Y-84844000D01*
X68587904Y-84891619D01*
X68635523Y-84986857D01*
X68635523Y-85082095D01*
X68587904Y-85224952D01*
X68016476Y-85796380D01*
X68635523Y-85796380D01*
X69111714Y-85796380D02*
X69302190Y-85796380D01*
X69397428Y-85748761D01*
X69445047Y-85701142D01*
X69540285Y-85558285D01*
X69587904Y-85367809D01*
X69587904Y-84986857D01*
X69540285Y-84891619D01*
X69492666Y-84844000D01*
X69397428Y-84796380D01*
X69206952Y-84796380D01*
X69111714Y-84844000D01*
X69064095Y-84891619D01*
X69016476Y-84986857D01*
X69016476Y-85224952D01*
X69064095Y-85320190D01*
X69111714Y-85367809D01*
X69206952Y-85415428D01*
X69397428Y-85415428D01*
X69492666Y-85367809D01*
X69540285Y-85320190D01*
X69587904Y-85224952D01*
X69715142Y-78335142D02*
X69667523Y-78382761D01*
X69524666Y-78430380D01*
X69429428Y-78430380D01*
X69286571Y-78382761D01*
X69191333Y-78287523D01*
X69143714Y-78192285D01*
X69096095Y-78001809D01*
X69096095Y-77858952D01*
X69143714Y-77668476D01*
X69191333Y-77573238D01*
X69286571Y-77478000D01*
X69429428Y-77430380D01*
X69524666Y-77430380D01*
X69667523Y-77478000D01*
X69715142Y-77525619D01*
X70048476Y-77430380D02*
X70667523Y-77430380D01*
X70334190Y-77811333D01*
X70477047Y-77811333D01*
X70572285Y-77858952D01*
X70619904Y-77906571D01*
X70667523Y-78001809D01*
X70667523Y-78239904D01*
X70619904Y-78335142D01*
X70572285Y-78382761D01*
X70477047Y-78430380D01*
X70191333Y-78430380D01*
X70096095Y-78382761D01*
X70048476Y-78335142D01*
X71286571Y-77430380D02*
X71381809Y-77430380D01*
X71477047Y-77478000D01*
X71524666Y-77525619D01*
X71572285Y-77620857D01*
X71619904Y-77811333D01*
X71619904Y-78049428D01*
X71572285Y-78239904D01*
X71524666Y-78335142D01*
X71477047Y-78382761D01*
X71381809Y-78430380D01*
X71286571Y-78430380D01*
X71191333Y-78382761D01*
X71143714Y-78335142D01*
X71096095Y-78239904D01*
X71048476Y-78049428D01*
X71048476Y-77811333D01*
X71096095Y-77620857D01*
X71143714Y-77525619D01*
X71191333Y-77478000D01*
X71286571Y-77430380D01*
X46842476Y-30500380D02*
X46842476Y-29500380D01*
X47223428Y-29500380D01*
X47318666Y-29548000D01*
X47366285Y-29595619D01*
X47413904Y-29690857D01*
X47413904Y-29833714D01*
X47366285Y-29928952D01*
X47318666Y-29976571D01*
X47223428Y-30024190D01*
X46842476Y-30024190D01*
X47747238Y-29500380D02*
X47985333Y-30500380D01*
X48175809Y-29786095D01*
X48366285Y-30500380D01*
X48604380Y-29500380D01*
X49556761Y-30500380D02*
X49223428Y-30024190D01*
X48985333Y-30500380D02*
X48985333Y-29500380D01*
X49366285Y-29500380D01*
X49461523Y-29548000D01*
X49509142Y-29595619D01*
X49556761Y-29690857D01*
X49556761Y-29833714D01*
X49509142Y-29928952D01*
X49461523Y-29976571D01*
X49366285Y-30024190D01*
X48985333Y-30024190D01*
X50509142Y-30500380D02*
X49937714Y-30500380D01*
X50223428Y-30500380D02*
X50223428Y-29500380D01*
X50128190Y-29643238D01*
X50032952Y-29738476D01*
X49937714Y-29786095D01*
D12*
X69436000Y-96582666D02*
X69436000Y-95882666D01*
X69602666Y-95882666D01*
X69702666Y-95916000D01*
X69769333Y-95982666D01*
X69802666Y-96049333D01*
X69836000Y-96182666D01*
X69836000Y-96282666D01*
X69802666Y-96416000D01*
X69769333Y-96482666D01*
X69702666Y-96549333D01*
X69602666Y-96582666D01*
X69436000Y-96582666D01*
X70102666Y-96382666D02*
X70436000Y-96382666D01*
X70036000Y-96582666D02*
X70269333Y-95882666D01*
X70502666Y-96582666D01*
X71136000Y-96516000D02*
X71102666Y-96549333D01*
X71002666Y-96582666D01*
X70936000Y-96582666D01*
X70836000Y-96549333D01*
X70769333Y-96482666D01*
X70736000Y-96416000D01*
X70702666Y-96282666D01*
X70702666Y-96182666D01*
X70736000Y-96049333D01*
X70769333Y-95982666D01*
X70836000Y-95916000D01*
X70936000Y-95882666D01*
X71002666Y-95882666D01*
X71102666Y-95916000D01*
X71136000Y-95949333D01*
X71269333Y-96649333D02*
X71802666Y-96649333D01*
X72102666Y-95882666D02*
X72236000Y-95882666D01*
X72302666Y-95916000D01*
X72369333Y-95982666D01*
X72402666Y-96116000D01*
X72402666Y-96349333D01*
X72369333Y-96482666D01*
X72302666Y-96549333D01*
X72236000Y-96582666D01*
X72102666Y-96582666D01*
X72036000Y-96549333D01*
X71969333Y-96482666D01*
X71936000Y-96349333D01*
X71936000Y-96116000D01*
X71969333Y-95982666D01*
X72036000Y-95916000D01*
X72102666Y-95882666D01*
X72702666Y-95882666D02*
X72702666Y-96449333D01*
X72736000Y-96516000D01*
X72769333Y-96549333D01*
X72836000Y-96582666D01*
X72969333Y-96582666D01*
X73036000Y-96549333D01*
X73069333Y-96516000D01*
X73102666Y-96449333D01*
X73102666Y-95882666D01*
X73336000Y-95882666D02*
X73736000Y-95882666D01*
X73536000Y-96582666D02*
X73536000Y-95882666D01*
X73802666Y-96649333D02*
X74336000Y-96649333D01*
X74469333Y-95949333D02*
X74502666Y-95916000D01*
X74569333Y-95882666D01*
X74736000Y-95882666D01*
X74802666Y-95916000D01*
X74836000Y-95949333D01*
X74869333Y-96016000D01*
X74869333Y-96082666D01*
X74836000Y-96182666D01*
X74436000Y-96582666D01*
X74869333Y-96582666D01*
D13*
X67419714Y-20588380D02*
X67419714Y-19588380D01*
X67800666Y-19588380D01*
X67895904Y-19636000D01*
X67943523Y-19683619D01*
X67991142Y-19778857D01*
X67991142Y-19921714D01*
X67943523Y-20016952D01*
X67895904Y-20064571D01*
X67800666Y-20112190D01*
X67419714Y-20112190D01*
X68372095Y-20540761D02*
X68514952Y-20588380D01*
X68753047Y-20588380D01*
X68848285Y-20540761D01*
X68895904Y-20493142D01*
X68943523Y-20397904D01*
X68943523Y-20302666D01*
X68895904Y-20207428D01*
X68848285Y-20159809D01*
X68753047Y-20112190D01*
X68562571Y-20064571D01*
X68467333Y-20016952D01*
X68419714Y-19969333D01*
X68372095Y-19874095D01*
X68372095Y-19778857D01*
X68419714Y-19683619D01*
X68467333Y-19636000D01*
X68562571Y-19588380D01*
X68800666Y-19588380D01*
X68943523Y-19636000D01*
X69324476Y-19683619D02*
X69372095Y-19636000D01*
X69467333Y-19588380D01*
X69705428Y-19588380D01*
X69800666Y-19636000D01*
X69848285Y-19683619D01*
X69895904Y-19778857D01*
X69895904Y-19874095D01*
X69848285Y-20016952D01*
X69276857Y-20588380D01*
X69895904Y-20588380D01*
X76033333Y-81732380D02*
X75700000Y-81256190D01*
X75461904Y-81732380D02*
X75461904Y-80732380D01*
X75842857Y-80732380D01*
X75938095Y-80780000D01*
X75985714Y-80827619D01*
X76033333Y-80922857D01*
X76033333Y-81065714D01*
X75985714Y-81160952D01*
X75938095Y-81208571D01*
X75842857Y-81256190D01*
X75461904Y-81256190D01*
X76985714Y-81732380D02*
X76414285Y-81732380D01*
X76700000Y-81732380D02*
X76700000Y-80732380D01*
X76604761Y-80875238D01*
X76509523Y-80970476D01*
X76414285Y-81018095D01*
X70445333Y-77160380D02*
X70112000Y-76684190D01*
X69873904Y-77160380D02*
X69873904Y-76160380D01*
X70254857Y-76160380D01*
X70350095Y-76208000D01*
X70397714Y-76255619D01*
X70445333Y-76350857D01*
X70445333Y-76493714D01*
X70397714Y-76588952D01*
X70350095Y-76636571D01*
X70254857Y-76684190D01*
X69873904Y-76684190D01*
X70826285Y-76255619D02*
X70873904Y-76208000D01*
X70969142Y-76160380D01*
X71207238Y-76160380D01*
X71302476Y-76208000D01*
X71350095Y-76255619D01*
X71397714Y-76350857D01*
X71397714Y-76446095D01*
X71350095Y-76588952D01*
X70778666Y-77160380D01*
X71397714Y-77160380D01*
X70133333Y-88652380D02*
X69800000Y-88176190D01*
X69561904Y-88652380D02*
X69561904Y-87652380D01*
X69942857Y-87652380D01*
X70038095Y-87700000D01*
X70085714Y-87747619D01*
X70133333Y-87842857D01*
X70133333Y-87985714D01*
X70085714Y-88080952D01*
X70038095Y-88128571D01*
X69942857Y-88176190D01*
X69561904Y-88176190D01*
X70466666Y-87652380D02*
X71085714Y-87652380D01*
X70752380Y-88033333D01*
X70895238Y-88033333D01*
X70990476Y-88080952D01*
X71038095Y-88128571D01*
X71085714Y-88223809D01*
X71085714Y-88461904D01*
X71038095Y-88557142D01*
X70990476Y-88604761D01*
X70895238Y-88652380D01*
X70609523Y-88652380D01*
X70514285Y-88604761D01*
X70466666Y-88557142D01*
X71715333Y-79700380D02*
X71382000Y-79224190D01*
X71143904Y-79700380D02*
X71143904Y-78700380D01*
X71524857Y-78700380D01*
X71620095Y-78748000D01*
X71667714Y-78795619D01*
X71715333Y-78890857D01*
X71715333Y-79033714D01*
X71667714Y-79128952D01*
X71620095Y-79176571D01*
X71524857Y-79224190D01*
X71143904Y-79224190D01*
X72572476Y-79033714D02*
X72572476Y-79700380D01*
X72334380Y-78652761D02*
X72096285Y-79367047D01*
X72715333Y-79367047D01*
X48771142Y-28222380D02*
X48437809Y-27746190D01*
X48199714Y-28222380D02*
X48199714Y-27222380D01*
X48580666Y-27222380D01*
X48675904Y-27270000D01*
X48723523Y-27317619D01*
X48771142Y-27412857D01*
X48771142Y-27555714D01*
X48723523Y-27650952D01*
X48675904Y-27698571D01*
X48580666Y-27746190D01*
X48199714Y-27746190D01*
X49104476Y-27222380D02*
X49723523Y-27222380D01*
X49390190Y-27603333D01*
X49533047Y-27603333D01*
X49628285Y-27650952D01*
X49675904Y-27698571D01*
X49723523Y-27793809D01*
X49723523Y-28031904D01*
X49675904Y-28127142D01*
X49628285Y-28174761D01*
X49533047Y-28222380D01*
X49247333Y-28222380D01*
X49152095Y-28174761D01*
X49104476Y-28127142D01*
X50580666Y-27222380D02*
X50390190Y-27222380D01*
X50294952Y-27270000D01*
X50247333Y-27317619D01*
X50152095Y-27460476D01*
X50104476Y-27650952D01*
X50104476Y-28031904D01*
X50152095Y-28127142D01*
X50199714Y-28174761D01*
X50294952Y-28222380D01*
X50485428Y-28222380D01*
X50580666Y-28174761D01*
X50628285Y-28127142D01*
X50675904Y-28031904D01*
X50675904Y-27793809D01*
X50628285Y-27698571D01*
X50580666Y-27650952D01*
X50485428Y-27603333D01*
X50294952Y-27603333D01*
X50199714Y-27650952D01*
X50152095Y-27698571D01*
X50104476Y-27793809D01*
X55880095Y-87300380D02*
X55880095Y-88109904D01*
X55927714Y-88205142D01*
X55975333Y-88252761D01*
X56070571Y-88300380D01*
X56261047Y-88300380D01*
X56356285Y-88252761D01*
X56403904Y-88205142D01*
X56451523Y-88109904D01*
X56451523Y-87300380D01*
X57356285Y-87633714D02*
X57356285Y-88300380D01*
X57118190Y-87252761D02*
X56880095Y-87967047D01*
X57499142Y-87967047D01*
X73660095Y-87590380D02*
X73660095Y-88399904D01*
X73707714Y-88495142D01*
X73755333Y-88542761D01*
X73850571Y-88590380D01*
X74041047Y-88590380D01*
X74136285Y-88542761D01*
X74183904Y-88495142D01*
X74231523Y-88399904D01*
X74231523Y-87590380D01*
X75183904Y-87590380D02*
X74707714Y-87590380D01*
X74660095Y-88066571D01*
X74707714Y-88018952D01*
X74802952Y-87971333D01*
X75041047Y-87971333D01*
X75136285Y-88018952D01*
X75183904Y-88066571D01*
X75231523Y-88161809D01*
X75231523Y-88399904D01*
X75183904Y-88495142D01*
X75136285Y-88542761D01*
X75041047Y-88590380D01*
X74802952Y-88590380D01*
X74707714Y-88542761D01*
X74660095Y-88495142D01*
X69542142Y-71557142D02*
X69494523Y-71604761D01*
X69351666Y-71652380D01*
X69256428Y-71652380D01*
X69113571Y-71604761D01*
X69018333Y-71509523D01*
X68970714Y-71414285D01*
X68923095Y-71223809D01*
X68923095Y-71080952D01*
X68970714Y-70890476D01*
X69018333Y-70795238D01*
X69113571Y-70700000D01*
X69256428Y-70652380D01*
X69351666Y-70652380D01*
X69494523Y-70700000D01*
X69542142Y-70747619D01*
X69923095Y-70747619D02*
X69970714Y-70700000D01*
X70065952Y-70652380D01*
X70304047Y-70652380D01*
X70399285Y-70700000D01*
X70446904Y-70747619D01*
X70494523Y-70842857D01*
X70494523Y-70938095D01*
X70446904Y-71080952D01*
X69875476Y-71652380D01*
X70494523Y-71652380D01*
X70875476Y-70747619D02*
X70923095Y-70700000D01*
X71018333Y-70652380D01*
X71256428Y-70652380D01*
X71351666Y-70700000D01*
X71399285Y-70747619D01*
X71446904Y-70842857D01*
X71446904Y-70938095D01*
X71399285Y-71080952D01*
X70827857Y-71652380D01*
X71446904Y-71652380D01*
X72763142Y-54459142D02*
X72715523Y-54506761D01*
X72572666Y-54554380D01*
X72477428Y-54554380D01*
X72334571Y-54506761D01*
X72239333Y-54411523D01*
X72191714Y-54316285D01*
X72144095Y-54125809D01*
X72144095Y-53982952D01*
X72191714Y-53792476D01*
X72239333Y-53697238D01*
X72334571Y-53602000D01*
X72477428Y-53554380D01*
X72572666Y-53554380D01*
X72715523Y-53602000D01*
X72763142Y-53649619D01*
X73144095Y-53649619D02*
X73191714Y-53602000D01*
X73286952Y-53554380D01*
X73525047Y-53554380D01*
X73620285Y-53602000D01*
X73667904Y-53649619D01*
X73715523Y-53744857D01*
X73715523Y-53840095D01*
X73667904Y-53982952D01*
X73096476Y-54554380D01*
X73715523Y-54554380D01*
X74048857Y-53554380D02*
X74667904Y-53554380D01*
X74334571Y-53935333D01*
X74477428Y-53935333D01*
X74572666Y-53982952D01*
X74620285Y-54030571D01*
X74667904Y-54125809D01*
X74667904Y-54363904D01*
X74620285Y-54459142D01*
X74572666Y-54506761D01*
X74477428Y-54554380D01*
X74191714Y-54554380D01*
X74096476Y-54506761D01*
X74048857Y-54459142D01*
X71403452Y-48632380D02*
X70927261Y-48632380D01*
X70927261Y-47632380D01*
X71736785Y-48108571D02*
X72070119Y-48108571D01*
X72212976Y-48632380D02*
X71736785Y-48632380D01*
X71736785Y-47632380D01*
X72212976Y-47632380D01*
X72641547Y-48632380D02*
X72641547Y-47632380D01*
X72879642Y-47632380D01*
X73022500Y-47680000D01*
X73117738Y-47775238D01*
X73165357Y-47870476D01*
X73212976Y-48060952D01*
X73212976Y-48203809D01*
X73165357Y-48394285D01*
X73117738Y-48489523D01*
X73022500Y-48584761D01*
X72879642Y-48632380D01*
X72641547Y-48632380D01*
X74117738Y-47632380D02*
X73641547Y-47632380D01*
X73593928Y-48108571D01*
X73641547Y-48060952D01*
X73736785Y-48013333D01*
X73974880Y-48013333D01*
X74070119Y-48060952D01*
X74117738Y-48108571D01*
X74165357Y-48203809D01*
X74165357Y-48441904D01*
X74117738Y-48537142D01*
X74070119Y-48584761D01*
X73974880Y-48632380D01*
X73736785Y-48632380D01*
X73641547Y-48584761D01*
X73593928Y-48537142D01*
X71360952Y-44662380D02*
X70884761Y-44662380D01*
X70884761Y-43662380D01*
X71694285Y-44138571D02*
X72027619Y-44138571D01*
X72170476Y-44662380D02*
X71694285Y-44662380D01*
X71694285Y-43662380D01*
X72170476Y-43662380D01*
X72599047Y-44662380D02*
X72599047Y-43662380D01*
X72837142Y-43662380D01*
X72980000Y-43710000D01*
X73075238Y-43805238D01*
X73122857Y-43900476D01*
X73170476Y-44090952D01*
X73170476Y-44233809D01*
X73122857Y-44424285D01*
X73075238Y-44519523D01*
X72980000Y-44614761D01*
X72837142Y-44662380D01*
X72599047Y-44662380D01*
X74027619Y-43995714D02*
X74027619Y-44662380D01*
X73789523Y-43614761D02*
X73551428Y-44329047D01*
X74170476Y-44329047D01*
X75710476Y-93182380D02*
X75710476Y-93896666D01*
X75662857Y-94039523D01*
X75567619Y-94134761D01*
X75424761Y-94182380D01*
X75329523Y-94182380D01*
X76139047Y-93277619D02*
X76186666Y-93230000D01*
X76281904Y-93182380D01*
X76520000Y-93182380D01*
X76615238Y-93230000D01*
X76662857Y-93277619D01*
X76710476Y-93372857D01*
X76710476Y-93468095D01*
X76662857Y-93610952D01*
X76091428Y-94182380D01*
X76710476Y-94182380D01*
X77091428Y-93277619D02*
X77139047Y-93230000D01*
X77234285Y-93182380D01*
X77472380Y-93182380D01*
X77567619Y-93230000D01*
X77615238Y-93277619D01*
X77662857Y-93372857D01*
X77662857Y-93468095D01*
X77615238Y-93610952D01*
X77043809Y-94182380D01*
X77662857Y-94182380D01*
X77404761Y-51147619D02*
X77309523Y-51100000D01*
X77214285Y-51004761D01*
X77071428Y-50861904D01*
X76976190Y-50814285D01*
X76880952Y-50814285D01*
X76928571Y-51052380D02*
X76833333Y-51004761D01*
X76738095Y-50909523D01*
X76690476Y-50719047D01*
X76690476Y-50385714D01*
X76738095Y-50195238D01*
X76833333Y-50100000D01*
X76928571Y-50052380D01*
X77119047Y-50052380D01*
X77214285Y-50100000D01*
X77309523Y-50195238D01*
X77357142Y-50385714D01*
X77357142Y-50719047D01*
X77309523Y-50909523D01*
X77214285Y-51004761D01*
X77119047Y-51052380D01*
X76928571Y-51052380D01*
X77690476Y-50052380D02*
X78357142Y-50052380D01*
X77928571Y-51052380D01*
X77504761Y-45847619D02*
X77409523Y-45800000D01*
X77314285Y-45704761D01*
X77171428Y-45561904D01*
X77076190Y-45514285D01*
X76980952Y-45514285D01*
X77028571Y-45752380D02*
X76933333Y-45704761D01*
X76838095Y-45609523D01*
X76790476Y-45419047D01*
X76790476Y-45085714D01*
X76838095Y-44895238D01*
X76933333Y-44800000D01*
X77028571Y-44752380D01*
X77219047Y-44752380D01*
X77314285Y-44800000D01*
X77409523Y-44895238D01*
X77457142Y-45085714D01*
X77457142Y-45419047D01*
X77409523Y-45609523D01*
X77314285Y-45704761D01*
X77219047Y-45752380D01*
X77028571Y-45752380D01*
X78028571Y-45180952D02*
X77933333Y-45133333D01*
X77885714Y-45085714D01*
X77838095Y-44990476D01*
X77838095Y-44942857D01*
X77885714Y-44847619D01*
X77933333Y-44800000D01*
X78028571Y-44752380D01*
X78219047Y-44752380D01*
X78314285Y-44800000D01*
X78361904Y-44847619D01*
X78409523Y-44942857D01*
X78409523Y-44990476D01*
X78361904Y-45085714D01*
X78314285Y-45133333D01*
X78219047Y-45180952D01*
X78028571Y-45180952D01*
X77933333Y-45228571D01*
X77885714Y-45276190D01*
X77838095Y-45371428D01*
X77838095Y-45561904D01*
X77885714Y-45657142D01*
X77933333Y-45704761D01*
X78028571Y-45752380D01*
X78219047Y-45752380D01*
X78314285Y-45704761D01*
X78361904Y-45657142D01*
X78409523Y-45561904D01*
X78409523Y-45371428D01*
X78361904Y-45276190D01*
X78314285Y-45228571D01*
X78219047Y-45180952D01*
X85083333Y-47002380D02*
X84750000Y-46526190D01*
X84511904Y-47002380D02*
X84511904Y-46002380D01*
X84892857Y-46002380D01*
X84988095Y-46050000D01*
X85035714Y-46097619D01*
X85083333Y-46192857D01*
X85083333Y-46335714D01*
X85035714Y-46430952D01*
X84988095Y-46478571D01*
X84892857Y-46526190D01*
X84511904Y-46526190D01*
X85988095Y-46002380D02*
X85511904Y-46002380D01*
X85464285Y-46478571D01*
X85511904Y-46430952D01*
X85607142Y-46383333D01*
X85845238Y-46383333D01*
X85940476Y-46430952D01*
X85988095Y-46478571D01*
X86035714Y-46573809D01*
X86035714Y-46811904D01*
X85988095Y-46907142D01*
X85940476Y-46954761D01*
X85845238Y-47002380D01*
X85607142Y-47002380D01*
X85511904Y-46954761D01*
X85464285Y-46907142D01*
X53057142Y-44552380D02*
X52723809Y-44076190D01*
X52485714Y-44552380D02*
X52485714Y-43552380D01*
X52866666Y-43552380D01*
X52961904Y-43600000D01*
X53009523Y-43647619D01*
X53057142Y-43742857D01*
X53057142Y-43885714D01*
X53009523Y-43980952D01*
X52961904Y-44028571D01*
X52866666Y-44076190D01*
X52485714Y-44076190D01*
X54009523Y-44552380D02*
X53438095Y-44552380D01*
X53723809Y-44552380D02*
X53723809Y-43552380D01*
X53628571Y-43695238D01*
X53533333Y-43790476D01*
X53438095Y-43838095D01*
X54866666Y-43885714D02*
X54866666Y-44552380D01*
X54628571Y-43504761D02*
X54390476Y-44219047D01*
X55009523Y-44219047D01*
X53057142Y-43252380D02*
X52723809Y-42776190D01*
X52485714Y-43252380D02*
X52485714Y-42252380D01*
X52866666Y-42252380D01*
X52961904Y-42300000D01*
X53009523Y-42347619D01*
X53057142Y-42442857D01*
X53057142Y-42585714D01*
X53009523Y-42680952D01*
X52961904Y-42728571D01*
X52866666Y-42776190D01*
X52485714Y-42776190D01*
X54009523Y-43252380D02*
X53438095Y-43252380D01*
X53723809Y-43252380D02*
X53723809Y-42252380D01*
X53628571Y-42395238D01*
X53533333Y-42490476D01*
X53438095Y-42538095D01*
X54485714Y-43252380D02*
X54676190Y-43252380D01*
X54771428Y-43204761D01*
X54819047Y-43157142D01*
X54914285Y-43014285D01*
X54961904Y-42823809D01*
X54961904Y-42442857D01*
X54914285Y-42347619D01*
X54866666Y-42300000D01*
X54771428Y-42252380D01*
X54580952Y-42252380D01*
X54485714Y-42300000D01*
X54438095Y-42347619D01*
X54390476Y-42442857D01*
X54390476Y-42680952D01*
X54438095Y-42776190D01*
X54485714Y-42823809D01*
X54580952Y-42871428D01*
X54771428Y-42871428D01*
X54866666Y-42823809D01*
X54914285Y-42776190D01*
X54961904Y-42680952D01*
X60857142Y-38952380D02*
X60523809Y-38476190D01*
X60285714Y-38952380D02*
X60285714Y-37952380D01*
X60666666Y-37952380D01*
X60761904Y-38000000D01*
X60809523Y-38047619D01*
X60857142Y-38142857D01*
X60857142Y-38285714D01*
X60809523Y-38380952D01*
X60761904Y-38428571D01*
X60666666Y-38476190D01*
X60285714Y-38476190D01*
X61238095Y-38047619D02*
X61285714Y-38000000D01*
X61380952Y-37952380D01*
X61619047Y-37952380D01*
X61714285Y-38000000D01*
X61761904Y-38047619D01*
X61809523Y-38142857D01*
X61809523Y-38238095D01*
X61761904Y-38380952D01*
X61190476Y-38952380D01*
X61809523Y-38952380D01*
X62428571Y-37952380D02*
X62523809Y-37952380D01*
X62619047Y-38000000D01*
X62666666Y-38047619D01*
X62714285Y-38142857D01*
X62761904Y-38333333D01*
X62761904Y-38571428D01*
X62714285Y-38761904D01*
X62666666Y-38857142D01*
X62619047Y-38904761D01*
X62523809Y-38952380D01*
X62428571Y-38952380D01*
X62333333Y-38904761D01*
X62285714Y-38857142D01*
X62238095Y-38761904D01*
X62190476Y-38571428D01*
X62190476Y-38333333D01*
X62238095Y-38142857D01*
X62285714Y-38047619D01*
X62333333Y-38000000D01*
X62428571Y-37952380D01*
X71447142Y-46582380D02*
X71113809Y-46106190D01*
X70875714Y-46582380D02*
X70875714Y-45582380D01*
X71256666Y-45582380D01*
X71351904Y-45630000D01*
X71399523Y-45677619D01*
X71447142Y-45772857D01*
X71447142Y-45915714D01*
X71399523Y-46010952D01*
X71351904Y-46058571D01*
X71256666Y-46106190D01*
X70875714Y-46106190D01*
X71828095Y-45677619D02*
X71875714Y-45630000D01*
X71970952Y-45582380D01*
X72209047Y-45582380D01*
X72304285Y-45630000D01*
X72351904Y-45677619D01*
X72399523Y-45772857D01*
X72399523Y-45868095D01*
X72351904Y-46010952D01*
X71780476Y-46582380D01*
X72399523Y-46582380D01*
X73351904Y-46582380D02*
X72780476Y-46582380D01*
X73066190Y-46582380D02*
X73066190Y-45582380D01*
X72970952Y-45725238D01*
X72875714Y-45820476D01*
X72780476Y-45868095D01*
X71387142Y-42792380D02*
X71053809Y-42316190D01*
X70815714Y-42792380D02*
X70815714Y-41792380D01*
X71196666Y-41792380D01*
X71291904Y-41840000D01*
X71339523Y-41887619D01*
X71387142Y-41982857D01*
X71387142Y-42125714D01*
X71339523Y-42220952D01*
X71291904Y-42268571D01*
X71196666Y-42316190D01*
X70815714Y-42316190D01*
X71768095Y-41887619D02*
X71815714Y-41840000D01*
X71910952Y-41792380D01*
X72149047Y-41792380D01*
X72244285Y-41840000D01*
X72291904Y-41887619D01*
X72339523Y-41982857D01*
X72339523Y-42078095D01*
X72291904Y-42220952D01*
X71720476Y-42792380D01*
X72339523Y-42792380D01*
X72720476Y-41887619D02*
X72768095Y-41840000D01*
X72863333Y-41792380D01*
X73101428Y-41792380D01*
X73196666Y-41840000D01*
X73244285Y-41887619D01*
X73291904Y-41982857D01*
X73291904Y-42078095D01*
X73244285Y-42220952D01*
X72672857Y-42792380D01*
X73291904Y-42792380D01*
X80537142Y-49492380D02*
X80203809Y-49016190D01*
X79965714Y-49492380D02*
X79965714Y-48492380D01*
X80346666Y-48492380D01*
X80441904Y-48540000D01*
X80489523Y-48587619D01*
X80537142Y-48682857D01*
X80537142Y-48825714D01*
X80489523Y-48920952D01*
X80441904Y-48968571D01*
X80346666Y-49016190D01*
X79965714Y-49016190D01*
X80870476Y-48492380D02*
X81489523Y-48492380D01*
X81156190Y-48873333D01*
X81299047Y-48873333D01*
X81394285Y-48920952D01*
X81441904Y-48968571D01*
X81489523Y-49063809D01*
X81489523Y-49301904D01*
X81441904Y-49397142D01*
X81394285Y-49444761D01*
X81299047Y-49492380D01*
X81013333Y-49492380D01*
X80918095Y-49444761D01*
X80870476Y-49397142D01*
X81822857Y-48492380D02*
X82489523Y-48492380D01*
X82060952Y-49492380D01*
X80397142Y-44182380D02*
X80063809Y-43706190D01*
X79825714Y-44182380D02*
X79825714Y-43182380D01*
X80206666Y-43182380D01*
X80301904Y-43230000D01*
X80349523Y-43277619D01*
X80397142Y-43372857D01*
X80397142Y-43515714D01*
X80349523Y-43610952D01*
X80301904Y-43658571D01*
X80206666Y-43706190D01*
X79825714Y-43706190D01*
X80730476Y-43182380D02*
X81349523Y-43182380D01*
X81016190Y-43563333D01*
X81159047Y-43563333D01*
X81254285Y-43610952D01*
X81301904Y-43658571D01*
X81349523Y-43753809D01*
X81349523Y-43991904D01*
X81301904Y-44087142D01*
X81254285Y-44134761D01*
X81159047Y-44182380D01*
X80873333Y-44182380D01*
X80778095Y-44134761D01*
X80730476Y-44087142D01*
X81920952Y-43610952D02*
X81825714Y-43563333D01*
X81778095Y-43515714D01*
X81730476Y-43420476D01*
X81730476Y-43372857D01*
X81778095Y-43277619D01*
X81825714Y-43230000D01*
X81920952Y-43182380D01*
X82111428Y-43182380D01*
X82206666Y-43230000D01*
X82254285Y-43277619D01*
X82301904Y-43372857D01*
X82301904Y-43420476D01*
X82254285Y-43515714D01*
X82206666Y-43563333D01*
X82111428Y-43610952D01*
X81920952Y-43610952D01*
X81825714Y-43658571D01*
X81778095Y-43706190D01*
X81730476Y-43801428D01*
X81730476Y-43991904D01*
X81778095Y-44087142D01*
X81825714Y-44134761D01*
X81920952Y-44182380D01*
X82111428Y-44182380D01*
X82206666Y-44134761D01*
X82254285Y-44087142D01*
X82301904Y-43991904D01*
X82301904Y-43801428D01*
X82254285Y-43706190D01*
X82206666Y-43658571D01*
X82111428Y-43610952D01*
X33107142Y-82452380D02*
X32773809Y-81976190D01*
X32535714Y-82452380D02*
X32535714Y-81452380D01*
X32916666Y-81452380D01*
X33011904Y-81500000D01*
X33059523Y-81547619D01*
X33107142Y-81642857D01*
X33107142Y-81785714D01*
X33059523Y-81880952D01*
X33011904Y-81928571D01*
X32916666Y-81976190D01*
X32535714Y-81976190D01*
X33440476Y-81452380D02*
X34059523Y-81452380D01*
X33726190Y-81833333D01*
X33869047Y-81833333D01*
X33964285Y-81880952D01*
X34011904Y-81928571D01*
X34059523Y-82023809D01*
X34059523Y-82261904D01*
X34011904Y-82357142D01*
X33964285Y-82404761D01*
X33869047Y-82452380D01*
X33583333Y-82452380D01*
X33488095Y-82404761D01*
X33440476Y-82357142D01*
X34535714Y-82452380D02*
X34726190Y-82452380D01*
X34821428Y-82404761D01*
X34869047Y-82357142D01*
X34964285Y-82214285D01*
X35011904Y-82023809D01*
X35011904Y-81642857D01*
X34964285Y-81547619D01*
X34916666Y-81500000D01*
X34821428Y-81452380D01*
X34630952Y-81452380D01*
X34535714Y-81500000D01*
X34488095Y-81547619D01*
X34440476Y-81642857D01*
X34440476Y-81880952D01*
X34488095Y-81976190D01*
X34535714Y-82023809D01*
X34630952Y-82071428D01*
X34821428Y-82071428D01*
X34916666Y-82023809D01*
X34964285Y-81976190D01*
X35011904Y-81880952D01*
X88766666Y-52704761D02*
X88909523Y-52752380D01*
X89147619Y-52752380D01*
X89242857Y-52704761D01*
X89290476Y-52657142D01*
X89338095Y-52561904D01*
X89338095Y-52466666D01*
X89290476Y-52371428D01*
X89242857Y-52323809D01*
X89147619Y-52276190D01*
X88957142Y-52228571D01*
X88861904Y-52180952D01*
X88814285Y-52133333D01*
X88766666Y-52038095D01*
X88766666Y-51942857D01*
X88814285Y-51847619D01*
X88861904Y-51800000D01*
X88957142Y-51752380D01*
X89195238Y-51752380D01*
X89338095Y-51800000D01*
X89671428Y-51752380D02*
X89909523Y-52752380D01*
X90100000Y-52038095D01*
X90290476Y-52752380D01*
X90528571Y-51752380D01*
X90861904Y-51847619D02*
X90909523Y-51800000D01*
X91004761Y-51752380D01*
X91242857Y-51752380D01*
X91338095Y-51800000D01*
X91385714Y-51847619D01*
X91433333Y-51942857D01*
X91433333Y-52038095D01*
X91385714Y-52180952D01*
X90814285Y-52752380D01*
X91433333Y-52752380D01*
X74138095Y-60984380D02*
X74138095Y-61793904D01*
X74185714Y-61889142D01*
X74233333Y-61936761D01*
X74328571Y-61984380D01*
X74519047Y-61984380D01*
X74614285Y-61936761D01*
X74661904Y-61889142D01*
X74709523Y-61793904D01*
X74709523Y-60984380D01*
X75614285Y-60984380D02*
X75423809Y-60984380D01*
X75328571Y-61032000D01*
X75280952Y-61079619D01*
X75185714Y-61222476D01*
X75138095Y-61412952D01*
X75138095Y-61793904D01*
X75185714Y-61889142D01*
X75233333Y-61936761D01*
X75328571Y-61984380D01*
X75519047Y-61984380D01*
X75614285Y-61936761D01*
X75661904Y-61889142D01*
X75709523Y-61793904D01*
X75709523Y-61555809D01*
X75661904Y-61460571D01*
X75614285Y-61412952D01*
X75519047Y-61365333D01*
X75328571Y-61365333D01*
X75233333Y-61412952D01*
X75185714Y-61460571D01*
X75138095Y-61555809D01*
X37638095Y-48202380D02*
X37638095Y-49011904D01*
X37685714Y-49107142D01*
X37733333Y-49154761D01*
X37828571Y-49202380D01*
X38019047Y-49202380D01*
X38114285Y-49154761D01*
X38161904Y-49107142D01*
X38209523Y-49011904D01*
X38209523Y-48202380D01*
X38590476Y-48202380D02*
X39257142Y-48202380D01*
X38828571Y-49202380D01*
X60960095Y-94448380D02*
X60960095Y-95257904D01*
X61007714Y-95353142D01*
X61055333Y-95400761D01*
X61150571Y-95448380D01*
X61341047Y-95448380D01*
X61436285Y-95400761D01*
X61483904Y-95353142D01*
X61531523Y-95257904D01*
X61531523Y-94448380D01*
X62055333Y-95448380D02*
X62245809Y-95448380D01*
X62341047Y-95400761D01*
X62388666Y-95353142D01*
X62483904Y-95210285D01*
X62531523Y-95019809D01*
X62531523Y-94638857D01*
X62483904Y-94543619D01*
X62436285Y-94496000D01*
X62341047Y-94448380D01*
X62150571Y-94448380D01*
X62055333Y-94496000D01*
X62007714Y-94543619D01*
X61960095Y-94638857D01*
X61960095Y-94876952D01*
X62007714Y-94972190D01*
X62055333Y-95019809D01*
X62150571Y-95067428D01*
X62341047Y-95067428D01*
X62436285Y-95019809D01*
X62483904Y-94972190D01*
X62531523Y-94876952D01*
X72061904Y-75144380D02*
X72061904Y-75953904D01*
X72109523Y-76049142D01*
X72157142Y-76096761D01*
X72252380Y-76144380D01*
X72442857Y-76144380D01*
X72538095Y-76096761D01*
X72585714Y-76049142D01*
X72633333Y-75953904D01*
X72633333Y-75144380D01*
X73633333Y-76144380D02*
X73061904Y-76144380D01*
X73347619Y-76144380D02*
X73347619Y-75144380D01*
X73252380Y-75287238D01*
X73157142Y-75382476D01*
X73061904Y-75430095D01*
X74252380Y-75144380D02*
X74347619Y-75144380D01*
X74442857Y-75192000D01*
X74490476Y-75239619D01*
X74538095Y-75334857D01*
X74585714Y-75525333D01*
X74585714Y-75763428D01*
X74538095Y-75953904D01*
X74490476Y-76049142D01*
X74442857Y-76096761D01*
X74347619Y-76144380D01*
X74252380Y-76144380D01*
X74157142Y-76096761D01*
X74109523Y-76049142D01*
X74061904Y-75953904D01*
X74014285Y-75763428D01*
X74014285Y-75525333D01*
X74061904Y-75334857D01*
X74109523Y-75239619D01*
X74157142Y-75192000D01*
X74252380Y-75144380D01*
X33216666Y-89952380D02*
X33216666Y-90666666D01*
X33169047Y-90809523D01*
X33073809Y-90904761D01*
X32930952Y-90952380D01*
X32835714Y-90952380D01*
X33645238Y-90047619D02*
X33692857Y-90000000D01*
X33788095Y-89952380D01*
X34026190Y-89952380D01*
X34121428Y-90000000D01*
X34169047Y-90047619D01*
X34216666Y-90142857D01*
X34216666Y-90238095D01*
X34169047Y-90380952D01*
X33597619Y-90952380D01*
X34216666Y-90952380D01*
X78252380Y-105233333D02*
X78966666Y-105233333D01*
X79109523Y-105280952D01*
X79204761Y-105376190D01*
X79252380Y-105519047D01*
X79252380Y-105614285D01*
X78252380Y-104280952D02*
X78252380Y-104757142D01*
X78728571Y-104804761D01*
X78680952Y-104757142D01*
X78633333Y-104661904D01*
X78633333Y-104423809D01*
X78680952Y-104328571D01*
X78728571Y-104280952D01*
X78823809Y-104233333D01*
X79061904Y-104233333D01*
X79157142Y-104280952D01*
X79204761Y-104328571D01*
X79252380Y-104423809D01*
X79252380Y-104661904D01*
X79204761Y-104757142D01*
X79157142Y-104804761D01*
X44377714Y-82030380D02*
X44377714Y-81030380D01*
X44615809Y-81030380D01*
X44758666Y-81078000D01*
X44853904Y-81173238D01*
X44901523Y-81268476D01*
X44949142Y-81458952D01*
X44949142Y-81601809D01*
X44901523Y-81792285D01*
X44853904Y-81887523D01*
X44758666Y-81982761D01*
X44615809Y-82030380D01*
X44377714Y-82030380D01*
X45901523Y-82030380D02*
X45330095Y-82030380D01*
X45615809Y-82030380D02*
X45615809Y-81030380D01*
X45520571Y-81173238D01*
X45425333Y-81268476D01*
X45330095Y-81316095D01*
X46853904Y-82030380D02*
X46282476Y-82030380D01*
X46568190Y-82030380D02*
X46568190Y-81030380D01*
X46472952Y-81173238D01*
X46377714Y-81268476D01*
X46282476Y-81316095D01*
X38782666Y-26019380D02*
X38782666Y-26733666D01*
X38735047Y-26876523D01*
X38639809Y-26971761D01*
X38496952Y-27019380D01*
X38401714Y-27019380D01*
X39782666Y-27019380D02*
X39211238Y-27019380D01*
X39496952Y-27019380D02*
X39496952Y-26019380D01*
X39401714Y-26162238D01*
X39306476Y-26257476D01*
X39211238Y-26305095D01*
X76252380Y-58633333D02*
X76966666Y-58633333D01*
X77109523Y-58680952D01*
X77204761Y-58776190D01*
X77252380Y-58919047D01*
X77252380Y-59014285D01*
X76680952Y-58014285D02*
X76633333Y-58109523D01*
X76585714Y-58157142D01*
X76490476Y-58204761D01*
X76442857Y-58204761D01*
X76347619Y-58157142D01*
X76300000Y-58109523D01*
X76252380Y-58014285D01*
X76252380Y-57823809D01*
X76300000Y-57728571D01*
X76347619Y-57680952D01*
X76442857Y-57633333D01*
X76490476Y-57633333D01*
X76585714Y-57680952D01*
X76633333Y-57728571D01*
X76680952Y-57823809D01*
X76680952Y-58014285D01*
X76728571Y-58109523D01*
X76776190Y-58157142D01*
X76871428Y-58204761D01*
X77061904Y-58204761D01*
X77157142Y-58157142D01*
X77204761Y-58109523D01*
X77252380Y-58014285D01*
X77252380Y-57823809D01*
X77204761Y-57728571D01*
X77157142Y-57680952D01*
X77061904Y-57633333D01*
X76871428Y-57633333D01*
X76776190Y-57680952D01*
X76728571Y-57728571D01*
X76680952Y-57823809D01*
M02*
