M48
; DRILL file {KiCad (5.1.5)-3} date 22 Feb 2021 14:12:39
; FORMAT={3:3/ absolute / metric / suppress leading zeros}
; #@! TF.CreationDate,2021-02-22T14:12:39+02:00
; #@! TF.GenerationSoftware,Kicad,Pcbnew,(5.1.5)-3
FMAT,2
METRIC,TZ
T1C0.400
T2C0.500
T3C0.550
T4C0.600
T5C0.700
T6C0.800
T7C0.850
T8C1.300
T9C4.300
T10C0.900
%
G90
G05
T1
X16990Y-22280
X16990Y-26620
X17010Y-23650
X17010Y-25250
X17050Y-97550
X17050Y-98550
X17050Y-99550
X17050Y-100550
X17990Y-22280
X17990Y-26620
X17990Y-30840
X17990Y-35120
X17990Y-41010
X17990Y-47010
X17990Y-53100
X18010Y-23650
X18010Y-25250
X18010Y-29590
X18010Y-32210
X18010Y-33810
X18010Y-36490
X18010Y-38090
X18010Y-39740
X18010Y-42380
X18010Y-43980
X18010Y-45630
X18010Y-48380
X18010Y-51630
X18010Y-54470
X18010Y-56070
X18010Y-57720
X18040Y-59200
X18040Y-65190
X18060Y-60570
X18060Y-63820
X18060Y-66560
X18060Y-68160
X18060Y-69810
X18090Y-71340
X18090Y-77440
X18110Y-72710
X18110Y-74310
X18110Y-75960
X18110Y-78810
X18110Y-80410
X18110Y-82060
X18130Y-83370
X18130Y-86620
X18130Y-88180
X18130Y-89780
X18130Y-91430
X18150Y-92800
X18150Y-94400
X18700Y-97550
X18700Y-98550
X18700Y-99550
X18700Y-100550
X18990Y-22280
X18990Y-26620
X18990Y-30840
X18990Y-35120
X18990Y-41010
X18990Y-47010
X18990Y-53100
X19010Y-23650
X19010Y-25250
X19010Y-29590
X19010Y-32210
X19010Y-33810
X19010Y-36490
X19010Y-38090
X19010Y-39740
X19010Y-42380
X19010Y-43980
X19010Y-45630
X19010Y-48380
X19010Y-51630
X19010Y-54470
X19010Y-56070
X19010Y-57720
X19040Y-59200
X19040Y-65190
X19060Y-60570
X19060Y-63820
X19060Y-66560
X19060Y-68160
X19060Y-69810
X19090Y-71340
X19090Y-77440
X19110Y-72710
X19110Y-74310
X19110Y-75960
X19110Y-78810
X19110Y-80410
X19110Y-82060
X19130Y-83370
X19130Y-86620
X19130Y-88180
X19130Y-89780
X19130Y-91430
X19150Y-92800
X19150Y-94400
X19990Y-22280
X19990Y-26620
X19990Y-30840
X19990Y-35120
X19990Y-41010
X19990Y-47010
X19990Y-53100
X20010Y-23650
X20010Y-25250
X20010Y-29590
X20010Y-32210
X20010Y-33810
X20010Y-36490
X20010Y-38090
X20010Y-39740
X20010Y-42380
X20010Y-43980
X20010Y-45630
X20010Y-48380
X20010Y-51630
X20010Y-54470
X20010Y-56070
X20010Y-57720
X20040Y-59200
X20040Y-65190
X20060Y-60570
X20060Y-63820
X20060Y-66560
X20060Y-68160
X20060Y-69810
X20090Y-71340
X20090Y-77440
X20110Y-72710
X20110Y-74310
X20110Y-75960
X20110Y-78810
X20110Y-80410
X20110Y-82060
X20130Y-83370
X20130Y-86620
X20130Y-88180
X20130Y-89780
X20130Y-91430
X20150Y-92800
X20150Y-94400
X20300Y-97550
X20300Y-98550
X20300Y-99550
X20300Y-100550
X21150Y-22280
X21170Y-23650
X21170Y-25250
X21750Y-97550
X21750Y-98550
X21750Y-99550
X21750Y-100550
X22150Y-22280
X22170Y-23650
X22170Y-25250
X22750Y-67250
X22750Y-68250
X23000Y-60750
X23000Y-62750
X23000Y-63750
X23000Y-72250
X23000Y-74250
X23000Y-75250
X23000Y-79000
X23000Y-80000
X23000Y-83750
X23000Y-85750
X23000Y-86750
X23000Y-90250
X23000Y-91250
X23000Y-95250
X23150Y-22280
X23170Y-23650
X23170Y-25250
X23250Y-29000
X23250Y-33000
X23250Y-34000
X23250Y-37500
X23250Y-38500
X23250Y-39500
X23250Y-40500
X23250Y-44500
X23250Y-45500
X23250Y-48750
X23250Y-49750
X23250Y-51000
X23250Y-52000
X23250Y-56000
X23250Y-57000
X23400Y-97550
X23400Y-98550
X23400Y-99550
X23400Y-100550
X24150Y-22280
X24170Y-23650
X24170Y-25250
X24400Y-67250
X24400Y-68250
X24650Y-60750
X24650Y-62750
X24650Y-63750
X24650Y-72250
X24650Y-74250
X24650Y-75250
X24650Y-79000
X24650Y-80000
X24650Y-83750
X24650Y-85750
X24650Y-86750
X24650Y-90250
X24650Y-91250
X24650Y-95250
X24900Y-29000
X24900Y-33000
X24900Y-34000
X24900Y-37500
X24900Y-38500
X24900Y-39500
X24900Y-40500
X24900Y-44500
X24900Y-45500
X24900Y-48750
X24900Y-49750
X24900Y-51000
X24900Y-52000
X24900Y-56000
X24900Y-57000
X25000Y-97550
X25000Y-98550
X25000Y-99550
X25000Y-100550
X26000Y-67250
X26000Y-68250
X26250Y-60750
X26250Y-62750
X26250Y-63750
X26250Y-72250
X26250Y-74250
X26250Y-75250
X26250Y-79000
X26250Y-80000
X26250Y-83750
X26250Y-85750
X26250Y-86750
X26250Y-90250
X26250Y-91250
X26250Y-95250
X26350Y-97550
X26350Y-98550
X26350Y-99650
X26350Y-100650
X26500Y-29000
X26500Y-33000
X26500Y-34000
X26500Y-37500
X26500Y-38500
X26500Y-39500
X26500Y-40500
X26500Y-44500
X26500Y-45500
X26500Y-48750
X26500Y-49750
X26500Y-51000
X26500Y-52000
X26500Y-56000
X26500Y-57000
X28000Y-97550
X28000Y-98550
X28000Y-99650
X28000Y-100650
X28340Y-11340
X28340Y-15680
X28360Y-12710
X28360Y-14310
X28360Y-17050
X28360Y-18650
X29000Y-103000
X29000Y-109000
X29340Y-11340
X29340Y-15680
X29360Y-12710
X29360Y-14310
X29360Y-17050
X29360Y-18650
X29460Y-38280
X29480Y-39650
X29480Y-41250
X29600Y-97550
X29600Y-98550
X29600Y-99650
X29600Y-100650
X29900Y-58900
X30060Y-29420
X30060Y-47530
X30080Y-26510
X30080Y-30790
X30080Y-32390
X30080Y-48900
X30300Y-45600
X30340Y-11340
X30340Y-15680
X30360Y-12710
X30360Y-14310
X30360Y-17050
X30360Y-18650
X30460Y-38280
X30480Y-39650
X30480Y-41250
X30600Y-66400
X30600Y-70680
X30620Y-67770
X30620Y-69370
X30620Y-72050
X31060Y-25140
X31060Y-29420
X31060Y-47530
X31080Y-26510
X31080Y-30790
X31080Y-32390
X31080Y-48900
X31340Y-11340
X31340Y-15680
X31360Y-12710
X31360Y-14310
X31360Y-17050
X31360Y-18650
X31460Y-38280
X31480Y-39650
X31480Y-41250
X31600Y-66400
X31600Y-70680
X31620Y-67770
X31620Y-69370
X31620Y-72050
X32060Y-25140
X32080Y-26510
X32460Y-38280
X32480Y-39650
X32480Y-41250
X32600Y-66400
X32600Y-70680
X32620Y-67770
X32620Y-69370
X32620Y-72050
X32620Y-73650
X33060Y-25140
X33060Y-29420
X33060Y-47530
X33080Y-26510
X33080Y-28110
X33080Y-30790
X33080Y-32390
X33080Y-48900
X33600Y-66400
X33600Y-70680
X33620Y-67770
X33620Y-69370
X33620Y-72050
X33620Y-73650
X34800Y-52700
X35000Y-12000
X35000Y-14000
X35000Y-18000
X35000Y-20000
X35000Y-22000
X35000Y-24000
X35000Y-41000
X35000Y-42820
X35600Y-101600
X35650Y-82000
X36000Y-41000
X36000Y-42000
X36800Y-34000
X37000Y-12000
X37000Y-103000
X38000Y-109000
X39000Y-12000
X39000Y-14000
X39000Y-16000
X39000Y-18000
X39000Y-20000
X39000Y-22000
X39000Y-24000
X39500Y-48900
X39500Y-53800
X40600Y-74900
X41000Y-12000
X41000Y-18000
X41350Y-51150
X41500Y-39700
X41800Y-35500
X42000Y-24000
X42030Y-96230
X42100Y-87500
X42700Y-72200
X43000Y-12000
X43000Y-14000
X43000Y-18000
X43500Y-60750
X43500Y-82400
X43700Y-84900
X43700Y-102000
X44700Y-43700
X44700Y-78700
X44700Y-90700
X45500Y-55250
X46000Y-75000
X46000Y-76000
X46000Y-77000
X46000Y-103000
X46000Y-109000
X46200Y-38100
X47000Y-75000
X47000Y-76000
X47000Y-81500
X47000Y-86800
X48000Y-13000
X48000Y-15000
X48000Y-75000
X48000Y-79700
X48700Y-64700
X48700Y-68400
X49000Y-58500
X49000Y-74000
X49600Y-81800
X49745Y-69542
X49967Y-68567
X50000Y-13000
X50000Y-15000
X50000Y-58500
X50100Y-55300
X50890Y-62207
X51000Y-44500
X51000Y-96000
X51100Y-80600
X51430Y-86830
X51500Y-53500
X51500Y-54500
X51500Y-63000
X51600Y-26400
X52000Y-13000
X52000Y-15000
X52400Y-101800
X53000Y-68500
X53000Y-79100
X53600Y-49600
X53800Y-71650
X53800Y-72500
X53870Y-50760
X53870Y-52000
X54000Y-13000
X54000Y-15000
X54000Y-17000
X54000Y-41500
X54000Y-42500
X54000Y-43500
X54000Y-44500
X54000Y-45500
X54630Y-100630
X55000Y-73000
X55000Y-74000
X55400Y-60700
X55500Y-64000
X55700Y-33100
X56000Y-13000
X56000Y-15000
X56400Y-88200
X56500Y-41542
X56500Y-45500
X57000Y-55300
X57500Y-36000
X57500Y-66100
X57950Y-60250
X58000Y-13000
X58000Y-15000
X58000Y-23500
X58250Y-104000
X58250Y-105000
X58300Y-50500
X58500Y-36000
X58700Y-56700
X59000Y-34000
X59000Y-90000
X59000Y-91000
X59500Y-36000
X59548Y-56170
X59750Y-64614
X59900Y-104000
X59900Y-105000
X60000Y-13000
X60000Y-15000
X60100Y-61500
X60500Y-36000
X60541Y-71880
X60600Y-63700
X60731Y-70180
X61351Y-72740
X61370Y-71880
X61451Y-71040
X61500Y-104000
X61500Y-105000
X61560Y-70180
X61620Y-58920
X62000Y-13000
X62000Y-15000
X62000Y-23400
X62100Y-41600
X62180Y-72740
X62191Y-71880
X62280Y-71040
X62600Y-78400
X62675Y-47328
X62900Y-38400
X62900Y-43800
X63001Y-72740
X63020Y-71880
X63200Y-56700
X63300Y-81600
X63800Y-50000
X63830Y-72740
X64000Y-41600
X64000Y-42500
X64200Y-45700
X64250Y-98100
X64300Y-23400
X64400Y-92100
X65000Y-41600
X65000Y-42500
X65301Y-70050
X65650Y-64350
X65700Y-28400
X66300Y-62000
X66900Y-78100
X66900Y-104250
X66900Y-105250
X67100Y-51000
X67200Y-55600
X68000Y-34000
X68200Y-81900
X68234Y-95318
X68500Y-50750
X68500Y-68000
X68500Y-104250
X68500Y-105250
X68890Y-51890
X69200Y-22500
X69500Y-68000
X69750Y-50750
X70000Y-70000
X70000Y-71000
X70000Y-91000
X70000Y-104250
X70000Y-105250
X70200Y-78900
X70400Y-89600
X70500Y-59000
X71000Y-51500
X71129Y-67078
X71500Y-46200
X71500Y-66150
X71620Y-38420
X71620Y-58620
X71650Y-104250
X71650Y-105250
X71700Y-82500
X71970Y-42170
X72200Y-62300
X72200Y-64900
X73250Y-104250
X73250Y-105250
X73500Y-70000
X73553Y-52314
X74400Y-88000
X74485Y-52835
X75412Y-73114
X75600Y-52700
X75989Y-40500
X76262Y-67084
X77700Y-64100
X78000Y-27100
X78000Y-29000
X78300Y-19200
X78700Y-50900
X79551Y-45551
X79850Y-101450
X79850Y-102450
X79850Y-103450
X79850Y-104450
X79850Y-105450
X79850Y-106450
X79850Y-107450
X79850Y-108450
X79850Y-109450
X79850Y-110450
X79850Y-111450
X79850Y-112450
X79930Y-16660
X79940Y-17700
X79940Y-18750
X79940Y-19780
X81160Y-16470
X81170Y-17540
X81200Y-18600
X81320Y-35720
X81500Y-101450
X81500Y-102450
X81500Y-103450
X81500Y-104450
X81500Y-105450
X81500Y-106450
X81500Y-107450
X81500Y-108450
X81500Y-109450
X81500Y-110450
X81500Y-111450
X81500Y-112450
X83100Y-101450
X83100Y-102450
X83100Y-103450
X83100Y-104450
X83100Y-105450
X83100Y-106450
X83100Y-107450
X83100Y-108450
X83100Y-109450
X83100Y-110450
X83100Y-111450
X83100Y-112450
X83400Y-34700
X83461Y-41850
X83461Y-42850
X83461Y-43850
X83461Y-44850
X84000Y-57750
X84000Y-58750
X84000Y-69250
X84000Y-70250
X84000Y-74500
X84000Y-76500
X84000Y-77500
X84000Y-81750
X84000Y-82750
X84040Y-65190
X84050Y-63590
X84250Y-87280
X84250Y-93250
X84250Y-94250
X84280Y-88980
X84290Y-40850
X84290Y-41850
X84290Y-42850
X84290Y-43850
X84290Y-44850
X85000Y-39000
X85111Y-40850
X85111Y-41850
X85111Y-42850
X85111Y-43850
X85111Y-44850
X85111Y-51850
X85400Y-34600
X85650Y-57750
X85650Y-58750
X85650Y-69250
X85650Y-70250
X85650Y-74500
X85650Y-76500
X85650Y-77500
X85650Y-81750
X85650Y-82750
X85690Y-65190
X85700Y-63590
X85900Y-87280
X85900Y-93250
X85900Y-94250
X85930Y-88980
X85940Y-40850
X85940Y-41850
X85940Y-42850
X85940Y-43850
X85940Y-44850
X85940Y-50850
X85940Y-51850
X86000Y-24100
X86600Y-25800
X86600Y-38400
X86800Y-49400
X87050Y-44500
X87100Y-47900
X87250Y-57750
X87250Y-58750
X87250Y-69250
X87250Y-70250
X87250Y-74500
X87250Y-76500
X87250Y-77500
X87250Y-81750
X87250Y-82750
X87290Y-65190
X87300Y-63590
X87450Y-33100
X87500Y-87280
X87500Y-93250
X87500Y-94250
X87530Y-88980
T2
X48991Y-17780
X51531Y-17780
X59151Y-17780
X61691Y-17780
T3
X56611Y-17780
T4
X85505Y-15550
X86450Y-13270
X86450Y-17830
X88730Y-12325
X88730Y-18775
X91010Y-13270
X91010Y-17830
X91955Y-15550
X85421Y-107950
X86366Y-105670
X86366Y-110230
X88646Y-104725
X88646Y-111175
X90926Y-105670
X90926Y-110230
X91871Y-107950
X18365Y-15400
X19310Y-13120
X19310Y-17680
X21590Y-12175
X21590Y-18625
X23870Y-13120
X23870Y-17680
X24815Y-15400
X18619Y-107442
X19564Y-105162
X19564Y-109722
X21844Y-104217
X21844Y-110667
X24124Y-105162
X24124Y-109722
X25069Y-107442
T5
X58630Y-40280
X58630Y-41550
X58630Y-42820
X58630Y-44090
X58630Y-45360
X59900Y-40280
X59900Y-41550
X59900Y-42820
X59900Y-44090
X59900Y-45360
T6
X22040Y-53930
X22040Y-58930
X27040Y-53930
X27040Y-58930
X22050Y-42200
X22050Y-47200
X27050Y-42200
X27050Y-47200
X22040Y-65300
X22040Y-70300
X27040Y-65300
X27040Y-70300
X83300Y-79800
X83300Y-84800
X88300Y-79800
X88300Y-84800
X83300Y-91200
X83300Y-96200
X88300Y-91200
X88300Y-96200
X58400Y-102200
X58400Y-107200
X63400Y-102200
X63400Y-107200
X83350Y-67300
X83350Y-72300
X88350Y-67300
X88350Y-72300
X22050Y-31000
X22050Y-36000
X27050Y-31000
X27050Y-36000
X69910Y-102210
X69910Y-107210
X74910Y-102210
X74910Y-107210
X21990Y-88360
X21990Y-93360
X26990Y-88360
X26990Y-93360
X83300Y-55900
X83300Y-60900
X88300Y-55900
X88300Y-60900
X22000Y-76950
X22000Y-81950
X27000Y-76950
X27000Y-81950
X36616Y-15467
X36616Y-20467
X41616Y-15467
X41616Y-20467
T7
X88368Y-23850
X88368Y-28850
T8
X72136Y-92964
X48700Y-42000
X56134Y-92966
X36100Y-94000
X37973Y-78359
X29200Y-22900
X80700Y-26700
X68900Y-27000
T9
X88730Y-15550
X88646Y-107950
X21590Y-15400
X21844Y-107442
T10
X90330Y-35100
X90330Y-38100
X76732Y-13513
X79732Y-13513
X90330Y-45550
X90330Y-48550
T4
G00X90718Y-22850
M15
G01X91418Y-22850
M16
G05
G00X91418Y-29850
M15
G01X90718Y-29850
M16
G05
T0
M30
