G04 #@! TF.GenerationSoftware,KiCad,Pcbnew,(5.1.5)-3*
G04 #@! TF.CreationDate,2020-06-18T15:27:06+02:00*
G04 #@! TF.ProjectId,Amp_Hall_Effect_Sensor,416d705f-4861-46c6-9c5f-456666656374,Rev. 1*
G04 #@! TF.SameCoordinates,Original*
G04 #@! TF.FileFunction,Copper,L2,Bot*
G04 #@! TF.FilePolarity,Positive*
%FSLAX46Y46*%
G04 Gerber Fmt 4.6, Leading zero omitted, Abs format (unit mm)*
G04 Created by KiCad (PCBNEW (5.1.5)-3) date 2020-06-18 15:27:06*
%MOMM*%
%LPD*%
G04 APERTURE LIST*
%ADD10C,0.050000*%
%ADD11C,3.000000*%
%ADD12C,6.000000*%
%ADD13C,5.000000*%
%ADD14C,0.800000*%
%ADD15R,1.500000X1.500000*%
%ADD16O,9.000000X6.000000*%
%ADD17C,1.500000*%
%ADD18C,0.800000*%
%ADD19C,0.500000*%
%ADD20C,4.000000*%
%ADD21C,0.254000*%
G04 APERTURE END LIST*
D10*
X257000000Y-129500000D02*
X188000000Y-129500000D01*
X257000000Y-174500000D02*
X257000000Y-129500000D01*
X255500000Y-174500000D02*
X257000000Y-174500000D01*
X188000000Y-174500000D02*
X255500000Y-174500000D01*
X188000000Y-172000000D02*
X188000000Y-174500000D01*
X188000000Y-129500000D02*
X188000000Y-172000000D01*
D11*
X240500000Y-171000000D03*
X245500000Y-171000000D03*
X250500000Y-171000000D03*
X205500000Y-171000000D03*
X210500000Y-171000000D03*
X215500000Y-171000000D03*
X228000000Y-151500000D03*
D12*
X193000000Y-136500000D03*
X228000000Y-136500000D03*
X193000000Y-167000000D03*
D13*
X240500000Y-134000000D03*
X250500000Y-134000000D03*
X205500000Y-134000000D03*
X215500000Y-134000000D03*
D12*
X228000000Y-167000000D03*
D14*
X238500000Y-145650000D03*
X248500000Y-145650000D03*
X236550000Y-144230000D03*
D15*
X243590000Y-165000000D03*
D14*
X243700000Y-145260000D03*
X241170000Y-145650000D03*
X241170000Y-141550000D03*
X251170000Y-141550000D03*
X247300000Y-141940000D03*
X253700000Y-141940000D03*
X252500000Y-141550000D03*
D16*
X240500000Y-143600000D03*
X250500000Y-143600000D03*
D17*
X247410000Y-165000000D03*
X245500000Y-165000000D03*
D14*
X248500000Y-141550000D03*
X237300000Y-141940000D03*
D18*
X244450000Y-144230000D02*
X244450000Y-144230000D01*
D14*
X237300000Y-145260000D03*
X239830000Y-145650000D03*
X254450000Y-142970000D03*
X239830000Y-141550000D03*
X254450000Y-144230000D03*
X247300000Y-145260000D03*
X238500000Y-141550000D03*
D18*
X246550000Y-144230000D02*
X246550000Y-144230000D01*
D14*
X253700000Y-145260000D03*
X251170000Y-145650000D03*
D18*
X244450000Y-142970000D02*
X244450000Y-142970000D01*
D14*
X243700000Y-141940000D03*
X249830000Y-145650000D03*
X249830000Y-141550000D03*
X236550000Y-142970000D03*
X242500000Y-145650000D03*
X242500000Y-141550000D03*
D18*
X246550000Y-142970000D02*
X246550000Y-142970000D01*
D14*
X252500000Y-145650000D03*
X217500000Y-145650000D03*
D18*
X211550000Y-142970000D02*
X211550000Y-142970000D01*
D14*
X207500000Y-141550000D03*
X207500000Y-145650000D03*
X201550000Y-142970000D03*
X214830000Y-141550000D03*
X214830000Y-145650000D03*
X208700000Y-141940000D03*
D18*
X209450000Y-142970000D02*
X209450000Y-142970000D01*
D14*
X216170000Y-145650000D03*
X218700000Y-145260000D03*
D18*
X211550000Y-144230000D02*
X211550000Y-144230000D01*
D14*
X203500000Y-141550000D03*
X212300000Y-145260000D03*
X219450000Y-144230000D03*
X204830000Y-141550000D03*
X219450000Y-142970000D03*
X204830000Y-145650000D03*
X202300000Y-145260000D03*
D18*
X209450000Y-144230000D02*
X209450000Y-144230000D01*
D14*
X202300000Y-141940000D03*
X213500000Y-141550000D03*
D17*
X210500000Y-165000000D03*
X212410000Y-165000000D03*
D16*
X215500000Y-143600000D03*
X205500000Y-143600000D03*
D14*
X217500000Y-141550000D03*
X218700000Y-141940000D03*
X212300000Y-141940000D03*
X216170000Y-141550000D03*
X206170000Y-141550000D03*
X206170000Y-145650000D03*
X208700000Y-145260000D03*
D15*
X208590000Y-165000000D03*
D14*
X201550000Y-144230000D03*
X213500000Y-145650000D03*
X203500000Y-145650000D03*
D19*
X208590000Y-163750000D02*
X210340000Y-162000000D01*
X208590000Y-165000000D02*
X208590000Y-163750000D01*
X243590000Y-163750000D02*
X243590000Y-165000000D01*
X210340000Y-162000000D02*
X241840000Y-162000000D01*
X241840000Y-162000000D02*
X243590000Y-163750000D01*
D20*
X240500000Y-134000000D02*
X240500000Y-143600000D01*
X250500000Y-134000000D02*
X250500000Y-143600000D01*
X205500000Y-134000000D02*
X205500000Y-143600000D01*
X215500000Y-134000000D02*
X215500000Y-143600000D01*
D21*
G36*
X199873000Y-143397262D02*
G01*
X199853032Y-143600000D01*
X199873000Y-143802738D01*
X199873000Y-147500000D01*
X199875440Y-147524776D01*
X199882667Y-147548601D01*
X199894403Y-147570557D01*
X199910197Y-147589803D01*
X199929443Y-147605597D01*
X199951399Y-147617333D01*
X199975224Y-147624560D01*
X200000000Y-147627000D01*
X203058165Y-147627000D01*
X203190967Y-147667285D01*
X203797262Y-147727000D01*
X207202738Y-147727000D01*
X207809033Y-147667285D01*
X207941835Y-147627000D01*
X213058165Y-147627000D01*
X213190967Y-147667285D01*
X213797262Y-147727000D01*
X217202738Y-147727000D01*
X217809033Y-147667285D01*
X217941835Y-147627000D01*
X221000000Y-147627000D01*
X221024776Y-147624560D01*
X221048601Y-147617333D01*
X221070557Y-147605597D01*
X221089803Y-147589803D01*
X221105597Y-147570557D01*
X221117333Y-147548601D01*
X221124560Y-147524776D01*
X221127000Y-147500000D01*
X221127000Y-143802738D01*
X221146968Y-143600000D01*
X221127000Y-143397262D01*
X221127000Y-139051687D01*
X225622262Y-139051687D01*
X225958516Y-139519121D01*
X226586744Y-139859384D01*
X227269282Y-140070546D01*
X227979902Y-140144496D01*
X228691294Y-140078388D01*
X229376120Y-139874765D01*
X230008062Y-139541453D01*
X230041484Y-139519121D01*
X230377738Y-139051687D01*
X228000000Y-136673948D01*
X225622262Y-139051687D01*
X221127000Y-139051687D01*
X221127000Y-136479902D01*
X224355504Y-136479902D01*
X224421612Y-137191294D01*
X224625235Y-137876120D01*
X224958547Y-138508062D01*
X224980879Y-138541484D01*
X225448313Y-138877738D01*
X227826052Y-136500000D01*
X228173948Y-136500000D01*
X230551687Y-138877738D01*
X231019121Y-138541484D01*
X231359384Y-137913256D01*
X231570546Y-137230718D01*
X231644496Y-136520098D01*
X231578388Y-135808706D01*
X231374765Y-135123880D01*
X231041453Y-134491938D01*
X231019121Y-134458516D01*
X230551687Y-134122262D01*
X228173948Y-136500000D01*
X227826052Y-136500000D01*
X225448313Y-134122262D01*
X224980879Y-134458516D01*
X224640616Y-135086744D01*
X224429454Y-135769282D01*
X224355504Y-136479902D01*
X221127000Y-136479902D01*
X221127000Y-133948313D01*
X225622262Y-133948313D01*
X228000000Y-136326052D01*
X230377738Y-133948313D01*
X230041484Y-133480879D01*
X229413256Y-133140616D01*
X228730718Y-132929454D01*
X228020098Y-132855504D01*
X227308706Y-132921612D01*
X226623880Y-133125235D01*
X225991938Y-133458547D01*
X225958516Y-133480879D01*
X225622262Y-133948313D01*
X221127000Y-133948313D01*
X221127000Y-130652000D01*
X234873000Y-130652000D01*
X234873000Y-143397262D01*
X234853032Y-143600000D01*
X234873000Y-143802738D01*
X234873000Y-147500000D01*
X234875440Y-147524776D01*
X234882667Y-147548601D01*
X234894403Y-147570557D01*
X234910197Y-147589803D01*
X234929443Y-147605597D01*
X234951399Y-147617333D01*
X234975224Y-147624560D01*
X235000000Y-147627000D01*
X238058165Y-147627000D01*
X238190967Y-147667285D01*
X238797262Y-147727000D01*
X242202738Y-147727000D01*
X242809033Y-147667285D01*
X242941835Y-147627000D01*
X248058165Y-147627000D01*
X248190967Y-147667285D01*
X248797262Y-147727000D01*
X252202738Y-147727000D01*
X252809033Y-147667285D01*
X252941835Y-147627000D01*
X255848001Y-147627000D01*
X255848000Y-173348000D01*
X251696108Y-173348000D01*
X251744351Y-173328017D01*
X252174615Y-173040524D01*
X252540524Y-172674615D01*
X252828017Y-172244351D01*
X253026046Y-171766268D01*
X253127000Y-171258737D01*
X253127000Y-170741263D01*
X253026046Y-170233732D01*
X252828017Y-169755649D01*
X252540524Y-169325385D01*
X252174615Y-168959476D01*
X251744351Y-168671983D01*
X251266268Y-168473954D01*
X250758737Y-168373000D01*
X250241263Y-168373000D01*
X249733732Y-168473954D01*
X249255649Y-168671983D01*
X248825385Y-168959476D01*
X248459476Y-169325385D01*
X248171983Y-169755649D01*
X248000000Y-170170852D01*
X247828017Y-169755649D01*
X247540524Y-169325385D01*
X247174615Y-168959476D01*
X246744351Y-168671983D01*
X246266268Y-168473954D01*
X245758737Y-168373000D01*
X245241263Y-168373000D01*
X244733732Y-168473954D01*
X244255649Y-168671983D01*
X243825385Y-168959476D01*
X243459476Y-169325385D01*
X243171983Y-169755649D01*
X243000000Y-170170852D01*
X242828017Y-169755649D01*
X242540524Y-169325385D01*
X242174615Y-168959476D01*
X241744351Y-168671983D01*
X241266268Y-168473954D01*
X240758737Y-168373000D01*
X240241263Y-168373000D01*
X239733732Y-168473954D01*
X239255649Y-168671983D01*
X238825385Y-168959476D01*
X238459476Y-169325385D01*
X238171983Y-169755649D01*
X237973954Y-170233732D01*
X237873000Y-170741263D01*
X237873000Y-171258737D01*
X237973954Y-171766268D01*
X238171983Y-172244351D01*
X238459476Y-172674615D01*
X238825385Y-173040524D01*
X239255649Y-173328017D01*
X239303892Y-173348000D01*
X216696108Y-173348000D01*
X216744351Y-173328017D01*
X217174615Y-173040524D01*
X217540524Y-172674615D01*
X217828017Y-172244351D01*
X218026046Y-171766268D01*
X218127000Y-171258737D01*
X218127000Y-170741263D01*
X218026046Y-170233732D01*
X217828017Y-169755649D01*
X217691735Y-169551687D01*
X225622262Y-169551687D01*
X225958516Y-170019121D01*
X226586744Y-170359384D01*
X227269282Y-170570546D01*
X227979902Y-170644496D01*
X228691294Y-170578388D01*
X229376120Y-170374765D01*
X230008062Y-170041453D01*
X230041484Y-170019121D01*
X230377738Y-169551687D01*
X228000000Y-167173948D01*
X225622262Y-169551687D01*
X217691735Y-169551687D01*
X217540524Y-169325385D01*
X217174615Y-168959476D01*
X216744351Y-168671983D01*
X216266268Y-168473954D01*
X215758737Y-168373000D01*
X215241263Y-168373000D01*
X214733732Y-168473954D01*
X214255649Y-168671983D01*
X213825385Y-168959476D01*
X213459476Y-169325385D01*
X213171983Y-169755649D01*
X213000000Y-170170852D01*
X212828017Y-169755649D01*
X212540524Y-169325385D01*
X212174615Y-168959476D01*
X211744351Y-168671983D01*
X211266268Y-168473954D01*
X210758737Y-168373000D01*
X210241263Y-168373000D01*
X209733732Y-168473954D01*
X209255649Y-168671983D01*
X208825385Y-168959476D01*
X208459476Y-169325385D01*
X208171983Y-169755649D01*
X208000000Y-170170852D01*
X207828017Y-169755649D01*
X207540524Y-169325385D01*
X207174615Y-168959476D01*
X206744351Y-168671983D01*
X206266268Y-168473954D01*
X205758737Y-168373000D01*
X205241263Y-168373000D01*
X204733732Y-168473954D01*
X204255649Y-168671983D01*
X203825385Y-168959476D01*
X203459476Y-169325385D01*
X203171983Y-169755649D01*
X202973954Y-170233732D01*
X202873000Y-170741263D01*
X202873000Y-171258737D01*
X202973954Y-171766268D01*
X203171983Y-172244351D01*
X203459476Y-172674615D01*
X203825385Y-173040524D01*
X204255649Y-173328017D01*
X204303892Y-173348000D01*
X189152000Y-173348000D01*
X189152000Y-169551687D01*
X190622262Y-169551687D01*
X190958516Y-170019121D01*
X191586744Y-170359384D01*
X192269282Y-170570546D01*
X192979902Y-170644496D01*
X193691294Y-170578388D01*
X194376120Y-170374765D01*
X195008062Y-170041453D01*
X195041484Y-170019121D01*
X195377738Y-169551687D01*
X193000000Y-167173948D01*
X190622262Y-169551687D01*
X189152000Y-169551687D01*
X189152000Y-166979902D01*
X189355504Y-166979902D01*
X189421612Y-167691294D01*
X189625235Y-168376120D01*
X189958547Y-169008062D01*
X189980879Y-169041484D01*
X190448313Y-169377738D01*
X192826052Y-167000000D01*
X193173948Y-167000000D01*
X195551687Y-169377738D01*
X196019121Y-169041484D01*
X196359384Y-168413256D01*
X196570546Y-167730718D01*
X196644496Y-167020098D01*
X196640761Y-166979902D01*
X224355504Y-166979902D01*
X224421612Y-167691294D01*
X224625235Y-168376120D01*
X224958547Y-169008062D01*
X224980879Y-169041484D01*
X225448313Y-169377738D01*
X227826052Y-167000000D01*
X228173948Y-167000000D01*
X230551687Y-169377738D01*
X231019121Y-169041484D01*
X231359384Y-168413256D01*
X231570546Y-167730718D01*
X231644496Y-167020098D01*
X231578388Y-166308706D01*
X231374765Y-165623880D01*
X231041453Y-164991938D01*
X231019121Y-164958516D01*
X230551687Y-164622262D01*
X228173948Y-167000000D01*
X227826052Y-167000000D01*
X225448313Y-164622262D01*
X224980879Y-164958516D01*
X224640616Y-165586744D01*
X224429454Y-166269282D01*
X224355504Y-166979902D01*
X196640761Y-166979902D01*
X196578388Y-166308706D01*
X196374765Y-165623880D01*
X196041453Y-164991938D01*
X196019121Y-164958516D01*
X195551687Y-164622262D01*
X193173948Y-167000000D01*
X192826052Y-167000000D01*
X190448313Y-164622262D01*
X189980879Y-164958516D01*
X189640616Y-165586744D01*
X189429454Y-166269282D01*
X189355504Y-166979902D01*
X189152000Y-166979902D01*
X189152000Y-164448313D01*
X190622262Y-164448313D01*
X193000000Y-166826052D01*
X195377738Y-164448313D01*
X195235080Y-164250000D01*
X206707547Y-164250000D01*
X206707547Y-165750000D01*
X206729307Y-165970931D01*
X206793750Y-166183371D01*
X206898400Y-166379157D01*
X207039235Y-166550765D01*
X207210843Y-166691600D01*
X207406629Y-166796250D01*
X207619069Y-166860693D01*
X207840000Y-166882453D01*
X209340000Y-166882453D01*
X209560931Y-166860693D01*
X209773371Y-166796250D01*
X209842494Y-166759303D01*
X209952499Y-166804868D01*
X210315132Y-166877000D01*
X210684868Y-166877000D01*
X211047501Y-166804868D01*
X211389093Y-166663376D01*
X211455000Y-166619338D01*
X211520907Y-166663376D01*
X211862499Y-166804868D01*
X212225132Y-166877000D01*
X212594868Y-166877000D01*
X212957501Y-166804868D01*
X213299093Y-166663376D01*
X213606518Y-166457961D01*
X213867961Y-166196518D01*
X214073376Y-165889093D01*
X214214868Y-165547501D01*
X214287000Y-165184868D01*
X214287000Y-164815132D01*
X214214868Y-164452499D01*
X214073376Y-164110907D01*
X213867961Y-163803482D01*
X213606518Y-163542039D01*
X213359520Y-163377000D01*
X227788778Y-163377000D01*
X227308706Y-163421612D01*
X226623880Y-163625235D01*
X225991938Y-163958547D01*
X225958516Y-163980879D01*
X225622262Y-164448313D01*
X228000000Y-166826052D01*
X230377738Y-164448313D01*
X230041484Y-163980879D01*
X229413256Y-163640616D01*
X228730718Y-163429454D01*
X228226663Y-163377000D01*
X241269629Y-163377000D01*
X241774085Y-163881456D01*
X241729307Y-164029069D01*
X241707547Y-164250000D01*
X241707547Y-165750000D01*
X241729307Y-165970931D01*
X241793750Y-166183371D01*
X241898400Y-166379157D01*
X242039235Y-166550765D01*
X242210843Y-166691600D01*
X242406629Y-166796250D01*
X242619069Y-166860693D01*
X242840000Y-166882453D01*
X244340000Y-166882453D01*
X244560931Y-166860693D01*
X244773371Y-166796250D01*
X244842494Y-166759303D01*
X244952499Y-166804868D01*
X245315132Y-166877000D01*
X245684868Y-166877000D01*
X246047501Y-166804868D01*
X246389093Y-166663376D01*
X246455000Y-166619338D01*
X246520907Y-166663376D01*
X246862499Y-166804868D01*
X247225132Y-166877000D01*
X247594868Y-166877000D01*
X247957501Y-166804868D01*
X248299093Y-166663376D01*
X248606518Y-166457961D01*
X248867961Y-166196518D01*
X249073376Y-165889093D01*
X249214868Y-165547501D01*
X249287000Y-165184868D01*
X249287000Y-164815132D01*
X249214868Y-164452499D01*
X249073376Y-164110907D01*
X248867961Y-163803482D01*
X248606518Y-163542039D01*
X248299093Y-163336624D01*
X247957501Y-163195132D01*
X247594868Y-163123000D01*
X247225132Y-163123000D01*
X246862499Y-163195132D01*
X246520907Y-163336624D01*
X246455000Y-163380662D01*
X246389093Y-163336624D01*
X246047501Y-163195132D01*
X245684868Y-163123000D01*
X245315132Y-163123000D01*
X244952499Y-163195132D01*
X244870897Y-163228933D01*
X244868337Y-163220495D01*
X244740473Y-162981279D01*
X244568396Y-162771603D01*
X244515860Y-162728488D01*
X242861521Y-161074150D01*
X242818397Y-161021603D01*
X242608721Y-160849527D01*
X242369505Y-160721663D01*
X242109939Y-160642925D01*
X241907640Y-160623000D01*
X241840000Y-160616338D01*
X241772360Y-160623000D01*
X210407640Y-160623000D01*
X210340000Y-160616338D01*
X210070060Y-160642925D01*
X209940278Y-160682294D01*
X209810495Y-160721663D01*
X209571279Y-160849527D01*
X209361603Y-161021603D01*
X209318483Y-161074145D01*
X207664145Y-162728484D01*
X207611604Y-162771603D01*
X207439528Y-162981279D01*
X207311663Y-163220495D01*
X207299348Y-163261093D01*
X207210843Y-163308400D01*
X207039235Y-163449235D01*
X206898400Y-163620843D01*
X206793750Y-163816629D01*
X206729307Y-164029069D01*
X206707547Y-164250000D01*
X195235080Y-164250000D01*
X195041484Y-163980879D01*
X194413256Y-163640616D01*
X193730718Y-163429454D01*
X193020098Y-163355504D01*
X192308706Y-163421612D01*
X191623880Y-163625235D01*
X190991938Y-163958547D01*
X190958516Y-163980879D01*
X190622262Y-164448313D01*
X189152000Y-164448313D01*
X189152000Y-152984726D01*
X226689223Y-152984726D01*
X226845322Y-153298538D01*
X227218386Y-153489246D01*
X227621487Y-153603508D01*
X228039134Y-153636935D01*
X228455278Y-153588239D01*
X228853925Y-153459294D01*
X229154678Y-153298538D01*
X229310777Y-152984726D01*
X228000000Y-151673948D01*
X226689223Y-152984726D01*
X189152000Y-152984726D01*
X189152000Y-151539134D01*
X225863065Y-151539134D01*
X225911761Y-151955278D01*
X226040706Y-152353925D01*
X226201462Y-152654678D01*
X226515274Y-152810777D01*
X227826052Y-151500000D01*
X228173948Y-151500000D01*
X229484726Y-152810777D01*
X229798538Y-152654678D01*
X229989246Y-152281614D01*
X230103508Y-151878513D01*
X230136935Y-151460866D01*
X230088239Y-151044722D01*
X229959294Y-150646075D01*
X229798538Y-150345322D01*
X229484726Y-150189223D01*
X228173948Y-151500000D01*
X227826052Y-151500000D01*
X226515274Y-150189223D01*
X226201462Y-150345322D01*
X226010754Y-150718386D01*
X225896492Y-151121487D01*
X225863065Y-151539134D01*
X189152000Y-151539134D01*
X189152000Y-150015274D01*
X226689223Y-150015274D01*
X228000000Y-151326052D01*
X229310777Y-150015274D01*
X229154678Y-149701462D01*
X228781614Y-149510754D01*
X228378513Y-149396492D01*
X227960866Y-149363065D01*
X227544722Y-149411761D01*
X227146075Y-149540706D01*
X226845322Y-149701462D01*
X226689223Y-150015274D01*
X189152000Y-150015274D01*
X189152000Y-139051687D01*
X190622262Y-139051687D01*
X190958516Y-139519121D01*
X191586744Y-139859384D01*
X192269282Y-140070546D01*
X192979902Y-140144496D01*
X193691294Y-140078388D01*
X194376120Y-139874765D01*
X195008062Y-139541453D01*
X195041484Y-139519121D01*
X195377738Y-139051687D01*
X193000000Y-136673948D01*
X190622262Y-139051687D01*
X189152000Y-139051687D01*
X189152000Y-136479902D01*
X189355504Y-136479902D01*
X189421612Y-137191294D01*
X189625235Y-137876120D01*
X189958547Y-138508062D01*
X189980879Y-138541484D01*
X190448313Y-138877738D01*
X192826052Y-136500000D01*
X193173948Y-136500000D01*
X195551687Y-138877738D01*
X196019121Y-138541484D01*
X196359384Y-137913256D01*
X196570546Y-137230718D01*
X196644496Y-136520098D01*
X196578388Y-135808706D01*
X196374765Y-135123880D01*
X196041453Y-134491938D01*
X196019121Y-134458516D01*
X195551687Y-134122262D01*
X193173948Y-136500000D01*
X192826052Y-136500000D01*
X190448313Y-134122262D01*
X189980879Y-134458516D01*
X189640616Y-135086744D01*
X189429454Y-135769282D01*
X189355504Y-136479902D01*
X189152000Y-136479902D01*
X189152000Y-133948313D01*
X190622262Y-133948313D01*
X193000000Y-136326052D01*
X195377738Y-133948313D01*
X195041484Y-133480879D01*
X194413256Y-133140616D01*
X193730718Y-132929454D01*
X193020098Y-132855504D01*
X192308706Y-132921612D01*
X191623880Y-133125235D01*
X190991938Y-133458547D01*
X190958516Y-133480879D01*
X190622262Y-133948313D01*
X189152000Y-133948313D01*
X189152000Y-130652000D01*
X199873000Y-130652000D01*
X199873000Y-143397262D01*
G37*
X199873000Y-143397262D02*
X199853032Y-143600000D01*
X199873000Y-143802738D01*
X199873000Y-147500000D01*
X199875440Y-147524776D01*
X199882667Y-147548601D01*
X199894403Y-147570557D01*
X199910197Y-147589803D01*
X199929443Y-147605597D01*
X199951399Y-147617333D01*
X199975224Y-147624560D01*
X200000000Y-147627000D01*
X203058165Y-147627000D01*
X203190967Y-147667285D01*
X203797262Y-147727000D01*
X207202738Y-147727000D01*
X207809033Y-147667285D01*
X207941835Y-147627000D01*
X213058165Y-147627000D01*
X213190967Y-147667285D01*
X213797262Y-147727000D01*
X217202738Y-147727000D01*
X217809033Y-147667285D01*
X217941835Y-147627000D01*
X221000000Y-147627000D01*
X221024776Y-147624560D01*
X221048601Y-147617333D01*
X221070557Y-147605597D01*
X221089803Y-147589803D01*
X221105597Y-147570557D01*
X221117333Y-147548601D01*
X221124560Y-147524776D01*
X221127000Y-147500000D01*
X221127000Y-143802738D01*
X221146968Y-143600000D01*
X221127000Y-143397262D01*
X221127000Y-139051687D01*
X225622262Y-139051687D01*
X225958516Y-139519121D01*
X226586744Y-139859384D01*
X227269282Y-140070546D01*
X227979902Y-140144496D01*
X228691294Y-140078388D01*
X229376120Y-139874765D01*
X230008062Y-139541453D01*
X230041484Y-139519121D01*
X230377738Y-139051687D01*
X228000000Y-136673948D01*
X225622262Y-139051687D01*
X221127000Y-139051687D01*
X221127000Y-136479902D01*
X224355504Y-136479902D01*
X224421612Y-137191294D01*
X224625235Y-137876120D01*
X224958547Y-138508062D01*
X224980879Y-138541484D01*
X225448313Y-138877738D01*
X227826052Y-136500000D01*
X228173948Y-136500000D01*
X230551687Y-138877738D01*
X231019121Y-138541484D01*
X231359384Y-137913256D01*
X231570546Y-137230718D01*
X231644496Y-136520098D01*
X231578388Y-135808706D01*
X231374765Y-135123880D01*
X231041453Y-134491938D01*
X231019121Y-134458516D01*
X230551687Y-134122262D01*
X228173948Y-136500000D01*
X227826052Y-136500000D01*
X225448313Y-134122262D01*
X224980879Y-134458516D01*
X224640616Y-135086744D01*
X224429454Y-135769282D01*
X224355504Y-136479902D01*
X221127000Y-136479902D01*
X221127000Y-133948313D01*
X225622262Y-133948313D01*
X228000000Y-136326052D01*
X230377738Y-133948313D01*
X230041484Y-133480879D01*
X229413256Y-133140616D01*
X228730718Y-132929454D01*
X228020098Y-132855504D01*
X227308706Y-132921612D01*
X226623880Y-133125235D01*
X225991938Y-133458547D01*
X225958516Y-133480879D01*
X225622262Y-133948313D01*
X221127000Y-133948313D01*
X221127000Y-130652000D01*
X234873000Y-130652000D01*
X234873000Y-143397262D01*
X234853032Y-143600000D01*
X234873000Y-143802738D01*
X234873000Y-147500000D01*
X234875440Y-147524776D01*
X234882667Y-147548601D01*
X234894403Y-147570557D01*
X234910197Y-147589803D01*
X234929443Y-147605597D01*
X234951399Y-147617333D01*
X234975224Y-147624560D01*
X235000000Y-147627000D01*
X238058165Y-147627000D01*
X238190967Y-147667285D01*
X238797262Y-147727000D01*
X242202738Y-147727000D01*
X242809033Y-147667285D01*
X242941835Y-147627000D01*
X248058165Y-147627000D01*
X248190967Y-147667285D01*
X248797262Y-147727000D01*
X252202738Y-147727000D01*
X252809033Y-147667285D01*
X252941835Y-147627000D01*
X255848001Y-147627000D01*
X255848000Y-173348000D01*
X251696108Y-173348000D01*
X251744351Y-173328017D01*
X252174615Y-173040524D01*
X252540524Y-172674615D01*
X252828017Y-172244351D01*
X253026046Y-171766268D01*
X253127000Y-171258737D01*
X253127000Y-170741263D01*
X253026046Y-170233732D01*
X252828017Y-169755649D01*
X252540524Y-169325385D01*
X252174615Y-168959476D01*
X251744351Y-168671983D01*
X251266268Y-168473954D01*
X250758737Y-168373000D01*
X250241263Y-168373000D01*
X249733732Y-168473954D01*
X249255649Y-168671983D01*
X248825385Y-168959476D01*
X248459476Y-169325385D01*
X248171983Y-169755649D01*
X248000000Y-170170852D01*
X247828017Y-169755649D01*
X247540524Y-169325385D01*
X247174615Y-168959476D01*
X246744351Y-168671983D01*
X246266268Y-168473954D01*
X245758737Y-168373000D01*
X245241263Y-168373000D01*
X244733732Y-168473954D01*
X244255649Y-168671983D01*
X243825385Y-168959476D01*
X243459476Y-169325385D01*
X243171983Y-169755649D01*
X243000000Y-170170852D01*
X242828017Y-169755649D01*
X242540524Y-169325385D01*
X242174615Y-168959476D01*
X241744351Y-168671983D01*
X241266268Y-168473954D01*
X240758737Y-168373000D01*
X240241263Y-168373000D01*
X239733732Y-168473954D01*
X239255649Y-168671983D01*
X238825385Y-168959476D01*
X238459476Y-169325385D01*
X238171983Y-169755649D01*
X237973954Y-170233732D01*
X237873000Y-170741263D01*
X237873000Y-171258737D01*
X237973954Y-171766268D01*
X238171983Y-172244351D01*
X238459476Y-172674615D01*
X238825385Y-173040524D01*
X239255649Y-173328017D01*
X239303892Y-173348000D01*
X216696108Y-173348000D01*
X216744351Y-173328017D01*
X217174615Y-173040524D01*
X217540524Y-172674615D01*
X217828017Y-172244351D01*
X218026046Y-171766268D01*
X218127000Y-171258737D01*
X218127000Y-170741263D01*
X218026046Y-170233732D01*
X217828017Y-169755649D01*
X217691735Y-169551687D01*
X225622262Y-169551687D01*
X225958516Y-170019121D01*
X226586744Y-170359384D01*
X227269282Y-170570546D01*
X227979902Y-170644496D01*
X228691294Y-170578388D01*
X229376120Y-170374765D01*
X230008062Y-170041453D01*
X230041484Y-170019121D01*
X230377738Y-169551687D01*
X228000000Y-167173948D01*
X225622262Y-169551687D01*
X217691735Y-169551687D01*
X217540524Y-169325385D01*
X217174615Y-168959476D01*
X216744351Y-168671983D01*
X216266268Y-168473954D01*
X215758737Y-168373000D01*
X215241263Y-168373000D01*
X214733732Y-168473954D01*
X214255649Y-168671983D01*
X213825385Y-168959476D01*
X213459476Y-169325385D01*
X213171983Y-169755649D01*
X213000000Y-170170852D01*
X212828017Y-169755649D01*
X212540524Y-169325385D01*
X212174615Y-168959476D01*
X211744351Y-168671983D01*
X211266268Y-168473954D01*
X210758737Y-168373000D01*
X210241263Y-168373000D01*
X209733732Y-168473954D01*
X209255649Y-168671983D01*
X208825385Y-168959476D01*
X208459476Y-169325385D01*
X208171983Y-169755649D01*
X208000000Y-170170852D01*
X207828017Y-169755649D01*
X207540524Y-169325385D01*
X207174615Y-168959476D01*
X206744351Y-168671983D01*
X206266268Y-168473954D01*
X205758737Y-168373000D01*
X205241263Y-168373000D01*
X204733732Y-168473954D01*
X204255649Y-168671983D01*
X203825385Y-168959476D01*
X203459476Y-169325385D01*
X203171983Y-169755649D01*
X202973954Y-170233732D01*
X202873000Y-170741263D01*
X202873000Y-171258737D01*
X202973954Y-171766268D01*
X203171983Y-172244351D01*
X203459476Y-172674615D01*
X203825385Y-173040524D01*
X204255649Y-173328017D01*
X204303892Y-173348000D01*
X189152000Y-173348000D01*
X189152000Y-169551687D01*
X190622262Y-169551687D01*
X190958516Y-170019121D01*
X191586744Y-170359384D01*
X192269282Y-170570546D01*
X192979902Y-170644496D01*
X193691294Y-170578388D01*
X194376120Y-170374765D01*
X195008062Y-170041453D01*
X195041484Y-170019121D01*
X195377738Y-169551687D01*
X193000000Y-167173948D01*
X190622262Y-169551687D01*
X189152000Y-169551687D01*
X189152000Y-166979902D01*
X189355504Y-166979902D01*
X189421612Y-167691294D01*
X189625235Y-168376120D01*
X189958547Y-169008062D01*
X189980879Y-169041484D01*
X190448313Y-169377738D01*
X192826052Y-167000000D01*
X193173948Y-167000000D01*
X195551687Y-169377738D01*
X196019121Y-169041484D01*
X196359384Y-168413256D01*
X196570546Y-167730718D01*
X196644496Y-167020098D01*
X196640761Y-166979902D01*
X224355504Y-166979902D01*
X224421612Y-167691294D01*
X224625235Y-168376120D01*
X224958547Y-169008062D01*
X224980879Y-169041484D01*
X225448313Y-169377738D01*
X227826052Y-167000000D01*
X228173948Y-167000000D01*
X230551687Y-169377738D01*
X231019121Y-169041484D01*
X231359384Y-168413256D01*
X231570546Y-167730718D01*
X231644496Y-167020098D01*
X231578388Y-166308706D01*
X231374765Y-165623880D01*
X231041453Y-164991938D01*
X231019121Y-164958516D01*
X230551687Y-164622262D01*
X228173948Y-167000000D01*
X227826052Y-167000000D01*
X225448313Y-164622262D01*
X224980879Y-164958516D01*
X224640616Y-165586744D01*
X224429454Y-166269282D01*
X224355504Y-166979902D01*
X196640761Y-166979902D01*
X196578388Y-166308706D01*
X196374765Y-165623880D01*
X196041453Y-164991938D01*
X196019121Y-164958516D01*
X195551687Y-164622262D01*
X193173948Y-167000000D01*
X192826052Y-167000000D01*
X190448313Y-164622262D01*
X189980879Y-164958516D01*
X189640616Y-165586744D01*
X189429454Y-166269282D01*
X189355504Y-166979902D01*
X189152000Y-166979902D01*
X189152000Y-164448313D01*
X190622262Y-164448313D01*
X193000000Y-166826052D01*
X195377738Y-164448313D01*
X195235080Y-164250000D01*
X206707547Y-164250000D01*
X206707547Y-165750000D01*
X206729307Y-165970931D01*
X206793750Y-166183371D01*
X206898400Y-166379157D01*
X207039235Y-166550765D01*
X207210843Y-166691600D01*
X207406629Y-166796250D01*
X207619069Y-166860693D01*
X207840000Y-166882453D01*
X209340000Y-166882453D01*
X209560931Y-166860693D01*
X209773371Y-166796250D01*
X209842494Y-166759303D01*
X209952499Y-166804868D01*
X210315132Y-166877000D01*
X210684868Y-166877000D01*
X211047501Y-166804868D01*
X211389093Y-166663376D01*
X211455000Y-166619338D01*
X211520907Y-166663376D01*
X211862499Y-166804868D01*
X212225132Y-166877000D01*
X212594868Y-166877000D01*
X212957501Y-166804868D01*
X213299093Y-166663376D01*
X213606518Y-166457961D01*
X213867961Y-166196518D01*
X214073376Y-165889093D01*
X214214868Y-165547501D01*
X214287000Y-165184868D01*
X214287000Y-164815132D01*
X214214868Y-164452499D01*
X214073376Y-164110907D01*
X213867961Y-163803482D01*
X213606518Y-163542039D01*
X213359520Y-163377000D01*
X227788778Y-163377000D01*
X227308706Y-163421612D01*
X226623880Y-163625235D01*
X225991938Y-163958547D01*
X225958516Y-163980879D01*
X225622262Y-164448313D01*
X228000000Y-166826052D01*
X230377738Y-164448313D01*
X230041484Y-163980879D01*
X229413256Y-163640616D01*
X228730718Y-163429454D01*
X228226663Y-163377000D01*
X241269629Y-163377000D01*
X241774085Y-163881456D01*
X241729307Y-164029069D01*
X241707547Y-164250000D01*
X241707547Y-165750000D01*
X241729307Y-165970931D01*
X241793750Y-166183371D01*
X241898400Y-166379157D01*
X242039235Y-166550765D01*
X242210843Y-166691600D01*
X242406629Y-166796250D01*
X242619069Y-166860693D01*
X242840000Y-166882453D01*
X244340000Y-166882453D01*
X244560931Y-166860693D01*
X244773371Y-166796250D01*
X244842494Y-166759303D01*
X244952499Y-166804868D01*
X245315132Y-166877000D01*
X245684868Y-166877000D01*
X246047501Y-166804868D01*
X246389093Y-166663376D01*
X246455000Y-166619338D01*
X246520907Y-166663376D01*
X246862499Y-166804868D01*
X247225132Y-166877000D01*
X247594868Y-166877000D01*
X247957501Y-166804868D01*
X248299093Y-166663376D01*
X248606518Y-166457961D01*
X248867961Y-166196518D01*
X249073376Y-165889093D01*
X249214868Y-165547501D01*
X249287000Y-165184868D01*
X249287000Y-164815132D01*
X249214868Y-164452499D01*
X249073376Y-164110907D01*
X248867961Y-163803482D01*
X248606518Y-163542039D01*
X248299093Y-163336624D01*
X247957501Y-163195132D01*
X247594868Y-163123000D01*
X247225132Y-163123000D01*
X246862499Y-163195132D01*
X246520907Y-163336624D01*
X246455000Y-163380662D01*
X246389093Y-163336624D01*
X246047501Y-163195132D01*
X245684868Y-163123000D01*
X245315132Y-163123000D01*
X244952499Y-163195132D01*
X244870897Y-163228933D01*
X244868337Y-163220495D01*
X244740473Y-162981279D01*
X244568396Y-162771603D01*
X244515860Y-162728488D01*
X242861521Y-161074150D01*
X242818397Y-161021603D01*
X242608721Y-160849527D01*
X242369505Y-160721663D01*
X242109939Y-160642925D01*
X241907640Y-160623000D01*
X241840000Y-160616338D01*
X241772360Y-160623000D01*
X210407640Y-160623000D01*
X210340000Y-160616338D01*
X210070060Y-160642925D01*
X209940278Y-160682294D01*
X209810495Y-160721663D01*
X209571279Y-160849527D01*
X209361603Y-161021603D01*
X209318483Y-161074145D01*
X207664145Y-162728484D01*
X207611604Y-162771603D01*
X207439528Y-162981279D01*
X207311663Y-163220495D01*
X207299348Y-163261093D01*
X207210843Y-163308400D01*
X207039235Y-163449235D01*
X206898400Y-163620843D01*
X206793750Y-163816629D01*
X206729307Y-164029069D01*
X206707547Y-164250000D01*
X195235080Y-164250000D01*
X195041484Y-163980879D01*
X194413256Y-163640616D01*
X193730718Y-163429454D01*
X193020098Y-163355504D01*
X192308706Y-163421612D01*
X191623880Y-163625235D01*
X190991938Y-163958547D01*
X190958516Y-163980879D01*
X190622262Y-164448313D01*
X189152000Y-164448313D01*
X189152000Y-152984726D01*
X226689223Y-152984726D01*
X226845322Y-153298538D01*
X227218386Y-153489246D01*
X227621487Y-153603508D01*
X228039134Y-153636935D01*
X228455278Y-153588239D01*
X228853925Y-153459294D01*
X229154678Y-153298538D01*
X229310777Y-152984726D01*
X228000000Y-151673948D01*
X226689223Y-152984726D01*
X189152000Y-152984726D01*
X189152000Y-151539134D01*
X225863065Y-151539134D01*
X225911761Y-151955278D01*
X226040706Y-152353925D01*
X226201462Y-152654678D01*
X226515274Y-152810777D01*
X227826052Y-151500000D01*
X228173948Y-151500000D01*
X229484726Y-152810777D01*
X229798538Y-152654678D01*
X229989246Y-152281614D01*
X230103508Y-151878513D01*
X230136935Y-151460866D01*
X230088239Y-151044722D01*
X229959294Y-150646075D01*
X229798538Y-150345322D01*
X229484726Y-150189223D01*
X228173948Y-151500000D01*
X227826052Y-151500000D01*
X226515274Y-150189223D01*
X226201462Y-150345322D01*
X226010754Y-150718386D01*
X225896492Y-151121487D01*
X225863065Y-151539134D01*
X189152000Y-151539134D01*
X189152000Y-150015274D01*
X226689223Y-150015274D01*
X228000000Y-151326052D01*
X229310777Y-150015274D01*
X229154678Y-149701462D01*
X228781614Y-149510754D01*
X228378513Y-149396492D01*
X227960866Y-149363065D01*
X227544722Y-149411761D01*
X227146075Y-149540706D01*
X226845322Y-149701462D01*
X226689223Y-150015274D01*
X189152000Y-150015274D01*
X189152000Y-139051687D01*
X190622262Y-139051687D01*
X190958516Y-139519121D01*
X191586744Y-139859384D01*
X192269282Y-140070546D01*
X192979902Y-140144496D01*
X193691294Y-140078388D01*
X194376120Y-139874765D01*
X195008062Y-139541453D01*
X195041484Y-139519121D01*
X195377738Y-139051687D01*
X193000000Y-136673948D01*
X190622262Y-139051687D01*
X189152000Y-139051687D01*
X189152000Y-136479902D01*
X189355504Y-136479902D01*
X189421612Y-137191294D01*
X189625235Y-137876120D01*
X189958547Y-138508062D01*
X189980879Y-138541484D01*
X190448313Y-138877738D01*
X192826052Y-136500000D01*
X193173948Y-136500000D01*
X195551687Y-138877738D01*
X196019121Y-138541484D01*
X196359384Y-137913256D01*
X196570546Y-137230718D01*
X196644496Y-136520098D01*
X196578388Y-135808706D01*
X196374765Y-135123880D01*
X196041453Y-134491938D01*
X196019121Y-134458516D01*
X195551687Y-134122262D01*
X193173948Y-136500000D01*
X192826052Y-136500000D01*
X190448313Y-134122262D01*
X189980879Y-134458516D01*
X189640616Y-135086744D01*
X189429454Y-135769282D01*
X189355504Y-136479902D01*
X189152000Y-136479902D01*
X189152000Y-133948313D01*
X190622262Y-133948313D01*
X193000000Y-136326052D01*
X195377738Y-133948313D01*
X195041484Y-133480879D01*
X194413256Y-133140616D01*
X193730718Y-132929454D01*
X193020098Y-132855504D01*
X192308706Y-132921612D01*
X191623880Y-133125235D01*
X190991938Y-133458547D01*
X190958516Y-133480879D01*
X190622262Y-133948313D01*
X189152000Y-133948313D01*
X189152000Y-130652000D01*
X199873000Y-130652000D01*
X199873000Y-143397262D01*
M02*
