M48
; DRILL file {KiCad (5.1.5)-3} date 2020/06/18 15:28:40
; FORMAT={-:-/ absolute / metric / decimal}
; #@! TF.CreationDate,2020-06-18T15:28:40+02:00
; #@! TF.GenerationSoftware,Kicad,Pcbnew,(5.1.5)-3
FMAT,2
METRIC
T1C0.500
T2C0.800
T3C1.500
T4C2.000
T5C2.500
T6C3.000
%
G90
G05
T1
X201.55Y-142.97
X201.55Y-144.23
X202.3Y-141.94
X202.3Y-145.26
X203.5Y-141.55
X203.5Y-145.65
X204.83Y-141.55
X204.83Y-145.65
X206.17Y-141.55
X206.17Y-145.65
X207.5Y-141.55
X207.5Y-145.65
X208.7Y-141.94
X208.7Y-145.26
X209.45Y-142.97
X209.45Y-144.23
X211.55Y-142.97
X211.55Y-144.23
X212.3Y-141.94
X212.3Y-145.26
X213.5Y-141.55
X213.5Y-145.65
X214.83Y-141.55
X214.83Y-145.65
X216.17Y-141.55
X216.17Y-145.65
X217.5Y-141.55
X217.5Y-145.65
X218.7Y-141.94
X218.7Y-145.26
X219.45Y-142.97
X219.45Y-144.23
X236.55Y-142.97
X236.55Y-144.23
X237.3Y-141.94
X237.3Y-145.26
X238.5Y-141.55
X238.5Y-145.65
X239.83Y-141.55
X239.83Y-145.65
X241.17Y-141.55
X241.17Y-145.65
X242.5Y-141.55
X242.5Y-145.65
X243.7Y-141.94
X243.7Y-145.26
X244.45Y-142.97
X244.45Y-144.23
X246.55Y-142.97
X246.55Y-144.23
X247.3Y-141.94
X247.3Y-145.26
X248.5Y-141.55
X248.5Y-145.65
X249.83Y-141.55
X249.83Y-145.65
X251.17Y-141.55
X251.17Y-145.65
X252.5Y-141.55
X252.5Y-145.65
X253.7Y-141.94
X253.7Y-145.26
X254.45Y-142.97
X254.45Y-144.23
T2
X208.59Y-165.0
X210.5Y-165.0
X212.41Y-165.0
X243.59Y-165.0
X245.5Y-165.0
X247.41Y-165.0
T3
X205.5Y-171.0
X240.5Y-171.0
X245.5Y-171.0
X215.5Y-171.0
X210.5Y-171.0
X250.5Y-171.0
X228.0Y-151.5
T5
X240.5Y-134.0
X250.5Y-134.0
X215.5Y-134.0
X205.5Y-134.0
T6
X193.0Y-167.0
X228.0Y-136.5
X193.0Y-136.5
X228.0Y-167.0
T4
G00X203.5Y-143.6
M15
G01X207.5Y-143.6
M16
G05
G00X213.5Y-143.6
M15
G01X217.5Y-143.6
M16
G05
G00X238.5Y-143.6
M15
G01X242.5Y-143.6
M16
G05
G00X248.5Y-143.6
M15
G01X252.5Y-143.6
M16
G05
T0
M30
