G04 #@! TF.GenerationSoftware,KiCad,Pcbnew,(5.1.5)-3*
G04 #@! TF.CreationDate,2020-06-18T15:26:03+02:00*
G04 #@! TF.ProjectId,Amp_Hall_Effect_Sensor,416d705f-4861-46c6-9c5f-456666656374,Rev. 1*
G04 #@! TF.SameCoordinates,Original*
G04 #@! TF.FileFunction,Soldermask,Bot*
G04 #@! TF.FilePolarity,Negative*
%FSLAX46Y46*%
G04 Gerber Fmt 4.6, Leading zero omitted, Abs format (unit mm)*
G04 Created by KiCad (PCBNEW (5.1.5)-3) date 2020-06-18 15:26:03*
%MOMM*%
%LPD*%
G04 APERTURE LIST*
%ADD10C,0.050000*%
%ADD11C,0.100000*%
G04 APERTURE END LIST*
D10*
X257000000Y-129500000D02*
X188000000Y-129500000D01*
X257000000Y-174500000D02*
X257000000Y-129500000D01*
X255500000Y-174500000D02*
X257000000Y-174500000D01*
X188000000Y-174500000D02*
X255500000Y-174500000D01*
X188000000Y-172000000D02*
X188000000Y-174500000D01*
X188000000Y-129500000D02*
X188000000Y-172000000D01*
D11*
G36*
X215802585Y-169478802D02*
G01*
X215952410Y-169508604D01*
X216234674Y-169625521D01*
X216488705Y-169795259D01*
X216704741Y-170011295D01*
X216874479Y-170265326D01*
X216991396Y-170547590D01*
X217051000Y-170847240D01*
X217051000Y-171152760D01*
X216991396Y-171452410D01*
X216874479Y-171734674D01*
X216704741Y-171988705D01*
X216488705Y-172204741D01*
X216234674Y-172374479D01*
X215952410Y-172491396D01*
X215802585Y-172521198D01*
X215652761Y-172551000D01*
X215347239Y-172551000D01*
X215197415Y-172521198D01*
X215047590Y-172491396D01*
X214765326Y-172374479D01*
X214511295Y-172204741D01*
X214295259Y-171988705D01*
X214125521Y-171734674D01*
X214008604Y-171452410D01*
X213949000Y-171152760D01*
X213949000Y-170847240D01*
X214008604Y-170547590D01*
X214125521Y-170265326D01*
X214295259Y-170011295D01*
X214511295Y-169795259D01*
X214765326Y-169625521D01*
X215047590Y-169508604D01*
X215197415Y-169478802D01*
X215347239Y-169449000D01*
X215652761Y-169449000D01*
X215802585Y-169478802D01*
G37*
G36*
X210802585Y-169478802D02*
G01*
X210952410Y-169508604D01*
X211234674Y-169625521D01*
X211488705Y-169795259D01*
X211704741Y-170011295D01*
X211874479Y-170265326D01*
X211991396Y-170547590D01*
X212051000Y-170847240D01*
X212051000Y-171152760D01*
X211991396Y-171452410D01*
X211874479Y-171734674D01*
X211704741Y-171988705D01*
X211488705Y-172204741D01*
X211234674Y-172374479D01*
X210952410Y-172491396D01*
X210802585Y-172521198D01*
X210652761Y-172551000D01*
X210347239Y-172551000D01*
X210197415Y-172521198D01*
X210047590Y-172491396D01*
X209765326Y-172374479D01*
X209511295Y-172204741D01*
X209295259Y-171988705D01*
X209125521Y-171734674D01*
X209008604Y-171452410D01*
X208949000Y-171152760D01*
X208949000Y-170847240D01*
X209008604Y-170547590D01*
X209125521Y-170265326D01*
X209295259Y-170011295D01*
X209511295Y-169795259D01*
X209765326Y-169625521D01*
X210047590Y-169508604D01*
X210197415Y-169478802D01*
X210347239Y-169449000D01*
X210652761Y-169449000D01*
X210802585Y-169478802D01*
G37*
G36*
X205802585Y-169478802D02*
G01*
X205952410Y-169508604D01*
X206234674Y-169625521D01*
X206488705Y-169795259D01*
X206704741Y-170011295D01*
X206874479Y-170265326D01*
X206991396Y-170547590D01*
X207051000Y-170847240D01*
X207051000Y-171152760D01*
X206991396Y-171452410D01*
X206874479Y-171734674D01*
X206704741Y-171988705D01*
X206488705Y-172204741D01*
X206234674Y-172374479D01*
X205952410Y-172491396D01*
X205802585Y-172521198D01*
X205652761Y-172551000D01*
X205347239Y-172551000D01*
X205197415Y-172521198D01*
X205047590Y-172491396D01*
X204765326Y-172374479D01*
X204511295Y-172204741D01*
X204295259Y-171988705D01*
X204125521Y-171734674D01*
X204008604Y-171452410D01*
X203949000Y-171152760D01*
X203949000Y-170847240D01*
X204008604Y-170547590D01*
X204125521Y-170265326D01*
X204295259Y-170011295D01*
X204511295Y-169795259D01*
X204765326Y-169625521D01*
X205047590Y-169508604D01*
X205197415Y-169478802D01*
X205347239Y-169449000D01*
X205652761Y-169449000D01*
X205802585Y-169478802D01*
G37*
G36*
X250802585Y-169478802D02*
G01*
X250952410Y-169508604D01*
X251234674Y-169625521D01*
X251488705Y-169795259D01*
X251704741Y-170011295D01*
X251874479Y-170265326D01*
X251991396Y-170547590D01*
X252051000Y-170847240D01*
X252051000Y-171152760D01*
X251991396Y-171452410D01*
X251874479Y-171734674D01*
X251704741Y-171988705D01*
X251488705Y-172204741D01*
X251234674Y-172374479D01*
X250952410Y-172491396D01*
X250802585Y-172521198D01*
X250652761Y-172551000D01*
X250347239Y-172551000D01*
X250197415Y-172521198D01*
X250047590Y-172491396D01*
X249765326Y-172374479D01*
X249511295Y-172204741D01*
X249295259Y-171988705D01*
X249125521Y-171734674D01*
X249008604Y-171452410D01*
X248949000Y-171152760D01*
X248949000Y-170847240D01*
X249008604Y-170547590D01*
X249125521Y-170265326D01*
X249295259Y-170011295D01*
X249511295Y-169795259D01*
X249765326Y-169625521D01*
X250047590Y-169508604D01*
X250197415Y-169478802D01*
X250347239Y-169449000D01*
X250652761Y-169449000D01*
X250802585Y-169478802D01*
G37*
G36*
X240802585Y-169478802D02*
G01*
X240952410Y-169508604D01*
X241234674Y-169625521D01*
X241488705Y-169795259D01*
X241704741Y-170011295D01*
X241874479Y-170265326D01*
X241991396Y-170547590D01*
X242051000Y-170847240D01*
X242051000Y-171152760D01*
X241991396Y-171452410D01*
X241874479Y-171734674D01*
X241704741Y-171988705D01*
X241488705Y-172204741D01*
X241234674Y-172374479D01*
X240952410Y-172491396D01*
X240802585Y-172521198D01*
X240652761Y-172551000D01*
X240347239Y-172551000D01*
X240197415Y-172521198D01*
X240047590Y-172491396D01*
X239765326Y-172374479D01*
X239511295Y-172204741D01*
X239295259Y-171988705D01*
X239125521Y-171734674D01*
X239008604Y-171452410D01*
X238949000Y-171152760D01*
X238949000Y-170847240D01*
X239008604Y-170547590D01*
X239125521Y-170265326D01*
X239295259Y-170011295D01*
X239511295Y-169795259D01*
X239765326Y-169625521D01*
X240047590Y-169508604D01*
X240197415Y-169478802D01*
X240347239Y-169449000D01*
X240652761Y-169449000D01*
X240802585Y-169478802D01*
G37*
G36*
X245802585Y-169478802D02*
G01*
X245952410Y-169508604D01*
X246234674Y-169625521D01*
X246488705Y-169795259D01*
X246704741Y-170011295D01*
X246874479Y-170265326D01*
X246991396Y-170547590D01*
X247051000Y-170847240D01*
X247051000Y-171152760D01*
X246991396Y-171452410D01*
X246874479Y-171734674D01*
X246704741Y-171988705D01*
X246488705Y-172204741D01*
X246234674Y-172374479D01*
X245952410Y-172491396D01*
X245802585Y-172521198D01*
X245652761Y-172551000D01*
X245347239Y-172551000D01*
X245197415Y-172521198D01*
X245047590Y-172491396D01*
X244765326Y-172374479D01*
X244511295Y-172204741D01*
X244295259Y-171988705D01*
X244125521Y-171734674D01*
X244008604Y-171452410D01*
X243949000Y-171152760D01*
X243949000Y-170847240D01*
X244008604Y-170547590D01*
X244125521Y-170265326D01*
X244295259Y-170011295D01*
X244511295Y-169795259D01*
X244765326Y-169625521D01*
X245047590Y-169508604D01*
X245197415Y-169478802D01*
X245347239Y-169449000D01*
X245652761Y-169449000D01*
X245802585Y-169478802D01*
G37*
G36*
X228889943Y-164066248D02*
G01*
X229445189Y-164296238D01*
X229445190Y-164296239D01*
X229944899Y-164630134D01*
X230369866Y-165055101D01*
X230385763Y-165078893D01*
X230703762Y-165554811D01*
X230933752Y-166110057D01*
X231051000Y-166699501D01*
X231051000Y-167300499D01*
X230933752Y-167889943D01*
X230703762Y-168445189D01*
X230703761Y-168445190D01*
X230369866Y-168944899D01*
X229944899Y-169369866D01*
X229737263Y-169508604D01*
X229445189Y-169703762D01*
X228889943Y-169933752D01*
X228300499Y-170051000D01*
X227699501Y-170051000D01*
X227110057Y-169933752D01*
X226554811Y-169703762D01*
X226262737Y-169508604D01*
X226055101Y-169369866D01*
X225630134Y-168944899D01*
X225296239Y-168445190D01*
X225296238Y-168445189D01*
X225066248Y-167889943D01*
X224949000Y-167300499D01*
X224949000Y-166699501D01*
X225066248Y-166110057D01*
X225296238Y-165554811D01*
X225614237Y-165078893D01*
X225630134Y-165055101D01*
X226055101Y-164630134D01*
X226554810Y-164296239D01*
X226554811Y-164296238D01*
X227110057Y-164066248D01*
X227699501Y-163949000D01*
X228300499Y-163949000D01*
X228889943Y-164066248D01*
G37*
G36*
X193889943Y-164066248D02*
G01*
X194445189Y-164296238D01*
X194445190Y-164296239D01*
X194944899Y-164630134D01*
X195369866Y-165055101D01*
X195385763Y-165078893D01*
X195703762Y-165554811D01*
X195933752Y-166110057D01*
X196051000Y-166699501D01*
X196051000Y-167300499D01*
X195933752Y-167889943D01*
X195703762Y-168445189D01*
X195703761Y-168445190D01*
X195369866Y-168944899D01*
X194944899Y-169369866D01*
X194737263Y-169508604D01*
X194445189Y-169703762D01*
X193889943Y-169933752D01*
X193300499Y-170051000D01*
X192699501Y-170051000D01*
X192110057Y-169933752D01*
X191554811Y-169703762D01*
X191262737Y-169508604D01*
X191055101Y-169369866D01*
X190630134Y-168944899D01*
X190296239Y-168445190D01*
X190296238Y-168445189D01*
X190066248Y-167889943D01*
X189949000Y-167300499D01*
X189949000Y-166699501D01*
X190066248Y-166110057D01*
X190296238Y-165554811D01*
X190614237Y-165078893D01*
X190630134Y-165055101D01*
X191055101Y-164630134D01*
X191554810Y-164296239D01*
X191554811Y-164296238D01*
X192110057Y-164066248D01*
X192699501Y-163949000D01*
X193300499Y-163949000D01*
X193889943Y-164066248D01*
G37*
G36*
X212643642Y-164229781D02*
G01*
X212789414Y-164290162D01*
X212789416Y-164290163D01*
X212920608Y-164377822D01*
X213032178Y-164489392D01*
X213119837Y-164620584D01*
X213119838Y-164620586D01*
X213180219Y-164766358D01*
X213211000Y-164921107D01*
X213211000Y-165078893D01*
X213180219Y-165233642D01*
X213119838Y-165379414D01*
X213119837Y-165379416D01*
X213032178Y-165510608D01*
X212920608Y-165622178D01*
X212789416Y-165709837D01*
X212789415Y-165709838D01*
X212789414Y-165709838D01*
X212643642Y-165770219D01*
X212488893Y-165801000D01*
X212331107Y-165801000D01*
X212176358Y-165770219D01*
X212030586Y-165709838D01*
X212030585Y-165709838D01*
X212030584Y-165709837D01*
X211899392Y-165622178D01*
X211787822Y-165510608D01*
X211700163Y-165379416D01*
X211700162Y-165379414D01*
X211639781Y-165233642D01*
X211609000Y-165078893D01*
X211609000Y-164921107D01*
X211639781Y-164766358D01*
X211700162Y-164620586D01*
X211700163Y-164620584D01*
X211787822Y-164489392D01*
X211899392Y-164377822D01*
X212030584Y-164290163D01*
X212030586Y-164290162D01*
X212176358Y-164229781D01*
X212331107Y-164199000D01*
X212488893Y-164199000D01*
X212643642Y-164229781D01*
G37*
G36*
X209391000Y-165801000D02*
G01*
X207789000Y-165801000D01*
X207789000Y-164199000D01*
X209391000Y-164199000D01*
X209391000Y-165801000D01*
G37*
G36*
X210733642Y-164229781D02*
G01*
X210879414Y-164290162D01*
X210879416Y-164290163D01*
X211010608Y-164377822D01*
X211122178Y-164489392D01*
X211209837Y-164620584D01*
X211209838Y-164620586D01*
X211270219Y-164766358D01*
X211301000Y-164921107D01*
X211301000Y-165078893D01*
X211270219Y-165233642D01*
X211209838Y-165379414D01*
X211209837Y-165379416D01*
X211122178Y-165510608D01*
X211010608Y-165622178D01*
X210879416Y-165709837D01*
X210879415Y-165709838D01*
X210879414Y-165709838D01*
X210733642Y-165770219D01*
X210578893Y-165801000D01*
X210421107Y-165801000D01*
X210266358Y-165770219D01*
X210120586Y-165709838D01*
X210120585Y-165709838D01*
X210120584Y-165709837D01*
X209989392Y-165622178D01*
X209877822Y-165510608D01*
X209790163Y-165379416D01*
X209790162Y-165379414D01*
X209729781Y-165233642D01*
X209699000Y-165078893D01*
X209699000Y-164921107D01*
X209729781Y-164766358D01*
X209790162Y-164620586D01*
X209790163Y-164620584D01*
X209877822Y-164489392D01*
X209989392Y-164377822D01*
X210120584Y-164290163D01*
X210120586Y-164290162D01*
X210266358Y-164229781D01*
X210421107Y-164199000D01*
X210578893Y-164199000D01*
X210733642Y-164229781D01*
G37*
G36*
X244391000Y-165801000D02*
G01*
X242789000Y-165801000D01*
X242789000Y-164199000D01*
X244391000Y-164199000D01*
X244391000Y-165801000D01*
G37*
G36*
X247643642Y-164229781D02*
G01*
X247789414Y-164290162D01*
X247789416Y-164290163D01*
X247920608Y-164377822D01*
X248032178Y-164489392D01*
X248119837Y-164620584D01*
X248119838Y-164620586D01*
X248180219Y-164766358D01*
X248211000Y-164921107D01*
X248211000Y-165078893D01*
X248180219Y-165233642D01*
X248119838Y-165379414D01*
X248119837Y-165379416D01*
X248032178Y-165510608D01*
X247920608Y-165622178D01*
X247789416Y-165709837D01*
X247789415Y-165709838D01*
X247789414Y-165709838D01*
X247643642Y-165770219D01*
X247488893Y-165801000D01*
X247331107Y-165801000D01*
X247176358Y-165770219D01*
X247030586Y-165709838D01*
X247030585Y-165709838D01*
X247030584Y-165709837D01*
X246899392Y-165622178D01*
X246787822Y-165510608D01*
X246700163Y-165379416D01*
X246700162Y-165379414D01*
X246639781Y-165233642D01*
X246609000Y-165078893D01*
X246609000Y-164921107D01*
X246639781Y-164766358D01*
X246700162Y-164620586D01*
X246700163Y-164620584D01*
X246787822Y-164489392D01*
X246899392Y-164377822D01*
X247030584Y-164290163D01*
X247030586Y-164290162D01*
X247176358Y-164229781D01*
X247331107Y-164199000D01*
X247488893Y-164199000D01*
X247643642Y-164229781D01*
G37*
G36*
X245733642Y-164229781D02*
G01*
X245879414Y-164290162D01*
X245879416Y-164290163D01*
X246010608Y-164377822D01*
X246122178Y-164489392D01*
X246209837Y-164620584D01*
X246209838Y-164620586D01*
X246270219Y-164766358D01*
X246301000Y-164921107D01*
X246301000Y-165078893D01*
X246270219Y-165233642D01*
X246209838Y-165379414D01*
X246209837Y-165379416D01*
X246122178Y-165510608D01*
X246010608Y-165622178D01*
X245879416Y-165709837D01*
X245879415Y-165709838D01*
X245879414Y-165709838D01*
X245733642Y-165770219D01*
X245578893Y-165801000D01*
X245421107Y-165801000D01*
X245266358Y-165770219D01*
X245120586Y-165709838D01*
X245120585Y-165709838D01*
X245120584Y-165709837D01*
X244989392Y-165622178D01*
X244877822Y-165510608D01*
X244790163Y-165379416D01*
X244790162Y-165379414D01*
X244729781Y-165233642D01*
X244699000Y-165078893D01*
X244699000Y-164921107D01*
X244729781Y-164766358D01*
X244790162Y-164620586D01*
X244790163Y-164620584D01*
X244877822Y-164489392D01*
X244989392Y-164377822D01*
X245120584Y-164290163D01*
X245120586Y-164290162D01*
X245266358Y-164229781D01*
X245421107Y-164199000D01*
X245578893Y-164199000D01*
X245733642Y-164229781D01*
G37*
G36*
X228302585Y-149978802D02*
G01*
X228452410Y-150008604D01*
X228734674Y-150125521D01*
X228988705Y-150295259D01*
X229204741Y-150511295D01*
X229374479Y-150765326D01*
X229491396Y-151047590D01*
X229551000Y-151347240D01*
X229551000Y-151652760D01*
X229491396Y-151952410D01*
X229374479Y-152234674D01*
X229204741Y-152488705D01*
X228988705Y-152704741D01*
X228734674Y-152874479D01*
X228452410Y-152991396D01*
X228302585Y-153021198D01*
X228152761Y-153051000D01*
X227847239Y-153051000D01*
X227697415Y-153021198D01*
X227547590Y-152991396D01*
X227265326Y-152874479D01*
X227011295Y-152704741D01*
X226795259Y-152488705D01*
X226625521Y-152234674D01*
X226508604Y-151952410D01*
X226449000Y-151652760D01*
X226449000Y-151347240D01*
X226508604Y-151047590D01*
X226625521Y-150765326D01*
X226795259Y-150511295D01*
X227011295Y-150295259D01*
X227265326Y-150125521D01*
X227547590Y-150008604D01*
X227697415Y-149978802D01*
X227847239Y-149949000D01*
X228152761Y-149949000D01*
X228302585Y-149978802D01*
G37*
G36*
X207598099Y-140593145D02*
G01*
X208173219Y-140767606D01*
X208703245Y-141050911D01*
X209167822Y-141432178D01*
X209549089Y-141896755D01*
X209832394Y-142426781D01*
X210006855Y-143001901D01*
X210065762Y-143600000D01*
X210006855Y-144198099D01*
X209832394Y-144773219D01*
X209549089Y-145303245D01*
X209167822Y-145767822D01*
X208703245Y-146149089D01*
X208173219Y-146432394D01*
X207598099Y-146606855D01*
X207149884Y-146651000D01*
X203850116Y-146651000D01*
X203401901Y-146606855D01*
X202826781Y-146432394D01*
X202296755Y-146149089D01*
X201832178Y-145767822D01*
X201450911Y-145303245D01*
X201167606Y-144773219D01*
X200993145Y-144198099D01*
X200934238Y-143600000D01*
X200993145Y-143001901D01*
X201167606Y-142426781D01*
X201450911Y-141896755D01*
X201832178Y-141432178D01*
X202296755Y-141050911D01*
X202826781Y-140767606D01*
X203401901Y-140593145D01*
X203850116Y-140549000D01*
X207149884Y-140549000D01*
X207598099Y-140593145D01*
G37*
G36*
X242598099Y-140593145D02*
G01*
X243173219Y-140767606D01*
X243703245Y-141050911D01*
X244167822Y-141432178D01*
X244549089Y-141896755D01*
X244832394Y-142426781D01*
X245006855Y-143001901D01*
X245065762Y-143600000D01*
X245006855Y-144198099D01*
X244832394Y-144773219D01*
X244549089Y-145303245D01*
X244167822Y-145767822D01*
X243703245Y-146149089D01*
X243173219Y-146432394D01*
X242598099Y-146606855D01*
X242149884Y-146651000D01*
X238850116Y-146651000D01*
X238401901Y-146606855D01*
X237826781Y-146432394D01*
X237296755Y-146149089D01*
X236832178Y-145767822D01*
X236450911Y-145303245D01*
X236167606Y-144773219D01*
X235993145Y-144198099D01*
X235934238Y-143600000D01*
X235993145Y-143001901D01*
X236167606Y-142426781D01*
X236450911Y-141896755D01*
X236832178Y-141432178D01*
X237296755Y-141050911D01*
X237826781Y-140767606D01*
X238401901Y-140593145D01*
X238850116Y-140549000D01*
X242149884Y-140549000D01*
X242598099Y-140593145D01*
G37*
G36*
X252598099Y-140593145D02*
G01*
X253173219Y-140767606D01*
X253703245Y-141050911D01*
X254167822Y-141432178D01*
X254549089Y-141896755D01*
X254832394Y-142426781D01*
X255006855Y-143001901D01*
X255065762Y-143600000D01*
X255006855Y-144198099D01*
X254832394Y-144773219D01*
X254549089Y-145303245D01*
X254167822Y-145767822D01*
X253703245Y-146149089D01*
X253173219Y-146432394D01*
X252598099Y-146606855D01*
X252149884Y-146651000D01*
X248850116Y-146651000D01*
X248401901Y-146606855D01*
X247826781Y-146432394D01*
X247296755Y-146149089D01*
X246832178Y-145767822D01*
X246450911Y-145303245D01*
X246167606Y-144773219D01*
X245993145Y-144198099D01*
X245934238Y-143600000D01*
X245993145Y-143001901D01*
X246167606Y-142426781D01*
X246450911Y-141896755D01*
X246832178Y-141432178D01*
X247296755Y-141050911D01*
X247826781Y-140767606D01*
X248401901Y-140593145D01*
X248850116Y-140549000D01*
X252149884Y-140549000D01*
X252598099Y-140593145D01*
G37*
G36*
X217598099Y-140593145D02*
G01*
X218173219Y-140767606D01*
X218703245Y-141050911D01*
X219167822Y-141432178D01*
X219549089Y-141896755D01*
X219832394Y-142426781D01*
X220006855Y-143001901D01*
X220065762Y-143600000D01*
X220006855Y-144198099D01*
X219832394Y-144773219D01*
X219549089Y-145303245D01*
X219167822Y-145767822D01*
X218703245Y-146149089D01*
X218173219Y-146432394D01*
X217598099Y-146606855D01*
X217149884Y-146651000D01*
X213850116Y-146651000D01*
X213401901Y-146606855D01*
X212826781Y-146432394D01*
X212296755Y-146149089D01*
X211832178Y-145767822D01*
X211450911Y-145303245D01*
X211167606Y-144773219D01*
X210993145Y-144198099D01*
X210934238Y-143600000D01*
X210993145Y-143001901D01*
X211167606Y-142426781D01*
X211450911Y-141896755D01*
X211832178Y-141432178D01*
X212296755Y-141050911D01*
X212826781Y-140767606D01*
X213401901Y-140593145D01*
X213850116Y-140549000D01*
X217149884Y-140549000D01*
X217598099Y-140593145D01*
G37*
G36*
X228889943Y-133566248D02*
G01*
X229445189Y-133796238D01*
X229445190Y-133796239D01*
X229944899Y-134130134D01*
X230369866Y-134555101D01*
X230369867Y-134555103D01*
X230703762Y-135054811D01*
X230933752Y-135610057D01*
X231051000Y-136199501D01*
X231051000Y-136800499D01*
X230933752Y-137389943D01*
X230703762Y-137945189D01*
X230703761Y-137945190D01*
X230369866Y-138444899D01*
X229944899Y-138869866D01*
X229693347Y-139037948D01*
X229445189Y-139203762D01*
X228889943Y-139433752D01*
X228300499Y-139551000D01*
X227699501Y-139551000D01*
X227110057Y-139433752D01*
X226554811Y-139203762D01*
X226306653Y-139037948D01*
X226055101Y-138869866D01*
X225630134Y-138444899D01*
X225296239Y-137945190D01*
X225296238Y-137945189D01*
X225066248Y-137389943D01*
X224949000Y-136800499D01*
X224949000Y-136199501D01*
X225066248Y-135610057D01*
X225296238Y-135054811D01*
X225630133Y-134555103D01*
X225630134Y-134555101D01*
X226055101Y-134130134D01*
X226554810Y-133796239D01*
X226554811Y-133796238D01*
X227110057Y-133566248D01*
X227699501Y-133449000D01*
X228300499Y-133449000D01*
X228889943Y-133566248D01*
G37*
G36*
X193889943Y-133566248D02*
G01*
X194445189Y-133796238D01*
X194445190Y-133796239D01*
X194944899Y-134130134D01*
X195369866Y-134555101D01*
X195369867Y-134555103D01*
X195703762Y-135054811D01*
X195933752Y-135610057D01*
X196051000Y-136199501D01*
X196051000Y-136800499D01*
X195933752Y-137389943D01*
X195703762Y-137945189D01*
X195703761Y-137945190D01*
X195369866Y-138444899D01*
X194944899Y-138869866D01*
X194693347Y-139037948D01*
X194445189Y-139203762D01*
X193889943Y-139433752D01*
X193300499Y-139551000D01*
X192699501Y-139551000D01*
X192110057Y-139433752D01*
X191554811Y-139203762D01*
X191306653Y-139037948D01*
X191055101Y-138869866D01*
X190630134Y-138444899D01*
X190296239Y-137945190D01*
X190296238Y-137945189D01*
X190066248Y-137389943D01*
X189949000Y-136800499D01*
X189949000Y-136199501D01*
X190066248Y-135610057D01*
X190296238Y-135054811D01*
X190630133Y-134555103D01*
X190630134Y-134555101D01*
X191055101Y-134130134D01*
X191554810Y-133796239D01*
X191554811Y-133796238D01*
X192110057Y-133566248D01*
X192699501Y-133449000D01*
X193300499Y-133449000D01*
X193889943Y-133566248D01*
G37*
G36*
X216244098Y-131547033D02*
G01*
X216708350Y-131739332D01*
X216708352Y-131739333D01*
X217126168Y-132018509D01*
X217481491Y-132373832D01*
X217760667Y-132791648D01*
X217760668Y-132791650D01*
X217952967Y-133255902D01*
X218051000Y-133748747D01*
X218051000Y-134251253D01*
X217952967Y-134744098D01*
X217760668Y-135208350D01*
X217760667Y-135208352D01*
X217481491Y-135626168D01*
X217126168Y-135981491D01*
X216708352Y-136260667D01*
X216708351Y-136260668D01*
X216708350Y-136260668D01*
X216244098Y-136452967D01*
X215751253Y-136551000D01*
X215248747Y-136551000D01*
X214755902Y-136452967D01*
X214291650Y-136260668D01*
X214291649Y-136260668D01*
X214291648Y-136260667D01*
X213873832Y-135981491D01*
X213518509Y-135626168D01*
X213239333Y-135208352D01*
X213239332Y-135208350D01*
X213047033Y-134744098D01*
X212949000Y-134251253D01*
X212949000Y-133748747D01*
X213047033Y-133255902D01*
X213239332Y-132791650D01*
X213239333Y-132791648D01*
X213518509Y-132373832D01*
X213873832Y-132018509D01*
X214291648Y-131739333D01*
X214291650Y-131739332D01*
X214755902Y-131547033D01*
X215248747Y-131449000D01*
X215751253Y-131449000D01*
X216244098Y-131547033D01*
G37*
G36*
X206244098Y-131547033D02*
G01*
X206708350Y-131739332D01*
X206708352Y-131739333D01*
X207126168Y-132018509D01*
X207481491Y-132373832D01*
X207760667Y-132791648D01*
X207760668Y-132791650D01*
X207952967Y-133255902D01*
X208051000Y-133748747D01*
X208051000Y-134251253D01*
X207952967Y-134744098D01*
X207760668Y-135208350D01*
X207760667Y-135208352D01*
X207481491Y-135626168D01*
X207126168Y-135981491D01*
X206708352Y-136260667D01*
X206708351Y-136260668D01*
X206708350Y-136260668D01*
X206244098Y-136452967D01*
X205751253Y-136551000D01*
X205248747Y-136551000D01*
X204755902Y-136452967D01*
X204291650Y-136260668D01*
X204291649Y-136260668D01*
X204291648Y-136260667D01*
X203873832Y-135981491D01*
X203518509Y-135626168D01*
X203239333Y-135208352D01*
X203239332Y-135208350D01*
X203047033Y-134744098D01*
X202949000Y-134251253D01*
X202949000Y-133748747D01*
X203047033Y-133255902D01*
X203239332Y-132791650D01*
X203239333Y-132791648D01*
X203518509Y-132373832D01*
X203873832Y-132018509D01*
X204291648Y-131739333D01*
X204291650Y-131739332D01*
X204755902Y-131547033D01*
X205248747Y-131449000D01*
X205751253Y-131449000D01*
X206244098Y-131547033D01*
G37*
G36*
X241244098Y-131547033D02*
G01*
X241708350Y-131739332D01*
X241708352Y-131739333D01*
X242126168Y-132018509D01*
X242481491Y-132373832D01*
X242760667Y-132791648D01*
X242760668Y-132791650D01*
X242952967Y-133255902D01*
X243051000Y-133748747D01*
X243051000Y-134251253D01*
X242952967Y-134744098D01*
X242760668Y-135208350D01*
X242760667Y-135208352D01*
X242481491Y-135626168D01*
X242126168Y-135981491D01*
X241708352Y-136260667D01*
X241708351Y-136260668D01*
X241708350Y-136260668D01*
X241244098Y-136452967D01*
X240751253Y-136551000D01*
X240248747Y-136551000D01*
X239755902Y-136452967D01*
X239291650Y-136260668D01*
X239291649Y-136260668D01*
X239291648Y-136260667D01*
X238873832Y-135981491D01*
X238518509Y-135626168D01*
X238239333Y-135208352D01*
X238239332Y-135208350D01*
X238047033Y-134744098D01*
X237949000Y-134251253D01*
X237949000Y-133748747D01*
X238047033Y-133255902D01*
X238239332Y-132791650D01*
X238239333Y-132791648D01*
X238518509Y-132373832D01*
X238873832Y-132018509D01*
X239291648Y-131739333D01*
X239291650Y-131739332D01*
X239755902Y-131547033D01*
X240248747Y-131449000D01*
X240751253Y-131449000D01*
X241244098Y-131547033D01*
G37*
G36*
X251244098Y-131547033D02*
G01*
X251708350Y-131739332D01*
X251708352Y-131739333D01*
X252126168Y-132018509D01*
X252481491Y-132373832D01*
X252760667Y-132791648D01*
X252760668Y-132791650D01*
X252952967Y-133255902D01*
X253051000Y-133748747D01*
X253051000Y-134251253D01*
X252952967Y-134744098D01*
X252760668Y-135208350D01*
X252760667Y-135208352D01*
X252481491Y-135626168D01*
X252126168Y-135981491D01*
X251708352Y-136260667D01*
X251708351Y-136260668D01*
X251708350Y-136260668D01*
X251244098Y-136452967D01*
X250751253Y-136551000D01*
X250248747Y-136551000D01*
X249755902Y-136452967D01*
X249291650Y-136260668D01*
X249291649Y-136260668D01*
X249291648Y-136260667D01*
X248873832Y-135981491D01*
X248518509Y-135626168D01*
X248239333Y-135208352D01*
X248239332Y-135208350D01*
X248047033Y-134744098D01*
X247949000Y-134251253D01*
X247949000Y-133748747D01*
X248047033Y-133255902D01*
X248239332Y-132791650D01*
X248239333Y-132791648D01*
X248518509Y-132373832D01*
X248873832Y-132018509D01*
X249291648Y-131739333D01*
X249291650Y-131739332D01*
X249755902Y-131547033D01*
X250248747Y-131449000D01*
X250751253Y-131449000D01*
X251244098Y-131547033D01*
G37*
M02*
