G04 #@! TF.GenerationSoftware,KiCad,Pcbnew,(5.1.5)-3*
G04 #@! TF.CreationDate,2020-06-18T15:26:03+02:00*
G04 #@! TF.ProjectId,Amp_Hall_Effect_Sensor,416d705f-4861-46c6-9c5f-456666656374,Rev. 1*
G04 #@! TF.SameCoordinates,Original*
G04 #@! TF.FileFunction,Copper,L1,Top*
G04 #@! TF.FilePolarity,Positive*
%FSLAX46Y46*%
G04 Gerber Fmt 4.6, Leading zero omitted, Abs format (unit mm)*
G04 Created by KiCad (PCBNEW (5.1.5)-3) date 2020-06-18 15:26:03*
%MOMM*%
%LPD*%
G04 APERTURE LIST*
%ADD10C,0.050000*%
%ADD11C,0.100000*%
%ADD12C,3.000000*%
%ADD13C,6.000000*%
%ADD14C,5.000000*%
%ADD15C,0.800000*%
%ADD16R,1.500000X1.500000*%
%ADD17O,9.000000X6.000000*%
%ADD18C,1.500000*%
%ADD19C,0.800000*%
%ADD20C,0.500000*%
%ADD21C,4.000000*%
%ADD22C,0.254000*%
G04 APERTURE END LIST*
D10*
X257000000Y-129500000D02*
X188000000Y-129500000D01*
X257000000Y-174500000D02*
X257000000Y-129500000D01*
X255500000Y-174500000D02*
X257000000Y-174500000D01*
X188000000Y-174500000D02*
X255500000Y-174500000D01*
X188000000Y-172000000D02*
X188000000Y-174500000D01*
X188000000Y-129500000D02*
X188000000Y-172000000D01*
G04 #@! TA.AperFunction,SMDPad,CuDef*
D11*
G36*
X240980142Y-164576174D02*
G01*
X241003803Y-164579684D01*
X241027007Y-164585496D01*
X241049529Y-164593554D01*
X241071153Y-164603782D01*
X241091670Y-164616079D01*
X241110883Y-164630329D01*
X241128607Y-164646393D01*
X241144671Y-164664117D01*
X241158921Y-164683330D01*
X241171218Y-164703847D01*
X241181446Y-164725471D01*
X241189504Y-164747993D01*
X241195316Y-164771197D01*
X241198826Y-164794858D01*
X241200000Y-164818750D01*
X241200000Y-165306250D01*
X241198826Y-165330142D01*
X241195316Y-165353803D01*
X241189504Y-165377007D01*
X241181446Y-165399529D01*
X241171218Y-165421153D01*
X241158921Y-165441670D01*
X241144671Y-165460883D01*
X241128607Y-165478607D01*
X241110883Y-165494671D01*
X241091670Y-165508921D01*
X241071153Y-165521218D01*
X241049529Y-165531446D01*
X241027007Y-165539504D01*
X241003803Y-165545316D01*
X240980142Y-165548826D01*
X240956250Y-165550000D01*
X240043750Y-165550000D01*
X240019858Y-165548826D01*
X239996197Y-165545316D01*
X239972993Y-165539504D01*
X239950471Y-165531446D01*
X239928847Y-165521218D01*
X239908330Y-165508921D01*
X239889117Y-165494671D01*
X239871393Y-165478607D01*
X239855329Y-165460883D01*
X239841079Y-165441670D01*
X239828782Y-165421153D01*
X239818554Y-165399529D01*
X239810496Y-165377007D01*
X239804684Y-165353803D01*
X239801174Y-165330142D01*
X239800000Y-165306250D01*
X239800000Y-164818750D01*
X239801174Y-164794858D01*
X239804684Y-164771197D01*
X239810496Y-164747993D01*
X239818554Y-164725471D01*
X239828782Y-164703847D01*
X239841079Y-164683330D01*
X239855329Y-164664117D01*
X239871393Y-164646393D01*
X239889117Y-164630329D01*
X239908330Y-164616079D01*
X239928847Y-164603782D01*
X239950471Y-164593554D01*
X239972993Y-164585496D01*
X239996197Y-164579684D01*
X240019858Y-164576174D01*
X240043750Y-164575000D01*
X240956250Y-164575000D01*
X240980142Y-164576174D01*
G37*
G04 #@! TD.AperFunction*
G04 #@! TA.AperFunction,SMDPad,CuDef*
G36*
X240980142Y-166451174D02*
G01*
X241003803Y-166454684D01*
X241027007Y-166460496D01*
X241049529Y-166468554D01*
X241071153Y-166478782D01*
X241091670Y-166491079D01*
X241110883Y-166505329D01*
X241128607Y-166521393D01*
X241144671Y-166539117D01*
X241158921Y-166558330D01*
X241171218Y-166578847D01*
X241181446Y-166600471D01*
X241189504Y-166622993D01*
X241195316Y-166646197D01*
X241198826Y-166669858D01*
X241200000Y-166693750D01*
X241200000Y-167181250D01*
X241198826Y-167205142D01*
X241195316Y-167228803D01*
X241189504Y-167252007D01*
X241181446Y-167274529D01*
X241171218Y-167296153D01*
X241158921Y-167316670D01*
X241144671Y-167335883D01*
X241128607Y-167353607D01*
X241110883Y-167369671D01*
X241091670Y-167383921D01*
X241071153Y-167396218D01*
X241049529Y-167406446D01*
X241027007Y-167414504D01*
X241003803Y-167420316D01*
X240980142Y-167423826D01*
X240956250Y-167425000D01*
X240043750Y-167425000D01*
X240019858Y-167423826D01*
X239996197Y-167420316D01*
X239972993Y-167414504D01*
X239950471Y-167406446D01*
X239928847Y-167396218D01*
X239908330Y-167383921D01*
X239889117Y-167369671D01*
X239871393Y-167353607D01*
X239855329Y-167335883D01*
X239841079Y-167316670D01*
X239828782Y-167296153D01*
X239818554Y-167274529D01*
X239810496Y-167252007D01*
X239804684Y-167228803D01*
X239801174Y-167205142D01*
X239800000Y-167181250D01*
X239800000Y-166693750D01*
X239801174Y-166669858D01*
X239804684Y-166646197D01*
X239810496Y-166622993D01*
X239818554Y-166600471D01*
X239828782Y-166578847D01*
X239841079Y-166558330D01*
X239855329Y-166539117D01*
X239871393Y-166521393D01*
X239889117Y-166505329D01*
X239908330Y-166491079D01*
X239928847Y-166478782D01*
X239950471Y-166468554D01*
X239972993Y-166460496D01*
X239996197Y-166454684D01*
X240019858Y-166451174D01*
X240043750Y-166450000D01*
X240956250Y-166450000D01*
X240980142Y-166451174D01*
G37*
G04 #@! TD.AperFunction*
G04 #@! TA.AperFunction,SMDPad,CuDef*
G36*
X253480142Y-164576174D02*
G01*
X253503803Y-164579684D01*
X253527007Y-164585496D01*
X253549529Y-164593554D01*
X253571153Y-164603782D01*
X253591670Y-164616079D01*
X253610883Y-164630329D01*
X253628607Y-164646393D01*
X253644671Y-164664117D01*
X253658921Y-164683330D01*
X253671218Y-164703847D01*
X253681446Y-164725471D01*
X253689504Y-164747993D01*
X253695316Y-164771197D01*
X253698826Y-164794858D01*
X253700000Y-164818750D01*
X253700000Y-165306250D01*
X253698826Y-165330142D01*
X253695316Y-165353803D01*
X253689504Y-165377007D01*
X253681446Y-165399529D01*
X253671218Y-165421153D01*
X253658921Y-165441670D01*
X253644671Y-165460883D01*
X253628607Y-165478607D01*
X253610883Y-165494671D01*
X253591670Y-165508921D01*
X253571153Y-165521218D01*
X253549529Y-165531446D01*
X253527007Y-165539504D01*
X253503803Y-165545316D01*
X253480142Y-165548826D01*
X253456250Y-165550000D01*
X252543750Y-165550000D01*
X252519858Y-165548826D01*
X252496197Y-165545316D01*
X252472993Y-165539504D01*
X252450471Y-165531446D01*
X252428847Y-165521218D01*
X252408330Y-165508921D01*
X252389117Y-165494671D01*
X252371393Y-165478607D01*
X252355329Y-165460883D01*
X252341079Y-165441670D01*
X252328782Y-165421153D01*
X252318554Y-165399529D01*
X252310496Y-165377007D01*
X252304684Y-165353803D01*
X252301174Y-165330142D01*
X252300000Y-165306250D01*
X252300000Y-164818750D01*
X252301174Y-164794858D01*
X252304684Y-164771197D01*
X252310496Y-164747993D01*
X252318554Y-164725471D01*
X252328782Y-164703847D01*
X252341079Y-164683330D01*
X252355329Y-164664117D01*
X252371393Y-164646393D01*
X252389117Y-164630329D01*
X252408330Y-164616079D01*
X252428847Y-164603782D01*
X252450471Y-164593554D01*
X252472993Y-164585496D01*
X252496197Y-164579684D01*
X252519858Y-164576174D01*
X252543750Y-164575000D01*
X253456250Y-164575000D01*
X253480142Y-164576174D01*
G37*
G04 #@! TD.AperFunction*
G04 #@! TA.AperFunction,SMDPad,CuDef*
G36*
X253480142Y-166451174D02*
G01*
X253503803Y-166454684D01*
X253527007Y-166460496D01*
X253549529Y-166468554D01*
X253571153Y-166478782D01*
X253591670Y-166491079D01*
X253610883Y-166505329D01*
X253628607Y-166521393D01*
X253644671Y-166539117D01*
X253658921Y-166558330D01*
X253671218Y-166578847D01*
X253681446Y-166600471D01*
X253689504Y-166622993D01*
X253695316Y-166646197D01*
X253698826Y-166669858D01*
X253700000Y-166693750D01*
X253700000Y-167181250D01*
X253698826Y-167205142D01*
X253695316Y-167228803D01*
X253689504Y-167252007D01*
X253681446Y-167274529D01*
X253671218Y-167296153D01*
X253658921Y-167316670D01*
X253644671Y-167335883D01*
X253628607Y-167353607D01*
X253610883Y-167369671D01*
X253591670Y-167383921D01*
X253571153Y-167396218D01*
X253549529Y-167406446D01*
X253527007Y-167414504D01*
X253503803Y-167420316D01*
X253480142Y-167423826D01*
X253456250Y-167425000D01*
X252543750Y-167425000D01*
X252519858Y-167423826D01*
X252496197Y-167420316D01*
X252472993Y-167414504D01*
X252450471Y-167406446D01*
X252428847Y-167396218D01*
X252408330Y-167383921D01*
X252389117Y-167369671D01*
X252371393Y-167353607D01*
X252355329Y-167335883D01*
X252341079Y-167316670D01*
X252328782Y-167296153D01*
X252318554Y-167274529D01*
X252310496Y-167252007D01*
X252304684Y-167228803D01*
X252301174Y-167205142D01*
X252300000Y-167181250D01*
X252300000Y-166693750D01*
X252301174Y-166669858D01*
X252304684Y-166646197D01*
X252310496Y-166622993D01*
X252318554Y-166600471D01*
X252328782Y-166578847D01*
X252341079Y-166558330D01*
X252355329Y-166539117D01*
X252371393Y-166521393D01*
X252389117Y-166505329D01*
X252408330Y-166491079D01*
X252428847Y-166478782D01*
X252450471Y-166468554D01*
X252472993Y-166460496D01*
X252496197Y-166454684D01*
X252519858Y-166451174D01*
X252543750Y-166450000D01*
X253456250Y-166450000D01*
X253480142Y-166451174D01*
G37*
G04 #@! TD.AperFunction*
G04 #@! TA.AperFunction,SMDPad,CuDef*
G36*
X205980142Y-166451174D02*
G01*
X206003803Y-166454684D01*
X206027007Y-166460496D01*
X206049529Y-166468554D01*
X206071153Y-166478782D01*
X206091670Y-166491079D01*
X206110883Y-166505329D01*
X206128607Y-166521393D01*
X206144671Y-166539117D01*
X206158921Y-166558330D01*
X206171218Y-166578847D01*
X206181446Y-166600471D01*
X206189504Y-166622993D01*
X206195316Y-166646197D01*
X206198826Y-166669858D01*
X206200000Y-166693750D01*
X206200000Y-167181250D01*
X206198826Y-167205142D01*
X206195316Y-167228803D01*
X206189504Y-167252007D01*
X206181446Y-167274529D01*
X206171218Y-167296153D01*
X206158921Y-167316670D01*
X206144671Y-167335883D01*
X206128607Y-167353607D01*
X206110883Y-167369671D01*
X206091670Y-167383921D01*
X206071153Y-167396218D01*
X206049529Y-167406446D01*
X206027007Y-167414504D01*
X206003803Y-167420316D01*
X205980142Y-167423826D01*
X205956250Y-167425000D01*
X205043750Y-167425000D01*
X205019858Y-167423826D01*
X204996197Y-167420316D01*
X204972993Y-167414504D01*
X204950471Y-167406446D01*
X204928847Y-167396218D01*
X204908330Y-167383921D01*
X204889117Y-167369671D01*
X204871393Y-167353607D01*
X204855329Y-167335883D01*
X204841079Y-167316670D01*
X204828782Y-167296153D01*
X204818554Y-167274529D01*
X204810496Y-167252007D01*
X204804684Y-167228803D01*
X204801174Y-167205142D01*
X204800000Y-167181250D01*
X204800000Y-166693750D01*
X204801174Y-166669858D01*
X204804684Y-166646197D01*
X204810496Y-166622993D01*
X204818554Y-166600471D01*
X204828782Y-166578847D01*
X204841079Y-166558330D01*
X204855329Y-166539117D01*
X204871393Y-166521393D01*
X204889117Y-166505329D01*
X204908330Y-166491079D01*
X204928847Y-166478782D01*
X204950471Y-166468554D01*
X204972993Y-166460496D01*
X204996197Y-166454684D01*
X205019858Y-166451174D01*
X205043750Y-166450000D01*
X205956250Y-166450000D01*
X205980142Y-166451174D01*
G37*
G04 #@! TD.AperFunction*
G04 #@! TA.AperFunction,SMDPad,CuDef*
G36*
X205980142Y-164576174D02*
G01*
X206003803Y-164579684D01*
X206027007Y-164585496D01*
X206049529Y-164593554D01*
X206071153Y-164603782D01*
X206091670Y-164616079D01*
X206110883Y-164630329D01*
X206128607Y-164646393D01*
X206144671Y-164664117D01*
X206158921Y-164683330D01*
X206171218Y-164703847D01*
X206181446Y-164725471D01*
X206189504Y-164747993D01*
X206195316Y-164771197D01*
X206198826Y-164794858D01*
X206200000Y-164818750D01*
X206200000Y-165306250D01*
X206198826Y-165330142D01*
X206195316Y-165353803D01*
X206189504Y-165377007D01*
X206181446Y-165399529D01*
X206171218Y-165421153D01*
X206158921Y-165441670D01*
X206144671Y-165460883D01*
X206128607Y-165478607D01*
X206110883Y-165494671D01*
X206091670Y-165508921D01*
X206071153Y-165521218D01*
X206049529Y-165531446D01*
X206027007Y-165539504D01*
X206003803Y-165545316D01*
X205980142Y-165548826D01*
X205956250Y-165550000D01*
X205043750Y-165550000D01*
X205019858Y-165548826D01*
X204996197Y-165545316D01*
X204972993Y-165539504D01*
X204950471Y-165531446D01*
X204928847Y-165521218D01*
X204908330Y-165508921D01*
X204889117Y-165494671D01*
X204871393Y-165478607D01*
X204855329Y-165460883D01*
X204841079Y-165441670D01*
X204828782Y-165421153D01*
X204818554Y-165399529D01*
X204810496Y-165377007D01*
X204804684Y-165353803D01*
X204801174Y-165330142D01*
X204800000Y-165306250D01*
X204800000Y-164818750D01*
X204801174Y-164794858D01*
X204804684Y-164771197D01*
X204810496Y-164747993D01*
X204818554Y-164725471D01*
X204828782Y-164703847D01*
X204841079Y-164683330D01*
X204855329Y-164664117D01*
X204871393Y-164646393D01*
X204889117Y-164630329D01*
X204908330Y-164616079D01*
X204928847Y-164603782D01*
X204950471Y-164593554D01*
X204972993Y-164585496D01*
X204996197Y-164579684D01*
X205019858Y-164576174D01*
X205043750Y-164575000D01*
X205956250Y-164575000D01*
X205980142Y-164576174D01*
G37*
G04 #@! TD.AperFunction*
G04 #@! TA.AperFunction,SMDPad,CuDef*
G36*
X218480142Y-164576174D02*
G01*
X218503803Y-164579684D01*
X218527007Y-164585496D01*
X218549529Y-164593554D01*
X218571153Y-164603782D01*
X218591670Y-164616079D01*
X218610883Y-164630329D01*
X218628607Y-164646393D01*
X218644671Y-164664117D01*
X218658921Y-164683330D01*
X218671218Y-164703847D01*
X218681446Y-164725471D01*
X218689504Y-164747993D01*
X218695316Y-164771197D01*
X218698826Y-164794858D01*
X218700000Y-164818750D01*
X218700000Y-165306250D01*
X218698826Y-165330142D01*
X218695316Y-165353803D01*
X218689504Y-165377007D01*
X218681446Y-165399529D01*
X218671218Y-165421153D01*
X218658921Y-165441670D01*
X218644671Y-165460883D01*
X218628607Y-165478607D01*
X218610883Y-165494671D01*
X218591670Y-165508921D01*
X218571153Y-165521218D01*
X218549529Y-165531446D01*
X218527007Y-165539504D01*
X218503803Y-165545316D01*
X218480142Y-165548826D01*
X218456250Y-165550000D01*
X217543750Y-165550000D01*
X217519858Y-165548826D01*
X217496197Y-165545316D01*
X217472993Y-165539504D01*
X217450471Y-165531446D01*
X217428847Y-165521218D01*
X217408330Y-165508921D01*
X217389117Y-165494671D01*
X217371393Y-165478607D01*
X217355329Y-165460883D01*
X217341079Y-165441670D01*
X217328782Y-165421153D01*
X217318554Y-165399529D01*
X217310496Y-165377007D01*
X217304684Y-165353803D01*
X217301174Y-165330142D01*
X217300000Y-165306250D01*
X217300000Y-164818750D01*
X217301174Y-164794858D01*
X217304684Y-164771197D01*
X217310496Y-164747993D01*
X217318554Y-164725471D01*
X217328782Y-164703847D01*
X217341079Y-164683330D01*
X217355329Y-164664117D01*
X217371393Y-164646393D01*
X217389117Y-164630329D01*
X217408330Y-164616079D01*
X217428847Y-164603782D01*
X217450471Y-164593554D01*
X217472993Y-164585496D01*
X217496197Y-164579684D01*
X217519858Y-164576174D01*
X217543750Y-164575000D01*
X218456250Y-164575000D01*
X218480142Y-164576174D01*
G37*
G04 #@! TD.AperFunction*
G04 #@! TA.AperFunction,SMDPad,CuDef*
G36*
X218480142Y-166451174D02*
G01*
X218503803Y-166454684D01*
X218527007Y-166460496D01*
X218549529Y-166468554D01*
X218571153Y-166478782D01*
X218591670Y-166491079D01*
X218610883Y-166505329D01*
X218628607Y-166521393D01*
X218644671Y-166539117D01*
X218658921Y-166558330D01*
X218671218Y-166578847D01*
X218681446Y-166600471D01*
X218689504Y-166622993D01*
X218695316Y-166646197D01*
X218698826Y-166669858D01*
X218700000Y-166693750D01*
X218700000Y-167181250D01*
X218698826Y-167205142D01*
X218695316Y-167228803D01*
X218689504Y-167252007D01*
X218681446Y-167274529D01*
X218671218Y-167296153D01*
X218658921Y-167316670D01*
X218644671Y-167335883D01*
X218628607Y-167353607D01*
X218610883Y-167369671D01*
X218591670Y-167383921D01*
X218571153Y-167396218D01*
X218549529Y-167406446D01*
X218527007Y-167414504D01*
X218503803Y-167420316D01*
X218480142Y-167423826D01*
X218456250Y-167425000D01*
X217543750Y-167425000D01*
X217519858Y-167423826D01*
X217496197Y-167420316D01*
X217472993Y-167414504D01*
X217450471Y-167406446D01*
X217428847Y-167396218D01*
X217408330Y-167383921D01*
X217389117Y-167369671D01*
X217371393Y-167353607D01*
X217355329Y-167335883D01*
X217341079Y-167316670D01*
X217328782Y-167296153D01*
X217318554Y-167274529D01*
X217310496Y-167252007D01*
X217304684Y-167228803D01*
X217301174Y-167205142D01*
X217300000Y-167181250D01*
X217300000Y-166693750D01*
X217301174Y-166669858D01*
X217304684Y-166646197D01*
X217310496Y-166622993D01*
X217318554Y-166600471D01*
X217328782Y-166578847D01*
X217341079Y-166558330D01*
X217355329Y-166539117D01*
X217371393Y-166521393D01*
X217389117Y-166505329D01*
X217408330Y-166491079D01*
X217428847Y-166478782D01*
X217450471Y-166468554D01*
X217472993Y-166460496D01*
X217496197Y-166454684D01*
X217519858Y-166451174D01*
X217543750Y-166450000D01*
X218456250Y-166450000D01*
X218480142Y-166451174D01*
G37*
G04 #@! TD.AperFunction*
G04 #@! TA.AperFunction,SMDPad,CuDef*
G36*
X238480142Y-166451174D02*
G01*
X238503803Y-166454684D01*
X238527007Y-166460496D01*
X238549529Y-166468554D01*
X238571153Y-166478782D01*
X238591670Y-166491079D01*
X238610883Y-166505329D01*
X238628607Y-166521393D01*
X238644671Y-166539117D01*
X238658921Y-166558330D01*
X238671218Y-166578847D01*
X238681446Y-166600471D01*
X238689504Y-166622993D01*
X238695316Y-166646197D01*
X238698826Y-166669858D01*
X238700000Y-166693750D01*
X238700000Y-167181250D01*
X238698826Y-167205142D01*
X238695316Y-167228803D01*
X238689504Y-167252007D01*
X238681446Y-167274529D01*
X238671218Y-167296153D01*
X238658921Y-167316670D01*
X238644671Y-167335883D01*
X238628607Y-167353607D01*
X238610883Y-167369671D01*
X238591670Y-167383921D01*
X238571153Y-167396218D01*
X238549529Y-167406446D01*
X238527007Y-167414504D01*
X238503803Y-167420316D01*
X238480142Y-167423826D01*
X238456250Y-167425000D01*
X237543750Y-167425000D01*
X237519858Y-167423826D01*
X237496197Y-167420316D01*
X237472993Y-167414504D01*
X237450471Y-167406446D01*
X237428847Y-167396218D01*
X237408330Y-167383921D01*
X237389117Y-167369671D01*
X237371393Y-167353607D01*
X237355329Y-167335883D01*
X237341079Y-167316670D01*
X237328782Y-167296153D01*
X237318554Y-167274529D01*
X237310496Y-167252007D01*
X237304684Y-167228803D01*
X237301174Y-167205142D01*
X237300000Y-167181250D01*
X237300000Y-166693750D01*
X237301174Y-166669858D01*
X237304684Y-166646197D01*
X237310496Y-166622993D01*
X237318554Y-166600471D01*
X237328782Y-166578847D01*
X237341079Y-166558330D01*
X237355329Y-166539117D01*
X237371393Y-166521393D01*
X237389117Y-166505329D01*
X237408330Y-166491079D01*
X237428847Y-166478782D01*
X237450471Y-166468554D01*
X237472993Y-166460496D01*
X237496197Y-166454684D01*
X237519858Y-166451174D01*
X237543750Y-166450000D01*
X238456250Y-166450000D01*
X238480142Y-166451174D01*
G37*
G04 #@! TD.AperFunction*
G04 #@! TA.AperFunction,SMDPad,CuDef*
G36*
X238480142Y-164576174D02*
G01*
X238503803Y-164579684D01*
X238527007Y-164585496D01*
X238549529Y-164593554D01*
X238571153Y-164603782D01*
X238591670Y-164616079D01*
X238610883Y-164630329D01*
X238628607Y-164646393D01*
X238644671Y-164664117D01*
X238658921Y-164683330D01*
X238671218Y-164703847D01*
X238681446Y-164725471D01*
X238689504Y-164747993D01*
X238695316Y-164771197D01*
X238698826Y-164794858D01*
X238700000Y-164818750D01*
X238700000Y-165306250D01*
X238698826Y-165330142D01*
X238695316Y-165353803D01*
X238689504Y-165377007D01*
X238681446Y-165399529D01*
X238671218Y-165421153D01*
X238658921Y-165441670D01*
X238644671Y-165460883D01*
X238628607Y-165478607D01*
X238610883Y-165494671D01*
X238591670Y-165508921D01*
X238571153Y-165521218D01*
X238549529Y-165531446D01*
X238527007Y-165539504D01*
X238503803Y-165545316D01*
X238480142Y-165548826D01*
X238456250Y-165550000D01*
X237543750Y-165550000D01*
X237519858Y-165548826D01*
X237496197Y-165545316D01*
X237472993Y-165539504D01*
X237450471Y-165531446D01*
X237428847Y-165521218D01*
X237408330Y-165508921D01*
X237389117Y-165494671D01*
X237371393Y-165478607D01*
X237355329Y-165460883D01*
X237341079Y-165441670D01*
X237328782Y-165421153D01*
X237318554Y-165399529D01*
X237310496Y-165377007D01*
X237304684Y-165353803D01*
X237301174Y-165330142D01*
X237300000Y-165306250D01*
X237300000Y-164818750D01*
X237301174Y-164794858D01*
X237304684Y-164771197D01*
X237310496Y-164747993D01*
X237318554Y-164725471D01*
X237328782Y-164703847D01*
X237341079Y-164683330D01*
X237355329Y-164664117D01*
X237371393Y-164646393D01*
X237389117Y-164630329D01*
X237408330Y-164616079D01*
X237428847Y-164603782D01*
X237450471Y-164593554D01*
X237472993Y-164585496D01*
X237496197Y-164579684D01*
X237519858Y-164576174D01*
X237543750Y-164575000D01*
X238456250Y-164575000D01*
X238480142Y-164576174D01*
G37*
G04 #@! TD.AperFunction*
G04 #@! TA.AperFunction,SMDPad,CuDef*
G36*
X203480142Y-166451174D02*
G01*
X203503803Y-166454684D01*
X203527007Y-166460496D01*
X203549529Y-166468554D01*
X203571153Y-166478782D01*
X203591670Y-166491079D01*
X203610883Y-166505329D01*
X203628607Y-166521393D01*
X203644671Y-166539117D01*
X203658921Y-166558330D01*
X203671218Y-166578847D01*
X203681446Y-166600471D01*
X203689504Y-166622993D01*
X203695316Y-166646197D01*
X203698826Y-166669858D01*
X203700000Y-166693750D01*
X203700000Y-167181250D01*
X203698826Y-167205142D01*
X203695316Y-167228803D01*
X203689504Y-167252007D01*
X203681446Y-167274529D01*
X203671218Y-167296153D01*
X203658921Y-167316670D01*
X203644671Y-167335883D01*
X203628607Y-167353607D01*
X203610883Y-167369671D01*
X203591670Y-167383921D01*
X203571153Y-167396218D01*
X203549529Y-167406446D01*
X203527007Y-167414504D01*
X203503803Y-167420316D01*
X203480142Y-167423826D01*
X203456250Y-167425000D01*
X202543750Y-167425000D01*
X202519858Y-167423826D01*
X202496197Y-167420316D01*
X202472993Y-167414504D01*
X202450471Y-167406446D01*
X202428847Y-167396218D01*
X202408330Y-167383921D01*
X202389117Y-167369671D01*
X202371393Y-167353607D01*
X202355329Y-167335883D01*
X202341079Y-167316670D01*
X202328782Y-167296153D01*
X202318554Y-167274529D01*
X202310496Y-167252007D01*
X202304684Y-167228803D01*
X202301174Y-167205142D01*
X202300000Y-167181250D01*
X202300000Y-166693750D01*
X202301174Y-166669858D01*
X202304684Y-166646197D01*
X202310496Y-166622993D01*
X202318554Y-166600471D01*
X202328782Y-166578847D01*
X202341079Y-166558330D01*
X202355329Y-166539117D01*
X202371393Y-166521393D01*
X202389117Y-166505329D01*
X202408330Y-166491079D01*
X202428847Y-166478782D01*
X202450471Y-166468554D01*
X202472993Y-166460496D01*
X202496197Y-166454684D01*
X202519858Y-166451174D01*
X202543750Y-166450000D01*
X203456250Y-166450000D01*
X203480142Y-166451174D01*
G37*
G04 #@! TD.AperFunction*
G04 #@! TA.AperFunction,SMDPad,CuDef*
G36*
X203480142Y-164576174D02*
G01*
X203503803Y-164579684D01*
X203527007Y-164585496D01*
X203549529Y-164593554D01*
X203571153Y-164603782D01*
X203591670Y-164616079D01*
X203610883Y-164630329D01*
X203628607Y-164646393D01*
X203644671Y-164664117D01*
X203658921Y-164683330D01*
X203671218Y-164703847D01*
X203681446Y-164725471D01*
X203689504Y-164747993D01*
X203695316Y-164771197D01*
X203698826Y-164794858D01*
X203700000Y-164818750D01*
X203700000Y-165306250D01*
X203698826Y-165330142D01*
X203695316Y-165353803D01*
X203689504Y-165377007D01*
X203681446Y-165399529D01*
X203671218Y-165421153D01*
X203658921Y-165441670D01*
X203644671Y-165460883D01*
X203628607Y-165478607D01*
X203610883Y-165494671D01*
X203591670Y-165508921D01*
X203571153Y-165521218D01*
X203549529Y-165531446D01*
X203527007Y-165539504D01*
X203503803Y-165545316D01*
X203480142Y-165548826D01*
X203456250Y-165550000D01*
X202543750Y-165550000D01*
X202519858Y-165548826D01*
X202496197Y-165545316D01*
X202472993Y-165539504D01*
X202450471Y-165531446D01*
X202428847Y-165521218D01*
X202408330Y-165508921D01*
X202389117Y-165494671D01*
X202371393Y-165478607D01*
X202355329Y-165460883D01*
X202341079Y-165441670D01*
X202328782Y-165421153D01*
X202318554Y-165399529D01*
X202310496Y-165377007D01*
X202304684Y-165353803D01*
X202301174Y-165330142D01*
X202300000Y-165306250D01*
X202300000Y-164818750D01*
X202301174Y-164794858D01*
X202304684Y-164771197D01*
X202310496Y-164747993D01*
X202318554Y-164725471D01*
X202328782Y-164703847D01*
X202341079Y-164683330D01*
X202355329Y-164664117D01*
X202371393Y-164646393D01*
X202389117Y-164630329D01*
X202408330Y-164616079D01*
X202428847Y-164603782D01*
X202450471Y-164593554D01*
X202472993Y-164585496D01*
X202496197Y-164579684D01*
X202519858Y-164576174D01*
X202543750Y-164575000D01*
X203456250Y-164575000D01*
X203480142Y-164576174D01*
G37*
G04 #@! TD.AperFunction*
D12*
X240500000Y-171000000D03*
X245500000Y-171000000D03*
X250500000Y-171000000D03*
X205500000Y-171000000D03*
X210500000Y-171000000D03*
X215500000Y-171000000D03*
X228000000Y-151500000D03*
D13*
X193000000Y-136500000D03*
X228000000Y-136500000D03*
X193000000Y-167000000D03*
D14*
X240500000Y-134000000D03*
X250500000Y-134000000D03*
X205500000Y-134000000D03*
X215500000Y-134000000D03*
D13*
X228000000Y-167000000D03*
G04 #@! TA.AperFunction,SMDPad,CuDef*
D11*
G36*
X228480142Y-157076174D02*
G01*
X228503803Y-157079684D01*
X228527007Y-157085496D01*
X228549529Y-157093554D01*
X228571153Y-157103782D01*
X228591670Y-157116079D01*
X228610883Y-157130329D01*
X228628607Y-157146393D01*
X228644671Y-157164117D01*
X228658921Y-157183330D01*
X228671218Y-157203847D01*
X228681446Y-157225471D01*
X228689504Y-157247993D01*
X228695316Y-157271197D01*
X228698826Y-157294858D01*
X228700000Y-157318750D01*
X228700000Y-157806250D01*
X228698826Y-157830142D01*
X228695316Y-157853803D01*
X228689504Y-157877007D01*
X228681446Y-157899529D01*
X228671218Y-157921153D01*
X228658921Y-157941670D01*
X228644671Y-157960883D01*
X228628607Y-157978607D01*
X228610883Y-157994671D01*
X228591670Y-158008921D01*
X228571153Y-158021218D01*
X228549529Y-158031446D01*
X228527007Y-158039504D01*
X228503803Y-158045316D01*
X228480142Y-158048826D01*
X228456250Y-158050000D01*
X227543750Y-158050000D01*
X227519858Y-158048826D01*
X227496197Y-158045316D01*
X227472993Y-158039504D01*
X227450471Y-158031446D01*
X227428847Y-158021218D01*
X227408330Y-158008921D01*
X227389117Y-157994671D01*
X227371393Y-157978607D01*
X227355329Y-157960883D01*
X227341079Y-157941670D01*
X227328782Y-157921153D01*
X227318554Y-157899529D01*
X227310496Y-157877007D01*
X227304684Y-157853803D01*
X227301174Y-157830142D01*
X227300000Y-157806250D01*
X227300000Y-157318750D01*
X227301174Y-157294858D01*
X227304684Y-157271197D01*
X227310496Y-157247993D01*
X227318554Y-157225471D01*
X227328782Y-157203847D01*
X227341079Y-157183330D01*
X227355329Y-157164117D01*
X227371393Y-157146393D01*
X227389117Y-157130329D01*
X227408330Y-157116079D01*
X227428847Y-157103782D01*
X227450471Y-157093554D01*
X227472993Y-157085496D01*
X227496197Y-157079684D01*
X227519858Y-157076174D01*
X227543750Y-157075000D01*
X228456250Y-157075000D01*
X228480142Y-157076174D01*
G37*
G04 #@! TD.AperFunction*
G04 #@! TA.AperFunction,SMDPad,CuDef*
G36*
X228480142Y-158951174D02*
G01*
X228503803Y-158954684D01*
X228527007Y-158960496D01*
X228549529Y-158968554D01*
X228571153Y-158978782D01*
X228591670Y-158991079D01*
X228610883Y-159005329D01*
X228628607Y-159021393D01*
X228644671Y-159039117D01*
X228658921Y-159058330D01*
X228671218Y-159078847D01*
X228681446Y-159100471D01*
X228689504Y-159122993D01*
X228695316Y-159146197D01*
X228698826Y-159169858D01*
X228700000Y-159193750D01*
X228700000Y-159681250D01*
X228698826Y-159705142D01*
X228695316Y-159728803D01*
X228689504Y-159752007D01*
X228681446Y-159774529D01*
X228671218Y-159796153D01*
X228658921Y-159816670D01*
X228644671Y-159835883D01*
X228628607Y-159853607D01*
X228610883Y-159869671D01*
X228591670Y-159883921D01*
X228571153Y-159896218D01*
X228549529Y-159906446D01*
X228527007Y-159914504D01*
X228503803Y-159920316D01*
X228480142Y-159923826D01*
X228456250Y-159925000D01*
X227543750Y-159925000D01*
X227519858Y-159923826D01*
X227496197Y-159920316D01*
X227472993Y-159914504D01*
X227450471Y-159906446D01*
X227428847Y-159896218D01*
X227408330Y-159883921D01*
X227389117Y-159869671D01*
X227371393Y-159853607D01*
X227355329Y-159835883D01*
X227341079Y-159816670D01*
X227328782Y-159796153D01*
X227318554Y-159774529D01*
X227310496Y-159752007D01*
X227304684Y-159728803D01*
X227301174Y-159705142D01*
X227300000Y-159681250D01*
X227300000Y-159193750D01*
X227301174Y-159169858D01*
X227304684Y-159146197D01*
X227310496Y-159122993D01*
X227318554Y-159100471D01*
X227328782Y-159078847D01*
X227341079Y-159058330D01*
X227355329Y-159039117D01*
X227371393Y-159021393D01*
X227389117Y-159005329D01*
X227408330Y-158991079D01*
X227428847Y-158978782D01*
X227450471Y-158968554D01*
X227472993Y-158960496D01*
X227496197Y-158954684D01*
X227519858Y-158951174D01*
X227543750Y-158950000D01*
X228456250Y-158950000D01*
X228480142Y-158951174D01*
G37*
G04 #@! TD.AperFunction*
G04 #@! TA.AperFunction,SMDPad,CuDef*
G36*
X250980142Y-164576174D02*
G01*
X251003803Y-164579684D01*
X251027007Y-164585496D01*
X251049529Y-164593554D01*
X251071153Y-164603782D01*
X251091670Y-164616079D01*
X251110883Y-164630329D01*
X251128607Y-164646393D01*
X251144671Y-164664117D01*
X251158921Y-164683330D01*
X251171218Y-164703847D01*
X251181446Y-164725471D01*
X251189504Y-164747993D01*
X251195316Y-164771197D01*
X251198826Y-164794858D01*
X251200000Y-164818750D01*
X251200000Y-165306250D01*
X251198826Y-165330142D01*
X251195316Y-165353803D01*
X251189504Y-165377007D01*
X251181446Y-165399529D01*
X251171218Y-165421153D01*
X251158921Y-165441670D01*
X251144671Y-165460883D01*
X251128607Y-165478607D01*
X251110883Y-165494671D01*
X251091670Y-165508921D01*
X251071153Y-165521218D01*
X251049529Y-165531446D01*
X251027007Y-165539504D01*
X251003803Y-165545316D01*
X250980142Y-165548826D01*
X250956250Y-165550000D01*
X250043750Y-165550000D01*
X250019858Y-165548826D01*
X249996197Y-165545316D01*
X249972993Y-165539504D01*
X249950471Y-165531446D01*
X249928847Y-165521218D01*
X249908330Y-165508921D01*
X249889117Y-165494671D01*
X249871393Y-165478607D01*
X249855329Y-165460883D01*
X249841079Y-165441670D01*
X249828782Y-165421153D01*
X249818554Y-165399529D01*
X249810496Y-165377007D01*
X249804684Y-165353803D01*
X249801174Y-165330142D01*
X249800000Y-165306250D01*
X249800000Y-164818750D01*
X249801174Y-164794858D01*
X249804684Y-164771197D01*
X249810496Y-164747993D01*
X249818554Y-164725471D01*
X249828782Y-164703847D01*
X249841079Y-164683330D01*
X249855329Y-164664117D01*
X249871393Y-164646393D01*
X249889117Y-164630329D01*
X249908330Y-164616079D01*
X249928847Y-164603782D01*
X249950471Y-164593554D01*
X249972993Y-164585496D01*
X249996197Y-164579684D01*
X250019858Y-164576174D01*
X250043750Y-164575000D01*
X250956250Y-164575000D01*
X250980142Y-164576174D01*
G37*
G04 #@! TD.AperFunction*
G04 #@! TA.AperFunction,SMDPad,CuDef*
G36*
X250980142Y-166451174D02*
G01*
X251003803Y-166454684D01*
X251027007Y-166460496D01*
X251049529Y-166468554D01*
X251071153Y-166478782D01*
X251091670Y-166491079D01*
X251110883Y-166505329D01*
X251128607Y-166521393D01*
X251144671Y-166539117D01*
X251158921Y-166558330D01*
X251171218Y-166578847D01*
X251181446Y-166600471D01*
X251189504Y-166622993D01*
X251195316Y-166646197D01*
X251198826Y-166669858D01*
X251200000Y-166693750D01*
X251200000Y-167181250D01*
X251198826Y-167205142D01*
X251195316Y-167228803D01*
X251189504Y-167252007D01*
X251181446Y-167274529D01*
X251171218Y-167296153D01*
X251158921Y-167316670D01*
X251144671Y-167335883D01*
X251128607Y-167353607D01*
X251110883Y-167369671D01*
X251091670Y-167383921D01*
X251071153Y-167396218D01*
X251049529Y-167406446D01*
X251027007Y-167414504D01*
X251003803Y-167420316D01*
X250980142Y-167423826D01*
X250956250Y-167425000D01*
X250043750Y-167425000D01*
X250019858Y-167423826D01*
X249996197Y-167420316D01*
X249972993Y-167414504D01*
X249950471Y-167406446D01*
X249928847Y-167396218D01*
X249908330Y-167383921D01*
X249889117Y-167369671D01*
X249871393Y-167353607D01*
X249855329Y-167335883D01*
X249841079Y-167316670D01*
X249828782Y-167296153D01*
X249818554Y-167274529D01*
X249810496Y-167252007D01*
X249804684Y-167228803D01*
X249801174Y-167205142D01*
X249800000Y-167181250D01*
X249800000Y-166693750D01*
X249801174Y-166669858D01*
X249804684Y-166646197D01*
X249810496Y-166622993D01*
X249818554Y-166600471D01*
X249828782Y-166578847D01*
X249841079Y-166558330D01*
X249855329Y-166539117D01*
X249871393Y-166521393D01*
X249889117Y-166505329D01*
X249908330Y-166491079D01*
X249928847Y-166478782D01*
X249950471Y-166468554D01*
X249972993Y-166460496D01*
X249996197Y-166454684D01*
X250019858Y-166451174D01*
X250043750Y-166450000D01*
X250956250Y-166450000D01*
X250980142Y-166451174D01*
G37*
G04 #@! TD.AperFunction*
G04 #@! TA.AperFunction,SMDPad,CuDef*
G36*
X215980142Y-166451174D02*
G01*
X216003803Y-166454684D01*
X216027007Y-166460496D01*
X216049529Y-166468554D01*
X216071153Y-166478782D01*
X216091670Y-166491079D01*
X216110883Y-166505329D01*
X216128607Y-166521393D01*
X216144671Y-166539117D01*
X216158921Y-166558330D01*
X216171218Y-166578847D01*
X216181446Y-166600471D01*
X216189504Y-166622993D01*
X216195316Y-166646197D01*
X216198826Y-166669858D01*
X216200000Y-166693750D01*
X216200000Y-167181250D01*
X216198826Y-167205142D01*
X216195316Y-167228803D01*
X216189504Y-167252007D01*
X216181446Y-167274529D01*
X216171218Y-167296153D01*
X216158921Y-167316670D01*
X216144671Y-167335883D01*
X216128607Y-167353607D01*
X216110883Y-167369671D01*
X216091670Y-167383921D01*
X216071153Y-167396218D01*
X216049529Y-167406446D01*
X216027007Y-167414504D01*
X216003803Y-167420316D01*
X215980142Y-167423826D01*
X215956250Y-167425000D01*
X215043750Y-167425000D01*
X215019858Y-167423826D01*
X214996197Y-167420316D01*
X214972993Y-167414504D01*
X214950471Y-167406446D01*
X214928847Y-167396218D01*
X214908330Y-167383921D01*
X214889117Y-167369671D01*
X214871393Y-167353607D01*
X214855329Y-167335883D01*
X214841079Y-167316670D01*
X214828782Y-167296153D01*
X214818554Y-167274529D01*
X214810496Y-167252007D01*
X214804684Y-167228803D01*
X214801174Y-167205142D01*
X214800000Y-167181250D01*
X214800000Y-166693750D01*
X214801174Y-166669858D01*
X214804684Y-166646197D01*
X214810496Y-166622993D01*
X214818554Y-166600471D01*
X214828782Y-166578847D01*
X214841079Y-166558330D01*
X214855329Y-166539117D01*
X214871393Y-166521393D01*
X214889117Y-166505329D01*
X214908330Y-166491079D01*
X214928847Y-166478782D01*
X214950471Y-166468554D01*
X214972993Y-166460496D01*
X214996197Y-166454684D01*
X215019858Y-166451174D01*
X215043750Y-166450000D01*
X215956250Y-166450000D01*
X215980142Y-166451174D01*
G37*
G04 #@! TD.AperFunction*
G04 #@! TA.AperFunction,SMDPad,CuDef*
G36*
X215980142Y-164576174D02*
G01*
X216003803Y-164579684D01*
X216027007Y-164585496D01*
X216049529Y-164593554D01*
X216071153Y-164603782D01*
X216091670Y-164616079D01*
X216110883Y-164630329D01*
X216128607Y-164646393D01*
X216144671Y-164664117D01*
X216158921Y-164683330D01*
X216171218Y-164703847D01*
X216181446Y-164725471D01*
X216189504Y-164747993D01*
X216195316Y-164771197D01*
X216198826Y-164794858D01*
X216200000Y-164818750D01*
X216200000Y-165306250D01*
X216198826Y-165330142D01*
X216195316Y-165353803D01*
X216189504Y-165377007D01*
X216181446Y-165399529D01*
X216171218Y-165421153D01*
X216158921Y-165441670D01*
X216144671Y-165460883D01*
X216128607Y-165478607D01*
X216110883Y-165494671D01*
X216091670Y-165508921D01*
X216071153Y-165521218D01*
X216049529Y-165531446D01*
X216027007Y-165539504D01*
X216003803Y-165545316D01*
X215980142Y-165548826D01*
X215956250Y-165550000D01*
X215043750Y-165550000D01*
X215019858Y-165548826D01*
X214996197Y-165545316D01*
X214972993Y-165539504D01*
X214950471Y-165531446D01*
X214928847Y-165521218D01*
X214908330Y-165508921D01*
X214889117Y-165494671D01*
X214871393Y-165478607D01*
X214855329Y-165460883D01*
X214841079Y-165441670D01*
X214828782Y-165421153D01*
X214818554Y-165399529D01*
X214810496Y-165377007D01*
X214804684Y-165353803D01*
X214801174Y-165330142D01*
X214800000Y-165306250D01*
X214800000Y-164818750D01*
X214801174Y-164794858D01*
X214804684Y-164771197D01*
X214810496Y-164747993D01*
X214818554Y-164725471D01*
X214828782Y-164703847D01*
X214841079Y-164683330D01*
X214855329Y-164664117D01*
X214871393Y-164646393D01*
X214889117Y-164630329D01*
X214908330Y-164616079D01*
X214928847Y-164603782D01*
X214950471Y-164593554D01*
X214972993Y-164585496D01*
X214996197Y-164579684D01*
X215019858Y-164576174D01*
X215043750Y-164575000D01*
X215956250Y-164575000D01*
X215980142Y-164576174D01*
G37*
G04 #@! TD.AperFunction*
D15*
X238500000Y-145650000D03*
X248500000Y-145650000D03*
X236550000Y-144230000D03*
D16*
X243590000Y-165000000D03*
D15*
X243700000Y-145260000D03*
X241170000Y-145650000D03*
X241170000Y-141550000D03*
X251170000Y-141550000D03*
X247300000Y-141940000D03*
X253700000Y-141940000D03*
X252500000Y-141550000D03*
D17*
X240500000Y-143600000D03*
X250500000Y-143600000D03*
D18*
X247410000Y-165000000D03*
X245500000Y-165000000D03*
D15*
X248500000Y-141550000D03*
X237300000Y-141940000D03*
D19*
X244450000Y-144230000D02*
X244450000Y-144230000D01*
D15*
X237300000Y-145260000D03*
X239830000Y-145650000D03*
X254450000Y-142970000D03*
X239830000Y-141550000D03*
X254450000Y-144230000D03*
X247300000Y-145260000D03*
X238500000Y-141550000D03*
D19*
X246550000Y-144230000D02*
X246550000Y-144230000D01*
D15*
X253700000Y-145260000D03*
X251170000Y-145650000D03*
D19*
X244450000Y-142970000D02*
X244450000Y-142970000D01*
D15*
X243700000Y-141940000D03*
X249830000Y-145650000D03*
X249830000Y-141550000D03*
X236550000Y-142970000D03*
X242500000Y-145650000D03*
X242500000Y-141550000D03*
D19*
X246550000Y-142970000D02*
X246550000Y-142970000D01*
D15*
X252500000Y-145650000D03*
X217500000Y-145650000D03*
D19*
X211550000Y-142970000D02*
X211550000Y-142970000D01*
D15*
X207500000Y-141550000D03*
X207500000Y-145650000D03*
X201550000Y-142970000D03*
X214830000Y-141550000D03*
X214830000Y-145650000D03*
X208700000Y-141940000D03*
D19*
X209450000Y-142970000D02*
X209450000Y-142970000D01*
D15*
X216170000Y-145650000D03*
X218700000Y-145260000D03*
D19*
X211550000Y-144230000D02*
X211550000Y-144230000D01*
D15*
X203500000Y-141550000D03*
X212300000Y-145260000D03*
X219450000Y-144230000D03*
X204830000Y-141550000D03*
X219450000Y-142970000D03*
X204830000Y-145650000D03*
X202300000Y-145260000D03*
D19*
X209450000Y-144230000D02*
X209450000Y-144230000D01*
D15*
X202300000Y-141940000D03*
X213500000Y-141550000D03*
D18*
X210500000Y-165000000D03*
X212410000Y-165000000D03*
D17*
X215500000Y-143600000D03*
X205500000Y-143600000D03*
D15*
X217500000Y-141550000D03*
X218700000Y-141940000D03*
X212300000Y-141940000D03*
X216170000Y-141550000D03*
X206170000Y-141550000D03*
X206170000Y-145650000D03*
X208700000Y-145260000D03*
D16*
X208590000Y-165000000D03*
D15*
X201550000Y-144230000D03*
X213500000Y-145650000D03*
X203500000Y-145650000D03*
D20*
X240500000Y-165062500D02*
X238000000Y-165062500D01*
X243527500Y-165062500D02*
X243590000Y-165000000D01*
X240500000Y-165062500D02*
X243527500Y-165062500D01*
X238378680Y-171000000D02*
X236500000Y-169121320D01*
X240500000Y-171000000D02*
X238378680Y-171000000D01*
X236500000Y-169121320D02*
X236500000Y-165500000D01*
X236937500Y-165062500D02*
X238000000Y-165062500D01*
X236500000Y-165500000D02*
X236937500Y-165062500D01*
X203000000Y-165062500D02*
X205500000Y-165062500D01*
X208527500Y-165062500D02*
X208590000Y-165000000D01*
X205500000Y-165062500D02*
X208527500Y-165062500D01*
X201937500Y-165062500D02*
X203000000Y-165062500D01*
X201500000Y-165500000D02*
X201937500Y-165062500D01*
X201500000Y-169121320D02*
X201500000Y-165500000D01*
X205500000Y-171000000D02*
X203378680Y-171000000D01*
X203378680Y-171000000D02*
X201500000Y-169121320D01*
X245500000Y-165000000D02*
X245500000Y-164000000D01*
X245500000Y-164000000D02*
X246500000Y-163000000D01*
X246500000Y-163000000D02*
X252000000Y-163000000D01*
X253000000Y-164000000D02*
X253000000Y-165062500D01*
X252000000Y-163000000D02*
X253000000Y-164000000D01*
X245500000Y-166060660D02*
X245500000Y-165000000D01*
X240500000Y-166937500D02*
X244623160Y-166937500D01*
X244623160Y-166937500D02*
X245500000Y-166060660D01*
X245500000Y-165000000D02*
X245500000Y-171000000D01*
X238000000Y-166937500D02*
X240500000Y-166937500D01*
X210500000Y-165000000D02*
X210500000Y-164000000D01*
X210500000Y-164000000D02*
X211500000Y-163000000D01*
X211500000Y-163000000D02*
X217000000Y-163000000D01*
X218000000Y-164000000D02*
X218000000Y-165062500D01*
X217000000Y-163000000D02*
X218000000Y-164000000D01*
X210500000Y-166060660D02*
X210500000Y-165000000D01*
X205500000Y-166937500D02*
X209623160Y-166937500D01*
X209623160Y-166937500D02*
X210500000Y-166060660D01*
X210500000Y-165000000D02*
X210500000Y-171000000D01*
X203000000Y-166937500D02*
X205500000Y-166937500D01*
X250500000Y-166937500D02*
X253000000Y-166937500D01*
X250500000Y-166937500D02*
X250500000Y-171000000D01*
X215500000Y-166937500D02*
X218000000Y-166937500D01*
X215500000Y-166937500D02*
X215500000Y-171000000D01*
D21*
X240500000Y-134000000D02*
X240500000Y-143600000D01*
X250500000Y-134000000D02*
X250500000Y-143600000D01*
X205500000Y-134000000D02*
X205500000Y-143600000D01*
X215500000Y-134000000D02*
X215500000Y-143600000D01*
D20*
X247472500Y-165062500D02*
X247410000Y-165000000D01*
X250500000Y-165062500D02*
X247472500Y-165062500D01*
X212472500Y-165062500D02*
X212410000Y-165000000D01*
X215500000Y-165062500D02*
X212472500Y-165062500D01*
X228000000Y-151500000D02*
X228000000Y-157562500D01*
D22*
G36*
X211213482Y-166457961D02*
G01*
X211520907Y-166663376D01*
X211862499Y-166804868D01*
X212225132Y-166877000D01*
X212594868Y-166877000D01*
X212957501Y-166804868D01*
X213299093Y-166663376D01*
X213606518Y-166457961D01*
X213624979Y-166439500D01*
X213692588Y-166439500D01*
X213667547Y-166693750D01*
X213667547Y-167181250D01*
X213693990Y-167449734D01*
X213772304Y-167707900D01*
X213899479Y-167945827D01*
X214070628Y-168154372D01*
X214123000Y-168197353D01*
X214123000Y-168760616D01*
X213825385Y-168959476D01*
X213459476Y-169325385D01*
X213171983Y-169755649D01*
X212973954Y-170233732D01*
X212873000Y-170741263D01*
X212873000Y-171258737D01*
X212973954Y-171766268D01*
X213171983Y-172244351D01*
X213459476Y-172674615D01*
X213825385Y-173040524D01*
X214255649Y-173328017D01*
X214303892Y-173348000D01*
X206696108Y-173348000D01*
X206744351Y-173328017D01*
X207174615Y-173040524D01*
X207540524Y-172674615D01*
X207667403Y-172484726D01*
X209189223Y-172484726D01*
X209345322Y-172798538D01*
X209718386Y-172989246D01*
X210121487Y-173103508D01*
X210539134Y-173136935D01*
X210955278Y-173088239D01*
X211353925Y-172959294D01*
X211654678Y-172798538D01*
X211810777Y-172484726D01*
X210500000Y-171173948D01*
X209189223Y-172484726D01*
X207667403Y-172484726D01*
X207828017Y-172244351D01*
X208026046Y-171766268D01*
X208127000Y-171258737D01*
X208127000Y-171039134D01*
X208363065Y-171039134D01*
X208411761Y-171455278D01*
X208540706Y-171853925D01*
X208701462Y-172154678D01*
X209015274Y-172310777D01*
X210326052Y-171000000D01*
X210673948Y-171000000D01*
X211984726Y-172310777D01*
X212298538Y-172154678D01*
X212489246Y-171781614D01*
X212603508Y-171378513D01*
X212636935Y-170960866D01*
X212588239Y-170544722D01*
X212459294Y-170146075D01*
X212298538Y-169845322D01*
X211984726Y-169689223D01*
X210673948Y-171000000D01*
X210326052Y-171000000D01*
X209015274Y-169689223D01*
X208701462Y-169845322D01*
X208510754Y-170218386D01*
X208396492Y-170621487D01*
X208363065Y-171039134D01*
X208127000Y-171039134D01*
X208127000Y-170741263D01*
X208026046Y-170233732D01*
X207828017Y-169755649D01*
X207667404Y-169515274D01*
X209189223Y-169515274D01*
X210500000Y-170826052D01*
X211810777Y-169515274D01*
X211654678Y-169201462D01*
X211281614Y-169010754D01*
X210878513Y-168896492D01*
X210460866Y-168863065D01*
X210044722Y-168911761D01*
X209646075Y-169040706D01*
X209345322Y-169201462D01*
X209189223Y-169515274D01*
X207667404Y-169515274D01*
X207540524Y-169325385D01*
X207174615Y-168959476D01*
X206744351Y-168671983D01*
X206266268Y-168473954D01*
X205758737Y-168373000D01*
X205241263Y-168373000D01*
X204733732Y-168473954D01*
X204255649Y-168671983D01*
X203825385Y-168959476D01*
X203555456Y-169229405D01*
X202877000Y-168550949D01*
X202877000Y-167060500D01*
X203123000Y-167060500D01*
X203123000Y-167895250D01*
X203279750Y-168052000D01*
X203700000Y-168055034D01*
X203822914Y-168042928D01*
X203941104Y-168007076D01*
X204050028Y-167948854D01*
X204145501Y-167870501D01*
X204223854Y-167775028D01*
X204250000Y-167726113D01*
X204276146Y-167775028D01*
X204354499Y-167870501D01*
X204449972Y-167948854D01*
X204558896Y-168007076D01*
X204677086Y-168042928D01*
X204800000Y-168055034D01*
X205220250Y-168052000D01*
X205377000Y-167895250D01*
X205377000Y-167060500D01*
X205623000Y-167060500D01*
X205623000Y-167895250D01*
X205779750Y-168052000D01*
X206200000Y-168055034D01*
X206322914Y-168042928D01*
X206441104Y-168007076D01*
X206550028Y-167948854D01*
X206645501Y-167870501D01*
X206723854Y-167775028D01*
X206782076Y-167666104D01*
X206817928Y-167547914D01*
X206830034Y-167425000D01*
X206827000Y-167217250D01*
X206670250Y-167060500D01*
X205623000Y-167060500D01*
X205377000Y-167060500D01*
X204329750Y-167060500D01*
X204250000Y-167140250D01*
X204170250Y-167060500D01*
X203123000Y-167060500D01*
X202877000Y-167060500D01*
X202877000Y-166794500D01*
X203123000Y-166794500D01*
X203123000Y-166814500D01*
X204170250Y-166814500D01*
X204250000Y-166734750D01*
X204329750Y-166814500D01*
X205377000Y-166814500D01*
X205377000Y-166794500D01*
X205623000Y-166794500D01*
X205623000Y-166814500D01*
X206670250Y-166814500D01*
X206827000Y-166657750D01*
X206830034Y-166450000D01*
X206829000Y-166439500D01*
X206947922Y-166439500D01*
X207039235Y-166550765D01*
X207210843Y-166691600D01*
X207406629Y-166796250D01*
X207619069Y-166860693D01*
X207840000Y-166882453D01*
X209340000Y-166882453D01*
X209560931Y-166860693D01*
X209773371Y-166796250D01*
X209969157Y-166691600D01*
X210140765Y-166550765D01*
X210281600Y-166379157D01*
X210288391Y-166366452D01*
X210297871Y-166368820D01*
X210568798Y-166381952D01*
X210837081Y-166341976D01*
X211028769Y-166273248D01*
X211213482Y-166457961D01*
G37*
X211213482Y-166457961D02*
X211520907Y-166663376D01*
X211862499Y-166804868D01*
X212225132Y-166877000D01*
X212594868Y-166877000D01*
X212957501Y-166804868D01*
X213299093Y-166663376D01*
X213606518Y-166457961D01*
X213624979Y-166439500D01*
X213692588Y-166439500D01*
X213667547Y-166693750D01*
X213667547Y-167181250D01*
X213693990Y-167449734D01*
X213772304Y-167707900D01*
X213899479Y-167945827D01*
X214070628Y-168154372D01*
X214123000Y-168197353D01*
X214123000Y-168760616D01*
X213825385Y-168959476D01*
X213459476Y-169325385D01*
X213171983Y-169755649D01*
X212973954Y-170233732D01*
X212873000Y-170741263D01*
X212873000Y-171258737D01*
X212973954Y-171766268D01*
X213171983Y-172244351D01*
X213459476Y-172674615D01*
X213825385Y-173040524D01*
X214255649Y-173328017D01*
X214303892Y-173348000D01*
X206696108Y-173348000D01*
X206744351Y-173328017D01*
X207174615Y-173040524D01*
X207540524Y-172674615D01*
X207667403Y-172484726D01*
X209189223Y-172484726D01*
X209345322Y-172798538D01*
X209718386Y-172989246D01*
X210121487Y-173103508D01*
X210539134Y-173136935D01*
X210955278Y-173088239D01*
X211353925Y-172959294D01*
X211654678Y-172798538D01*
X211810777Y-172484726D01*
X210500000Y-171173948D01*
X209189223Y-172484726D01*
X207667403Y-172484726D01*
X207828017Y-172244351D01*
X208026046Y-171766268D01*
X208127000Y-171258737D01*
X208127000Y-171039134D01*
X208363065Y-171039134D01*
X208411761Y-171455278D01*
X208540706Y-171853925D01*
X208701462Y-172154678D01*
X209015274Y-172310777D01*
X210326052Y-171000000D01*
X210673948Y-171000000D01*
X211984726Y-172310777D01*
X212298538Y-172154678D01*
X212489246Y-171781614D01*
X212603508Y-171378513D01*
X212636935Y-170960866D01*
X212588239Y-170544722D01*
X212459294Y-170146075D01*
X212298538Y-169845322D01*
X211984726Y-169689223D01*
X210673948Y-171000000D01*
X210326052Y-171000000D01*
X209015274Y-169689223D01*
X208701462Y-169845322D01*
X208510754Y-170218386D01*
X208396492Y-170621487D01*
X208363065Y-171039134D01*
X208127000Y-171039134D01*
X208127000Y-170741263D01*
X208026046Y-170233732D01*
X207828017Y-169755649D01*
X207667404Y-169515274D01*
X209189223Y-169515274D01*
X210500000Y-170826052D01*
X211810777Y-169515274D01*
X211654678Y-169201462D01*
X211281614Y-169010754D01*
X210878513Y-168896492D01*
X210460866Y-168863065D01*
X210044722Y-168911761D01*
X209646075Y-169040706D01*
X209345322Y-169201462D01*
X209189223Y-169515274D01*
X207667404Y-169515274D01*
X207540524Y-169325385D01*
X207174615Y-168959476D01*
X206744351Y-168671983D01*
X206266268Y-168473954D01*
X205758737Y-168373000D01*
X205241263Y-168373000D01*
X204733732Y-168473954D01*
X204255649Y-168671983D01*
X203825385Y-168959476D01*
X203555456Y-169229405D01*
X202877000Y-168550949D01*
X202877000Y-167060500D01*
X203123000Y-167060500D01*
X203123000Y-167895250D01*
X203279750Y-168052000D01*
X203700000Y-168055034D01*
X203822914Y-168042928D01*
X203941104Y-168007076D01*
X204050028Y-167948854D01*
X204145501Y-167870501D01*
X204223854Y-167775028D01*
X204250000Y-167726113D01*
X204276146Y-167775028D01*
X204354499Y-167870501D01*
X204449972Y-167948854D01*
X204558896Y-168007076D01*
X204677086Y-168042928D01*
X204800000Y-168055034D01*
X205220250Y-168052000D01*
X205377000Y-167895250D01*
X205377000Y-167060500D01*
X205623000Y-167060500D01*
X205623000Y-167895250D01*
X205779750Y-168052000D01*
X206200000Y-168055034D01*
X206322914Y-168042928D01*
X206441104Y-168007076D01*
X206550028Y-167948854D01*
X206645501Y-167870501D01*
X206723854Y-167775028D01*
X206782076Y-167666104D01*
X206817928Y-167547914D01*
X206830034Y-167425000D01*
X206827000Y-167217250D01*
X206670250Y-167060500D01*
X205623000Y-167060500D01*
X205377000Y-167060500D01*
X204329750Y-167060500D01*
X204250000Y-167140250D01*
X204170250Y-167060500D01*
X203123000Y-167060500D01*
X202877000Y-167060500D01*
X202877000Y-166794500D01*
X203123000Y-166794500D01*
X203123000Y-166814500D01*
X204170250Y-166814500D01*
X204250000Y-166734750D01*
X204329750Y-166814500D01*
X205377000Y-166814500D01*
X205377000Y-166794500D01*
X205623000Y-166794500D01*
X205623000Y-166814500D01*
X206670250Y-166814500D01*
X206827000Y-166657750D01*
X206830034Y-166450000D01*
X206829000Y-166439500D01*
X206947922Y-166439500D01*
X207039235Y-166550765D01*
X207210843Y-166691600D01*
X207406629Y-166796250D01*
X207619069Y-166860693D01*
X207840000Y-166882453D01*
X209340000Y-166882453D01*
X209560931Y-166860693D01*
X209773371Y-166796250D01*
X209969157Y-166691600D01*
X210140765Y-166550765D01*
X210281600Y-166379157D01*
X210288391Y-166366452D01*
X210297871Y-166368820D01*
X210568798Y-166381952D01*
X210837081Y-166341976D01*
X211028769Y-166273248D01*
X211213482Y-166457961D01*
G36*
X246213482Y-166457961D02*
G01*
X246520907Y-166663376D01*
X246862499Y-166804868D01*
X247225132Y-166877000D01*
X247594868Y-166877000D01*
X247957501Y-166804868D01*
X248299093Y-166663376D01*
X248606518Y-166457961D01*
X248624979Y-166439500D01*
X248692588Y-166439500D01*
X248667547Y-166693750D01*
X248667547Y-167181250D01*
X248693990Y-167449734D01*
X248772304Y-167707900D01*
X248899479Y-167945827D01*
X249070628Y-168154372D01*
X249123000Y-168197353D01*
X249123000Y-168760616D01*
X248825385Y-168959476D01*
X248459476Y-169325385D01*
X248171983Y-169755649D01*
X247973954Y-170233732D01*
X247873000Y-170741263D01*
X247873000Y-171258737D01*
X247973954Y-171766268D01*
X248171983Y-172244351D01*
X248459476Y-172674615D01*
X248825385Y-173040524D01*
X249255649Y-173328017D01*
X249303892Y-173348000D01*
X241696108Y-173348000D01*
X241744351Y-173328017D01*
X242174615Y-173040524D01*
X242540524Y-172674615D01*
X242667403Y-172484726D01*
X244189223Y-172484726D01*
X244345322Y-172798538D01*
X244718386Y-172989246D01*
X245121487Y-173103508D01*
X245539134Y-173136935D01*
X245955278Y-173088239D01*
X246353925Y-172959294D01*
X246654678Y-172798538D01*
X246810777Y-172484726D01*
X245500000Y-171173948D01*
X244189223Y-172484726D01*
X242667403Y-172484726D01*
X242828017Y-172244351D01*
X243026046Y-171766268D01*
X243127000Y-171258737D01*
X243127000Y-171039134D01*
X243363065Y-171039134D01*
X243411761Y-171455278D01*
X243540706Y-171853925D01*
X243701462Y-172154678D01*
X244015274Y-172310777D01*
X245326052Y-171000000D01*
X245673948Y-171000000D01*
X246984726Y-172310777D01*
X247298538Y-172154678D01*
X247489246Y-171781614D01*
X247603508Y-171378513D01*
X247636935Y-170960866D01*
X247588239Y-170544722D01*
X247459294Y-170146075D01*
X247298538Y-169845322D01*
X246984726Y-169689223D01*
X245673948Y-171000000D01*
X245326052Y-171000000D01*
X244015274Y-169689223D01*
X243701462Y-169845322D01*
X243510754Y-170218386D01*
X243396492Y-170621487D01*
X243363065Y-171039134D01*
X243127000Y-171039134D01*
X243127000Y-170741263D01*
X243026046Y-170233732D01*
X242828017Y-169755649D01*
X242667404Y-169515274D01*
X244189223Y-169515274D01*
X245500000Y-170826052D01*
X246810777Y-169515274D01*
X246654678Y-169201462D01*
X246281614Y-169010754D01*
X245878513Y-168896492D01*
X245460866Y-168863065D01*
X245044722Y-168911761D01*
X244646075Y-169040706D01*
X244345322Y-169201462D01*
X244189223Y-169515274D01*
X242667404Y-169515274D01*
X242540524Y-169325385D01*
X242174615Y-168959476D01*
X241744351Y-168671983D01*
X241266268Y-168473954D01*
X240758737Y-168373000D01*
X240241263Y-168373000D01*
X239733732Y-168473954D01*
X239255649Y-168671983D01*
X238825385Y-168959476D01*
X238555456Y-169229405D01*
X237877000Y-168550949D01*
X237877000Y-167060500D01*
X238123000Y-167060500D01*
X238123000Y-167895250D01*
X238279750Y-168052000D01*
X238700000Y-168055034D01*
X238822914Y-168042928D01*
X238941104Y-168007076D01*
X239050028Y-167948854D01*
X239145501Y-167870501D01*
X239223854Y-167775028D01*
X239250000Y-167726113D01*
X239276146Y-167775028D01*
X239354499Y-167870501D01*
X239449972Y-167948854D01*
X239558896Y-168007076D01*
X239677086Y-168042928D01*
X239800000Y-168055034D01*
X240220250Y-168052000D01*
X240377000Y-167895250D01*
X240377000Y-167060500D01*
X240623000Y-167060500D01*
X240623000Y-167895250D01*
X240779750Y-168052000D01*
X241200000Y-168055034D01*
X241322914Y-168042928D01*
X241441104Y-168007076D01*
X241550028Y-167948854D01*
X241645501Y-167870501D01*
X241723854Y-167775028D01*
X241782076Y-167666104D01*
X241817928Y-167547914D01*
X241830034Y-167425000D01*
X241827000Y-167217250D01*
X241670250Y-167060500D01*
X240623000Y-167060500D01*
X240377000Y-167060500D01*
X239329750Y-167060500D01*
X239250000Y-167140250D01*
X239170250Y-167060500D01*
X238123000Y-167060500D01*
X237877000Y-167060500D01*
X237877000Y-166794500D01*
X238123000Y-166794500D01*
X238123000Y-166814500D01*
X239170250Y-166814500D01*
X239250000Y-166734750D01*
X239329750Y-166814500D01*
X240377000Y-166814500D01*
X240377000Y-166794500D01*
X240623000Y-166794500D01*
X240623000Y-166814500D01*
X241670250Y-166814500D01*
X241827000Y-166657750D01*
X241830034Y-166450000D01*
X241829000Y-166439500D01*
X241947922Y-166439500D01*
X242039235Y-166550765D01*
X242210843Y-166691600D01*
X242406629Y-166796250D01*
X242619069Y-166860693D01*
X242840000Y-166882453D01*
X244340000Y-166882453D01*
X244560931Y-166860693D01*
X244773371Y-166796250D01*
X244969157Y-166691600D01*
X245140765Y-166550765D01*
X245281600Y-166379157D01*
X245288391Y-166366452D01*
X245297871Y-166368820D01*
X245568798Y-166381952D01*
X245837081Y-166341976D01*
X246028769Y-166273248D01*
X246213482Y-166457961D01*
G37*
X246213482Y-166457961D02*
X246520907Y-166663376D01*
X246862499Y-166804868D01*
X247225132Y-166877000D01*
X247594868Y-166877000D01*
X247957501Y-166804868D01*
X248299093Y-166663376D01*
X248606518Y-166457961D01*
X248624979Y-166439500D01*
X248692588Y-166439500D01*
X248667547Y-166693750D01*
X248667547Y-167181250D01*
X248693990Y-167449734D01*
X248772304Y-167707900D01*
X248899479Y-167945827D01*
X249070628Y-168154372D01*
X249123000Y-168197353D01*
X249123000Y-168760616D01*
X248825385Y-168959476D01*
X248459476Y-169325385D01*
X248171983Y-169755649D01*
X247973954Y-170233732D01*
X247873000Y-170741263D01*
X247873000Y-171258737D01*
X247973954Y-171766268D01*
X248171983Y-172244351D01*
X248459476Y-172674615D01*
X248825385Y-173040524D01*
X249255649Y-173328017D01*
X249303892Y-173348000D01*
X241696108Y-173348000D01*
X241744351Y-173328017D01*
X242174615Y-173040524D01*
X242540524Y-172674615D01*
X242667403Y-172484726D01*
X244189223Y-172484726D01*
X244345322Y-172798538D01*
X244718386Y-172989246D01*
X245121487Y-173103508D01*
X245539134Y-173136935D01*
X245955278Y-173088239D01*
X246353925Y-172959294D01*
X246654678Y-172798538D01*
X246810777Y-172484726D01*
X245500000Y-171173948D01*
X244189223Y-172484726D01*
X242667403Y-172484726D01*
X242828017Y-172244351D01*
X243026046Y-171766268D01*
X243127000Y-171258737D01*
X243127000Y-171039134D01*
X243363065Y-171039134D01*
X243411761Y-171455278D01*
X243540706Y-171853925D01*
X243701462Y-172154678D01*
X244015274Y-172310777D01*
X245326052Y-171000000D01*
X245673948Y-171000000D01*
X246984726Y-172310777D01*
X247298538Y-172154678D01*
X247489246Y-171781614D01*
X247603508Y-171378513D01*
X247636935Y-170960866D01*
X247588239Y-170544722D01*
X247459294Y-170146075D01*
X247298538Y-169845322D01*
X246984726Y-169689223D01*
X245673948Y-171000000D01*
X245326052Y-171000000D01*
X244015274Y-169689223D01*
X243701462Y-169845322D01*
X243510754Y-170218386D01*
X243396492Y-170621487D01*
X243363065Y-171039134D01*
X243127000Y-171039134D01*
X243127000Y-170741263D01*
X243026046Y-170233732D01*
X242828017Y-169755649D01*
X242667404Y-169515274D01*
X244189223Y-169515274D01*
X245500000Y-170826052D01*
X246810777Y-169515274D01*
X246654678Y-169201462D01*
X246281614Y-169010754D01*
X245878513Y-168896492D01*
X245460866Y-168863065D01*
X245044722Y-168911761D01*
X244646075Y-169040706D01*
X244345322Y-169201462D01*
X244189223Y-169515274D01*
X242667404Y-169515274D01*
X242540524Y-169325385D01*
X242174615Y-168959476D01*
X241744351Y-168671983D01*
X241266268Y-168473954D01*
X240758737Y-168373000D01*
X240241263Y-168373000D01*
X239733732Y-168473954D01*
X239255649Y-168671983D01*
X238825385Y-168959476D01*
X238555456Y-169229405D01*
X237877000Y-168550949D01*
X237877000Y-167060500D01*
X238123000Y-167060500D01*
X238123000Y-167895250D01*
X238279750Y-168052000D01*
X238700000Y-168055034D01*
X238822914Y-168042928D01*
X238941104Y-168007076D01*
X239050028Y-167948854D01*
X239145501Y-167870501D01*
X239223854Y-167775028D01*
X239250000Y-167726113D01*
X239276146Y-167775028D01*
X239354499Y-167870501D01*
X239449972Y-167948854D01*
X239558896Y-168007076D01*
X239677086Y-168042928D01*
X239800000Y-168055034D01*
X240220250Y-168052000D01*
X240377000Y-167895250D01*
X240377000Y-167060500D01*
X240623000Y-167060500D01*
X240623000Y-167895250D01*
X240779750Y-168052000D01*
X241200000Y-168055034D01*
X241322914Y-168042928D01*
X241441104Y-168007076D01*
X241550028Y-167948854D01*
X241645501Y-167870501D01*
X241723854Y-167775028D01*
X241782076Y-167666104D01*
X241817928Y-167547914D01*
X241830034Y-167425000D01*
X241827000Y-167217250D01*
X241670250Y-167060500D01*
X240623000Y-167060500D01*
X240377000Y-167060500D01*
X239329750Y-167060500D01*
X239250000Y-167140250D01*
X239170250Y-167060500D01*
X238123000Y-167060500D01*
X237877000Y-167060500D01*
X237877000Y-166794500D01*
X238123000Y-166794500D01*
X238123000Y-166814500D01*
X239170250Y-166814500D01*
X239250000Y-166734750D01*
X239329750Y-166814500D01*
X240377000Y-166814500D01*
X240377000Y-166794500D01*
X240623000Y-166794500D01*
X240623000Y-166814500D01*
X241670250Y-166814500D01*
X241827000Y-166657750D01*
X241830034Y-166450000D01*
X241829000Y-166439500D01*
X241947922Y-166439500D01*
X242039235Y-166550765D01*
X242210843Y-166691600D01*
X242406629Y-166796250D01*
X242619069Y-166860693D01*
X242840000Y-166882453D01*
X244340000Y-166882453D01*
X244560931Y-166860693D01*
X244773371Y-166796250D01*
X244969157Y-166691600D01*
X245140765Y-166550765D01*
X245281600Y-166379157D01*
X245288391Y-166366452D01*
X245297871Y-166368820D01*
X245568798Y-166381952D01*
X245837081Y-166341976D01*
X246028769Y-166273248D01*
X246213482Y-166457961D01*
G36*
X199873000Y-143397262D02*
G01*
X199853032Y-143600000D01*
X199873000Y-143802738D01*
X199873000Y-147500000D01*
X199875440Y-147524776D01*
X199882667Y-147548601D01*
X199894403Y-147570557D01*
X199910197Y-147589803D01*
X199929443Y-147605597D01*
X199951399Y-147617333D01*
X199975224Y-147624560D01*
X200000000Y-147627000D01*
X203058165Y-147627000D01*
X203190967Y-147667285D01*
X203797262Y-147727000D01*
X207202738Y-147727000D01*
X207809033Y-147667285D01*
X207941835Y-147627000D01*
X213058165Y-147627000D01*
X213190967Y-147667285D01*
X213797262Y-147727000D01*
X217202738Y-147727000D01*
X217809033Y-147667285D01*
X217941835Y-147627000D01*
X221000000Y-147627000D01*
X221024776Y-147624560D01*
X221048601Y-147617333D01*
X221070557Y-147605597D01*
X221089803Y-147589803D01*
X221105597Y-147570557D01*
X221117333Y-147548601D01*
X221124560Y-147524776D01*
X221127000Y-147500000D01*
X221127000Y-143802738D01*
X221146968Y-143600000D01*
X221127000Y-143397262D01*
X221127000Y-136093526D01*
X223873000Y-136093526D01*
X223873000Y-136906474D01*
X224031598Y-137703802D01*
X224342700Y-138454868D01*
X224794350Y-139130809D01*
X225369191Y-139705650D01*
X226045132Y-140157300D01*
X226796198Y-140468402D01*
X227593526Y-140627000D01*
X228406474Y-140627000D01*
X229203802Y-140468402D01*
X229954868Y-140157300D01*
X230630809Y-139705650D01*
X231205650Y-139130809D01*
X231657300Y-138454868D01*
X231968402Y-137703802D01*
X232127000Y-136906474D01*
X232127000Y-136093526D01*
X231968402Y-135296198D01*
X231657300Y-134545132D01*
X231205650Y-133869191D01*
X230630809Y-133294350D01*
X229954868Y-132842700D01*
X229203802Y-132531598D01*
X228406474Y-132373000D01*
X227593526Y-132373000D01*
X226796198Y-132531598D01*
X226045132Y-132842700D01*
X225369191Y-133294350D01*
X224794350Y-133869191D01*
X224342700Y-134545132D01*
X224031598Y-135296198D01*
X223873000Y-136093526D01*
X221127000Y-136093526D01*
X221127000Y-130652000D01*
X234873000Y-130652000D01*
X234873000Y-143397262D01*
X234853032Y-143600000D01*
X234873000Y-143802738D01*
X234873000Y-147500000D01*
X234875440Y-147524776D01*
X234882667Y-147548601D01*
X234894403Y-147570557D01*
X234910197Y-147589803D01*
X234929443Y-147605597D01*
X234951399Y-147617333D01*
X234975224Y-147624560D01*
X235000000Y-147627000D01*
X238058165Y-147627000D01*
X238190967Y-147667285D01*
X238797262Y-147727000D01*
X242202738Y-147727000D01*
X242809033Y-147667285D01*
X242941835Y-147627000D01*
X248058165Y-147627000D01*
X248190967Y-147667285D01*
X248797262Y-147727000D01*
X252202738Y-147727000D01*
X252809033Y-147667285D01*
X252941835Y-147627000D01*
X255848001Y-147627000D01*
X255848000Y-173348000D01*
X251696108Y-173348000D01*
X251744351Y-173328017D01*
X252174615Y-173040524D01*
X252540524Y-172674615D01*
X252828017Y-172244351D01*
X253026046Y-171766268D01*
X253127000Y-171258737D01*
X253127000Y-170741263D01*
X253026046Y-170233732D01*
X252828017Y-169755649D01*
X252540524Y-169325385D01*
X252174615Y-168959476D01*
X251877000Y-168760616D01*
X251877000Y-168377811D01*
X252017100Y-168452696D01*
X252275266Y-168531010D01*
X252543750Y-168557453D01*
X253456250Y-168557453D01*
X253724734Y-168531010D01*
X253982900Y-168452696D01*
X254220827Y-168325521D01*
X254429372Y-168154372D01*
X254600521Y-167945827D01*
X254727696Y-167707900D01*
X254806010Y-167449734D01*
X254832453Y-167181250D01*
X254832453Y-166693750D01*
X254806010Y-166425266D01*
X254727696Y-166167100D01*
X254600521Y-165929173D01*
X254429372Y-165720628D01*
X254321914Y-165632440D01*
X254330034Y-165550000D01*
X254327000Y-165342250D01*
X254170250Y-165185500D01*
X253123000Y-165185500D01*
X253123000Y-165205500D01*
X252877000Y-165205500D01*
X252877000Y-165185500D01*
X252857000Y-165185500D01*
X252857000Y-164939500D01*
X252877000Y-164939500D01*
X252877000Y-164104750D01*
X253123000Y-164104750D01*
X253123000Y-164939500D01*
X254170250Y-164939500D01*
X254327000Y-164782750D01*
X254330034Y-164575000D01*
X254317928Y-164452086D01*
X254282076Y-164333896D01*
X254223854Y-164224972D01*
X254145501Y-164129499D01*
X254050028Y-164051146D01*
X253941104Y-163992924D01*
X253822914Y-163957072D01*
X253700000Y-163944966D01*
X253279750Y-163948000D01*
X253123000Y-164104750D01*
X252877000Y-164104750D01*
X252720250Y-163948000D01*
X252300000Y-163944966D01*
X252177086Y-163957072D01*
X252058896Y-163992924D01*
X252052890Y-163996134D01*
X251929372Y-163845628D01*
X251720827Y-163674479D01*
X251482900Y-163547304D01*
X251224734Y-163468990D01*
X250956250Y-163442547D01*
X250043750Y-163442547D01*
X249775266Y-163468990D01*
X249517100Y-163547304D01*
X249279173Y-163674479D01*
X249265744Y-163685500D01*
X248749979Y-163685500D01*
X248606518Y-163542039D01*
X248299093Y-163336624D01*
X247957501Y-163195132D01*
X247594868Y-163123000D01*
X247225132Y-163123000D01*
X246862499Y-163195132D01*
X246520907Y-163336624D01*
X246213482Y-163542039D01*
X246028677Y-163726844D01*
X245965289Y-163696915D01*
X245702129Y-163631180D01*
X245431202Y-163618048D01*
X245291252Y-163638901D01*
X245281600Y-163620843D01*
X245140765Y-163449235D01*
X244969157Y-163308400D01*
X244773371Y-163203750D01*
X244560931Y-163139307D01*
X244340000Y-163117547D01*
X242840000Y-163117547D01*
X242619069Y-163139307D01*
X242406629Y-163203750D01*
X242210843Y-163308400D01*
X242039235Y-163449235D01*
X241898400Y-163620843D01*
X241863840Y-163685500D01*
X241734256Y-163685500D01*
X241720827Y-163674479D01*
X241482900Y-163547304D01*
X241224734Y-163468990D01*
X240956250Y-163442547D01*
X240043750Y-163442547D01*
X239775266Y-163468990D01*
X239517100Y-163547304D01*
X239279173Y-163674479D01*
X239265744Y-163685500D01*
X239234256Y-163685500D01*
X239220827Y-163674479D01*
X238982900Y-163547304D01*
X238724734Y-163468990D01*
X238456250Y-163442547D01*
X237543750Y-163442547D01*
X237275266Y-163468990D01*
X237017100Y-163547304D01*
X236779173Y-163674479D01*
X236751544Y-163697153D01*
X236667561Y-163705425D01*
X236407995Y-163784163D01*
X236168779Y-163912027D01*
X235959103Y-164084103D01*
X235915979Y-164136650D01*
X235574146Y-164478483D01*
X235521604Y-164521603D01*
X235350528Y-164730061D01*
X235349528Y-164731279D01*
X235221663Y-164970496D01*
X235142925Y-165230061D01*
X235116338Y-165500000D01*
X235123001Y-165567649D01*
X235123000Y-169053680D01*
X235116338Y-169121320D01*
X235142925Y-169391259D01*
X235213223Y-169623000D01*
X235221663Y-169650824D01*
X235349527Y-169890040D01*
X235521603Y-170099716D01*
X235574146Y-170142837D01*
X237357163Y-171925855D01*
X237400283Y-171978397D01*
X237609959Y-172150473D01*
X237849175Y-172278337D01*
X237956116Y-172310777D01*
X238108740Y-172357075D01*
X238257064Y-172371684D01*
X238459476Y-172674615D01*
X238825385Y-173040524D01*
X239255649Y-173328017D01*
X239303892Y-173348000D01*
X216696108Y-173348000D01*
X216744351Y-173328017D01*
X217174615Y-173040524D01*
X217540524Y-172674615D01*
X217828017Y-172244351D01*
X218026046Y-171766268D01*
X218127000Y-171258737D01*
X218127000Y-170741263D01*
X218026046Y-170233732D01*
X217828017Y-169755649D01*
X217540524Y-169325385D01*
X217174615Y-168959476D01*
X216877000Y-168760616D01*
X216877000Y-168377811D01*
X217017100Y-168452696D01*
X217275266Y-168531010D01*
X217543750Y-168557453D01*
X218456250Y-168557453D01*
X218724734Y-168531010D01*
X218982900Y-168452696D01*
X219220827Y-168325521D01*
X219429372Y-168154372D01*
X219600521Y-167945827D01*
X219727696Y-167707900D01*
X219806010Y-167449734D01*
X219832453Y-167181250D01*
X219832453Y-166693750D01*
X219822582Y-166593526D01*
X223873000Y-166593526D01*
X223873000Y-167406474D01*
X224031598Y-168203802D01*
X224342700Y-168954868D01*
X224794350Y-169630809D01*
X225369191Y-170205650D01*
X226045132Y-170657300D01*
X226796198Y-170968402D01*
X227593526Y-171127000D01*
X228406474Y-171127000D01*
X229203802Y-170968402D01*
X229954868Y-170657300D01*
X230630809Y-170205650D01*
X231205650Y-169630809D01*
X231657300Y-168954868D01*
X231968402Y-168203802D01*
X232127000Y-167406474D01*
X232127000Y-166593526D01*
X231968402Y-165796198D01*
X231657300Y-165045132D01*
X231205650Y-164369191D01*
X230630809Y-163794350D01*
X229954868Y-163342700D01*
X229203802Y-163031598D01*
X228406474Y-162873000D01*
X227593526Y-162873000D01*
X226796198Y-163031598D01*
X226045132Y-163342700D01*
X225369191Y-163794350D01*
X224794350Y-164369191D01*
X224342700Y-165045132D01*
X224031598Y-165796198D01*
X223873000Y-166593526D01*
X219822582Y-166593526D01*
X219806010Y-166425266D01*
X219727696Y-166167100D01*
X219600521Y-165929173D01*
X219429372Y-165720628D01*
X219321914Y-165632440D01*
X219330034Y-165550000D01*
X219327000Y-165342250D01*
X219170250Y-165185500D01*
X218123000Y-165185500D01*
X218123000Y-165205500D01*
X217877000Y-165205500D01*
X217877000Y-165185500D01*
X217857000Y-165185500D01*
X217857000Y-164939500D01*
X217877000Y-164939500D01*
X217877000Y-164104750D01*
X218123000Y-164104750D01*
X218123000Y-164939500D01*
X219170250Y-164939500D01*
X219327000Y-164782750D01*
X219330034Y-164575000D01*
X219317928Y-164452086D01*
X219282076Y-164333896D01*
X219223854Y-164224972D01*
X219145501Y-164129499D01*
X219050028Y-164051146D01*
X218941104Y-163992924D01*
X218822914Y-163957072D01*
X218700000Y-163944966D01*
X218279750Y-163948000D01*
X218123000Y-164104750D01*
X217877000Y-164104750D01*
X217720250Y-163948000D01*
X217300000Y-163944966D01*
X217177086Y-163957072D01*
X217058896Y-163992924D01*
X217052890Y-163996134D01*
X216929372Y-163845628D01*
X216720827Y-163674479D01*
X216482900Y-163547304D01*
X216224734Y-163468990D01*
X215956250Y-163442547D01*
X215043750Y-163442547D01*
X214775266Y-163468990D01*
X214517100Y-163547304D01*
X214279173Y-163674479D01*
X214265744Y-163685500D01*
X213749979Y-163685500D01*
X213606518Y-163542039D01*
X213299093Y-163336624D01*
X212957501Y-163195132D01*
X212594868Y-163123000D01*
X212225132Y-163123000D01*
X211862499Y-163195132D01*
X211520907Y-163336624D01*
X211213482Y-163542039D01*
X211028677Y-163726844D01*
X210965289Y-163696915D01*
X210702129Y-163631180D01*
X210431202Y-163618048D01*
X210291252Y-163638901D01*
X210281600Y-163620843D01*
X210140765Y-163449235D01*
X209969157Y-163308400D01*
X209773371Y-163203750D01*
X209560931Y-163139307D01*
X209340000Y-163117547D01*
X207840000Y-163117547D01*
X207619069Y-163139307D01*
X207406629Y-163203750D01*
X207210843Y-163308400D01*
X207039235Y-163449235D01*
X206898400Y-163620843D01*
X206863840Y-163685500D01*
X206734256Y-163685500D01*
X206720827Y-163674479D01*
X206482900Y-163547304D01*
X206224734Y-163468990D01*
X205956250Y-163442547D01*
X205043750Y-163442547D01*
X204775266Y-163468990D01*
X204517100Y-163547304D01*
X204279173Y-163674479D01*
X204265744Y-163685500D01*
X204234256Y-163685500D01*
X204220827Y-163674479D01*
X203982900Y-163547304D01*
X203724734Y-163468990D01*
X203456250Y-163442547D01*
X202543750Y-163442547D01*
X202275266Y-163468990D01*
X202017100Y-163547304D01*
X201779173Y-163674479D01*
X201751544Y-163697153D01*
X201667561Y-163705425D01*
X201407995Y-163784163D01*
X201168779Y-163912027D01*
X200959103Y-164084103D01*
X200915979Y-164136650D01*
X200574146Y-164478483D01*
X200521604Y-164521603D01*
X200350528Y-164730061D01*
X200349528Y-164731279D01*
X200221663Y-164970496D01*
X200142925Y-165230061D01*
X200116338Y-165500000D01*
X200123001Y-165567649D01*
X200123000Y-169053680D01*
X200116338Y-169121320D01*
X200142925Y-169391259D01*
X200213223Y-169623000D01*
X200221663Y-169650824D01*
X200349527Y-169890040D01*
X200521603Y-170099716D01*
X200574146Y-170142837D01*
X202357163Y-171925855D01*
X202400283Y-171978397D01*
X202609959Y-172150473D01*
X202849175Y-172278337D01*
X202956116Y-172310777D01*
X203108740Y-172357075D01*
X203257064Y-172371684D01*
X203459476Y-172674615D01*
X203825385Y-173040524D01*
X204255649Y-173328017D01*
X204303892Y-173348000D01*
X189152000Y-173348000D01*
X189152000Y-168494478D01*
X189342700Y-168954868D01*
X189794350Y-169630809D01*
X190369191Y-170205650D01*
X191045132Y-170657300D01*
X191796198Y-170968402D01*
X192593526Y-171127000D01*
X193406474Y-171127000D01*
X194203802Y-170968402D01*
X194954868Y-170657300D01*
X195630809Y-170205650D01*
X196205650Y-169630809D01*
X196657300Y-168954868D01*
X196968402Y-168203802D01*
X197127000Y-167406474D01*
X197127000Y-166593526D01*
X196968402Y-165796198D01*
X196657300Y-165045132D01*
X196205650Y-164369191D01*
X195630809Y-163794350D01*
X194954868Y-163342700D01*
X194203802Y-163031598D01*
X193406474Y-162873000D01*
X192593526Y-162873000D01*
X191796198Y-163031598D01*
X191045132Y-163342700D01*
X190369191Y-163794350D01*
X189794350Y-164369191D01*
X189342700Y-165045132D01*
X189152000Y-165505522D01*
X189152000Y-159925000D01*
X226669966Y-159925000D01*
X226682072Y-160047914D01*
X226717924Y-160166104D01*
X226776146Y-160275028D01*
X226854499Y-160370501D01*
X226949972Y-160448854D01*
X227058896Y-160507076D01*
X227177086Y-160542928D01*
X227300000Y-160555034D01*
X227720250Y-160552000D01*
X227877000Y-160395250D01*
X227877000Y-159560500D01*
X228123000Y-159560500D01*
X228123000Y-160395250D01*
X228279750Y-160552000D01*
X228700000Y-160555034D01*
X228822914Y-160542928D01*
X228941104Y-160507076D01*
X229050028Y-160448854D01*
X229145501Y-160370501D01*
X229223854Y-160275028D01*
X229282076Y-160166104D01*
X229317928Y-160047914D01*
X229330034Y-159925000D01*
X229327000Y-159717250D01*
X229170250Y-159560500D01*
X228123000Y-159560500D01*
X227877000Y-159560500D01*
X226829750Y-159560500D01*
X226673000Y-159717250D01*
X226669966Y-159925000D01*
X189152000Y-159925000D01*
X189152000Y-151241263D01*
X225373000Y-151241263D01*
X225373000Y-151758737D01*
X225473954Y-152266268D01*
X225671983Y-152744351D01*
X225959476Y-153174615D01*
X226325385Y-153540524D01*
X226623000Y-153739384D01*
X226623001Y-156302647D01*
X226570628Y-156345628D01*
X226399479Y-156554173D01*
X226272304Y-156792100D01*
X226193990Y-157050266D01*
X226167547Y-157318750D01*
X226167547Y-157806250D01*
X226193990Y-158074734D01*
X226272304Y-158332900D01*
X226399479Y-158570827D01*
X226570628Y-158779372D01*
X226678086Y-158867560D01*
X226669966Y-158950000D01*
X226673000Y-159157750D01*
X226829750Y-159314500D01*
X227877000Y-159314500D01*
X227877000Y-159294500D01*
X228123000Y-159294500D01*
X228123000Y-159314500D01*
X229170250Y-159314500D01*
X229327000Y-159157750D01*
X229330034Y-158950000D01*
X229321914Y-158867560D01*
X229429372Y-158779372D01*
X229600521Y-158570827D01*
X229727696Y-158332900D01*
X229806010Y-158074734D01*
X229832453Y-157806250D01*
X229832453Y-157318750D01*
X229806010Y-157050266D01*
X229727696Y-156792100D01*
X229600521Y-156554173D01*
X229429372Y-156345628D01*
X229377000Y-156302647D01*
X229377000Y-153739384D01*
X229674615Y-153540524D01*
X230040524Y-153174615D01*
X230328017Y-152744351D01*
X230526046Y-152266268D01*
X230627000Y-151758737D01*
X230627000Y-151241263D01*
X230526046Y-150733732D01*
X230328017Y-150255649D01*
X230040524Y-149825385D01*
X229674615Y-149459476D01*
X229244351Y-149171983D01*
X228766268Y-148973954D01*
X228258737Y-148873000D01*
X227741263Y-148873000D01*
X227233732Y-148973954D01*
X226755649Y-149171983D01*
X226325385Y-149459476D01*
X225959476Y-149825385D01*
X225671983Y-150255649D01*
X225473954Y-150733732D01*
X225373000Y-151241263D01*
X189152000Y-151241263D01*
X189152000Y-137994478D01*
X189342700Y-138454868D01*
X189794350Y-139130809D01*
X190369191Y-139705650D01*
X191045132Y-140157300D01*
X191796198Y-140468402D01*
X192593526Y-140627000D01*
X193406474Y-140627000D01*
X194203802Y-140468402D01*
X194954868Y-140157300D01*
X195630809Y-139705650D01*
X196205650Y-139130809D01*
X196657300Y-138454868D01*
X196968402Y-137703802D01*
X197127000Y-136906474D01*
X197127000Y-136093526D01*
X196968402Y-135296198D01*
X196657300Y-134545132D01*
X196205650Y-133869191D01*
X195630809Y-133294350D01*
X194954868Y-132842700D01*
X194203802Y-132531598D01*
X193406474Y-132373000D01*
X192593526Y-132373000D01*
X191796198Y-132531598D01*
X191045132Y-132842700D01*
X190369191Y-133294350D01*
X189794350Y-133869191D01*
X189342700Y-134545132D01*
X189152000Y-135005522D01*
X189152000Y-130652000D01*
X199873000Y-130652000D01*
X199873000Y-143397262D01*
G37*
X199873000Y-143397262D02*
X199853032Y-143600000D01*
X199873000Y-143802738D01*
X199873000Y-147500000D01*
X199875440Y-147524776D01*
X199882667Y-147548601D01*
X199894403Y-147570557D01*
X199910197Y-147589803D01*
X199929443Y-147605597D01*
X199951399Y-147617333D01*
X199975224Y-147624560D01*
X200000000Y-147627000D01*
X203058165Y-147627000D01*
X203190967Y-147667285D01*
X203797262Y-147727000D01*
X207202738Y-147727000D01*
X207809033Y-147667285D01*
X207941835Y-147627000D01*
X213058165Y-147627000D01*
X213190967Y-147667285D01*
X213797262Y-147727000D01*
X217202738Y-147727000D01*
X217809033Y-147667285D01*
X217941835Y-147627000D01*
X221000000Y-147627000D01*
X221024776Y-147624560D01*
X221048601Y-147617333D01*
X221070557Y-147605597D01*
X221089803Y-147589803D01*
X221105597Y-147570557D01*
X221117333Y-147548601D01*
X221124560Y-147524776D01*
X221127000Y-147500000D01*
X221127000Y-143802738D01*
X221146968Y-143600000D01*
X221127000Y-143397262D01*
X221127000Y-136093526D01*
X223873000Y-136093526D01*
X223873000Y-136906474D01*
X224031598Y-137703802D01*
X224342700Y-138454868D01*
X224794350Y-139130809D01*
X225369191Y-139705650D01*
X226045132Y-140157300D01*
X226796198Y-140468402D01*
X227593526Y-140627000D01*
X228406474Y-140627000D01*
X229203802Y-140468402D01*
X229954868Y-140157300D01*
X230630809Y-139705650D01*
X231205650Y-139130809D01*
X231657300Y-138454868D01*
X231968402Y-137703802D01*
X232127000Y-136906474D01*
X232127000Y-136093526D01*
X231968402Y-135296198D01*
X231657300Y-134545132D01*
X231205650Y-133869191D01*
X230630809Y-133294350D01*
X229954868Y-132842700D01*
X229203802Y-132531598D01*
X228406474Y-132373000D01*
X227593526Y-132373000D01*
X226796198Y-132531598D01*
X226045132Y-132842700D01*
X225369191Y-133294350D01*
X224794350Y-133869191D01*
X224342700Y-134545132D01*
X224031598Y-135296198D01*
X223873000Y-136093526D01*
X221127000Y-136093526D01*
X221127000Y-130652000D01*
X234873000Y-130652000D01*
X234873000Y-143397262D01*
X234853032Y-143600000D01*
X234873000Y-143802738D01*
X234873000Y-147500000D01*
X234875440Y-147524776D01*
X234882667Y-147548601D01*
X234894403Y-147570557D01*
X234910197Y-147589803D01*
X234929443Y-147605597D01*
X234951399Y-147617333D01*
X234975224Y-147624560D01*
X235000000Y-147627000D01*
X238058165Y-147627000D01*
X238190967Y-147667285D01*
X238797262Y-147727000D01*
X242202738Y-147727000D01*
X242809033Y-147667285D01*
X242941835Y-147627000D01*
X248058165Y-147627000D01*
X248190967Y-147667285D01*
X248797262Y-147727000D01*
X252202738Y-147727000D01*
X252809033Y-147667285D01*
X252941835Y-147627000D01*
X255848001Y-147627000D01*
X255848000Y-173348000D01*
X251696108Y-173348000D01*
X251744351Y-173328017D01*
X252174615Y-173040524D01*
X252540524Y-172674615D01*
X252828017Y-172244351D01*
X253026046Y-171766268D01*
X253127000Y-171258737D01*
X253127000Y-170741263D01*
X253026046Y-170233732D01*
X252828017Y-169755649D01*
X252540524Y-169325385D01*
X252174615Y-168959476D01*
X251877000Y-168760616D01*
X251877000Y-168377811D01*
X252017100Y-168452696D01*
X252275266Y-168531010D01*
X252543750Y-168557453D01*
X253456250Y-168557453D01*
X253724734Y-168531010D01*
X253982900Y-168452696D01*
X254220827Y-168325521D01*
X254429372Y-168154372D01*
X254600521Y-167945827D01*
X254727696Y-167707900D01*
X254806010Y-167449734D01*
X254832453Y-167181250D01*
X254832453Y-166693750D01*
X254806010Y-166425266D01*
X254727696Y-166167100D01*
X254600521Y-165929173D01*
X254429372Y-165720628D01*
X254321914Y-165632440D01*
X254330034Y-165550000D01*
X254327000Y-165342250D01*
X254170250Y-165185500D01*
X253123000Y-165185500D01*
X253123000Y-165205500D01*
X252877000Y-165205500D01*
X252877000Y-165185500D01*
X252857000Y-165185500D01*
X252857000Y-164939500D01*
X252877000Y-164939500D01*
X252877000Y-164104750D01*
X253123000Y-164104750D01*
X253123000Y-164939500D01*
X254170250Y-164939500D01*
X254327000Y-164782750D01*
X254330034Y-164575000D01*
X254317928Y-164452086D01*
X254282076Y-164333896D01*
X254223854Y-164224972D01*
X254145501Y-164129499D01*
X254050028Y-164051146D01*
X253941104Y-163992924D01*
X253822914Y-163957072D01*
X253700000Y-163944966D01*
X253279750Y-163948000D01*
X253123000Y-164104750D01*
X252877000Y-164104750D01*
X252720250Y-163948000D01*
X252300000Y-163944966D01*
X252177086Y-163957072D01*
X252058896Y-163992924D01*
X252052890Y-163996134D01*
X251929372Y-163845628D01*
X251720827Y-163674479D01*
X251482900Y-163547304D01*
X251224734Y-163468990D01*
X250956250Y-163442547D01*
X250043750Y-163442547D01*
X249775266Y-163468990D01*
X249517100Y-163547304D01*
X249279173Y-163674479D01*
X249265744Y-163685500D01*
X248749979Y-163685500D01*
X248606518Y-163542039D01*
X248299093Y-163336624D01*
X247957501Y-163195132D01*
X247594868Y-163123000D01*
X247225132Y-163123000D01*
X246862499Y-163195132D01*
X246520907Y-163336624D01*
X246213482Y-163542039D01*
X246028677Y-163726844D01*
X245965289Y-163696915D01*
X245702129Y-163631180D01*
X245431202Y-163618048D01*
X245291252Y-163638901D01*
X245281600Y-163620843D01*
X245140765Y-163449235D01*
X244969157Y-163308400D01*
X244773371Y-163203750D01*
X244560931Y-163139307D01*
X244340000Y-163117547D01*
X242840000Y-163117547D01*
X242619069Y-163139307D01*
X242406629Y-163203750D01*
X242210843Y-163308400D01*
X242039235Y-163449235D01*
X241898400Y-163620843D01*
X241863840Y-163685500D01*
X241734256Y-163685500D01*
X241720827Y-163674479D01*
X241482900Y-163547304D01*
X241224734Y-163468990D01*
X240956250Y-163442547D01*
X240043750Y-163442547D01*
X239775266Y-163468990D01*
X239517100Y-163547304D01*
X239279173Y-163674479D01*
X239265744Y-163685500D01*
X239234256Y-163685500D01*
X239220827Y-163674479D01*
X238982900Y-163547304D01*
X238724734Y-163468990D01*
X238456250Y-163442547D01*
X237543750Y-163442547D01*
X237275266Y-163468990D01*
X237017100Y-163547304D01*
X236779173Y-163674479D01*
X236751544Y-163697153D01*
X236667561Y-163705425D01*
X236407995Y-163784163D01*
X236168779Y-163912027D01*
X235959103Y-164084103D01*
X235915979Y-164136650D01*
X235574146Y-164478483D01*
X235521604Y-164521603D01*
X235350528Y-164730061D01*
X235349528Y-164731279D01*
X235221663Y-164970496D01*
X235142925Y-165230061D01*
X235116338Y-165500000D01*
X235123001Y-165567649D01*
X235123000Y-169053680D01*
X235116338Y-169121320D01*
X235142925Y-169391259D01*
X235213223Y-169623000D01*
X235221663Y-169650824D01*
X235349527Y-169890040D01*
X235521603Y-170099716D01*
X235574146Y-170142837D01*
X237357163Y-171925855D01*
X237400283Y-171978397D01*
X237609959Y-172150473D01*
X237849175Y-172278337D01*
X237956116Y-172310777D01*
X238108740Y-172357075D01*
X238257064Y-172371684D01*
X238459476Y-172674615D01*
X238825385Y-173040524D01*
X239255649Y-173328017D01*
X239303892Y-173348000D01*
X216696108Y-173348000D01*
X216744351Y-173328017D01*
X217174615Y-173040524D01*
X217540524Y-172674615D01*
X217828017Y-172244351D01*
X218026046Y-171766268D01*
X218127000Y-171258737D01*
X218127000Y-170741263D01*
X218026046Y-170233732D01*
X217828017Y-169755649D01*
X217540524Y-169325385D01*
X217174615Y-168959476D01*
X216877000Y-168760616D01*
X216877000Y-168377811D01*
X217017100Y-168452696D01*
X217275266Y-168531010D01*
X217543750Y-168557453D01*
X218456250Y-168557453D01*
X218724734Y-168531010D01*
X218982900Y-168452696D01*
X219220827Y-168325521D01*
X219429372Y-168154372D01*
X219600521Y-167945827D01*
X219727696Y-167707900D01*
X219806010Y-167449734D01*
X219832453Y-167181250D01*
X219832453Y-166693750D01*
X219822582Y-166593526D01*
X223873000Y-166593526D01*
X223873000Y-167406474D01*
X224031598Y-168203802D01*
X224342700Y-168954868D01*
X224794350Y-169630809D01*
X225369191Y-170205650D01*
X226045132Y-170657300D01*
X226796198Y-170968402D01*
X227593526Y-171127000D01*
X228406474Y-171127000D01*
X229203802Y-170968402D01*
X229954868Y-170657300D01*
X230630809Y-170205650D01*
X231205650Y-169630809D01*
X231657300Y-168954868D01*
X231968402Y-168203802D01*
X232127000Y-167406474D01*
X232127000Y-166593526D01*
X231968402Y-165796198D01*
X231657300Y-165045132D01*
X231205650Y-164369191D01*
X230630809Y-163794350D01*
X229954868Y-163342700D01*
X229203802Y-163031598D01*
X228406474Y-162873000D01*
X227593526Y-162873000D01*
X226796198Y-163031598D01*
X226045132Y-163342700D01*
X225369191Y-163794350D01*
X224794350Y-164369191D01*
X224342700Y-165045132D01*
X224031598Y-165796198D01*
X223873000Y-166593526D01*
X219822582Y-166593526D01*
X219806010Y-166425266D01*
X219727696Y-166167100D01*
X219600521Y-165929173D01*
X219429372Y-165720628D01*
X219321914Y-165632440D01*
X219330034Y-165550000D01*
X219327000Y-165342250D01*
X219170250Y-165185500D01*
X218123000Y-165185500D01*
X218123000Y-165205500D01*
X217877000Y-165205500D01*
X217877000Y-165185500D01*
X217857000Y-165185500D01*
X217857000Y-164939500D01*
X217877000Y-164939500D01*
X217877000Y-164104750D01*
X218123000Y-164104750D01*
X218123000Y-164939500D01*
X219170250Y-164939500D01*
X219327000Y-164782750D01*
X219330034Y-164575000D01*
X219317928Y-164452086D01*
X219282076Y-164333896D01*
X219223854Y-164224972D01*
X219145501Y-164129499D01*
X219050028Y-164051146D01*
X218941104Y-163992924D01*
X218822914Y-163957072D01*
X218700000Y-163944966D01*
X218279750Y-163948000D01*
X218123000Y-164104750D01*
X217877000Y-164104750D01*
X217720250Y-163948000D01*
X217300000Y-163944966D01*
X217177086Y-163957072D01*
X217058896Y-163992924D01*
X217052890Y-163996134D01*
X216929372Y-163845628D01*
X216720827Y-163674479D01*
X216482900Y-163547304D01*
X216224734Y-163468990D01*
X215956250Y-163442547D01*
X215043750Y-163442547D01*
X214775266Y-163468990D01*
X214517100Y-163547304D01*
X214279173Y-163674479D01*
X214265744Y-163685500D01*
X213749979Y-163685500D01*
X213606518Y-163542039D01*
X213299093Y-163336624D01*
X212957501Y-163195132D01*
X212594868Y-163123000D01*
X212225132Y-163123000D01*
X211862499Y-163195132D01*
X211520907Y-163336624D01*
X211213482Y-163542039D01*
X211028677Y-163726844D01*
X210965289Y-163696915D01*
X210702129Y-163631180D01*
X210431202Y-163618048D01*
X210291252Y-163638901D01*
X210281600Y-163620843D01*
X210140765Y-163449235D01*
X209969157Y-163308400D01*
X209773371Y-163203750D01*
X209560931Y-163139307D01*
X209340000Y-163117547D01*
X207840000Y-163117547D01*
X207619069Y-163139307D01*
X207406629Y-163203750D01*
X207210843Y-163308400D01*
X207039235Y-163449235D01*
X206898400Y-163620843D01*
X206863840Y-163685500D01*
X206734256Y-163685500D01*
X206720827Y-163674479D01*
X206482900Y-163547304D01*
X206224734Y-163468990D01*
X205956250Y-163442547D01*
X205043750Y-163442547D01*
X204775266Y-163468990D01*
X204517100Y-163547304D01*
X204279173Y-163674479D01*
X204265744Y-163685500D01*
X204234256Y-163685500D01*
X204220827Y-163674479D01*
X203982900Y-163547304D01*
X203724734Y-163468990D01*
X203456250Y-163442547D01*
X202543750Y-163442547D01*
X202275266Y-163468990D01*
X202017100Y-163547304D01*
X201779173Y-163674479D01*
X201751544Y-163697153D01*
X201667561Y-163705425D01*
X201407995Y-163784163D01*
X201168779Y-163912027D01*
X200959103Y-164084103D01*
X200915979Y-164136650D01*
X200574146Y-164478483D01*
X200521604Y-164521603D01*
X200350528Y-164730061D01*
X200349528Y-164731279D01*
X200221663Y-164970496D01*
X200142925Y-165230061D01*
X200116338Y-165500000D01*
X200123001Y-165567649D01*
X200123000Y-169053680D01*
X200116338Y-169121320D01*
X200142925Y-169391259D01*
X200213223Y-169623000D01*
X200221663Y-169650824D01*
X200349527Y-169890040D01*
X200521603Y-170099716D01*
X200574146Y-170142837D01*
X202357163Y-171925855D01*
X202400283Y-171978397D01*
X202609959Y-172150473D01*
X202849175Y-172278337D01*
X202956116Y-172310777D01*
X203108740Y-172357075D01*
X203257064Y-172371684D01*
X203459476Y-172674615D01*
X203825385Y-173040524D01*
X204255649Y-173328017D01*
X204303892Y-173348000D01*
X189152000Y-173348000D01*
X189152000Y-168494478D01*
X189342700Y-168954868D01*
X189794350Y-169630809D01*
X190369191Y-170205650D01*
X191045132Y-170657300D01*
X191796198Y-170968402D01*
X192593526Y-171127000D01*
X193406474Y-171127000D01*
X194203802Y-170968402D01*
X194954868Y-170657300D01*
X195630809Y-170205650D01*
X196205650Y-169630809D01*
X196657300Y-168954868D01*
X196968402Y-168203802D01*
X197127000Y-167406474D01*
X197127000Y-166593526D01*
X196968402Y-165796198D01*
X196657300Y-165045132D01*
X196205650Y-164369191D01*
X195630809Y-163794350D01*
X194954868Y-163342700D01*
X194203802Y-163031598D01*
X193406474Y-162873000D01*
X192593526Y-162873000D01*
X191796198Y-163031598D01*
X191045132Y-163342700D01*
X190369191Y-163794350D01*
X189794350Y-164369191D01*
X189342700Y-165045132D01*
X189152000Y-165505522D01*
X189152000Y-159925000D01*
X226669966Y-159925000D01*
X226682072Y-160047914D01*
X226717924Y-160166104D01*
X226776146Y-160275028D01*
X226854499Y-160370501D01*
X226949972Y-160448854D01*
X227058896Y-160507076D01*
X227177086Y-160542928D01*
X227300000Y-160555034D01*
X227720250Y-160552000D01*
X227877000Y-160395250D01*
X227877000Y-159560500D01*
X228123000Y-159560500D01*
X228123000Y-160395250D01*
X228279750Y-160552000D01*
X228700000Y-160555034D01*
X228822914Y-160542928D01*
X228941104Y-160507076D01*
X229050028Y-160448854D01*
X229145501Y-160370501D01*
X229223854Y-160275028D01*
X229282076Y-160166104D01*
X229317928Y-160047914D01*
X229330034Y-159925000D01*
X229327000Y-159717250D01*
X229170250Y-159560500D01*
X228123000Y-159560500D01*
X227877000Y-159560500D01*
X226829750Y-159560500D01*
X226673000Y-159717250D01*
X226669966Y-159925000D01*
X189152000Y-159925000D01*
X189152000Y-151241263D01*
X225373000Y-151241263D01*
X225373000Y-151758737D01*
X225473954Y-152266268D01*
X225671983Y-152744351D01*
X225959476Y-153174615D01*
X226325385Y-153540524D01*
X226623000Y-153739384D01*
X226623001Y-156302647D01*
X226570628Y-156345628D01*
X226399479Y-156554173D01*
X226272304Y-156792100D01*
X226193990Y-157050266D01*
X226167547Y-157318750D01*
X226167547Y-157806250D01*
X226193990Y-158074734D01*
X226272304Y-158332900D01*
X226399479Y-158570827D01*
X226570628Y-158779372D01*
X226678086Y-158867560D01*
X226669966Y-158950000D01*
X226673000Y-159157750D01*
X226829750Y-159314500D01*
X227877000Y-159314500D01*
X227877000Y-159294500D01*
X228123000Y-159294500D01*
X228123000Y-159314500D01*
X229170250Y-159314500D01*
X229327000Y-159157750D01*
X229330034Y-158950000D01*
X229321914Y-158867560D01*
X229429372Y-158779372D01*
X229600521Y-158570827D01*
X229727696Y-158332900D01*
X229806010Y-158074734D01*
X229832453Y-157806250D01*
X229832453Y-157318750D01*
X229806010Y-157050266D01*
X229727696Y-156792100D01*
X229600521Y-156554173D01*
X229429372Y-156345628D01*
X229377000Y-156302647D01*
X229377000Y-153739384D01*
X229674615Y-153540524D01*
X230040524Y-153174615D01*
X230328017Y-152744351D01*
X230526046Y-152266268D01*
X230627000Y-151758737D01*
X230627000Y-151241263D01*
X230526046Y-150733732D01*
X230328017Y-150255649D01*
X230040524Y-149825385D01*
X229674615Y-149459476D01*
X229244351Y-149171983D01*
X228766268Y-148973954D01*
X228258737Y-148873000D01*
X227741263Y-148873000D01*
X227233732Y-148973954D01*
X226755649Y-149171983D01*
X226325385Y-149459476D01*
X225959476Y-149825385D01*
X225671983Y-150255649D01*
X225473954Y-150733732D01*
X225373000Y-151241263D01*
X189152000Y-151241263D01*
X189152000Y-137994478D01*
X189342700Y-138454868D01*
X189794350Y-139130809D01*
X190369191Y-139705650D01*
X191045132Y-140157300D01*
X191796198Y-140468402D01*
X192593526Y-140627000D01*
X193406474Y-140627000D01*
X194203802Y-140468402D01*
X194954868Y-140157300D01*
X195630809Y-139705650D01*
X196205650Y-139130809D01*
X196657300Y-138454868D01*
X196968402Y-137703802D01*
X197127000Y-136906474D01*
X197127000Y-136093526D01*
X196968402Y-135296198D01*
X196657300Y-134545132D01*
X196205650Y-133869191D01*
X195630809Y-133294350D01*
X194954868Y-132842700D01*
X194203802Y-132531598D01*
X193406474Y-132373000D01*
X192593526Y-132373000D01*
X191796198Y-132531598D01*
X191045132Y-132842700D01*
X190369191Y-133294350D01*
X189794350Y-133869191D01*
X189342700Y-134545132D01*
X189152000Y-135005522D01*
X189152000Y-130652000D01*
X199873000Y-130652000D01*
X199873000Y-143397262D01*
G36*
X210533000Y-164830767D02*
G01*
X210533000Y-165169233D01*
X210514143Y-165188091D01*
X210500000Y-165173948D01*
X210485858Y-165188091D01*
X210472453Y-165174686D01*
X210472453Y-164825314D01*
X210485858Y-164811910D01*
X210500000Y-164826052D01*
X210514143Y-164811910D01*
X210533000Y-164830767D01*
G37*
X210533000Y-164830767D02*
X210533000Y-165169233D01*
X210514143Y-165188091D01*
X210500000Y-165173948D01*
X210485858Y-165188091D01*
X210472453Y-165174686D01*
X210472453Y-164825314D01*
X210485858Y-164811910D01*
X210500000Y-164826052D01*
X210514143Y-164811910D01*
X210533000Y-164830767D01*
G36*
X245533000Y-164830767D02*
G01*
X245533000Y-165169233D01*
X245514143Y-165188091D01*
X245500000Y-165173948D01*
X245485858Y-165188091D01*
X245472453Y-165174686D01*
X245472453Y-164825314D01*
X245485858Y-164811910D01*
X245500000Y-164826052D01*
X245514143Y-164811910D01*
X245533000Y-164830767D01*
G37*
X245533000Y-164830767D02*
X245533000Y-165169233D01*
X245514143Y-165188091D01*
X245500000Y-165173948D01*
X245485858Y-165188091D01*
X245472453Y-165174686D01*
X245472453Y-164825314D01*
X245485858Y-164811910D01*
X245500000Y-164826052D01*
X245514143Y-164811910D01*
X245533000Y-164830767D01*
M02*
